<?xml version="1.0" standalone="no"?>
<!DOCTYPE svg PUBLIC "-//W3C//DTD SVG 1.1//EN" "http://www.w3.org/Graphics/SVG/1.1/DTD/svg11.dtd" >
<svg>
<metadata>
Created by FontForge 20110222 at Mon Apr 28 06:54:34 2014
 By Orthosie Webhosting
Good Girl was inspired by a font in 1960 Modern Teen magazine.  Mail Cathy: cdavies@hamp.hampshire.edu                                      See Cathy's work:  http://charity.artificial.com                                No copyright; use as you wish.
</metadata>
<defs>
<font id="GoodGirl" horiz-adv-x="198" >
  <font-face 
    font-family="GoodGirl"
    font-weight="400"
    font-stretch="normal"
    units-per-em="1000"
    panose-1="0 0 4 0 0 0 0 0 0 0"
    ascent="800"
    descent="-200"
    x-height="706"
    cap-height="719"
    bbox="-3.1 -245 948 1092"
    underline-thickness="20"
    underline-position="-123"
    unicode-range="U+001D-2022"
  />
<missing-glyph horiz-adv-x="500" 
d="M63 0v800h375v-800h-375zM125 63h250v675h-250v-675z" />
    <glyph glyph-name=".notdef" horiz-adv-x="500" 
d="M63 0v800h375v-800h-375zM125 63h250v675h-250v-675z" />
    <glyph glyph-name=".notdef" horiz-adv-x="500" 
d="M63 0v800h375v-800h-375zM125 63h250v675h-250v-675z" />
    <glyph glyph-name=".null" horiz-adv-x="0" 
 />
    <glyph glyph-name="nonmarkingreturn" horiz-adv-x="475" 
 />
    <glyph glyph-name="space" unicode=" " horiz-adv-x="475" 
 />
    <glyph glyph-name="exclam" unicode="!" horiz-adv-x="254" 
d="M246 722l-23 -322q-14 -198 -10 -326q-29 -14 -81 -14q-9 0 -50 1q-30 1 -49 0l-12 6v505q0 43 -11 153q8 12 30.5 11t30.5 7q10 -1 22 -1t36 1t36 1q54 0 81 -22zM206 -164l-10 -6h-168l-10 10l-3 145q30 16 84 16q9 0 49 -1q29 -1 48 0l10 -7v-157z" />
    <glyph glyph-name="quotedbl" unicode="&#x22;" horiz-adv-x="458" 
d="M455 672q-13 -51 -48 -111q-20 -36 -62 -105q-10 -15 -30 -15q-16 0 -27 7q-15 10 -32 15q-12 3 -32 13q13 54 46 129q16 37 53 125q7 17 21 17q15 0 56 -31q28 -22 55 -44zM231 662q-13 -51 -48 -111q-20 -36 -62 -105q-10 -15 -30 -15q-16 0 -27 7q-15 10 -32 15
q-12 3 -32 13q13 54 46 129q16 37 53 125q7 17 21 17q15 0 56 -31q28 -22 55 -44z" />
    <glyph glyph-name="numbersign" unicode="#" 
d="M201 334q-29 -14 -80 -14q-9 0 -51 1q-30 1 -50 0l-10 6v95q0 43 7 69h171l10 -10z" />
    <glyph glyph-name="dollar" unicode="$" horiz-adv-x="543" 
d="M533 460q-32 -7 -73 -7q-58 0 -123 14q-8 25 -15 51q-13 29 -38 29l-31 -2q-23 -2 -29 1h4q-16 -1 -23 -18q2 -55 59 -93q43 -29 97 -60q26 -13 76 -40q19 -11 41 -39.5t29 -49.5q17 -49 17 -128q0 -90 -53 -133q-41 -33 -139 -51l-7 -54l-127 -3q-8 5 -7 25.5t-11 23.5
h-15q-40 0 -73 13q-47 20 -57 58q-6 23 -18 93q-9 51 -9 94q0 27 4 52v0v0h1h4h16l79 1q58 0 89 -11v-140q10 -25 34 -25q12 0 34.5 7.5t34.5 7.5q36 16 36 69q0 26 -3 38q-9 38 -77 70q-42 19 -95 47q-39 32 -94 82q-65 59 -71 114q-1 9 -1 36q0 50 16 84q18 40 58 65
q8 5 27 5q11 0 33 -3t33 -3q41 0 42 39v32q1 22 10 29v0v0h4h9l56 1q38 0 60 -11v-72q13 -7 70 -19q45 -10 65 -34q45 -55 51 -185z" />
    <glyph glyph-name="percent" unicode="%" 
d="M201 334q-29 -14 -80 -14q-9 0 -51 1q-30 1 -50 0l-10 6v95q0 43 7 69h171l10 -10z" />
    <glyph glyph-name="ampersand" unicode="&#x26;" horiz-adv-x="691" 
d="M685 277q0 -27 -35 -71.5t-37 -70.5q5 -16 39 -67q27 -40 27 -70q-28 -18 -55 -36q-35 -20 -59 -25l-38 53q-35 -44 -98 -58q-57 -13 -116 -13q8 0 -19 2q-18 1 -43 1q-105 0 -144 13q-59 20 -78 68q-21 52 -21 144q0 17 3 50.5t3 48.5q0 25 45 51t45 32q0 13 -43 30
q-34 57 -34 147q0 47 9 117q7 57 46 79q51 29 163 29q24 0 111 -6q32 -1 97 -6q26 -3 52 -26t37 -49q21 -48 21 -137q0 7 -8 -100v-3v-2q0 -24 -44.5 -50.5t-44.5 -32.5q0 -14 43 -31l15 -21q14 5 36 44q20 35 42 35q12 0 40 -26q32 -30 42 -35q1 -4 1 -8zM364 501
q0 45 -22 72l-11 11q-30 32 -66 32q-54 0 -87 -39q-17 -48 -17 -76q0 -23 7 -38q10 -23 27 -47q21 -31 83 -31q49 0 71 31q6 8 7 11q8 27 8 74zM445 132q-20 55 -68 93q-51 39 -107 39q-13 0 -32 -15.5t-24 -27.5q-8 -19 -8 -61q0 -60 21 -85q39 -47 88 -47q44 0 82.5 31
t47.5 73z" />
    <glyph glyph-name="quotesingle" unicode="'" horiz-adv-x="230" 
d="M231 662q-13 -51 -48 -111q-20 -36 -62 -105q-10 -15 -30 -15q-16 0 -27 7q-15 10 -32 15q-12 3 -32 13q13 54 46 129q16 37 53 125q7 17 21 17q15 0 56 -31q28 -22 55 -44z" />
    <glyph glyph-name="parenleft" unicode="(" horiz-adv-x="279" 
d="M282 653q0 -63 -8 -102q-43 -2 -64 -46q-7 -89 -7 -189q0 -72 4 -140q0 -18 4.5 -51t13.5 -51q13 -28 36 -39l6 -145q-68 5 -69 5q-41 3 -69 11q-66 18 -100 61q-10 12 -11 15q-3 10 -18 75q0 252 27 516q1 20 6 57q1 5 8 19q29 56 95 82q37 15 146 28v-106z" />
    <glyph glyph-name="parenright" unicode=")" horiz-adv-x="411" 
d="M395 159q0 -106 -22 -183q-24 -83 -81 -122q-17 -12 -26 -15q-13 -2 -36 -6q-43 -10 -87 -19q-51 -11 -88 -11q-13 0 -26 1q-11 25 -11 59q0 35 14 90q76 21 92 67q1 2 5 26q12 79 15 196l4 196q1 9 3 39q2 25 2 38q0 3 -6 20q-16 51 -55 72q-13 7 -27 8q-10 0 -30 4
q-2 12 -2 24q0 25 9.5 73.5t9.5 72.5l8 3q64 -4 91 -8q52 -7 89 -22q50 -19 82 -55q12 -12 14.5 -16t8.5 -27q27 -92 35 -234l10 -183q5 -93 5 -88z" />
    <glyph glyph-name="asterisk" unicode="*" horiz-adv-x="631" 
d="M620 538l-3 -21l-175 -152q23 -41 75 -90q73 -69 85 -82v-14q-18 -28 -60 -66q-49 -46 -64 -63h-6q-21 0 -41 27q-25 33 -35 39q-3 -11 -3 -31q0 -10 1.5 -31t1.5 -32q0 -26 -7 -43q-27 -10 -60 -10q-16 0 -47 3t-47 3q-15 0 -27 -2q-19 24 -19 61q0 19 5 50q6 36 7 49
q-11 -2 -32 -28t-35 -26q-10 0 -17.5 7t-20 19.5t-46.5 43.5q-41 38 -45 69l167 147q-21 38 -74 87q-30 25 -83 79q13 36 52 75l70 61q17 -5 41 -32q27 -32 37 -39l3 142q0 7 15 12q11 3 21 6q12 -4 38 -4q10 0 30.5 1.5t31.5 1.5q37 0 57 -14l-7 -142q13 4 40 35t49 33
q31 -19 67 -61q19 -24 60 -68z" />
    <glyph glyph-name="plus" unicode="+" 
d="M201 334q-29 -14 -80 -14q-9 0 -51 1q-30 1 -50 0l-10 6v95q0 43 7 69h171l10 -10z" />
    <glyph glyph-name="comma" unicode="," horiz-adv-x="230" 
d="M230 32q-13 -51 -48 -111q-20 -36 -62 -105q-10 -15 -30 -15q-16 0 -27 7q-15 10 -32 14q-12 4 -32 14q13 54 46 129q16 37 53 125q7 17 21 17q15 0 56 -31q28 -22 55 -44z" />
    <glyph glyph-name="hyphen" unicode="-" horiz-adv-x="330" 
d="M319 361q0 -15 -5.5 -47t-4.5 -49l-25 -14l-249 8q-22 10 -22 36q0 7 2 21t2 21q0 19 -10 31q13 23 53 25q69 4 175 4q47 0 80 -8q4 -12 4 -28z" />
    <glyph glyph-name="hyphen" unicode="&#x2010;" horiz-adv-x="330" 
d="M319 361q0 -15 -5.5 -47t-4.5 -49l-25 -14l-249 8q-22 10 -22 36q0 7 2 21t2 21q0 19 -10 31q13 23 53 25q69 4 175 4q47 0 80 -8q4 -12 4 -28z" />
    <glyph glyph-name="period" unicode="." 
d="M201 -96q-29 -14 -80 -14q-9 0 -51 1q-30 1 -50 0l-10 6v95q0 43 7 69h171l10 -10z" />
    <glyph glyph-name="slash" unicode="/" 
d="M201 334q-29 -14 -80 -14q-9 0 -51 1q-30 1 -50 0l-10 6v95q0 43 7 69h171l10 -10z" />
    <glyph glyph-name="zero" unicode="0" horiz-adv-x="600" 
d="M594 283q0 -119 -12 -248q-1 -32 -9 -92q-13 -53 -76 -96t-193 -43q-266 0 -284 156q-6 53 -6 132q0 87 9 210l16 211q6 76 38 134q36 67 99 95q36 16 95 19h99h9q54 1 98 -21q59 -29 77 -76q3 -7 12 -53q28 -143 28 -328zM332 202q0 47 -7.5 140t-7.5 140q0 21 -15.5 34
t-37.5 13q-21 0 -36 -13q-20 -36 -23 -103q-5 -96 -5 -111q0 -5 1.5 -17.5t1.5 -19.5q0 -16 -3 -47t-3 -47q0 -63 45 -87q31 -4 38 -4q27 0 45 19q7 47 7 103z" />
    <glyph glyph-name="one" unicode="1" horiz-adv-x="352" 
d="M336 704q-15 -113 -15 -319q0 -153 -5 -402q-33 -12 -89 -12h-7l-102 1l-24 23l36 539l-8 6q-43 -33 -55 -33q-30 0 -50 44q-17 36 -17 70q0 9 2 17q57 48 111 69t127 21q59 0 96 -24z" />
    <glyph glyph-name="two" unicode="2" horiz-adv-x="624" 
d="M630 455q0 -123 -63 -176q-23 -19 -106 -62q-76 -39 -107 -61q-55 -38 -87 -87l339 -5q5 -70 5 -71q0 -38 -13 -60q-64 -36 -170 -36q-36 0 -86 5l-262 26q-24 25 -24 67q0 15 5 54q5 34 3 54q20 49 79 93q34 25 101 71q34 17 100 54q46 28 67 67q7 12 8 16q4 20 4 60
q0 115 -110 115q-26 0 -46 -8q-17 -31 -17 -85q0 -17 2.5 -50t2.5 -49q-39 -11 -112 -11q-79 -1 -113 -8l-4 117v5v0q0 137 58 205q15 19 24 24q2 1 17 6q54 18 126 18q42 0 104 -6l74 -7q10 -1 29 -3q145 -34 159 -129q13 -91 13 -143z" />
    <glyph glyph-name="three" unicode="3" horiz-adv-x="624" 
d="M603 457q0 -32 -3 -68q-2 -10 -4 -30v-3q1 -2 1 -3q0 -26 -49.5 -53.5t-49.5 -33.5q0 -14 47 -35q51 -23 51 -119q0 -41 -12 -113q-14 -77 -28 -105.5t-35 -37.5q-8 -3 -41 -13q-107 -32 -209 -32q-55 0 -83.5 6t-61.5 35q-29 26 -45 54q-29 52 -29 174q0 17 1 34l161 11
q6 -16 7.5 -56t7.5 -55q10 -27 40 -36.5t68 -9.5q42 0 72 13q29 36 29 87q0 121 -114 121q-13 0 -29 -2q-20 16 -20 45q0 12 5 39t4 41q60 12 101 78q4 41 4 61q0 66 -24 92q-14 15 -40 15q-12 0 -37.5 -5t-39.5 -4q-36 -28 -42 -123l-161 6q5 99 16 144q21 80 77 116
q14 9 18 10l61 16q31 -5 81 -5q126 0 157 -6q69 -13 107 -59q5 -7 14 -21l7 -21q20 -73 20 -149z" />
    <glyph glyph-name="four" unicode="4" horiz-adv-x="608" 
d="M596 679l-100 -860h-231l-11 11q30 203 50 370l-248 3l-20 25v487l12 11l82 -10q50 -9 77 -26l8 -261q21 -9 58 -8q43 1 59 -3q11 43 22 122q13 86 21 123q37 21 104 29q10 1 111 6z" />
    <glyph glyph-name="five" unicode="5" horiz-adv-x="576" 
d="M584 86q0 -100 -68 -159q-53 -47 -152 -75q-89 -26 -170 -26q-71 0 -101 23q-51 40 -64 105q-6 31 -6 122q21 12 59 12h69q7 -80 11 -92q16 -46 71 -46q51 0 82 30.5t31 81.5q0 43 -20 64q-26 27 -130 36q-95 8 -131 34l-27 51q-2 45 -3 165l-1 249l23 19h487l11 -13
q-5 -41 -9 -82q-8 -51 -25 -77l-261 -8q-12 -48 -12 -104q0 -12 1 -24l34 -31l188 -56q15 -5 39 -21q62 -41 70 -126q4 -42 4 -52z" />
    <glyph glyph-name="six" unicode="6" horiz-adv-x="704" 
d="M679 524q0 -55 -8 -99l-15 -11h-6q-18 1 -52.5 -3.5t-51.5 -4.5q-37 0 -62 15q0 10 2.5 31t2.5 32q0 44 -28 59q-7 3 -8 3h-32q-23 -1 -31 -1q-16 1 -46 0q-26 -2 -50 -15q-28 -15 -35 -38q-12 -41 -12 -119q0 -27 3 -50h7q33 -1 95 4.5t92 5.5q122 0 176 -61
q17 -20 20 -30q13 -41 13 -147q0 -296 -275 -296q-122 0 -244 45q-47 17 -76 61t-30 95v49q0 301 36 579q12 89 148 129q93 28 215 28q94 0 140 -14q56 -17 85 -66q5 -8 12 -23q15 -47 15 -158zM479 77q0 51 -29 83q-4 4 -13 12q-3 4 -9 11q-24 24 -62 24q-64 0 -96 -43
q-12 -16 -12 -46q0 -3 12 -79q5 -30 29 -48q20 -14 57 -18l31 -3q44 0 69 32q23 29 23 75z" />
    <glyph glyph-name="seven" unicode="7" horiz-adv-x="768" 
d="M754 585l-351 -740q-47 -21 -117 -37q-61 -12 -121 -25q37 139 139 350q55 112 164 335q-75 -11 -176 -37q-87 -25 -174 -49q-36 53 -66 113q-38 78 -38 121q0 11 3 19q44 12 128 31l557 103q11 2 10 2q26 0 29 -33z" />
    <glyph glyph-name="eight" unicode="8" horiz-adv-x="605" 
d="M606 492q0 -77 -8 -108q-4 -18 -54 -48t-50 -41q0 -17 54 -40q39 -16 39 -127q0 -62 -11 -160q-7 -67 -52 -86q-4 -2 -30 -8q-104 -26 -236 -26q-134 0 -178 29q-79 52 -79 240q0 44 5 88q11 22 63 54q47 30 47 38q0 12 -60 36q-51 20 -51 175q0 58 11 110q16 70 48 93
q11 8 70.5 24t118.5 16q39 0 97 -7l96 -12q13 -1 39 -4q31 -5 57.5 -29t39.5 -54q24 -57 24 -153zM389 486q0 51 -23 79l-13 13q-3 4 -10 12q-23 24 -63 24q-50 0 -83 -31q-9 -8 -11 -11q-20 -35 -20 -85q0 -24 11 -48q2 -3 26 -44q20 -34 87 -34q53 0 81 31q8 11 10 16
q8 26 8 78zM438 88q0 66 -34 98q-3 2 -16 11q-50 31 -96 31q-17 0 -38.5 -14.5t-29 -32.5t-7.5 -66q0 -64 23 -93q41 -51 98 -51q12 0 53 16q19 8 29 31q18 41 18 70z" />
    <glyph glyph-name="nine" unicode="9" horiz-adv-x="663" 
d="M660 516q0 -253 -35 -562q-54 -99 -176 -131q-72 -18 -227 -18q-77 0 -88 1q-42 4 -79 46q-41 46 -42 82l-3 206q0 16 23 28h8q17 -1 51.5 3.5t50.5 4.5q37 0 62 -16q0 -10 -2.5 -31t-2.5 -32q0 -55 36 -62h52q56 0 73 3q41 7 61 35q7 11 9 17q11 40 11 118q0 26 -3 49
h-7q-33 1 -95 -4.5t-92 -5.5q-124 0 -178 64q-15 18 -18 27q-7 21 -7 99q0 94 25 204q2 12 8 33q4 9 22 29q63 70 180 70q53 0 141 -15l96 -16q15 -1 42 -6q44 -13 76 -61q7 -9 7.5 -10.5t19.5 -84.5q1 -2 1 -64zM430 471q0 49 -35 117q-39 20 -89 20q-29 0 -56 -8
q-34 -36 -34 -98q0 -40 8 -58q2 -5 13 -20q38 -50 92 -50q43 0 78 30q10 9 12 12q11 16 11 55z" />
    <glyph glyph-name="colon" unicode=":" horiz-adv-x="202" 
d="M194 427q-29 -14 -80 -14q-9 0 -51 1q-30 1 -50 0l-10 6v95q0 43 7 69h171l10 -10zM194 16q-29 -14 -80 -14q-9 0 -51 1q-30 1 -50 0l-10 6v95q0 43 7 69h171l10 -10z" />
    <glyph glyph-name="semicolon" unicode=";" horiz-adv-x="233" 
d="M225 180q-29 -14 -80 -14q-9 0 -51 1q-30 1 -50 0l-10 6v95q0 43 7 69h171l10 -10zM230 32q-13 -51 -48 -111q-20 -36 -62 -105q-10 -15 -30 -15q-16 0 -27 7q-15 10 -32 14q-12 4 -32 14q13 54 46 129q16 37 53 125q7 17 21 17q15 0 56 -31q28 -22 55 -44z" />
    <glyph glyph-name="less" unicode="&#x3c;" horiz-adv-x="279" 
d="M282 653q0 -63 -8 -102q-43 -2 -64 -46q-7 -89 -7 -189q0 -72 4 -140q0 -18 4.5 -51t13.5 -51q13 -28 36 -39l6 -145q-68 5 -69 5q-41 3 -69 11q-66 18 -100 61q-10 12 -11 15q-3 10 -18 75q0 252 27 516q1 20 6 57q1 5 8 19q29 56 95 82q37 15 146 28v-106z" />
    <glyph glyph-name="equal" unicode="=" horiz-adv-x="330" 
d="M319 521q0 -15 -5.5 -47t-4.5 -49l-25 -14l-249 8q-22 10 -22 36q0 7 2 21t2 21q0 19 -10 31q13 23 53 25q69 4 175 4q47 0 80 -8q4 -12 4 -28zM317 316q0 -15 -5.5 -47t-4.5 -49l-25 -14l-249 8q-22 10 -22 36q0 7 2 21t2 21q0 19 -10 31q13 23 53 25q69 4 175 4
q47 0 80 -8q4 -12 4 -28z" />
    <glyph glyph-name="greater" unicode="&#x3e;" horiz-adv-x="411" 
d="M395 159q0 -106 -22 -183q-24 -83 -81 -122q-17 -12 -26 -15q-13 -2 -36 -6q-43 -10 -87 -19q-51 -11 -88 -11q-13 0 -26 1q-11 25 -11 59q0 35 14 90q76 21 92 67q1 2 5 26q12 79 15 196l4 196q1 9 3 39q2 25 2 38q0 3 -6 20q-16 51 -55 72q-13 7 -27 8q-10 0 -30 4
q-2 12 -2 24q0 25 9.5 73.5t9.5 72.5l8 3q64 -4 91 -8q52 -7 89 -22q50 -19 82 -55q12 -12 14.5 -16t8.5 -27q27 -92 35 -234l10 -183q5 -93 5 -88z" />
    <glyph glyph-name="question" unicode="?" horiz-adv-x="565" 
d="M561 514q0 -94 -29 -150q-1 -1 -31 -37l-72 -86q-63 -75 -87 -130q-26 -19 -73 -23q-16 -2 -78 -2h-27q-11 14 -11 31q0 23 29 69q88 139 160 206q27 101 27 124q0 45 -26 71t-71 26q-23 0 -42 -7q-16 -30 -16 -91q0 -14 2 -39.5t2 -37.5q-38 -11 -102 -12
q-80 -2 -104 -5l-4 110v1v-1v-1q0 151 75 211q36 29 106 29q40 0 107 -9q79 -11 107 -13q51 -3 94.5 -35t52.5 -82q11 -61 11 -117zM342 -120q-28 -15 -81 -15h-50q-35 1 -50 1l-10 6v96q0 43 7 69h171l10 -11z" />
    <glyph glyph-name="at" unicode="@" horiz-adv-x="616" 
d="M611 459q-7 -2 -17 -2q-11 0 -34 2.5t-35 2.5q-24 0 -38 -14l11 -218q-43 -5 -49 -5q-27 0 -40 13q0 15 1 54v54q0 58 -12 98h-110v51q0 23 7 35l316 -8v-63zM359 159q-14 -10 -32 -10q-12 0 -39.5 6t-42.5 4q-10 14 -17 60q-6 42 -22 57h-86q-5 -6 -16 -57
q-8 -40 -31 -40q-11 0 -27 8q-36 0 -36 34q0 7 4 17q89 215 117 335q8 -2 20 -2q8 0 24.5 1t24.5 1q38 0 42 -30q12 -84 56 -192q26 -63 36 -94q19 -54 25 -98zM192 347l-21 72l-28 -75z" />
    <glyph glyph-name="A" unicode="A" horiz-adv-x="824" 
d="M817 -97q0 -18 -2 -52.5t-31 -41.5q-77 10 -236 24q-21 19 -28 57l-12 64q-2 9 -7 27l-14 66q-8 38 -20 63h-210l-7 -7l-55 -203q-5 -19 -28 -19q-8 0 -23 5t-21 6q-35 4 -70 9q-40 9 -53 41q6 103 55 188q4 5 10 16q2 7 5 20q9 31 28 74q32 72 32 73q16 41 50 146
q55 172 77 305q9 15 33 36l211 -5q33 -27 47 -76q0 -2 15 -90q28 -170 115 -360q36 -80 139 -366zM431 269q-40 121 -57 182q-49 -122 -70 -185z" />
    <glyph glyph-name="B" unicode="B" horiz-adv-x="528" 
d="M508 563q1 -110 -22 -134q-5 -5 -39 -25q-26 -15 -33 -29q52 -24 65 -66q11 -36 11 -112q0 -62 -14 -136q-1 -9 -5 -24q-1 -3 -7 -11q-23 -30 -70 -41q-12 -3 -84 -10q-29 -3 -28 -3l-239 3l-8 8q8 107 8 237q0 138 -18 561q3 5 26 16q43 -5 101 -5l140 1h-1
q100 -3 136 -19q9 -4 24 -19q56 -56 57 -180v-12zM309 552q0 43 -9 63q-8 17 -27 37q-22 22 -38 25q-8 1 -25 3l-9 1q-19 0 -28 -11v-208q7 -18 42 -18h25q17 1 34.5 14.5t26 30.5t8.5 63zM352 192q0 38 -8 60q-18 50 -83 50h-11q-11 -27 -11 -63q0 -16 2.5 -48.5t2.5 -48.5
q0 -13 -1 -25q13 -11 33 -11q22 0 57 14q19 31 19 72z" />
    <glyph glyph-name="C" unicode="C" horiz-adv-x="616" 
d="M611 536q0 -35 -4 -101l-18 -15h-7q-17 1 -48 -3t-46 -4q-36 0 -59 15v5q-1 11 2.5 32t3.5 31q0 53 -76 53q-46 0 -97 -12q-39 -9 -47 -65q-7 -49 -7 -88q0 -11 1 -28q1 -23 1 -29q1 -27 3 -117q3 -127 23.5 -165t86.5 -38q27 0 64 8q29 29 38 92q4 51 8 103q27 4 54 4
q51 0 95 -15q-3 -58 -13 -174q-9 -79 -56 -126q-14 -14 -22 -19q-31 -19 -104 -19q-14 0 -41.5 1t-40.5 1h-18q-11 -1 -17 -1l-54 8q-29 2 -80 11q-64 17 -99 58q-10 12 -11 14l-21 62q0 316 18 502q2 31 11 92q13 59 69 95q37 24 106 36q28 5 77 13q37 6 38 6h47
q34 -1 48 -1q18 1 54 0q87 -5 116 -71q22 -49 22 -151z" />
    <glyph glyph-name="D" unicode="D" horiz-adv-x="608" 
d="M591 397q0 -89 -41 -302q-12 -63 -46 -109q-39 -51 -96 -66q-97 -25 -214 -25q-74 0 -156 11l-14 14q1 85 8 298q7 190 7 299q0 96 -4 177l21 14q54 2 94 2q189 0 307 -56q31 -15 46 -26q88 -65 88 -231zM328 232q0 167 -29 250q-13 36 -50 55q-6 2 -18 7q-18 9 -28 9
q-18 0 -20 -19q-8 -76 -8 -162q0 -43 1 -129.5t1 -129.5q16 -12 40 -12q27 0 62 15.5t44 47.5q5 17 5 68z" />
    <glyph glyph-name="E" unicode="E" horiz-adv-x="497" 
d="M494 755l-8 -166q-20 -15 -49 -15q-13 0 -31 4q-35 8 -78 8q-20 0 -59 -1t-59 -1q-11 -14 -11 -34q0 -11 4 -33.5t4 -33.5q29 -18 76 -18h-2h3l13 1q32 2 57 3h12q30 1 55 -7l-7 -150l-251 -3q-16 -12 -16 -37q0 -8 2.5 -23.5t2.5 -22.5l15 -11l184 1q38 0 113 2
q11 -21 13 -63q-1 22 -1 -64q0 -14 -26 -29q-33 -2 -69 -2q-62 0 -185.5 6.5t-185.5 6.5l-6 10q9 123 11 334q3 243 7 335l11 8q37 -2 78 -2q57 0 177 6q116 7 177 6h21z" />
    <glyph glyph-name="F" unicode="F" horiz-adv-x="552" 
d="M526 646q0 -11 -2 -33t-2 -33q0 -4 1 -11.5t1 -11.5q0 -21 -21 -21q9 0 -66 5q-87 5 -149 5q-55 0 -98 -4q-19 -12 -19 -40q0 -8 2.5 -23.5t2.5 -22.5l18 -15h262l10 -11q-4 -17 -4 -35q0 -16 4 -46.5t4 -46.5q0 -10 -1 -20q-12 -16 -33 -16q-8 0 -25 3t-26 3
q-5 0 -15 -2t-15 -2q-11 0 -34 3t-35 3q-26 0 -45 -15q-14 -54 -14 -120q0 -11 1.5 -33t1.5 -33t3 -32t3 -32q0 -36 -24 -51h-168l-10 11q1 43 1 89q0 254 -19 626l15 16l464 10q31 -19 31 -64z" />
    <glyph glyph-name="G" unicode="G" horiz-adv-x="552" 
d="M528 491q0 -22 -2 -46q-40 -12 -202 -18q-10 9 -16 56q-6 40 -28 45h-16q-77 0 -101 -15q-32 -20 -32 -110v-18q1 -11 1 -17q0 -21 -3.5 -62t-3.5 -62q0 -102 61 -131q24 -11 62 -11q50 0 73 19q29 24 28 51v3l-10 11q1 0 -85 0q-42 0 -60 18v171l10 11q96 -8 276 -18
l10 -11q1 -13 5 -82q4 -50 4 -82q0 -109 -48 -158q-70 -72 -199 -72q-107 0 -179 54q-46 34 -62 98q-11 42 -11 118v35v35q0 204 12 269q8 47 37 87q32 45 67 53q12 3 93 15q85 12 113 12q66 0 114 -20q14 -6 15 -7q19 -18 39 -39q2 -2 9 -19q29 -66 29 -163z" />
    <glyph glyph-name="H" unicode="H" horiz-adv-x="552" 
d="M524 -38q0 -5 -10 -11.5t-15 -6.5q-125 0 -167 13q3 38 3 82q0 65 -10 191q-20 14 -50 14q-13 0 -37.5 -3t-37.5 -3q-11 0 -21 2q-11 -21 -11 -53q0 -9 2 -34q4 -46 12 -180l-7 -8q-19 -1 -36 -1q-81 0 -120 16q13 139 13 302q0 132 -9 303q25 13 63 13q31 0 65 -8
q7 -19 7 -85q0 -41 6 -60q58 -8 104 -8q28 0 52 3q12 15 12 88q0 29 0 28q-7 39 -8.5 60t-6.5 60l15 12q51 -4 90 -4q51 0 80 7l15 -21q-7 -128 -7 -268q0 -167 11 -391q3 -51 3 -49z" />
    <glyph glyph-name="I" unicode="I" horiz-adv-x="272" 
d="M246 704q-15 -115 -15 -294l-1 -241q1 -46 -2 -137l-11 -6l-175 -4q-22 14 -22 44q0 13 4 40.5t4 42.5q0 10 4 72q18 310 18 362q0 63 -4 118q5 8 37 18q9 -2 30 -2q11 0 34 1t35 1q41 0 64 -15z" />
    <glyph glyph-name="J" unicode="J" horiz-adv-x="520" 
d="M507 467q0 -151 -27 -370l-4 -31q0 -2 -7 -15q-21 -38 -62 -58q-35 -18 -99 -25q-31 -4 -72 -8q-32 -3 -33 -3q-113 0 -142 28q-53 51 -53 185q0 17 3 92h-2h1l3 1h16h74q57 0 85 -16v-6q1 -14 -1.5 -41t-2.5 -39q0 -47 22 -70q13 -4 27 -4q55 0 74 43q12 27 12 90
q0 26 -3.5 76.5t-3.5 74.5q-1 91 -7 294q14 16 48 15q43 -1 53 3q6 -1 13 -1q6 0 18.5 1t18.5 1q32 0 38 -19q0 -1 3 -24q10 -80 10 -174z" />
    <glyph glyph-name="K" unicode="K" horiz-adv-x="552" 
d="M535 659q0 -1 -147 -407q23 -73 70 -204q52 -141 72 -203q0 -17 -22 -20q-31 -5 -37 -5h-52q-31 0 -46 12q-24 65 -76 195q-15 -26 -33 -96q-17 -63 -39 -93h-167l-18 18q7 178 7 333q0 274 -22 507l8 7l199 -4l14 -19q0 -51 -3.5 -153.5t-3.5 -153.5q0 -25 1 -45
q31 66 133 339q11 29 60 29q11 0 33.5 -2.5t33.5 -2.5q11 -6 23 -13.5t12 -18.5z" />
    <glyph glyph-name="L" unicode="L" horiz-adv-x="512" 
d="M498 58l-11 -12h-18q-98 -1 -446 30l-8 11q8 192 8 332q0 183 -13 329l19 14h181q22 0 22 -28q0 -11 -4 -19q-13 -209 -15 -226q-9 -128 -21 -225q4 -7 4 -19q0 -5 -1.5 -15t-1.5 -15q0 -18 11 -27q33 -3 74 -3q29 0 87.5 2t87.5 2q26 0 45 -1v-130z" />
    <glyph glyph-name="M" unicode="M" horiz-adv-x="984" 
d="M948 -183l-6 -9h-29q-94 -1 -175 12q-12 19 -12 50q0 28 -5 81q-5 79 -11 158q-6 94 -21 156q-26 -65 -45 -155q-6 -29 -28 -159q-2 -21 -9 -53q-10 -27 -68 -33q-41 -2 -83 -4q-32 -4 -34 -4q-47 0 -56 36q-6 28 -20 84q-34 124 -102 279q-7 -51 -7 -112q0 -49 6 -147
t6 -147q0 -44 -20 -50q-18 2 -38 2q-22 0 -65.5 -3t-65.5 -3q-30 0 -55 4q-9 29 -8 67v12q0 21 2 60l1 15q-1 2 0 5q1 -1 0 -1q-1 29 -1 62q0 113 12 369q11 238 9 368l12 12h188q20 -19 33 -57q6 -22 20 -65q11 -27 31 -81q25 -67 66 -182q59 -167 107 -258q4 7 25 58
q10 21 27 64q1 4 14 48q65 222 108 441q14 8 36 8t44 -5.5t57 -8.5q39 -3 52 -23q25 -444 108 -891z" />
    <glyph glyph-name="N" unicode="N" horiz-adv-x="632" 
d="M622 739q0 -6 -5 -41q-6 -40 -12 -157q-9 -153 -9 -342q0 -19 4 -380l-20 -17l-184 6l-15 15q-45 163 -180 497v-25q0 -76 10 -181q8 -68 19 -201q-35 -22 -99 -22q-18 0 -54.5 2.5t-53.5 2.5l-14 13q17 259 17 538q0 121 -3 243q17 18 53 18q7 0 19.5 -1t19.5 -1
q15 0 45.5 6.5t45.5 6.5q13 0 24 -4q22 -33 38 -92q25 -90 27 -96q18 -52 37 -105q22 -60 44 -102q5 56 5 126q0 51 -4 152.5t-4 152.5q0 11 16 18q5 1 16 4l8 3h201q8 -14 8 -37z" />
    <glyph glyph-name="O" unicode="O" horiz-adv-x="544" 
d="M544 168q0 -117 -34 -179q-10 -18 -15 -23t-27 -17q-84 -47 -207 -47t-174.5 42t-73.5 123q-15 55 -15 148q0 20 1 61t1 61q0 21 -1 64t-1 64q0 120 28 191q7 16 10 20t18 15q57 42 145 42q74 0 157 -22q98 -26 139 -68q30 -30 33 -107q2 -39 5 -117q1 -32 6 -126
q5 -78 5 -125zM357 279q0 100 -6 176q0 10 -2 28q-1 4 -7 14q-25 39 -79 39q-22 -18 -29 -32q5 -226 5 -228q0 -15 -1.5 -44.5t-1.5 -44.5q0 -68 31 -98q8 -8 13 -10q10 -4 27 -4q31 0 46 21q4 100 4 183z" />
    <glyph glyph-name="P" unicode="P" horiz-adv-x="600" 
d="M595 445q0 -126 -77 -170q-30 -17 -130 -47q-45 -13 -132 -46l-11 -17q2 -64 4 -127q4 -76 16 -126v-4q-1 -7 2 -19.5t3 -18.5q0 -11 -8 -19q-27 -4 -61 -4q-20 0 -84 3q-53 3 -85 1l-11 12l1 426q0 240 -13 405q16 13 63 13q35 0 47 4q169 -4 179 -4q109 -8 172 -39
q69 -34 105 -102q5 -9 12 -26q8 -31 8 -95zM343 488q0 28 -5.5 41.5t-27.5 35.5t-36 23.5t-40 3.5l-9 1h-2h1q-29 0 -44 -13v-174l12 -14q12 -1 24 -1q59 0 107 30q20 26 20 67z" />
    <glyph glyph-name="Q" unicode="Q" horiz-adv-x="784" 
d="M785 -21q-5 -67 -13 -204l-12 -12q-84 -8 -139 -8q-175 0 -269 75q-32 7 -122 11q-82 3 -122 17q-53 18 -82 62q-7 13 -7.5 14t-20.5 106q-1 5 -1 79q0 73 8 241q4 82 13 247q4 55 60 84q13 7 117 35q128 35 202 35q108 0 167 -62q17 -18 24 -31q5 -9 14 -38
q24 -77 24 -180q0 -51 -10 -180q-7 -90 -7 -176q0 -3 -1.5 -10t-1.5 -10q0 -84 -9 -102q20 -9 43 -9t59 11q61 19 63 19q13 0 23 -14zM364 203q0 73 -15 166q-3 22 -12 66q-11 38 -68 38q-22 0 -42 -9q-18 -74 -18 -197q0 -25 1 -76.5t1 -77.5q0 -23 -1 -39q10 -18 34 -26
q5 -1 44 -8v5q0 14 -10 38.5t-10 37.5q0 26 35 53q32 25 61 29z" />
    <glyph glyph-name="R" unicode="R" horiz-adv-x="640" 
d="M632 -139q0 -6 -2 -11q-40 -23 -98 -23q-39 0 -97 11q-29 39 -42 126q-15 99 -29 130q-29 63 -104 78l-14 -13v-32q-1 -122 14 -260l-8 -14l-230 -6l-11 11q11 146 12 329v-36l-1 368q0 28 -7.5 83t-7.5 83l15 17h45q225 2 368 -32q17 -4 49 -14q53 -20 87 -82
q32 -57 32 -118q0 -107 -92 -161q-10 -3 -27.5 -10t-16.5 -20v-4q55 -32 74 -103q0 -1 5 -43l11 -87q11 -86 43 -116t32 -51zM337 444q0 48 -16 66q-12 14 -37 41q-10 2 -34.5 13.5t-39.5 11.5q-11 0 -20 -5l-5 -200l14 -12q71 5 92 13q46 17 46 72z" />
    <glyph glyph-name="S" unicode="S" horiz-adv-x="672" 
d="M677 44q0 -102 -44 -154q-8 -9 -28 -24q-76 -56 -198 -56q-101 0 -251 39q-94 25 -119 111q-21 73 -24 162q34 5 76 5q74 0 172 -16q7 -10 11 -48q4 -30 23 -42q28 -17 63 -17q38 0 63 25q-3 62 -50 107q-29 27 -101 65q-46 24 -72 41q-11 9 -30 23q-13 6 -39 20
q-53 34 -78 91q-8 17 -9 23q0 1 -3 38q-6 71 -6 96q0 153 86 205q49 30 151 40q129 13 173 13q133 0 182 -74q41 -62 41 -249q0 -37 -4 -69q-60 0 -120 1q-70 2 -118 16l3 69q0 11 2 33q0 56 -12 85q-11 26 -40 26q-32 0 -62 -21q-42 -8 -57 -53q-4 -12 -4 -41q0 -64 33 -90
q2 -1 56 -32q104 -59 145 -85q78 -50 132 -102q8 -7 21 -21q36 -48 36 -140z" />
    <glyph glyph-name="T" unicode="T" horiz-adv-x="872" 
d="M861 603l-17 -15l-294 12l-15 -17q0 -14 5 -297q3 -174 15 -294q-23 -7 -52 -7q-16 0 -47.5 3t-47.5 3t-28 -2q-5 4 -31 4q-20 0 -26 13q2 40 2 85q0 70 -8 224q-7 145 -6 224l-21 17h-276l-9 12q4 29 4 106q0 67 8 106q20 8 46 8q17 0 47 -5q35 -7 46 -8q-1 0 36 0l88 1
q66 0 200 -1.5t200 -1.5q97 0 160 2l21 -12v-160z" />
    <glyph glyph-name="U" unicode="U" horiz-adv-x="608" 
d="M602 258q0 -145 -13 -262q-25 -49 -39 -60q-23 -11 -60 -30q-53 -27 -128 -27q-31 0 -90 4q-9 2 -26 5t-70 13q-88 16 -125 46q-48 39 -48 122q0 22 4 66t4 66v14q-1 9 -1 14q0 -2 6 75l11 158q10 139 41 223q25 21 67 21q23 0 41 -5q29 -8 29 -24q0 -93 -6 -245
q-8 -190 -9 -244v-5q-1 -21 11 -40t33 -24q17 -4 46 -4q48 0 56 29q3 11 3 84q0 41 -3.5 123t-3.5 123q0 118 21 206q53 24 114 24q65 0 113 -27q8 -22 8 -58q0 -28 4 -88q10 -137 10 -273z" />
    <glyph glyph-name="V" unicode="V" horiz-adv-x="928" 
d="M921 669q-10 -109 -63 -192q-4 -5 -10 -15q-4 -13 -12 -36q-13 -34 -45 -97.5t-45 -96.5q-18 -47 -50 -198q-23 -110 -54 -171q-8 -16 -9 -17t-38 -37l-236 4q-34 21 -45 78q-14 71 -25 88q-22 119 -126 352l-90 198q-50 116 -73 205q2 13 9 39.5t23 26.5q50 0 137 -11
q99 -12 137 -14q22 -19 31 -55q6 -32 13 -63q23 -92 66 -254q37 -140 80 -247q27 33 52 100q10 27 31 82q5 8 12 25t38 114q29 93 68 224q18 21 48 21q18 0 48 -9q34 -10 47 -12l46 -6q26 -7 35 -26z" />
    <glyph glyph-name="W" unicode="W" horiz-adv-x="904" 
d="M895 731q0 -14 -10 -43t-10 -47q0 4 -12 -70q-39 -250 -78 -684q-65 -27 -143 -27q-13 0 -26 1q-57 246 -117 449v2q0 4 -8 12q-11 -35 -23 -104q-9 -52 -22 -105q-3 -11 -10 -83q-8 -66 -18 -177q-16 -23 -57 -28q-23 -2 -67 -9q-56 -14 -68 -14q-34 0 -41 25l-6 39
l-15 111q-28 189 -38 257q-23 144 -48 255q-11 48 -16 68q-10 38 -23 65q-26 56 -26 93q0 18 5 35q53 16 231 41l21 -46q1 -2 28 -204q16 -121 38 -199q49 188 61 382q22 29 78 29q6 0 56 -3q26 -17 36 -53q6 -22 8.5 -68t8.5 -67t26 -122q15 -74 35 -118q21 74 25 205
q4 152 13 206l15 17l189 7q8 -13 8 -28z" />
    <glyph glyph-name="X" unicode="X" horiz-adv-x="713" 
d="M713 -43q-35 -21 -92 -45q-82 -34 -95 -40l-17 3l-163 262l-66 -122q-36 -71 -53 -128q-16 -9 -35 -9q-20 0 -60.5 13.5t-62.5 12.5q-9 14 -9 32q0 19 10 44q34 83 87 189q25 48 70 146q-209 321 -209 355q0 23 34 38q82 36 108 36q18 0 32 -4t65 -94q59 -106 69 -118
q32 64 98 192q79 -17 187 -53v-29q-113 -187 -163 -294q50 -78 131 -191l134 -188v-8z" />
    <glyph glyph-name="Y" unicode="Y" horiz-adv-x="696" 
d="M699 688q0 -17 -19 -52q-7 -13 -20 -40q-1 -4 -3.5 -11t-47 -85t-109.5 -188q-15 -215 -12 -474l-12 -12l-241 -8l-12 11q21 264 21 403q0 38 -1 75q-49 89 -236 379q-6 9 -6 14q0 13 38 27l168 61q31 -16 55 -64q13 -27 39 -82q13 -26 39 -77q12 -25 37 -74
q88 129 135 227q4 10 13 29q9 16 37 16q37 0 83 -20q54 -23 54 -55z" />
    <glyph glyph-name="Z" unicode="Z" horiz-adv-x="912" 
d="M911 689l-24 -157q-70 -70 -225 -215q-148 -139 -224 -216q116 3 351 17q0 -41 -21 -193l-12 -11q-38 -2 -254 -15l-483 -31l-9 8l12 155l498 457l-416 12q-2 16 -2 36q0 31 8 100q7 65 6 100q20 17 54 17q9 0 28 -1.5t28 -1.5h24.5h24.5q45 0 84 -3l540 -47z" />
    <glyph glyph-name="bracketleft" unicode="[" horiz-adv-x="279" 
d="M282 653q0 -63 -8 -102q-43 -2 -64 -46q-7 -89 -7 -189q0 -72 4 -140q0 -18 4.5 -51t13.5 -51q13 -28 36 -39l6 -145q-68 5 -69 5q-41 3 -69 11q-66 18 -100 61q-10 12 -11 15q-3 10 -18 75q0 252 27 516q1 20 6 57q1 5 8 19q29 56 95 82q37 15 146 28v-106z" />
    <glyph glyph-name="backslash" unicode="\" 
d="M201 334q-29 -14 -80 -14q-9 0 -51 1q-30 1 -50 0l-10 6v95q0 43 7 69h171l10 -10z" />
    <glyph glyph-name="bracketright" unicode="]" horiz-adv-x="411" 
d="M395 159q0 -106 -22 -183q-24 -83 -81 -122q-17 -12 -26 -15q-13 -2 -36 -6q-43 -10 -87 -19q-51 -11 -88 -11q-13 0 -26 1q-11 25 -11 59q0 35 14 90q76 21 92 67q1 2 5 26q12 79 15 196l4 196q1 9 3 39q2 25 2 38q0 3 -6 20q-16 51 -55 72q-13 7 -27 8q-10 0 -30 4
q-2 12 -2 24q0 25 9.5 73.5t9.5 72.5l8 3q64 -4 91 -8q52 -7 89 -22q50 -19 82 -55q12 -12 14.5 -16t8.5 -27q27 -92 35 -234l10 -183q5 -93 5 -88z" />
    <glyph glyph-name="asciicircum" unicode="^" 
d="M201 334q-29 -14 -80 -14q-9 0 -51 1q-30 1 -50 0l-10 6v95q0 43 7 69h171l10 -10z" />
    <glyph glyph-name="underscore" unicode="_" 
d="M201 334q-29 -14 -80 -14q-9 0 -51 1q-30 1 -50 0l-10 6v95q0 43 7 69h171l10 -10z" />
    <glyph glyph-name="grave" unicode="`" 
d="M201 334q-29 -14 -80 -14q-9 0 -51 1q-30 1 -50 0l-10 6v95q0 43 7 69h171l10 -10z" />
    <glyph glyph-name="a" unicode="a" horiz-adv-x="824" 
d="M817 -97q0 -18 -2 -52.5t-31 -41.5q-77 10 -236 24q-21 19 -28 57l-12 64q-2 9 -7 27l-14 66q-8 38 -20 63h-210l-7 -7l-55 -203q-5 -19 -28 -19q-8 0 -23 5t-21 6q-35 4 -70 9q-40 9 -53 41q6 103 55 188q4 5 10 16q2 7 5 20q9 31 28 74q32 72 32 73q16 41 50 146
q55 172 77 305q9 15 33 36l211 -5q33 -27 47 -76q0 -2 15 -90q28 -170 115 -360q36 -80 139 -366zM431 269q-40 121 -57 182q-49 -122 -70 -185z" />
    <glyph glyph-name="b" unicode="b" horiz-adv-x="528" 
d="M508 563q1 -110 -22 -134q-5 -5 -39 -25q-26 -15 -33 -29q52 -24 65 -66q11 -36 11 -112q0 -62 -14 -136q-1 -9 -5 -24q-1 -3 -7 -11q-23 -30 -70 -41q-12 -3 -84 -10q-29 -3 -28 -3l-239 3l-8 8q8 107 8 237q0 138 -18 561q3 5 26 16q43 -5 101 -5l140 1h-1
q100 -3 136 -19q9 -4 24 -19q56 -56 57 -180v-12zM309 552q0 43 -9 63q-8 17 -27 37q-22 22 -38 25q-8 1 -25 3l-9 1q-19 0 -28 -11v-208q7 -18 42 -18h25q17 1 34.5 14.5t26 30.5t8.5 63zM352 192q0 38 -8 60q-18 50 -83 50h-11q-11 -27 -11 -63q0 -16 2.5 -48.5t2.5 -48.5
q0 -13 -1 -25q13 -11 33 -11q22 0 57 14q19 31 19 72z" />
    <glyph glyph-name="c" unicode="c" horiz-adv-x="616" 
d="M611 536q0 -35 -4 -101l-18 -15h-7q-17 1 -48 -3t-46 -4q-36 0 -59 15v5q-1 11 2.5 32t3.5 31q0 53 -76 53q-46 0 -97 -12q-39 -9 -47 -65q-7 -49 -7 -88q0 -11 1 -28q1 -23 1 -29q1 -27 3 -117q3 -127 23.5 -165t86.5 -38q27 0 64 8q29 29 38 92q4 51 8 103q27 4 54 4
q51 0 95 -15q-3 -58 -13 -174q-9 -79 -56 -126q-14 -14 -22 -19q-31 -19 -104 -19q-14 0 -41.5 1t-40.5 1h-18q-11 -1 -17 -1l-54 8q-29 2 -80 11q-64 17 -99 58q-10 12 -11 14l-21 62q0 316 18 502q2 31 11 92q13 59 69 95q37 24 106 36q28 5 77 13q37 6 38 6h47
q34 -1 48 -1q18 1 54 0q87 -5 116 -71q22 -49 22 -151z" />
    <glyph glyph-name="d" unicode="d" horiz-adv-x="608" 
d="M591 397q0 -89 -41 -302q-12 -63 -46 -109q-39 -51 -96 -66q-97 -25 -214 -25q-74 0 -156 11l-14 14q1 85 8 298q7 190 7 299q0 96 -4 177l21 14q54 2 94 2q189 0 307 -56q31 -15 46 -26q88 -65 88 -231zM328 232q0 167 -29 250q-13 36 -50 55q-6 2 -18 7q-18 9 -28 9
q-18 0 -20 -19q-8 -76 -8 -162q0 -43 1 -129.5t1 -129.5q16 -12 40 -12q27 0 62 15.5t44 47.5q5 17 5 68z" />
    <glyph glyph-name="e" unicode="e" horiz-adv-x="497" 
d="M494 755l-8 -166q-20 -15 -49 -15q-13 0 -31 4q-35 8 -78 8q-20 0 -59 -1t-59 -1q-11 -14 -11 -34q0 -11 4 -33.5t4 -33.5q29 -18 76 -18h-2h3l13 1q32 2 57 3h12q30 1 55 -7l-7 -150l-251 -3q-16 -12 -16 -37q0 -8 2.5 -23.5t2.5 -22.5l15 -11l184 1q38 0 113 2
q11 -21 13 -63q-1 22 -1 -64q0 -14 -26 -29q-33 -2 -69 -2q-62 0 -185.5 6.5t-185.5 6.5l-6 10q9 123 11 334q3 243 7 335l11 8q37 -2 78 -2q57 0 177 6q116 7 177 6h21z" />
    <glyph glyph-name="f" unicode="f" horiz-adv-x="552" 
d="M526 646q0 -11 -2 -33t-2 -33q0 -4 1 -11.5t1 -11.5q0 -21 -21 -21q9 0 -66 5q-87 5 -149 5q-55 0 -98 -4q-19 -12 -19 -40q0 -8 2.5 -23.5t2.5 -22.5l18 -15h262l10 -11q-4 -17 -4 -35q0 -16 4 -46.5t4 -46.5q0 -10 -1 -20q-12 -16 -33 -16q-8 0 -25 3t-26 3
q-5 0 -15 -2t-15 -2q-11 0 -34 3t-35 3q-26 0 -45 -15q-14 -54 -14 -120q0 -11 1.5 -33t1.5 -33t3 -32t3 -32q0 -36 -24 -51h-168l-10 11q1 43 1 89q0 254 -19 626l15 16l464 10q31 -19 31 -64z" />
    <glyph glyph-name="g" unicode="g" horiz-adv-x="552" 
d="M528 491q0 -22 -2 -46q-40 -12 -202 -18q-10 9 -16 56q-6 40 -28 45h-16q-77 0 -101 -15q-32 -20 -32 -110v-18q1 -11 1 -17q0 -21 -3.5 -62t-3.5 -62q0 -102 61 -131q24 -11 62 -11q50 0 73 19q29 24 28 51v3l-10 11q1 0 -85 0q-42 0 -60 18v171l10 11q96 -8 276 -18
l10 -11q1 -13 5 -82q4 -50 4 -82q0 -109 -48 -158q-70 -72 -199 -72q-107 0 -179 54q-46 34 -62 98q-11 42 -11 118v35v35q0 204 12 269q8 47 37 87q32 45 67 53q12 3 93 15q85 12 113 12q66 0 114 -20q14 -6 15 -7q19 -18 39 -39q2 -2 9 -19q29 -66 29 -163z" />
    <glyph glyph-name="h" unicode="h" horiz-adv-x="552" 
d="M524 -38q0 -5 -10 -11.5t-15 -6.5q-125 0 -167 13q3 38 3 82q0 65 -10 191q-20 14 -50 14q-13 0 -37.5 -3t-37.5 -3q-11 0 -21 2q-11 -21 -11 -53q0 -9 2 -34q4 -46 12 -180l-7 -8q-19 -1 -36 -1q-81 0 -120 16q13 139 13 302q0 132 -9 303q25 13 63 13q31 0 65 -8
q7 -19 7 -85q0 -41 6 -60q58 -8 104 -8q28 0 52 3q12 15 12 88q0 29 0 28q-7 39 -8.5 60t-6.5 60l15 12q51 -4 90 -4q51 0 80 7l15 -21q-7 -128 -7 -268q0 -167 11 -391q3 -51 3 -49z" />
    <glyph glyph-name="i" unicode="i" horiz-adv-x="272" 
d="M246 704q-15 -115 -15 -294l-1 -241q1 -46 -2 -137l-11 -6l-175 -4q-22 14 -22 44q0 13 4 40.5t4 42.5q0 10 4 72q18 310 18 362q0 63 -4 118q5 8 37 18q9 -2 30 -2q11 0 34 1t35 1q41 0 64 -15z" />
    <glyph glyph-name="j" unicode="j" horiz-adv-x="520" 
d="M507 467q0 -151 -27 -370l-4 -31q0 -2 -7 -15q-21 -38 -62 -58q-35 -18 -99 -25q-31 -4 -72 -8q-32 -3 -33 -3q-113 0 -142 28q-53 51 -53 185q0 17 3 92h-2h1l3 1h16h74q57 0 85 -16v-6q1 -14 -1.5 -41t-2.5 -39q0 -47 22 -70q13 -4 27 -4q55 0 74 43q12 27 12 90
q0 26 -3.5 76.5t-3.5 74.5q-1 91 -7 294q14 16 48 15q43 -1 53 3q6 -1 13 -1q6 0 18.5 1t18.5 1q32 0 38 -19q0 -1 3 -24q10 -80 10 -174z" />
    <glyph glyph-name="k" unicode="k" horiz-adv-x="552" 
d="M535 659q0 -1 -147 -407q23 -73 70 -204q52 -141 72 -203q0 -17 -22 -20q-31 -5 -37 -5h-52q-31 0 -46 12q-24 65 -76 195q-15 -26 -33 -96q-17 -63 -39 -93h-167l-18 18q7 178 7 333q0 274 -22 507l8 7l199 -4l14 -19q0 -51 -3.5 -153.5t-3.5 -153.5q0 -25 1 -45
q31 66 133 339q11 29 60 29q11 0 33.5 -2.5t33.5 -2.5q11 -6 23 -13.5t12 -18.5z" />
    <glyph glyph-name="l" unicode="l" horiz-adv-x="512" 
d="M498 58l-11 -12h-18q-98 -1 -446 30l-8 11q8 192 8 332q0 183 -13 329l19 14h181q22 0 22 -28q0 -11 -4 -19q-13 -209 -15 -226q-9 -128 -21 -225q4 -7 4 -19q0 -5 -1.5 -15t-1.5 -15q0 -18 11 -27q33 -3 74 -3q29 0 87.5 2t87.5 2q26 0 45 -1v-130z" />
    <glyph glyph-name="m" unicode="m" horiz-adv-x="984" 
d="M948 -183l-6 -9h-29q-94 -1 -175 12q-12 19 -12 50q0 28 -5 81q-5 79 -11 158q-6 94 -21 156q-26 -65 -45 -155q-6 -29 -28 -159q-2 -21 -9 -53q-10 -27 -68 -33q-41 -2 -83 -4q-32 -4 -34 -4q-47 0 -56 36q-6 28 -20 84q-34 124 -102 279q-7 -51 -7 -112q0 -49 6 -147
t6 -147q0 -44 -20 -50q-18 2 -38 2q-22 0 -65.5 -3t-65.5 -3q-30 0 -55 4q-9 29 -8 67v12q0 21 2 60l1 15q-1 2 0 5q1 -1 0 -1q-1 29 -1 62q0 113 12 369q11 238 9 368l12 12h188q20 -19 33 -57q6 -22 20 -65q11 -27 31 -81q25 -67 66 -182q59 -167 107 -258q4 7 25 58
q10 21 27 64q1 4 14 48q65 222 108 441q14 8 36 8t44 -5.5t57 -8.5q39 -3 52 -23q25 -444 108 -891z" />
    <glyph glyph-name="n" unicode="n" horiz-adv-x="632" 
d="M622 739q0 -6 -5 -41q-6 -40 -12 -157q-9 -153 -9 -342q0 -19 4 -380l-20 -17l-184 6l-15 15q-45 163 -180 497v-25q0 -76 10 -181q8 -68 19 -201q-35 -22 -99 -22q-18 0 -54.5 2.5t-53.5 2.5l-14 13q17 259 17 538q0 121 -3 243q17 18 53 18q7 0 19.5 -1t19.5 -1
q15 0 45.5 6.5t45.5 6.5q13 0 24 -4q22 -33 38 -92q25 -90 27 -96q18 -52 37 -105q22 -60 44 -102q5 56 5 126q0 51 -4 152.5t-4 152.5q0 11 16 18q5 1 16 4l8 3h201q8 -14 8 -37z" />
    <glyph glyph-name="o" unicode="o" horiz-adv-x="544" 
d="M544 168q0 -117 -34 -179q-10 -18 -15 -23t-27 -17q-84 -47 -207 -47t-174.5 42t-73.5 123q-15 55 -15 148q0 20 1 61t1 61q0 21 -1 64t-1 64q0 120 28 191q7 16 10 20t18 15q57 42 145 42q74 0 157 -22q98 -26 139 -68q30 -30 33 -107q2 -39 5 -117q1 -32 6 -126
q5 -78 5 -125zM357 279q0 100 -6 176q0 10 -2 28q-1 4 -7 14q-25 39 -79 39q-22 -18 -29 -32q5 -228 5 -232q0 -14 -1.5 -43t-1.5 -43q0 -67 31 -97q8 -8 13 -10q10 -4 27 -4q31 0 46 21q4 100 4 183z" />
    <glyph glyph-name="p" unicode="p" horiz-adv-x="600" 
d="M595 445q0 -126 -77 -170q-30 -17 -130 -47q-45 -13 -132 -46l-11 -17q2 -64 4 -127q4 -76 16 -126v-4q-1 -7 2 -19.5t3 -18.5q0 -11 -8 -19q-27 -4 -61 -4q-20 0 -84 3q-53 3 -85 1l-11 12l1 426q0 240 -13 405q16 13 63 13q35 0 47 4q169 -4 179 -4q109 -8 172 -39
q69 -34 105 -102q5 -9 12 -26q8 -31 8 -95zM343 488q0 28 -5.5 41.5t-27.5 35.5t-36 23.5t-40 3.5l-9 1h-2h1q-29 0 -44 -13v-174l12 -14q12 -1 24 -1q59 0 107 30q20 26 20 67z" />
    <glyph glyph-name="q" unicode="q" horiz-adv-x="784" 
d="M785 -21q-5 -67 -13 -204l-12 -12q-84 -8 -139 -8q-175 0 -269 75q-32 7 -122 11q-82 3 -122 17q-53 18 -82 62q-7 13 -7.5 14t-20.5 106q-1 5 -1 79q0 73 8 241q4 82 13 247q4 55 60 84q13 7 117 35q128 35 202 35q108 0 167 -62q17 -18 24 -31q5 -9 14 -38
q24 -77 24 -180q0 -51 -10 -180q-7 -90 -7 -176q0 -3 -1.5 -10t-1.5 -10q0 -84 -9 -102q20 -9 43 -9t59 11q61 19 63 19q13 0 23 -14zM364 203q0 73 -15 166q-3 22 -12 66q-11 38 -68 38q-22 0 -42 -9q-18 -74 -18 -197q0 -25 1 -76.5t1 -77.5q0 -23 -1 -39q10 -18 34 -26
q5 -1 44 -8v5q0 14 -10 38.5t-10 37.5q0 26 35 53q32 25 61 29z" />
    <glyph glyph-name="r" unicode="r" horiz-adv-x="640" 
d="M632 -139q0 -6 -2 -11q-40 -23 -98 -23q-39 0 -97 11q-29 39 -42 126q-15 99 -29 130q-29 63 -104 78l-14 -13v-32q-1 -122 14 -260l-8 -14l-230 -6l-11 11q11 146 12 329v-36l-1 368q0 28 -7.5 83t-7.5 83l15 17h45q225 2 368 -32q17 -4 49 -14q53 -20 87 -82
q32 -57 32 -118q0 -107 -92 -161q-10 -3 -27.5 -10t-16.5 -20v-4q55 -32 74 -103q0 -1 5 -43l11 -87q11 -86 43 -116t32 -51zM337 444q0 48 -16 66q-12 14 -37 41q-10 2 -34.5 13.5t-39.5 11.5q-11 0 -20 -5l-5 -200l14 -12q71 5 92 13q46 17 46 72z" />
    <glyph glyph-name="s" unicode="s" horiz-adv-x="672" 
d="M677 44q0 -102 -44 -154q-8 -9 -28 -24q-76 -56 -198 -56q-101 0 -251 39q-94 25 -119 111q-21 73 -24 162q34 5 76 5q74 0 172 -16q7 -10 11 -48q4 -30 23 -42q28 -17 63 -17q38 0 63 25q-3 62 -50 107q-29 27 -101 65q-46 24 -72 41q-11 9 -30 23q-13 6 -39 20
q-53 34 -78 91q-8 17 -9 23q0 1 -3 38q-6 71 -6 96q0 153 86 205q49 30 151 40q129 13 173 13q133 0 182 -74q41 -62 41 -249q0 -37 -4 -69q-60 0 -120 1q-70 2 -118 16l3 69q0 11 2 33q0 56 -12 85q-11 26 -40 26q-32 0 -62 -21q-42 -8 -57 -53q-4 -12 -4 -41q0 -64 33 -90
q2 -1 56 -32q104 -59 145 -85q78 -50 132 -102q8 -7 21 -21q36 -48 36 -140z" />
    <glyph glyph-name="t" unicode="t" horiz-adv-x="872" 
d="M861 603l-17 -15l-294 12l-15 -17q0 -14 5 -297q3 -174 15 -294q-23 -7 -52 -7q-16 0 -47.5 3t-47.5 3t-28 -2q-5 4 -31 4q-20 0 -26 13q2 40 2 85q0 70 -8 224q-7 145 -6 224l-21 17h-276l-9 12q4 29 4 106q0 67 8 106q20 8 46 8q17 0 47 -5q35 -7 46 -8q-1 0 36 0l88 1
q66 0 200 -1.5t200 -1.5q97 0 160 2l21 -12v-160z" />
    <glyph glyph-name="u" unicode="u" horiz-adv-x="608" 
d="M602 258q0 -145 -13 -262q-25 -49 -39 -60q-23 -11 -60 -30q-53 -27 -128 -27q-31 0 -90 4q-9 2 -26 5t-70 13q-88 16 -125 46q-48 39 -48 122q0 22 4 66t4 66v14q-1 9 -1 14q0 -2 6 75l11 158q10 139 41 223q25 21 67 21q23 0 41 -5q29 -8 29 -24q0 -93 -6 -245
q-8 -190 -9 -244v-5q-1 -21 11 -40t33 -24q17 -4 46 -4q48 0 56 29q3 11 3 84q0 41 -3.5 123t-3.5 123q0 118 21 206q53 24 114 24q65 0 113 -27q8 -22 8 -58q0 -28 4 -88q10 -137 10 -273z" />
    <glyph glyph-name="v" unicode="v" horiz-adv-x="928" 
d="M921 669q-10 -109 -63 -192q-4 -5 -10 -15q-4 -13 -12 -36q-13 -34 -45 -97.5t-45 -96.5q-18 -47 -50 -198q-23 -110 -54 -171q-8 -16 -9 -17t-38 -37l-236 4q-34 21 -45 78q-14 71 -25 88q-22 119 -126 352l-90 198q-50 116 -73 205q2 13 9 39.5t23 26.5q50 0 137 -11
q99 -12 137 -14q22 -19 31 -55q6 -32 13 -63q23 -92 66 -254q37 -140 80 -247q27 33 52 100q10 27 31 82q5 8 12 25t38 114q29 93 68 224q18 21 48 21q18 0 48 -9q34 -10 47 -12l46 -6q26 -7 35 -26z" />
    <glyph glyph-name="w" unicode="w" horiz-adv-x="904" 
d="M895 731q0 -14 -10 -43t-10 -47q0 4 -12 -70q-39 -250 -78 -684q-65 -27 -143 -27q-13 0 -26 1q-57 246 -117 449v2q0 4 -8 12q-11 -35 -23 -104q-9 -52 -22 -105q-3 -11 -10 -83q-8 -66 -18 -177q-16 -23 -57 -28q-23 -2 -67 -9q-56 -14 -68 -14q-34 0 -41 25l-6 39
l-15 111q-28 189 -38 257q-23 144 -48 255q-11 48 -16 68q-10 38 -23 65q-26 56 -26 93q0 18 5 35q53 16 231 41l21 -46q1 -2 28 -204q16 -121 38 -199q49 188 61 382q22 29 78 29q6 0 56 -3q26 -17 36 -53q6 -22 8.5 -68t8.5 -67t26 -122q15 -74 35 -118q21 74 25 205
q4 152 13 206l15 17l189 7q8 -13 8 -28z" />
    <glyph glyph-name="x" unicode="x" horiz-adv-x="713" 
d="M713 -43q-35 -21 -92 -45q-82 -34 -95 -40l-17 3l-163 262l-66 -122q-36 -71 -53 -128q-16 -9 -35 -9q-20 0 -60.5 13.5t-62.5 12.5q-9 14 -9 32q0 19 10 44q34 83 87 189q25 48 70 146q-209 321 -209 355q0 23 34 38q82 36 108 36q18 0 32 -4t65 -94q59 -106 69 -118
q32 64 98 192q79 -17 187 -53v-29q-113 -187 -163 -294q50 -78 131 -191l134 -188v-8z" />
    <glyph glyph-name="y" unicode="y" horiz-adv-x="696" 
d="M699 688q0 -17 -19 -52q-7 -13 -20 -40q-1 -4 -3.5 -11t-47 -85t-109.5 -188q-15 -215 -12 -474l-12 -12l-241 -8l-12 11q21 264 21 403q0 38 -1 75q-49 89 -236 379q-6 9 -6 14q0 13 38 27l168 61q31 -16 55 -64q13 -27 39 -82q13 -26 39 -77q12 -25 37 -74
q88 129 135 227q4 10 13 29q9 16 37 16q37 0 83 -20q54 -23 54 -55z" />
    <glyph glyph-name="z" unicode="z" horiz-adv-x="912" 
d="M911 689l-24 -157q-70 -70 -225 -215q-148 -139 -224 -216q116 3 351 17q0 -41 -21 -193l-12 -11q-38 -2 -254 -15l-483 -31l-9 8l12 155l498 457l-416 12q-2 16 -2 36q0 31 8 100q7 65 6 100q20 17 54 17q9 0 28 -1.5t28 -1.5h24.5h24.5q45 0 84 -3l540 -47z" />
    <glyph glyph-name="braceleft" unicode="{" horiz-adv-x="279" 
d="M282 653q0 -63 -8 -102q-43 -2 -64 -46q-7 -89 -7 -189q0 -72 4 -140q0 -18 4.5 -51t13.5 -51q13 -28 36 -39l6 -145q-68 5 -69 5q-41 3 -69 11q-66 18 -100 61q-10 12 -11 15q-3 10 -18 75q0 252 27 516q1 20 6 57q1 5 8 19q29 56 95 82q37 15 146 28v-106z" />
    <glyph glyph-name="bar" unicode="|" 
d="M201 334q-29 -14 -80 -14q-9 0 -51 1q-30 1 -50 0l-10 6v95q0 43 7 69h171l10 -10z" />
    <glyph glyph-name="braceright" unicode="}" horiz-adv-x="411" 
d="M395 159q0 -106 -22 -183q-24 -83 -81 -122q-17 -12 -26 -15q-13 -2 -36 -6q-43 -10 -87 -19q-51 -11 -88 -11q-13 0 -26 1q-11 25 -11 59q0 35 14 90q76 21 92 67q1 2 5 26q12 79 15 196l4 196q1 9 3 39q2 25 2 38q0 3 -6 20q-16 51 -55 72q-13 7 -27 8q-10 0 -30 4
q-2 12 -2 24q0 25 9.5 73.5t9.5 72.5l8 3q64 -4 91 -8q52 -7 89 -22q50 -19 82 -55q12 -12 14.5 -16t8.5 -27q27 -92 35 -234l10 -183q5 -93 5 -88z" />
    <glyph glyph-name="asciitilde" unicode="~" 
d="M201 334q-29 -14 -80 -14q-9 0 -51 1q-30 1 -50 0l-10 6v95q0 43 7 69h171l10 -10z" />
    <glyph glyph-name="uni00A0" unicode="&#xa0;" horiz-adv-x="475" 
 />
    <glyph glyph-name="exclamdown" unicode="&#xa1;" horiz-adv-x="254" 
d="M246 722l-23 -322q-14 -198 -10 -326q-29 -14 -81 -14q-9 0 -50 1q-30 1 -49 0l-12 6v505q0 43 -11 153q8 12 30.5 11t30.5 7q10 -1 22 -1t36 1t36 1q54 0 81 -22zM206 -164l-10 -6h-168l-10 10l-3 145q30 16 84 16q9 0 49 -1q29 -1 48 0l10 -7v-157z" />
    <glyph glyph-name="Aacute" unicode="&#xc1;" horiz-adv-x="827" 
d="M609 905q-13 -51 -48 -111q-20 -36 -62 -105q-10 -15 -30 -15q-16 0 -27 7q-15 10 -32 15q-12 3 -32 13q13 54 46 129q16 37 53 125q7 17 21 17q15 0 56 -31q28 -22 55 -44zM825 -111q0 -16 -2 -45t-31 -35q-78 8 -239 20q-21 16 -28 49l-12 54q-2 8 -7 23l-14 56
q-8 32 -20 53h-212l-8 -5l-55 -173q-5 -16 -28 -16q-8 0 -23.5 4t-21.5 5l-70 8q-41 8 -54 35q6 87 56 159q4 5 10 14q2 6 5 17q9 26 28 63q32 61 32 62q16 35 51 124q55 146 78 259q9 13 33 31l213 -5q33 -22 47 -64q0 -2 16 -77q28 -144 116 -305q36 -68 140 -311z
M435 200q-40 102 -57 154q-50 -103 -71 -157z" />
    <glyph glyph-name="Eacute" unicode="&#xc9;" horiz-adv-x="497" 
d="M408 916q-13 -51 -48 -111q-20 -36 -62 -105q-10 -15 -30 -15q-16 0 -27 7q-15 10 -32 15q-12 3 -32 13q13 54 46 129q16 37 53 125q7 17 21 17q15 0 56 -31q28 -22 55 -44zM494 643l-8 -166q-20 -15 -49 -15q-13 0 -31 4q-35 8 -78 8q-20 0 -59 -1t-59 -1
q-11 -14 -11 -34q0 -11 4 -33.5t4 -33.5q29 -18 76 -18h-2h3l13 1q32 2 57 3h12q30 1 55 -7l-7 -150l-251 -3q-16 -12 -16 -37q0 -8 2.5 -23.5t2.5 -22.5l15 -11l184 1q38 0 113 2q11 -21 13 -63q-1 22 -1 -64q0 -14 -26 -29q-33 -2 -69 -2q-62 0 -185.5 6.5t-185.5 6.5
l-6 10q9 123 11 334q3 243 7 335l11 8q37 -2 78 -2q57 0 177 6q116 7 177 6h21z" />
    <glyph glyph-name="Igrave" unicode="&#xcc;" horiz-adv-x="272" 
d="M246 704q-15 -115 -15 -294l-1 -241q1 -46 -2 -137l-11 -6l-175 -4q-22 14 -22 44q0 13 4 40.5t4 42.5q0 10 4 72q18 310 18 362q0 63 -4 118q5 8 37 18q9 -2 30 -2q11 0 34 1t35 1q41 0 64 -15zM231 334q-29 -14 -80 -14q-9 0 -51 1q-30 1 -50 0l-10 6v95q0 43 7 69h171
l10 -10z" />
    <glyph glyph-name="Iacute" unicode="&#xcd;" horiz-adv-x="267" 
d="M246 704q-15 -115 -15 -294l-1 -241q1 -46 -2 -137l-11 -6l-175 -4q-22 14 -22 44q0 13 4 40.5t4 42.5q0 10 4 72q18 310 18 362q0 63 -4 118q5 8 37 18q9 -2 30 -2q11 0 34 1t35 1q41 0 64 -15zM323 983q-13 -51 -48 -111q-20 -36 -62 -105q-10 -15 -30 -15q-16 0 -27 7
q-15 10 -32 15q-12 3 -32 13q13 54 46 129q16 37 53 125q7 17 21 17q15 0 56 -31q28 -22 55 -44z" />
    <glyph glyph-name="Oacute" unicode="&#xd3;" horiz-adv-x="548" 
d="M459 1017q-23 -44 -48 -111q-20 -36 -62 -105q-10 -15 -30 -15q-16 0 -27 7q-15 10 -32 15q-12 3 -32 13q13 54 46 129q16 37 53 125q7 17 21 17q15 0 56 -31q28 -22 55 -44zM544 168q0 -117 -34 -179q-10 -18 -15 -23t-27 -17q-84 -47 -207 -47t-174.5 42t-73.5 123
q-15 55 -15 148q0 20 1 61t1 61q0 21 -1 64t-1 64q0 120 28 191q7 16 10 20t18 15q57 42 145 42q74 0 157 -22q98 -26 139 -68q30 -30 33 -107q2 -39 5 -117q1 -32 6 -126q5 -78 5 -125zM357 279q0 100 -6 176q0 10 -2 28q-1 4 -7 14q-25 39 -79 39q-22 -18 -29 -32
q5 -228 5 -232q0 -14 -1.5 -43t-1.5 -43q0 -67 31 -97q8 -8 13 -10q10 -4 27 -4q31 0 46 21q4 100 4 183z" />
    <glyph glyph-name="Odieresis" unicode="&#xd6;" horiz-adv-x="548" 
d="M231 807q-29 -14 -80 -14q-9 0 -51 1q-30 1 -50 0l-10 6v95q0 43 7 69l192 -8l-7 -2zM485 807q-29 -14 -80 -14q-9 0 -51 1q-30 1 -50 0l-10 6v95q0 43 7 69h171l10 -10zM544 168q0 -117 -34 -179q-10 -18 -15 -23t-27 -17q-84 -47 -207 -47t-174.5 42t-73.5 123
q-15 55 -15 148q0 20 1 61t1 61q0 21 -1 64t-1 64q0 120 28 191q7 16 10 20t18 15q57 42 145 42q74 0 157 -22q98 -26 139 -68q30 -30 33 -107q2 -39 5 -117q1 -32 6 -126q5 -78 5 -125zM357 279q0 100 -6 176q0 10 -2 28q-1 4 -7 14q-25 39 -79 39q-22 -18 -29 -32
q5 -228 5 -232q0 -14 -1.5 -43t-1.5 -43q0 -67 31 -97q8 -8 13 -10q10 -4 27 -4q31 0 46 21q4 100 4 183z" />
    <glyph glyph-name="Uacute" unicode="&#xda;" horiz-adv-x="603" 
d="M454 960q-13 -51 -48 -111q-20 -36 -62 -105q-10 -15 -30 -15q-16 0 -27 7q-15 10 -32 15q-12 3 -32 13q13 54 46 129q16 37 53 125q7 17 21 17q15 0 56 -31q28 -22 55 -44zM602 258q0 -145 -13 -262q-25 -49 -39 -60q-23 -11 -60 -30q-53 -27 -128 -27q-31 0 -90 4
q-9 2 -26 5t-70 13q-88 16 -125 46q-48 39 -48 122q0 22 4 66t4 66v14q-1 9 -1 14q0 -2 6 75l11 158q10 139 41 223q25 21 67 21q23 0 41 -5q29 -8 29 -24q0 -93 -6 -245q-8 -190 -9 -244v-5q-1 -21 11 -40t33 -24q17 -4 46 -4q48 0 56 29q3 11 3 84q0 41 -3.5 123t-3.5 123
q0 118 21 206q53 24 114 24q65 0 113 -27q8 -22 8 -58q0 -28 4 -88q10 -137 10 -273z" />
    <glyph glyph-name="Udieresis" unicode="&#xdc;" horiz-adv-x="610" 
d="M564 787q-29 -14 -80 -14q-9 0 -51 1q-30 1 -50 0l-10 6v95q0 43 7 69h171l10 -10zM273 773q-29 -14 -80 -14q-9 0 -51 1q-30 1 -50 0l-10 6v95q0 43 7 69h171l10 -10zM606 258q0 -145 -13 -262q-25 -49 -39 -60q-23 -11 -60 -30q-53 -27 -128 -27q-31 0 -90 4
q-9 2 -26 5t-70 13q-88 16 -125 46q-48 39 -48 122q0 22 4 66t4 66v14q-1 9 -1 14q0 -2 6 75l11 158q10 139 41 223q25 21 67 21q23 0 41 -5q29 -8 29 -24q0 -93 -6 -245q-8 -190 -9 -244v-5q-1 -21 11 -40t33 -24q17 -4 46 -4q48 0 56 29q3 11 3 84q0 41 -3.5 123t-3.5 123
q0 118 21 206q53 24 114 24q65 0 113 -27q8 -22 8 -58q0 -28 4 -88q10 -137 10 -273z" />
    <glyph glyph-name="aacute" unicode="&#xe1;" horiz-adv-x="824" 
d="M609 905q-13 -51 -48 -111q-20 -36 -62 -105q-10 -15 -30 -15q-16 0 -27 7q-15 10 -32 15q-12 3 -32 13q13 54 46 129q16 37 53 125q7 17 21 17q15 0 56 -31q28 -22 55 -44zM825 -111q0 -16 -2 -45t-31 -35q-78 8 -239 20q-21 16 -28 49l-12 54q-2 8 -7 23l-14 56
q-8 32 -20 53h-212l-8 -5l-55 -173q-5 -16 -28 -16q-8 0 -23.5 4t-21.5 5l-70 8q-41 8 -54 35q6 87 56 159q4 5 10 14q2 6 5 17q9 26 28 63q32 61 32 62q16 35 51 124q55 146 78 259q9 13 33 31l213 -5q33 -22 47 -64q0 -2 16 -77q28 -144 116 -305q36 -68 140 -311z
M435 200q-40 102 -57 154q-50 -103 -71 -157z" />
    <glyph glyph-name="eacute" unicode="&#xe9;" horiz-adv-x="496" 
d="M408 916q-13 -51 -48 -111q-20 -36 -62 -105q-10 -15 -30 -15q-16 0 -27 7q-15 10 -32 15q-12 3 -32 13q13 54 46 129q16 37 53 125q7 17 21 17q15 0 56 -31q28 -22 55 -44zM494 643l-8 -166q-20 -15 -49 -15q-13 0 -31 4q-35 8 -78 8q-20 0 -59 -1t-59 -1
q-11 -14 -11 -34q0 -11 4 -33.5t4 -33.5q29 -18 76 -18h-2h3l13 1q32 2 57 3h12q30 1 55 -7l-7 -150l-251 -3q-16 -12 -16 -37q0 -8 2.5 -23.5t2.5 -22.5l15 -11l184 1q38 0 113 2q11 -21 13 -63q-1 22 -1 -64q0 -14 -26 -29q-33 -2 -69 -2q-62 0 -185.5 6.5t-185.5 6.5
l-6 10q9 123 11 334q3 243 7 335l11 8q37 -2 78 -2q57 0 177 6q116 7 177 6h21z" />
    <glyph glyph-name="iacute" unicode="&#xed;" horiz-adv-x="279" 
d="M246 704q-15 -115 -15 -294l-1 -241q1 -46 -2 -137l-11 -6l-175 -4q-22 14 -22 44q0 13 4 40.5t4 42.5q0 10 4 72q18 310 18 362q0 63 -4 118q5 8 37 18q9 -2 30 -2q11 0 34 1t35 1q41 0 64 -15zM323 983q-13 -51 -48 -111q-20 -36 -62 -105q-10 -15 -30 -15q-16 0 -27 7
q-15 10 -32 15q-12 3 -32 13q13 54 46 129q16 37 53 125q7 17 21 17q15 0 56 -31q28 -22 55 -44z" />
    <glyph glyph-name="idieresis" unicode="&#xef;" horiz-adv-x="833" 
 />
    <glyph glyph-name="oacute" unicode="&#xf3;" horiz-adv-x="544" 
d="M459 1017q-23 -44 -48 -111q-20 -36 -62 -105q-10 -15 -30 -15q-16 0 -27 7q-15 10 -32 15q-12 3 -32 13q13 54 46 129q16 37 53 125q7 17 21 17q15 0 56 -31q28 -22 55 -44zM544 168q0 -117 -34 -179q-10 -18 -15 -23t-27 -17q-84 -47 -207 -47t-174.5 42t-73.5 123
q-15 55 -15 148q0 20 1 61t1 61q0 21 -1 64t-1 64q0 120 28 191q7 16 10 20t18 15q57 42 145 42q74 0 157 -22q98 -26 139 -68q30 -30 33 -107q2 -39 5 -117q1 -32 6 -126q5 -78 5 -125zM357 279q0 100 -6 176q0 10 -2 28q-1 4 -7 14q-25 39 -79 39q-22 -18 -29 -32
q5 -228 5 -232q0 -14 -1.5 -43t-1.5 -43q0 -67 31 -97q8 -8 13 -10q10 -4 27 -4q31 0 46 21q4 100 4 183z" />
    <glyph glyph-name="ocircumflex" unicode="&#xf4;" horiz-adv-x="544" 
d="M548 907q-13 -51 -48 -111q-20 -36 -62 -105q-10 -15 -30 -15q-16 0 -27 7q-15 10 -32 15q-12 3 -32 13q13 54 46 129q16 37 53 125q7 17 21 17q15 0 56 -31q28 -22 55 -44zM324 897q-13 -51 -48 -111q-20 -36 -62 -105q-10 -15 -30 -15q-16 0 -27 7q-15 10 -32 15
q-12 3 -32 13q13 54 46 129q16 37 53 125q7 17 21 17q15 0 56 -31q28 -22 55 -44zM546 165q0 -103 -34 -158q-10 -16 -15 -20t-27 -15q-84 -41 -206 -41q-123 0 -174.5 37t-73.5 108q-15 48 -15 130q0 18 1 54t1 54t-1 56t-1 57q0 105 28 168q7 14 10 17.5t18 13.5
q57 37 145 37q73 0 156 -20q98 -23 139 -60q30 -26 33 -94q2 -34 5 -103q1 -28 6 -111q5 -69 5 -110zM359 263q0 88 -6 155q0 9 -2 24q-1 4 -7 13q-25 34 -78 34q-22 -16 -29 -28q5 -201 5 -204q0 -13 -1.5 -38.5t-1.5 -37.5q0 -59 31 -86q7 -7 12 -8q10 -4 27 -4
q31 0 46 19q4 88 4 161z" />
    <glyph glyph-name="odieresis" unicode="&#xf6;" horiz-adv-x="544" 
d="M231 807q-29 -14 -80 -14q-9 0 -51 1q-30 1 -50 0l-10 6v95q0 43 7 69l192 -8l-7 -2zM485 807q-29 -14 -80 -14q-9 0 -51 1q-30 1 -50 0l-10 6v95q0 43 7 69h171l10 -10zM544 168q0 -117 -34 -179q-10 -18 -15 -23t-27 -17q-84 -47 -207 -47t-174.5 42t-73.5 123
q-15 55 -15 148q0 20 1 61t1 61q0 21 -1 64t-1 64q0 120 28 191q7 16 10 20t18 15q57 42 145 42q74 0 157 -22q98 -26 139 -68q30 -30 33 -107q2 -39 5 -117q1 -32 6 -126q5 -78 5 -125zM357 279q0 100 -6 176q0 10 -2 28q-1 4 -7 14q-25 39 -79 39q-22 -18 -29 -32
q5 -228 5 -232q0 -14 -1.5 -43t-1.5 -43q0 -67 31 -97q8 -8 13 -10q10 -4 27 -4q31 0 46 21q4 100 4 183z" />
    <glyph glyph-name="uacute" unicode="&#xfa;" horiz-adv-x="603" 
d="M454 960q-13 -51 -48 -111q-20 -36 -62 -105q-10 -15 -30 -15q-16 0 -27 7q-15 10 -32 15q-12 3 -32 13q13 54 46 129q16 37 53 125q7 17 21 17q15 0 56 -31q28 -22 55 -44zM602 258q0 -145 -13 -262q-25 -49 -39 -60q-23 -11 -60 -30q-53 -27 -128 -27q-31 0 -90 4
q-9 2 -26 5t-70 13q-88 16 -125 46q-48 39 -48 122q0 22 4 66t4 66v14q-1 9 -1 14q0 -2 6 75l11 158q10 139 41 223q25 21 67 21q23 0 41 -5q29 -8 29 -24q0 -93 -6 -245q-8 -190 -9 -244v-5q-1 -21 11 -40t33 -24q17 -4 46 -4q48 0 56 29q3 11 3 84q0 41 -3.5 123t-3.5 123
q0 118 21 206q53 24 114 24q65 0 113 -27q8 -22 8 -58q0 -28 4 -88q10 -137 10 -273z" />
    <glyph glyph-name="ucircumflex" unicode="&#xfb;" horiz-adv-x="608" 
d="M608 970q-13 -51 -48 -111q-20 -36 -62 -105q-10 -15 -30 -15q-16 0 -27 7q-15 10 -32 15q-12 3 -32 13q13 54 46 129q16 37 53 125q7 17 21 17q15 0 56 -31q28 -22 55 -44zM384 960q-13 -51 -48 -111q-20 -36 -62 -105q-10 -15 -30 -15q-16 0 -27 7q-15 10 -32 15
q-12 3 -32 13q13 54 46 129q16 37 53 125q7 17 21 17q15 0 56 -31q28 -22 55 -44zM602 258q0 -145 -13 -262q-25 -49 -39 -60q-23 -11 -60 -30q-53 -27 -128 -27q-31 0 -90 4q-9 2 -26 5t-70 13q-88 16 -125 46q-48 39 -48 122q0 22 4 66t4 66v14q-1 9 -1 14q0 -2 6 75
l11 158q10 139 41 223q25 21 67 21q23 0 41 -5q29 -8 29 -24q0 -93 -6 -245q-8 -190 -9 -244v-5q-1 -21 11 -40t33 -24q17 -4 46 -4q48 0 56 29q3 11 3 84q0 41 -3.5 123t-3.5 123q0 118 21 206q53 24 114 24q65 0 113 -27q8 -22 8 -58q0 -28 4 -88q10 -137 10 -273z" />
    <glyph glyph-name="udieresis" unicode="&#xfc;" horiz-adv-x="612" 
d="M564 787q-29 -14 -80 -14q-9 0 -51 1q-30 1 -50 0l-10 6v95q0 43 7 69h171l10 -10zM273 773q-29 -14 -80 -14q-9 0 -51 1q-30 1 -50 0l-10 6v95q0 43 7 69h171l10 -10zM606 258q0 -145 -13 -262q-25 -49 -39 -60q-23 -11 -60 -30q-53 -27 -128 -27q-31 0 -90 4
q-9 2 -26 5t-70 13q-88 16 -125 46q-48 39 -48 122q0 22 4 66t4 66v14q-1 9 -1 14q0 -2 6 75l11 158q10 139 41 223q25 21 67 21q23 0 41 -5q29 -8 29 -24q0 -93 -6 -245q-8 -190 -9 -244v-5q-1 -21 11 -40t33 -24q17 -4 46 -4q48 0 56 29q3 11 3 84q0 41 -3.5 123t-3.5 123
q0 118 21 206q53 24 114 24q65 0 113 -27q8 -22 8 -58q0 -28 4 -88q10 -137 10 -273z" />
    <glyph glyph-name="dotlessi" unicode="&#x131;" horiz-adv-x="272" 
d="M246 704q-15 -115 -15 -294l-1 -241q1 -46 -2 -137l-11 -6l-175 -4q-22 14 -22 44q0 13 4 40.5t4 42.5q0 10 4 72q18 310 18 362q0 63 -4 118q5 8 37 18q9 -2 30 -2q11 0 34 1t35 1q41 0 64 -15zM323 983q-13 -51 -48 -111q-20 -36 -62 -105q-10 -15 -30 -15q-16 0 -27 7
q-15 10 -32 15q-12 3 -32 13q13 54 46 129q16 37 53 125q7 17 21 17q15 0 56 -31q28 -22 55 -44z" />
    <glyph glyph-name="Ohungarumlaut" unicode="&#x150;" horiz-adv-x="550" 
d="M548 907q-13 -51 -48 -111q-20 -36 -62 -105q-10 -15 -30 -15q-16 0 -27 7q-15 10 -32 15q-12 3 -32 13q13 54 46 129q16 37 53 125q7 17 21 17q15 0 56 -31q28 -22 55 -44zM324 897q-13 -51 -48 -111q-20 -36 -62 -105q-10 -15 -30 -15q-16 0 -27 7q-15 10 -32 15
q-12 3 -32 13q13 54 46 129q16 37 53 125q7 17 21 17q15 0 56 -31q28 -22 55 -44zM546 165q0 -103 -34 -158q-10 -16 -15 -20t-27 -15q-84 -41 -206 -41q-123 0 -174.5 37t-73.5 108q-15 48 -15 130q0 18 1 54t1 54t-1 56t-1 57q0 105 28 168q7 14 10 17.5t18 13.5
q57 37 145 37q73 0 156 -20q98 -23 139 -60q30 -26 33 -94q2 -34 5 -103q1 -28 6 -111q5 -69 5 -110zM359 263q0 88 -6 155q0 9 -2 24q-1 4 -7 13q-25 34 -78 34q-22 -16 -29 -28q5 -201 5 -204q0 -13 -1.5 -38.5t-1.5 -37.5q0 -59 31 -86q7 -7 12 -8q10 -4 27 -4
q31 0 46 19q4 88 4 161z" />
    <glyph glyph-name="ohungarumlaut" unicode="&#x151;" horiz-adv-x="551" 
d="M548 907q-13 -51 -48 -111q-20 -36 -62 -105q-10 -15 -30 -15q-16 0 -27 7q-15 10 -32 15q-12 3 -32 13q13 54 46 129q16 37 53 125q7 17 21 17q15 0 56 -31q28 -22 55 -44zM324 897q-13 -51 -48 -111q-20 -36 -62 -105q-10 -15 -30 -15q-16 0 -27 7q-15 10 -32 15
q-12 3 -32 13q13 54 46 129q16 37 53 125q7 17 21 17q15 0 56 -31q28 -22 55 -44zM546 165q0 -103 -34 -158q-10 -16 -15 -20t-27 -15q-84 -41 -206 -41q-123 0 -174.5 37t-73.5 108q-15 48 -15 130q0 18 1 54t1 54t-1 56t-1 57q0 105 28 168q7 14 10 17.5t18 13.5
q57 37 145 37q73 0 156 -20q98 -23 139 -60q30 -26 33 -94q2 -34 5 -103q1 -28 6 -111q5 -69 5 -110zM359 263q0 88 -6 155q0 9 -2 24q-1 4 -7 13q-25 34 -78 34q-22 -16 -29 -28q5 -201 5 -204q0 -13 -1.5 -38.5t-1.5 -37.5q0 -59 31 -86q7 -7 12 -8q10 -4 27 -4
q31 0 46 19q4 88 4 161z" />
    <glyph glyph-name="Uhungarumlaut" unicode="&#x170;" horiz-adv-x="608" 
d="M608 970q-13 -51 -48 -111q-20 -36 -62 -105q-10 -15 -30 -15q-16 0 -27 7q-15 10 -32 15q-12 3 -32 13q13 54 46 129q16 37 53 125q7 17 21 17q15 0 56 -31q28 -22 55 -44zM384 960q-13 -51 -48 -111q-20 -36 -62 -105q-10 -15 -30 -15q-16 0 -27 7q-15 10 -32 15
q-12 3 -32 13q13 54 46 129q16 37 53 125q7 17 21 17q15 0 56 -31q28 -22 55 -44zM602 258q0 -145 -13 -262q-25 -49 -39 -60q-23 -11 -60 -30q-53 -27 -128 -27q-31 0 -90 4q-9 2 -26 5t-70 13q-88 16 -125 46q-48 39 -48 122q0 22 4 66t4 66v14q-1 9 -1 14q0 -2 6 75
l11 158q10 139 41 223q25 21 67 21q23 0 41 -5q29 -8 29 -24q0 -93 -6 -245q-8 -190 -9 -244v-5q-1 -21 11 -40t33 -24q17 -4 46 -4q48 0 56 29q3 11 3 84q0 41 -3.5 123t-3.5 123q0 118 21 206q53 24 114 24q65 0 113 -27q8 -22 8 -58q0 -28 4 -88q10 -137 10 -273z" />
    <glyph glyph-name="uhungarumlaut" unicode="&#x171;" horiz-adv-x="610" 
d="M608 970q-13 -51 -48 -111q-20 -36 -62 -105q-10 -15 -30 -15q-16 0 -27 7q-15 10 -32 15q-12 3 -32 13q13 54 46 129q16 37 53 125q7 17 21 17q15 0 56 -31q28 -22 55 -44zM384 960q-13 -51 -48 -111q-20 -36 -62 -105q-10 -15 -30 -15q-16 0 -27 7q-15 10 -32 15
q-12 3 -32 13q13 54 46 129q16 37 53 125q7 17 21 17q15 0 56 -31q28 -22 55 -44zM602 258q0 -145 -13 -262q-25 -49 -39 -60q-23 -11 -60 -30q-53 -27 -128 -27q-31 0 -90 4q-9 2 -26 5t-70 13q-88 16 -125 46q-48 39 -48 122q0 22 4 66t4 66v14q-1 9 -1 14q0 -2 6 75
l11 158q10 139 41 223q25 21 67 21q23 0 41 -5q29 -8 29 -24q0 -93 -6 -245q-8 -190 -9 -244v-5q-1 -21 11 -40t33 -24q17 -4 46 -4q48 0 56 29q3 11 3 84q0 41 -3.5 123t-3.5 123q0 118 21 206q53 24 114 24q65 0 113 -27q8 -22 8 -58q0 -28 4 -88q10 -137 10 -273z" />
    <glyph glyph-name="quoteright" unicode="&#x2019;" horiz-adv-x="833" 
 />
    <glyph glyph-name="bullet" unicode="&#x2022;" horiz-adv-x="833" 
 />
    <glyph glyph-name="NULL" horiz-adv-x="0" 
 />
  </font>
</defs>
</svg>
