<?xml version="1.0" encoding="utf-8"?>
<!-- Generator: Adobe Illustrator 19.0.0, SVG Export Plug-In . SVG Version: 6.00 Build 0)  -->
<svg version="1.2" baseProfile="tiny" id="Layer_1" xmlns="http://www.w3.org/2000/svg" xmlns:xlink="http://www.w3.org/1999/xlink"
	 x="0px" y="0px" width="70px" height="70px" viewBox="0 0 70 70" xml:space="preserve">
<g id="Forma_1">
	<path id="XMLID_17_" fill-rule="evenodd" fill="#8CCCDC" d="M63.6,47.8C56.8,53.5,51.4,58,36.9,50c-19.2-10.6-28.2-3-35.5,3
		c-1.6,1.4-1.9,3.8-0.5,5.4c1.4,1.6,3.8,1.8,5.5,0.5c6.8-5.7,12.2-10.2,26.7-2.2c7,3.8,12.6,5.3,17.3,5.3c8.2,0,13.5-4.5,18.2-8.3
		c1.6-1.4,1.9-3.8,0.5-5.4C67.7,46.6,65.2,46.4,63.6,47.8z M6.4,20.2c6.8-5.7,12.2-10.2,26.7-2.2c7,3.8,12.6,5.3,17.3,5.3
		c8.2,0,13.5-4.5,18.2-8.3c1.6-1.4,1.9-3.8,0.5-5.4c-1.4-1.6-3.8-1.8-5.5-0.5c-6.8,5.7-12.2,10.2-26.7,2.2c-19.2-10.6-28.2-3-35.5,3
		c-1.6,1.4-1.9,3.8-0.5,5.4C2.3,21.4,4.7,21.6,6.4,20.2z M63.6,28.5c-6.8,5.7-12.2,10.2-26.7,2.2c-19.2-10.6-28.2-3-35.5,3
		c-1.6,1.4-1.9,3.8-0.5,5.4c1.4,1.6,3.8,1.8,5.5,0.5c6.8-5.7,12.2-10.2,26.7-2.2c7,3.8,12.6,5.3,17.3,5.3c8.2,0,13.5-4.5,18.2-8.3
		c1.6-1.4,1.9-3.8,0.5-5.4C67.7,27.3,65.2,27.1,63.6,28.5z"/>
</g>
</svg>
