<?xml version="1.0" encoding="utf-8"?>
<!-- Generator: Adobe Illustrator 19.0.0, SVG Export Plug-In . SVG Version: 6.00 Build 0)  -->
<svg version="1.2" baseProfile="tiny" id="Layer_1" xmlns="http://www.w3.org/2000/svg" xmlns:xlink="http://www.w3.org/1999/xlink"
	 x="0px" y="0px" width="70px" height="70px" viewBox="0 0 70 70" xml:space="preserve">
<g id="cloud_copy_2_2_">
</g>
<g id="cloud_copy_4_2_">
	<path id="XMLID_21_" fill-rule="evenodd" fill="#72B1C0" d="M59.2,27.8L59.2,27.8L59.2,27.8c-0.1-7.6-6.1-13.6-13.5-13.6
		c-1.6,0-3.1,0.3-4.5,0.8c-2.7-5.3-8.1-9-14.4-9C18,6,10.8,13.3,10.8,22.4c0,0.1,0,0.2,0,0.3C4.6,23.9,0,29.5,0,36.1
		c0,7.6,6,13.7,13.5,13.7h45.8v-0.1c5.9,0,10.8-4.9,10.8-10.9C70,32.7,65.2,27.8,59.2,27.8z"/>
</g>
<g id="cloud_copy_2_6_">
	<path id="XMLID_19_" fill-rule="evenodd" fill="#FFFFFF" d="M53.1,42.7c0-0.1,0-0.1,0-0.2c0-7.3-5.4-13.1-12.1-13.1
		c-4.7,0-8.8,3-10.8,7.2c-1.1-0.4-2.2-0.7-3.4-0.7c-5.5,0-10,4.8-10.1,10.8h0v0.1c-4.5,0-8.1,3.9-8.1,8.8c0,4.8,3.6,8.8,8.1,8.8v0.1
		h34.3c5.6,0,10.1-4.9,10.1-10.9C61.2,48.1,57.8,43.7,53.1,42.7z"/>
</g>
<g id="cloud_copy_6_">
	<path id="XMLID_18_" fill-rule="evenodd" fill="#72B1C0" d="M49.1,45.2c0-0.1,0-0.1,0-0.2c0-5.4-4.2-9.9-9.4-9.9
		c-3.7,0-6.8,2.2-8.4,5.4c-0.8-0.3-1.7-0.5-2.6-0.5c-4.3,0-7.8,3.6-7.8,8.1h0v0.1c-3.5,0-6.3,2.9-6.3,6.6s2.8,6.6,6.3,6.6v0.1h26.7
		c4.3,0,7.9-3.7,7.9-8.2C55.4,49.3,52.7,46,49.1,45.2z"/>
</g>
</svg>
