<?xml version="1.0" encoding="utf-8"?>
<!-- Generator: Adobe Illustrator 19.0.0, SVG Export Plug-In . SVG Version: 6.00 Build 0)  -->
<svg version="1.2" baseProfile="tiny" id="Layer_1" xmlns="http://www.w3.org/2000/svg" xmlns:xlink="http://www.w3.org/1999/xlink"
	 x="0px" y="0px" width="70px" height="70px" viewBox="0 0 70 70" xml:space="preserve">
<g id="cloud_copy_8_">
</g>
<g id="cloud_copy_5">
	<path id="XMLID_23_" fill-rule="evenodd" fill="#72B1C0" d="M56.4,21L56.4,21L56.4,21c-0.1-7.3-5.8-13.1-12.8-13.1
		c-1.5,0-2.9,0.3-4.3,0.8C36.8,3.6,31.6,0,25.6,0c-8.5,0-15.4,7.1-15.4,15.8c0,0.1,0,0.2,0,0.3C4.4,17.3,0,22.6,0,29
		c0,7.3,5.7,13.2,12.8,13.2h43.6V42c5.7,0,10.3-4.7,10.3-10.5C66.7,25.7,62.1,21,56.4,21z"/>
</g>
<g id="Rounded_Rectangle_1_copy_2">
	<path id="XMLID_18_" fill-rule="evenodd" fill="#56EAF7" d="M23.1,51.9c-0.5-1.9-2.4-3-4.3-2.5c-1.9,0.5-3,2.4-2.5,4.3L19,67.4
		c0.5,1.9,2.4,3,4.3,2.5c1.9-0.5,3-2.4,2.5-4.3L23.1,51.9z M37.1,51.9c-0.5-1.9-2.4-3-4.3-2.5c-1.9,0.5-3,2.4-2.5,4.3l2.7,13.7
		c0.5,1.9,2.4,3,4.3,2.5c1.9-0.5,3-2.4,2.5-4.3L37.1,51.9z M53.9,65.6l-2.7-13.7c-0.5-1.9-2.4-3-4.3-2.5c-1.9,0.5-3,2.4-2.5,4.3
		l2.7,13.7c0.5,1.9,2.4,3,4.3,2.5C53.3,69.4,54.4,67.5,53.9,65.6z"/>
</g>
</svg>
