<?xml version="1.0" encoding="utf-8"?>
<!-- Generator: Adobe Illustrator 19.0.0, SVG Export Plug-In . SVG Version: 6.00 Build 0)  -->
<svg version="1.2" baseProfile="tiny" id="Layer_1" xmlns="http://www.w3.org/2000/svg" xmlns:xlink="http://www.w3.org/1999/xlink"
	 x="0px" y="0px" width="70px" height="70px" viewBox="0 0 70 70" xml:space="preserve">
<g id="cloud_copy_14_">
	<path id="XMLID_19_" fill-rule="evenodd" fill="#72B1C0" d="M55.9,20.8L55.9,20.8L55.9,20.8c-0.1-7.2-5.7-13-12.7-13
		c-1.5,0-2.9,0.3-4.2,0.8C36.4,3.5,31.3,0,25.4,0C17,0,10.2,7,10.2,15.6c0,0.1,0,0.2,0,0.3C4.4,17.1,0,22.4,0,28.7
		c0,7.2,5.7,13,12.7,13h43.2v-0.1C61.5,41.6,66,37,66,31.2C66,25.4,61.5,20.8,55.9,20.8z"/>
</g>
<g id="teardrop_copy_5_6_">
	<path id="XMLID_18_" fill-rule="evenodd" fill="#56EAF7" d="M54.7,58.9l-5.6-10c-0.2-0.3-0.7-0.3-0.8,0l-5.6,10
		c-1.2,2.1-1.3,4.8,0,7.1c1.9,3.4,6.2,4.6,9.5,2.6C55.4,66.6,56.6,62.3,54.7,58.9z"/>
</g>
<g id="Rounded_Rectangle_1_copy_4">
	<path id="XMLID_17_" fill-rule="evenodd" fill="#B8BFC0" d="M25.8,59.1l4.9-4.9c1.4-1.4,1.4-3.6,0-4.9c-1.4-1.4-3.6-1.4-4.9,0
		l-4.9,4.9l-4.9-4.9c-1.4-1.4-3.6-1.4-4.9,0c-1.4,1.4-1.4,3.6,0,4.9l4.9,4.9L11,64c-1.4,1.4-1.4,3.6,0,4.9c1.4,1.4,3.6,1.4,4.9,0
		l4.9-4.9l4.9,4.9c1.4,1.4,3.6,1.4,4.9,0c1.4-1.4,1.4-3.6,0-4.9L25.8,59.1z"/>
</g>
</svg>
