<?xml version="1.0" encoding="utf-8"?>
<!-- Generator: Adobe Illustrator 19.0.0, SVG Export Plug-In . SVG Version: 6.00 Build 0)  -->
<svg version="1.2" baseProfile="tiny" id="Layer_1" xmlns="http://www.w3.org/2000/svg" xmlns:xlink="http://www.w3.org/1999/xlink"
	 x="0px" y="0px" width="70px" height="70px" viewBox="10 -10 70 70" xml:space="preserve">
<g id="cloud_copy_16_">
	<path fill-rule="evenodd" fill="#B8BFC0" d="M69.2,15L69.2,15L69.2,15C69.1,7.4,63.1,1.3,55.8,1.3c-1.6,0-3.1,0.3-4.5,0.8
		C48.6-3.3,43.2-7,36.9-7C28-7,20.8,0.4,20.8,9.6c0,0.1,0,0.2,0,0.3C14.6,11.1,10,16.7,10,23.4c0,7.6,6,13.8,13.5,13.8h45.8v-0.1
		c5.9,0,10.8-4.9,10.8-11.1C80,20,75.2,15,69.2,15z"/>
</g>
<g id="Ellipse_2">
	<circle fill-rule="evenodd" fill="#B8BFC0" cx="26.7" cy="50.1" r="5.5"/>
</g>
<g id="Ellipse_2_copy">
	<circle fill-rule="evenodd" fill="#B8BFC0" cx="45.1" cy="50.1" r="5.5"/>
</g>
<g id="Ellipse_2_copy_2">
	<circle fill-rule="evenodd" fill="#B8BFC0" cx="63.5" cy="50.1" r="5.5"/>
</g>
</svg>
