<?xml version="1.0" encoding="utf-8"?>
<!-- Generator: Adobe Illustrator 19.0.0, SVG Export Plug-In . SVG Version: 6.00 Build 0)  -->
<svg version="1.2" baseProfile="tiny" id="Layer_1" xmlns="http://www.w3.org/2000/svg" xmlns:xlink="http://www.w3.org/1999/xlink"
	 x="0px" y="0px" width="70px" height="70px" viewBox="10 -10 70 70" xml:space="preserve">
<g id="Forma_1_copy_4_">
	<path fill-rule="evenodd" fill="#FED420" d="M19.4,15.9c0-1.3-1-2.4-2.4-2.4h-4.7c-1.3,0-2.4,1-2.4,2.4c0,1.3,1,2.4,2.4,2.4H17
		C18.4,18.3,19.4,17.2,19.4,15.9z M50.9,4.2l3.3-3.3c0.9-0.9,0.9-2.4,0-3.3c-0.9-0.9-2.4-0.9-3.3,0l-3.3,3.3c-0.9,0.9-0.9,2.4,0,3.3
		C48.5,5.2,50,5.2,50.9,4.2z M35.9-0.6c1.3,0,2.4-1,2.4-2.4v-4.7c0-1.3-1-2.4-2.4-2.4c-1.3,0-2.4,1-2.4,2.4V-3
		C33.6-1.6,34.6-0.6,35.9-0.6z M20.9,27.6l-3.3,3.3c-0.9,0.9-0.9,2.4,0,3.3c0.9,0.9,2.4,0.9,3.3,0l3.3-3.3c0.9-0.9,0.9-2.4,0-3.3
		C23.3,26.6,21.8,26.6,20.9,27.6z M20.9,4.2c0.9,0.9,2.4,0.9,3.3,0c0.9-0.9,0.9-2.4,0-3.3l-3.3-3.3c-0.9-0.9-2.4-0.9-3.3,0
		c-0.9,0.9-0.9,2.4,0,3.3L20.9,4.2z M50.9,27.6c-0.9-0.9-2.4-0.9-3.3,0c-0.9,0.9-0.9,2.4,0,3.3l3.3,3.3c0.9,0.9,2.4,0.9,3.3,0
		c0.9-0.9,0.9-2.4,0-3.3L50.9,27.6z M59.4,13.6h-4.7c-1.3,0-2.4,1-2.4,2.4c0,1.3,1,2.4,2.4,2.4h4.7c1.3,0,2.4-1,2.4-2.4
		C61.8,14.6,60.8,13.6,59.4,13.6z M35.9,1.8c-7.8,0-14.1,6.3-14.1,14.1c0,7.8,6.3,14.1,14.1,14.1C43.7,30,50,23.7,50,15.9
		C50,8.1,43.7,1.8,35.9,1.8z M35.9,25.3c-5.2,0-9.4-4.2-9.4-9.4c0-5.2,4.2-9.4,9.4-9.4c5.2,0,9.4,4.2,9.4,9.4
		C45.3,21.1,41.1,25.3,35.9,25.3z M35.9,32.4c-1.3,0-2.4,1-2.4,2.4v4.7c0,1.3,1,2.4,2.4,2.4c1.3,0,2.4-1,2.4-2.4v-4.7
		C38.3,33.5,37.2,32.4,35.9,32.4z"/>
</g>
<g id="cloud_copy_2_8_">
	<path fill-rule="evenodd" fill="#FFFFFF" d="M78.2,27.5L78.2,27.5L78.2,27.5c-0.1-6.7-5.4-12.1-12-12.1c-1.4,0-2.7,0.3-4,0.7
		c-2.4-4.7-7.2-8-12.8-8c-7.9,0-14.3,6.5-14.3,14.6c0,0.1,0,0.2,0,0.2c-5.5,1.1-9.6,6-9.6,11.9c0,6.7,5.4,12.1,12,12.1h40.7v-0.1
		c5.3,0,9.6-4.4,9.6-9.7C87.7,31.8,83.4,27.5,78.2,27.5z"/>
</g>
<g id="cloud_copy_22_">
	<path fill-rule="evenodd" fill="#72B1C0" d="M72.4,28.8L72.4,28.8L72.4,28.8c-0.1-5.4-4.3-9.7-9.5-9.7c-1.1,0-2.2,0.2-3.2,0.6
		c-1.9-3.8-5.7-6.4-10.1-6.4c-6.3,0-11.4,5.2-11.4,11.7c0,0.1,0,0.1,0,0.2c-4.3,0.9-7.6,4.8-7.6,9.5c0,5.4,4.2,9.7,9.5,9.7h32.2
		v-0.1c4.2,0,7.6-3.5,7.6-7.8C80,32.3,76.6,28.8,72.4,28.8z"/>
</g>
<g id="teardrop_copy_3_6_">
	<path fill-rule="evenodd" fill="#56EAF7" d="M45.8,53.3l-3.1-6.2c-0.1-0.2-0.4-0.2-0.5,0L39,53.3c-0.7,1.3-0.7,3,0,4.4
		c1.1,2.1,3.4,2.8,5.3,1.6C46.2,58.2,46.8,55.4,45.8,53.3z"/>
</g>
<g id="teardrop_copy_4_6_">
	<path fill-rule="evenodd" fill="#56EAF7" d="M58.7,53.3l-3.1-6.2c-0.1-0.2-0.4-0.2-0.5,0L52,53.3c-0.7,1.3-0.7,3,0,4.4
		c1.1,2.1,3.4,2.8,5.3,1.6C59.1,58.2,59.8,55.4,58.7,53.3z"/>
</g>
<g id="teardrop_copy_5_8_">
	<path fill-rule="evenodd" fill="#56EAF7" d="M71.7,53.3l-3.1-6.2c-0.1-0.2-0.4-0.2-0.5,0l-3.1,6.2c-0.7,1.3-0.7,3,0,4.4
		c1.1,2.1,3.4,2.8,5.3,1.6C72.1,58.2,72.7,55.4,71.7,53.3z"/>
</g>
</svg>
