<?xml version="1.0" encoding="utf-8"?>
<!-- Generator: Adobe Illustrator 19.0.0, SVG Export Plug-In . SVG Version: 6.00 Build 0)  -->
<svg version="1.2" baseProfile="tiny" id="Layer_1" xmlns="http://www.w3.org/2000/svg" xmlns:xlink="http://www.w3.org/1999/xlink"
	 x="0px" y="0px" width="70px" height="70px" viewBox="10 -10 70 70" xml:space="preserve">
<g id="Forma_1_copy_6_">
	<path fill-rule="evenodd" fill="#FED420" d="M33.3-1.5c1.2,0,2.1-0.9,2.1-2.1v-4.2c0-1.2-0.9-2.1-2.1-2.1c-1.2,0-2.1,0.9-2.1,2.1
		v4.2C31.2-2.5,32.1-1.5,33.3-1.5z M19.8,2.8c0.8,0.8,2.2,0.8,3,0c0.8-0.8,0.8-2.2,0-3l-3-3c-0.8-0.8-2.2-0.8-3,0
		c-0.8,0.8-0.8,2.2,0,3L19.8,2.8z M18.5,13.3c0-1.2-0.9-2.1-2.1-2.1h-4.2c-1.2,0-2.1,0.9-2.1,2.1c0,1.2,0.9,2.1,2.1,2.1h4.2
		C17.5,15.4,18.5,14.5,18.5,13.3z M46.8,2.8l3-3c0.8-0.8,0.8-2.2,0-3c-0.8-0.8-2.2-0.8-3,0l-3,3c-0.8,0.8-0.8,2.2,0,3
		C44.6,3.6,46,3.6,46.8,2.8z M33.3,0.6c-7,0-12.7,5.7-12.7,12.7c0,7,5.7,12.7,12.7,12.7c7,0,12.7-5.7,12.7-12.7
		C46,6.3,40.3,0.6,33.3,0.6z M33.3,21.8c-4.7,0-8.5-3.8-8.5-8.5c0-4.7,3.8-8.5,8.5-8.5c4.7,0,8.5,3.8,8.5,8.5
		C41.8,18,38,21.8,33.3,21.8z M19.8,23.8l-3,3c-0.8,0.8-0.8,2.2,0,3c0.8,0.8,2.2,0.8,3,0l3-3c0.8-0.8,0.8-2.2,0-3
		C22,23,20.7,23,19.8,23.8z M49.8,26.8l-3-3c-0.8-0.8-2.2-0.8-3,0c-0.8,0.8-0.8,2.2,0,3l3,3c0.8,0.8,2.2,0.8,3,0
		C50.6,29,50.6,27.6,49.8,26.8z M33.3,28.1c-1.2,0-2.1,0.9-2.1,2.1v4.2c0,1.2,0.9,2.1,2.1,2.1c1.2,0,2.1-0.9,2.1-2.1v-4.2
		C35.4,29.1,34.5,28.1,33.3,28.1z"/>
</g>
<g id="cloud_copy_2_10_">
	<path fill-rule="evenodd" fill="#FFFFFF" d="M71.3,23.7L71.3,23.7L71.3,23.7c-0.1-6-4.9-10.9-10.8-10.9c-1.3,0-2.5,0.3-3.6,0.7
		c-2.1-4.3-6.4-7.2-11.5-7.2c-7.1,0-12.9,5.9-12.9,13.1c0,0.1,0,0.1,0,0.2c-4.9,1-8.6,5.4-8.6,10.7c0,6,4.8,10.9,10.8,10.9h36.6
		v-0.1c4.8,0,8.6-3.9,8.6-8.7C79.9,27.6,76.1,23.7,71.3,23.7z"/>
</g>
<g id="cloud_copy_24_">
	<path fill-rule="evenodd" fill="#B8BFC0" d="M66.1,24.9L66.1,24.9L66.1,24.9c-0.1-4.8-3.8-8.7-8.5-8.7c-1,0-1.9,0.2-2.8,0.5
		c-1.7-3.4-5.1-5.8-9.1-5.8c-5.6,0-10.2,4.7-10.2,10.5c0,0.1,0,0.1,0,0.2c-3.9,0.8-6.8,4.3-6.8,8.6c0,4.8,3.8,8.7,8.5,8.7h29v-0.1
		c3.8,0,6.8-3.1,6.8-7C72.9,28,69.9,24.9,66.1,24.9z"/>
</g>
<g id="Rounded_Rectangle_1_copy_5">
	<path fill-rule="evenodd" fill="#B8BFC0" d="M43.5,52.9l3.2-3.2c0.9-0.9,0.9-2.3,0-3.2c-0.9-0.9-2.3-0.9-3.2,0l-3.2,3.2l-3.2-3.2
		c-0.9-0.9-2.3-0.9-3.2,0c-0.9,0.9-0.9,2.3,0,3.2l3.2,3.2L34,56.1c-0.9,0.9-0.9,2.3,0,3.2c0.9,0.9,2.3,0.9,3.2,0l3.2-3.2l3.2,3.2
		c0.9,0.9,2.3,0.9,3.2,0c0.9-0.9,0.9-2.3,0-3.2L43.5,52.9z"/>
</g>
<g id="Rounded_Rectangle_1_copy_5_1_">
	<path fill-rule="evenodd" fill="#B8BFC0" d="M64.4,52.9l3.2-3.2c0.9-0.9,0.9-2.3,0-3.2c-0.9-0.9-2.3-0.9-3.2,0l-3.2,3.2l-3.2-3.2
		c-0.9-0.9-2.3-0.9-3.2,0c-0.9,0.9-0.9,2.3,0,3.2l3.2,3.2l-3.2,3.2c-0.9,0.9-0.9,2.3,0,3.2c0.9,0.9,2.3,0.9,3.2,0l3.2-3.2l3.2,3.2
		c0.9,0.9,2.3,0.9,3.2,0c0.9-0.9,0.9-2.3,0-3.2L64.4,52.9z"/>
</g>
</svg>
