<?xml version="1.0" encoding="utf-8"?>
<!-- Generator: Adobe Illustrator 19.0.0, SVG Export Plug-In . SVG Version: 6.00 Build 0)  -->
<svg version="1.2" baseProfile="tiny" id="Layer_1" xmlns="http://www.w3.org/2000/svg" xmlns:xlink="http://www.w3.org/1999/xlink"
	 x="0px" y="0px" width="70px" height="70px" viewBox="10 -10 70 70" xml:space="preserve">
<g id="sun_copy_3_">
	<path fill-rule="evenodd" fill="#D2D2D2" d="M27.5,17c0-8.6,5.4-16,13.2-19.2C38-3.4,35-4,31.9-4C19.8-4,10,5.4,10,17
		c0,11.6,9.8,21,21.9,21c3.1,0,6.1-0.6,8.8-1.7C32.9,32.9,27.5,25.6,27.5,17z"/>
</g>
<g id="cloud_copy_7">
	<path fill-rule="evenodd" fill="#FFFFFF" d="M77.8,28L77.8,28L77.8,28c-0.1-7.2-5.8-13-12.9-13c-1.5,0-2.9,0.3-4.3,0.8
		c-2.6-5.1-7.7-8.6-13.7-8.6c-8.5,0-15.5,7-15.5,15.7c0,0.1,0,0.2,0,0.3L34,49h43.8V49c5.7,0,10.3-4.7,10.3-10.5
		C88.1,32.7,83.5,28,77.8,28z"/>
</g>
<g id="cloud_copy_7_1_">
	<path fill-rule="evenodd" fill="#72B1C0" d="M71.6,29.4L71.6,29.4L71.6,29.4C71.5,23.6,67,19,61.4,19c-1.2,0-2.3,0.3-3.4,0.6
		c-2-4.1-6.1-6.9-10.9-6.9c-6.8,0-12.2,5.6-12.2,12.6c0,0.1,0,0.1,0,0.2c-4.7,1-8.2,5.2-8.2,10.3c0,5.8,4.6,10.5,10.2,10.5h34.7
		v-0.1c4.5,0,8.2-3.7,8.2-8.4C79.7,33.2,76.1,29.4,71.6,29.4z"/>
</g>
<g id="cloud_copy_7_2_">
	<path fill-rule="evenodd" fill="#FFFFFF" d="M55.7,37.8L55.7,37.8L55.7,37.8c-0.1-4.8-4.1-8.7-9.1-8.7c-1.1,0-2.1,0.2-3,0.5
		c-1.8-3.4-2.7-5.8-6.9-5.8c-6,0-10.9,4.7-10.9,10.5c0,0.1,0,0.1,0,0.2c-4.2,0.8-7.3,4.3-7.3,8.5c0,4.8,4.1,8.7,9.1,8.7h28.2v-0.1
		c4,0,7.3-3.1,7.3-7S59.7,37.8,55.7,37.8z"/>
</g>
<g id="cloud_copy_7_3_">
	<path fill-rule="evenodd" fill="#72B1C0" d="M52.3,40.6L52.3,40.6L52.3,40.6c-0.1-3.9-2.9-6.9-6.4-6.9c-0.8,0-1.5,0.2-2.1,0.4
		c-1.3-2.7-3.9-4.6-6.9-4.6c-4.3,0-7.7,3.7-7.7,8.4c0,0,0,0.1,0,0.1c-2.9,0.6-5.2,3.5-5.2,6.8c0,3.9,2.9,7,6.4,7h21.9v0
		c2.8,0,5.2-2.5,5.2-5.6C57.4,43.1,55.1,40.6,52.3,40.6z"/>
</g>
</svg>
