<?xml version="1.0" encoding="utf-8"?>
<!-- Generator: Adobe Illustrator 19.0.0, SVG Export Plug-In . SVG Version: 6.00 Build 0)  -->
<svg version="1.2" baseProfile="tiny" id="Layer_1" xmlns="http://www.w3.org/2000/svg" xmlns:xlink="http://www.w3.org/1999/xlink"
	 x="0px" y="0px" width="70px" height="70px" viewBox="10 -10 70 70" xml:space="preserve">
<g id="cloud_copy_8_">
</g>
<g id="cloud_copy_5">
	<path id="XMLID_23_" fill="#72B1C0" d="M66.4,11L66.4,11L66.4,11C66.3,3.7,60.6-2.1,53.6-2.1c-1.5,0-2.9,0.3-4.3,0.8
		C46.8-6.4,41.6-10,35.6-10c-8.5,0-15.4,7.1-15.4,15.8c0,0.1,0,0.2,0,0.3C14.4,7.3,10,12.6,10,19c0,7.3,5.7,13.2,12.8,13.2h43.6V32
		c5.7,0,10.3-4.7,10.3-10.5S72.1,11,66.4,11z"/>
</g>
<g id="Rounded_Rectangle_1_copy_2">
	<path id="XMLID_18_" fill="#56EAF7" d="M33.1,41.9c-0.5-1.9-2.4-3-4.3-2.5c-1.9,0.5-3,2.4-2.5,4.3L29,57.4c0.5,1.9,2.4,3,4.3,2.5
		c1.9-0.5,3-2.4,2.5-4.3L33.1,41.9z M47.1,41.9c-0.5-1.9-2.4-3-4.3-2.5s-3,2.4-2.5,4.3L43,57.4c0.5,1.9,2.4,3,4.3,2.5
		c1.9-0.5,3-2.4,2.5-4.3L47.1,41.9z M63.9,55.6l-2.7-13.7c-0.5-1.9-2.4-3-4.3-2.5c-1.9,0.5-3,2.4-2.5,4.3l2.7,13.7
		c0.5,1.9,2.4,3,4.3,2.5C63.3,59.4,64.4,57.5,63.9,55.6z"/>
</g>
</svg>
