<?xml version="1.0" encoding="utf-8"?>
<!-- Generator: Adobe Illustrator 19.0.0, SVG Export Plug-In . SVG Version: 6.00 Build 0)  -->
<svg version="1.2" baseProfile="tiny" id="Layer_1" xmlns="http://www.w3.org/2000/svg" xmlns:xlink="http://www.w3.org/1999/xlink"
	 x="0px" y="0px" width="70px" height="70px" viewBox="10 -10 70 70" xml:space="preserve">
<g id="cloud_copy_16_">
</g>
<g id="cloud_copy_18_">
	<path fill="#B8BFC0" d="M66.9,9.9L66.9,9.9L66.9,9.9C66.8,3,61.4-2.5,54.8-2.5c-1.4,0-2.8,0.3-4,0.8c-2.5-4.9-7.3-8.3-13-8.3
		c-8,0-14.6,6.7-14.6,15c0,0.1,0,0.2,0,0.2c-5.5,1.1-9.7,6.2-9.7,12.2c0,6.9,5.4,12.5,12.1,12.5h41.3v-0.1c5.4,0,9.7-4.5,9.7-10
		S72.3,9.9,66.9,9.9z"/>
</g>
<g id="Rounded_Rectangle_1_copy">
	<path fill="#B8BFC0" d="M34.6,49.8l4.5-4.5c1.2-1.2,1.2-3.3,0-4.5s-3.3-1.2-4.5,0l-4.5,4.5l-4.5-4.5c-1.2-1.2-3.3-1.2-4.5,0
		s-1.2,3.3,0,4.5l4.5,4.5l-4.5,4.5c-1.2,1.2-1.2,3.3,0,4.5s3.3,1.2,4.5,0l4.5-4.5l4.5,4.5c1.2,1.2,3.3,1.2,4.5,0s1.2-3.3,0-4.5
		L34.6,49.8z"/>
</g>
<g id="Rounded_Rectangle_1_copy_3">
	<path fill="#B8BFC0" d="M64.5,49.8l4.5-4.5c1.2-1.2,1.2-3.3,0-4.5s-3.3-1.2-4.5,0L60,45.3l-4.5-4.5c-1.2-1.2-3.3-1.2-4.5,0
		s-1.2,3.3,0,4.5l4.5,4.5L51,54.3c-1.2,1.2-1.2,3.3,0,4.5s3.3,1.2,4.5,0l4.5-4.5l4.5,4.5c1.2,1.2,3.3,1.2,4.5,0s1.2-3.3,0-4.5
		L64.5,49.8z"/>
</g>
</svg>
