<svg xmlns="http://www.w3.org/2000/svg" xmlns:xlink="http://www.w3.org/1999/xlink" width="200" height="33" viewBox="0 0 200 33">
    <defs>
        <path id="a" d="M.345.034v20.025c0 2.933.855 5.436 2.821 7.509 1.967 2.073 4.213 3.109 6.994 3.109 2.782 0 5.159-1.036 7.126-3.11 1.967-2.072 2.956-4.575 2.956-7.507 0-2.934-.973-5.436-2.94-7.51-1.966-2.072-4.317-3.109-7.099-3.109-2.774 0-5.097 1.032-7.06 3.093V.034H.345zm4.723 25.391c-1.403-1.479-2.104-3.267-2.104-5.365 0-2.099.701-3.888 2.104-5.367s3.099-2.218 5.09-2.218c1.991 0 3.687.74 5.09 2.218 1.403 1.479 2.104 3.268 2.104 5.367 0 2.098-.7 3.886-2.104 5.365-1.403 1.478-3.099 2.218-5.09 2.218-1.991 0-3.687-.74-5.09-2.218z"/>
        <path id="c" d="M3.228 3.316C1.26 5.312.293 7.72.293 10.544c0 2.822 1.014 5.231 2.98 7.226 1.967 1.995 4.403 2.993 7.185 2.993s5.453-1.022 7.319-3.066V20.605h2.798V10.544c0-2.824-1.063-5.232-3.03-7.228C15.577 1.322 13.122.323 10.341.323c-2.782 0-5.148.999-7.114 2.993zm2.016 12.392c-1.403-1.424-2.104-3.145-2.104-5.164 0-2.02.701-3.743 2.104-5.165 1.403-1.424 3.1-2.136 5.09-2.136 1.99 0 3.688.712 5.09 2.136 1.403 1.422 2.105 3.145 2.105 5.165s-.702 3.74-2.105 5.164c-1.402 1.423-3.1 2.135-5.09 2.135-1.99 0-3.687-.712-5.09-2.135z"/>
    </defs>
    <g fill="none" fill-rule="evenodd">
        <g fill="#0CA0DD">
            <path d="M146.646 7.225c2.183 2.294 3.525 5.465 3.525 8.965 0 3.498-1.342 6.67-3.525 8.964-2.173 2.294-5.177 3.722-8.491 3.722-3.315 0-6.319-1.428-8.492-3.722-2.183-2.294-3.525-5.466-3.525-8.964 0-3.5 1.342-6.671 3.525-8.965 2.173-2.294 5.177-3.721 8.492-3.721 3.314 0 6.318 1.427 8.491 3.72M127.54 4.974c-2.724 2.875-4.406 6.829-4.406 11.217 0 4.376 1.682 8.33 4.396 11.205 2.714 2.876 6.48 4.652 10.625 4.652s7.91-1.776 10.624-4.652c2.714-2.875 4.396-6.829 4.396-11.205 0-4.388-1.682-8.342-4.406-11.217-2.714-2.865-6.469-4.64-10.614-4.64-4.146 0-7.9 1.775-10.615 4.64"/>
            <path d="M146.646 7.225c2.183 2.294 3.525 5.465 3.525 8.965 0 3.498-1.342 6.67-3.525 8.964-2.173 2.294-5.177 3.722-8.491 3.722-3.315 0-6.319-1.428-8.492-3.722-2.183-2.294-3.525-5.466-3.525-8.964 0-3.5 1.342-6.671 3.525-8.965 2.173-2.294 5.177-3.721 8.492-3.721 3.314 0 6.318 1.427 8.491 3.72M127.54 4.974c-2.724 2.875-4.406 6.829-4.406 11.217 0 4.376 1.682 8.33 4.396 11.205 2.714 2.876 6.48 4.652 10.625 4.652s7.91-1.776 10.624-4.652c2.714-2.875 4.396-6.829 4.396-11.205 0-4.388-1.682-8.342-4.406-11.217-2.714-2.865-6.469-4.64-10.614-4.64-4.146 0-7.9 1.775-10.615 4.64"/>
            <path d="M131.075 8.715c-1.813 1.903-2.934 4.546-2.934 7.475 0 2.917 1.121 5.56 2.934 7.474 1.813 1.913 4.316 3.097 7.08 3.097 2.763 0 5.267-1.184 7.08-3.097 1.812-1.914 2.933-4.557 2.933-7.474h-1.201c0 2.568-.992 4.894-2.584 6.575-1.602 1.68-3.805 2.728-6.228 2.728-2.424 0-4.626-1.047-6.229-2.728-1.592-1.68-2.584-4.007-2.584-6.575 0-2.57.992-4.895 2.584-6.576 1.603-1.681 3.805-2.728 6.229-2.728 2.423 0 4.626 1.047 6.228 2.728l.851-.899c-1.812-1.913-4.316-3.097-7.08-3.097-2.763 0-5.266 1.184-7.079 3.097"/>
            <path d="M138.155 13.23c.77 0 1.471.327 1.983.866a3.079 3.079 0 0 1 0 4.187 2.722 2.722 0 0 1-1.983.867c-.771 0-1.472-.328-1.983-.867a3.08 3.08 0 0 1 0-4.187l-.852-.898a4.34 4.34 0 0 0-1.17 2.992c0 1.162.45 2.22 1.17 2.991.732.761 1.733 1.237 2.835 1.237 1.101 0 2.102-.476 2.834-1.237a4.377 4.377 0 0 0 1.171-2.991 4.34 4.34 0 0 0-1.171-2.992c-.732-.761-1.733-1.237-2.834-1.237v1.268z"/>
            <path d="M133.198 10.956c-1.271 1.332-2.053 3.193-2.053 5.233h1.202a6.29 6.29 0 0 1 1.702-4.334c1.051-1.11 2.504-1.797 4.105-1.797 1.603 0 3.055.687 4.106 1.797a6.29 6.29 0 0 1 1.703 4.334 6.31 6.31 0 0 1-1.703 4.335c-1.051 1.11-2.503 1.798-4.106 1.798-1.601 0-3.054-.688-4.105-1.798l-.85.898c1.27 1.333 3.013 2.168 4.955 2.168 1.943 0 3.685-.835 4.957-2.168 1.272-1.342 2.054-3.192 2.054-5.233 0-2.04-.782-3.9-2.054-5.233-1.272-1.342-3.014-2.167-4.957-2.167-1.942 0-3.684.825-4.956 2.167M117.96 26.38c-2.464 2.763-6.6 2.905-9.228.302-2.341-2.33-2.694-6.041-.994-8.775.067-.11.144-.222.22-.333.153-.222.315-.434.488-.635.18-.192.372-.383.573-.555 2.483-2.209 6.21-2.158 8.655.253 2.618 2.602 2.742 6.98.287 9.743m1.786-12.074c-2.36-2.34-5.56-3.166-8.512-2.501l5.389-9.4L114.082.66l-8.847 15.442-.038.06a9.768 9.768 0 0 0-1.261 3.067c-.812 3.429.124 7.201 2.723 9.783 3.85 3.813 9.888 3.622 13.509-.444 3.611-4.065 3.42-10.449-.42-14.262M.353.034v20.544c0 3.008.876 5.576 2.89 7.702 2.015 2.127 4.316 3.19 7.165 3.19 2.85 0 5.284-1.063 7.298-3.19 2.015-2.126 3.028-4.694 3.028-7.702 0-3.009-.996-5.576-3.01-7.703-2.015-2.126-4.423-3.19-7.273-3.19-2.842 0-5.221 1.059-7.232 3.173V.034H.353zm4.838 26.049c-1.437-1.518-2.155-3.352-2.155-5.505 0-2.152.718-3.988 2.155-5.505 1.437-1.517 3.175-2.275 5.214-2.275 2.04 0 3.777.758 5.214 2.275 1.437 1.517 2.155 3.353 2.155 5.505 0 2.153-.718 3.987-2.155 5.505-1.437 1.516-3.174 2.275-5.214 2.275-2.04 0-3.777-.759-5.214-2.275z"/>
        </g>
        <g>
            <mask id="b" fill="#fff">
                <use xlink:href="#a"/>
            </mask>
            <path fill="#0CA0DD" d="M-4.319 35.593h29.224V-4.882H-4.319z" mask="url(#b)"/>
        </g>
        <g fill="#0CA0DD">
            <path d="M36.578 25.323c-1.403 1.423-3.099 2.135-5.09 2.135-1.99 0-3.687-.712-5.09-2.135-1.403-1.423-2.104-3.145-2.104-5.164 0-2.02.701-3.742 2.104-5.165 1.403-1.424 3.1-2.135 5.09-2.135 1.991 0 3.687.711 5.09 2.135 1.403 1.423 2.104 3.146 2.104 5.165 0 2.02-.701 3.74-2.104 5.164M31.496 9.94c-2.782 0-5.148.998-7.115 2.993-1.967 1.996-2.934 4.404-2.934 7.227 0 2.822 1.014 5.231 2.98 7.226 1.967 1.996 4.403 2.994 7.185 2.994s5.453-1.023 7.318-3.067V30.22h2.799V20.16c0-2.823-1.064-5.231-3.03-7.227-1.967-1.995-4.422-2.993-7.203-2.993"/>
            <path d="M24.381 12.932c-1.967 1.995-2.934 4.404-2.934 7.227 0 2.822 1.014 5.231 2.98 7.226 1.967 1.996 4.403 2.993 7.185 2.993s5.453-1.021 7.318-3.066V30.22h2.799V20.16c0-2.823-1.064-5.232-3.031-7.227-1.966-1.995-4.42-2.993-7.202-2.993s-5.148.998-7.115 2.993m2.017 12.391c-1.403-1.423-2.104-3.144-2.104-5.164 0-2.02.701-3.742 2.104-5.165 1.403-1.424 3.1-2.135 5.09-2.135 1.99 0 3.687.711 5.09 2.135 1.403 1.423 2.104 3.145 2.104 5.165s-.701 3.74-2.104 5.164c-1.403 1.423-3.1 2.135-5.09 2.135-1.99 0-3.687-.712-5.09-2.135"/>
        </g>
        <g transform="translate(21.154 9.615)">
            <mask id="d" fill="#fff">
                <use xlink:href="#c"/>
            </mask>
            <path fill="#0CA0DD" d="M-4.37 25.495h29.608V-4.41H-4.37z" mask="url(#d)"/>
        </g>
        <g fill="#0CA0DD">
            <path d="M76.053 18.771l6.664-7.25-2.025-2.074-10.59 11.522V.034h-2.867v31.268h2.867v-6.056l3.964-4.314 7.534 10.37 2.238-1.813zM168.932 9.686c-2.58 0-4.528.94-6.44 2.82V.225h-2.865v10.38c-.022.194 0 .406 0 .637V29.915c0 .119-.002.231 0 .342v1.045h2.865V19.8c0-1.933.518-3.581 1.813-4.95 1.296-1.368 2.727-2.053 4.558-2.053 1.83 0 3.517.685 4.813 2.053 1.296 1.369 2.192 3.017 2.192 4.95v10.115c0 .135-.002.262 0 .385v1.002h2.867V19.8c0-2.788-1.048-5.17-2.92-7.148-1.875-1.977-4.243-2.966-6.883-2.966M197.004 9.778v1.002c-.002.123 0 .25 0 .386v10.113c0 1.934-.896 3.582-2.193 4.951-1.248 1.317-2.86 1.994-4.611 2.043-1.751-.049-3.364-.726-4.611-2.043-1.297-1.369-2.193-3.017-2.193-4.95V11.165c0-.136.002-.263 0-.386V9.778h-2.866V21.28c0 2.789 1.048 5.171 2.92 7.149 1.81 1.91 4.084 2.889 6.617 2.954v.012c.045 0 .089-.006.133-.006.044 0 .087.006.132.006v-.012c2.533-.065 4.807-1.044 6.617-2.954 1.873-1.978 2.92-4.36 2.92-7.149V9.778h-2.865zM156.968 29.484c0 1.055-.81 1.91-1.81 1.91s-1.81-.855-1.81-1.91c0-1.056.81-1.911 1.81-1.911s1.81.855 1.81 1.91M55.522 9.686c-2.58 0-4.528.94-6.44 2.82V10.12h-2.865v.484c-.022.195 0 .407 0 .638V29.915c0 .119-.002.231 0 .342v1.045h2.866V19.8c0-1.933.517-3.581 1.812-4.95 1.296-1.368 2.728-2.053 4.558-2.053 1.83 0 3.517.685 4.813 2.053 1.296 1.369 2.192 3.017 2.192 4.95v10.115c0 .135-.002.262 0 .385v1.002h2.867V19.8c0-2.788-1.049-5.17-2.921-7.148-1.874-1.977-4.241-2.966-6.882-2.966M104.61 21.65c0 5.567-4.28 10.075-9.554 10.075-5.283 0-9.554-4.538-9.554-10.106 0-.111 0-.403.01-.403h3.038c-.02 0-.029.292-.029.403 0 3.803 2.923 6.93 6.525 6.93 3.583 0 6.506-3.087 6.506-6.89 0-3.53-2.55-6.435-5.78-6.828-.258-.04-.83-.06-.83-.06v-3.087s.553.01.792-.04c.039-.01.067-.02.105-.03 1.615-.394 2.876-1.887 2.876-3.713 0-2.138-1.643-3.782-3.66-3.782-2.005 0-3.64 1.967-3.658 3.985h-3.029c.02-4.035 3-7.192 6.688-7.192 3.688 0 6.678 3.086 6.678 6.99 0 1.977-.793 3.671-2.025 4.952.01 0 .01.01.019.01 2.914 1.725 4.882 5.013 4.882 8.785"/>
        </g>
    </g>
</svg>
