<?xml version="1.0" encoding="utf-8"?>
<!-- Generator: Adobe Illustrator 23.0.3, SVG Export Plug-In . SVG Version: 6.00 Build 0)  -->
<svg version="1.1" id="Layer_1" xmlns="http://www.w3.org/2000/svg" xmlns:xlink="http://www.w3.org/1999/xlink" x="0px" y="0px"
	 viewBox="0 0 290 156.6" style="enable-background:new 0 0 290 156.6;" xml:space="preserve">
<style type="text/css">
	.st0{fill:#FF0000;}
	.st1{fill:#FFFFFF;}
</style>
<g>
	<path class="st0" d="M22.6,156.6c-1-3.6-1.9-7.2-2.9-10.7c-2.5-9.3-5-18.6-7.5-27.8c-3-11.2-6-22.3-8.9-33.5
		c-1-3.9-2.1-7.8-3.2-11.6C-0.2,72,0,71.5,1,71.3c8.1-2.1,16.1-4.3,24.1-6.4c9.3-2.5,18.7-5,28-7.5c9-2.4,18-4.8,27-7.2
		c10.1-2.7,20.2-5.4,30.3-8.1c13.1-3.5,26.2-7,39.2-10.5c12.5-3.3,24.9-6.7,37.4-10c17.3-4.6,34.6-9.3,51.9-13.9
		c8.9-2.4,17.8-4.8,26.7-7.1c0.5-0.1,1-0.2,1.6-0.3c1.2,4.4,2.3,8.6,3.5,12.9c3.1,11.7,6.3,23.5,9.4,35.2
		c3.2,11.9,6.4,23.9,9.6,35.8c0.3,0.9-0.1,1.2-0.9,1.4c-10.8,2.9-21.6,5.8-32.4,8.7c-11,2.9-22,5.9-33,8.9
		c-9.2,2.5-18.4,4.9-27.6,7.4c-14.7,3.9-29.5,7.9-44.2,11.8c-18.2,4.9-36.3,9.7-54.5,14.6c-18.8,5-37.5,10.1-56.3,15.1
		C34.9,153.3,28.8,155,22.6,156.6z M284.1,81.5c-0.1-0.6-0.2-1-0.3-1.4c-2.2-8.2-4.4-16.5-6.6-24.7c-4.3-16.1-8.6-32.2-12.9-48.3
		c-0.2-0.9-0.6-1.1-1.5-0.9c-4.2,1.2-8.5,2.3-12.7,3.4c-16.4,4.4-32.7,8.7-49.1,13.1c-15.1,4-30.2,8.1-45.2,12.1
		c-15.5,4.2-31,8.3-46.5,12.4c-14.3,3.8-28.7,7.7-43,11.6C46.5,64.2,26.7,69.5,6.9,74.8C6,75,5.8,75.4,6.1,76.3
		c2.3,8.3,4.5,16.5,6.7,24.8c4.3,16.1,8.6,32.3,12.9,48.4c0.2,0.9,0.6,1.1,1.5,0.9c7.7-2.1,15.5-4.1,23.2-6.2
		c17.9-4.8,35.7-9.6,53.6-14.3c16.7-4.5,33.3-8.9,50-13.4c15.8-4.2,31.6-8.5,47.4-12.8c11-2.9,22-5.9,33-8.8
		c14.1-3.8,28.2-7.6,42.4-11.4C279.2,82.8,281.6,82.2,284.1,81.5z"/>
	<path class="st1" d="M284.1,81.5c-2.5,0.7-5,1.4-7.4,2c-14.1,3.8-28.2,7.6-42.4,11.4c-11,2.9-22,5.8-33,8.8
		c-15.8,4.2-31.6,8.5-47.4,12.8c-16.7,4.5-33.3,8.9-50,13.4c-17.8,4.8-35.7,9.6-53.6,14.3c-7.7,2.1-15.5,4.1-23.2,6.2
		c-0.9,0.2-1.2,0.1-1.5-0.9c-4.3-16.1-8.6-32.3-12.9-48.4c-2.2-8.3-4.4-16.6-6.7-24.8C5.8,75.4,6,75,6.9,74.8
		c19.8-5.3,39.6-10.6,59.3-15.9c14.3-3.8,28.7-7.7,43-11.6c15.5-4.2,31-8.3,46.5-12.4c15.1-4,30.2-8.1,45.2-12.1
		c16.3-4.4,32.7-8.7,49.1-13.1c4.2-1.1,8.5-2.3,12.7-3.4c0.9-0.2,1.2-0.1,1.5,0.9c4.3,16.1,8.6,32.2,12.9,48.3
		c2.2,8.2,4.4,16.5,6.6,24.7C283.9,80.5,284,80.9,284.1,81.5z M220.3,52.2c0.1,0,0.2-0.1,0.2-0.1c0.2,0.5,0.4,1,0.6,1.5
		c4.3,11.3,8.6,22.7,12.8,34c0.3,0.9,0.7,1,1.6,0.8c2.1-0.6,4.2-1.2,6.4-1.7c1-0.2,1.3-0.6,1.1-1.7c-1.7-9.4-3.4-18.9-5.1-28.4
		c-2.1-11.9-4.2-23.8-6.3-35.7c-0.1-0.3-0.2-0.6-0.3-0.9c-2.8,0.8-5.5,1.5-8.3,2.3c2.3,12.2,4.6,24.3,6.9,36.4
		c-0.3,0-0.4-0.1-0.4-0.2c-2.6-7-5.2-14-7.8-20.9c-1.5-4.1-3.1-8.3-4.7-12.4c-0.1-0.3-0.6-0.9-0.9-0.8c-2,0.5-4.1,1.1-6.2,1.6
		c2.1,12.3,4.2,24.5,6.3,36.7c-0.1,0-0.2,0-0.3,0.1c-4.1-11.7-8.1-23.5-12.2-35.3c-2.9,0.8-5.8,1.5-8.6,2.3
		c7.7,21.2,15.3,42.2,22.9,63.3c2.9-0.8,5.6-1.5,8.3-2.3c0.2-0.1,0.5-0.8,0.4-1.1c-1.8-10.6-3.6-21.2-5.3-31.8
		C220.9,56,220.6,54.1,220.3,52.2z M164.5,38c-0.4,0.1-0.7,0.1-1,0.2c-2.1,0.6-4.1,1.2-6.2,1.6c-1,0.2-1.1,0.6-0.9,1.6
		c2.1,7.6,4.1,15.2,6.1,22.9c0.5,2.1,1.1,4.1,1.6,6.2c-0.5-0.3-0.8-0.7-1.1-1.2c-2.4-3.9-4.8-7.7-7.2-11.6
		c-2.9-4.6-5.7-9.3-8.6-13.9c-0.3-0.4-0.9-0.9-1.2-0.9c-2.2,0.5-4.3,1.1-6.6,1.7c5.8,21.6,11.5,43.1,17.3,64.8
		c2.9-0.8,5.7-1.5,8.7-2.3c-2.9-10.9-5.8-21.7-8.6-32.4c0.5,0.3,0.8,0.6,1,1c1.8,3.1,3.7,6.2,5.5,9.3c3.7,6.2,7.4,12.5,11.1,18.7
		c0.2,0.4,0.7,0.9,1,0.8c2.1-0.5,4.2-1.1,6.4-1.7C176,81.1,170.2,59.6,164.5,38z M84.5,86.4c-0.1,0-0.2,0-0.3,0
		c-2.2-8.4-4.5-16.8-6.8-25.3c-3.5,0.9-6.8,1.8-10.1,2.7C73,85.5,78.7,107,84.5,128.6c3.5-0.9,6.8-1.8,10.1-2.7
		c-0.1-0.4-0.1-0.7-0.2-1c-2.2-8.1-4.3-16.2-6.4-24.3c-0.3-1,0-2.1,0-3.2c0.1,0,0.3,0,0.4,0c0.2,0.4,0.5,0.8,0.7,1.2
		c4.3,8.1,8.6,16.2,12.9,24.3c0.4,0.7,0.8,0.8,1.5,0.6c2.8-0.8,5.6-1.5,8.4-2.3c0.2-0.1,0.5-0.2,0.7-0.3c-0.1-0.3-0.2-0.5-0.3-0.7
		c-4.8-8.7-9.6-17.4-14.5-26c-2-3.6-3.9-6.9-3.5-11.4c0.6-6.8,0.4-13.6,0.6-20.4c0-1.9,0-3.9,0-6c-3.1,0.8-6.2,1.6-9.2,2.5
		c-0.3,0.1-0.6,0.8-0.6,1.2c-0.2,6.3-0.3,12.7-0.4,19C84.6,81.6,84.5,84,84.5,86.4z M53.9,67.4c-3.7,1-7.3,1.9-10.9,2.9
		c-0.7,0.2-0.6,0.6-0.6,1.2c0.7,5.4,1.4,10.7,2.1,16.1c1,7.7,2,15.5,3,23.2c0.9,7.2,1.9,14.5,2.8,21.7c0.2,1.6,0.4,3.3,0.7,5.1
		c3.3-0.9,6.4-1.7,9.5-2.5c0-0.4,0-0.6-0.1-0.8c-0.6-4-1.1-8-1.8-12.1c-0.1-0.9,0.1-1.4,1-1.6c1.5-0.3,3-0.8,4.5-1.2
		c0.8-0.2,1.2-0.1,1.5,0.8c1.4,3.7,2.9,7.4,4.3,11.1c0.3,0.9,0.7,1.1,1.6,0.8c2.2-0.6,4.5-1.2,6.7-1.8c0.5-0.1,0.9-0.3,1.5-0.5
		C71.2,109,62.6,88.2,53.9,67.4z M255.2,60.2c-2.4,1.2-4.8,2.4-7.2,3.6c-0.7,0.3-0.8,0.7-0.6,1.4c0.6,1.8,1.2,3.6,1.9,5.3
		c1.3,3.1,2.8,6,5.3,8.3c4.3,4.1,11.7,4,15.9-0.1c3.4-3.3,4.3-7.6,3.9-12.1c-0.7-8-3.9-14.8-10.2-20c-2.7-2.2-5.6-4.2-8.4-6.4
		c-1.8-1.4-3.5-2.9-4.9-4.7c-1.9-2.5-2.9-5.4-2.1-8.5c0.2-0.7,0.9-1.4,1.6-1.7c0.8-0.4,1.7,0,2.3,0.8c0.4,0.5,0.7,1.1,0.9,1.7
		c0.8,2,1.5,3.9,2.2,5.9c0.2,0,0.4,0,0.6-0.1c2.4-1.1,4.7-2.1,7-3.3c0.3-0.1,0.5-0.8,0.4-1.1c-1-3.6-2.5-7-4.6-10.1
		c-1.4-2.1-3.1-3.9-5.7-4.6c-5.7-1.5-12.3,2.1-14.2,7.8c-1.2,3.3-1.1,6.6-0.5,10c1.3,7.2,4.6,13.1,10.5,17.4
		c3.3,2.4,6.7,4.8,9.8,7.4c3.3,2.8,4.9,6.6,5,10.9c0.1,2.3-2.1,3.4-3.9,2c-1-0.7-1.8-1.8-2.3-2.9C257,64.9,256.2,62.6,255.2,60.2z
		 M196.2,88.4c-1.7-6.5-3.4-12.9-5.1-19.3c2.5-0.7,4.8-1.3,7.1-1.9c0.3-0.1,0.8-0.6,0.7-0.8c-0.8-3.1-1.6-6.1-2.4-9.3
		c-0.5,0.1-0.8,0.1-1.1,0.2c-1.9,0.5-3.9,1-5.8,1.6c-0.8,0.3-1.2,0.1-1.4-0.8c-1.2-4.6-2.4-9.3-3.7-13.9c-0.3-0.9,0-1.3,0.9-1.5
		c2-0.5,3.9-1,5.9-1.5c1.1-0.3,2.3-0.6,3.5-1c-0.9-3.3-1.7-6.5-2.6-9.7c-7,1.9-13.8,3.7-20.7,5.5c5.8,21.7,11.5,43.2,17.3,64.8
		c7-1.9,13.8-3.7,20.8-5.5c-0.9-3.2-1.7-6.4-2.6-9.7C203.2,86.6,199.8,87.5,196.2,88.4z M124.5,76.2c-2.4,0.6-4.6,1.2-6.9,1.9
		c-0.8,0.2-1.2,0.1-1.4-0.8c-0.7-2.8-1.5-5.6-2.2-8.4c-0.6-2.1-1.1-4.3-1.7-6.5c3.5-1,6.9-1.9,10.5-2.8c-0.9-3.3-1.7-6.5-2.6-9.7
		c-6.9,1.9-13.7,3.7-20.7,5.5c5.8,21.6,11.5,43.1,17.3,64.8c7-1.9,13.8-3.7,20.8-5.5c-0.8-3.1-1.6-6-2.4-9c-0.2-0.8-0.8-0.6-1.4-0.4
		c-2.7,0.7-5.5,1.5-8.2,2.2c-1,0.3-1.4,0.1-1.7-1c-1-4.1-2.2-8.2-3.3-12.4c-0.5-1.9-1-3.8-1.5-5.7c2.7-0.7,5.3-1.5,8-2.2
		C126.3,82.8,125.4,79.5,124.5,76.2z M38.4,99.4c-2.6,0.7-5,1.3-7.5,2c-0.7,0.2-1.1,0.1-1.3-0.7c-1.3-4.8-2.5-9.6-3.8-14.4
		c-0.2-0.7-0.1-1,0.7-1.2c2.6-0.7,5.2-1.4,7.9-2.1c0.8-0.2,0.9-0.5,0.7-1.3c-0.7-2.5-1.4-5.1-2-7.6c-0.2-0.8-0.5-1-1.3-0.8
		c-5.9,1.6-11.8,3.2-17.8,4.7c-1,0.3-1,0.6-0.8,1.5c1.8,6.7,3.7,13.5,5.4,20.2c3.3,12.5,6.7,25,10,37.5c0.5,1.9,1,3.8,1.6,5.8
		c0.4-0.1,0.8-0.1,1.1-0.2c2.6-0.7,5.2-1.4,7.9-2.1c1.1-0.3,1.2-0.7,0.9-1.7c-2.3-8.6-4.6-17.2-6.9-25.9c-0.4-1.7-0.4-1.7,1.3-2.1
		c2.2-0.6,4.4-1.2,6.7-1.8C40.2,106,39.3,102.8,38.4,99.4z"/>
	<path class="st0" d="M220.3,52.2c0.3,1.9,0.6,3.8,0.9,5.7c1.8,10.6,3.6,21.2,5.3,31.8c0.1,0.3-0.2,1-0.4,1.1
		c-2.7,0.8-5.4,1.5-8.3,2.3C210.1,72,202.6,51,194.9,29.8c2.9-0.8,5.7-1.5,8.6-2.3c4.1,11.8,8.1,23.5,12.2,35.3c0.1,0,0.2,0,0.3-0.1
		c-2.1-12.2-4.2-24.4-6.3-36.7c2.1-0.6,4.2-1.2,6.2-1.6c0.2-0.1,0.7,0.5,0.9,0.8c1.6,4.1,3.1,8.3,4.7,12.4c2.6,7,5.2,14,7.8,20.9
		c0,0.1,0.1,0.2,0.4,0.2c-2.3-12.1-4.6-24.1-6.9-36.4c2.8-0.8,5.5-1.5,8.3-2.3c0.1,0.3,0.3,0.6,0.3,0.9c2.1,11.9,4.2,23.8,6.3,35.7
		c1.7,9.5,3.4,18.9,5.1,28.4c0.2,1.1-0.1,1.5-1.1,1.7c-2.1,0.5-4.3,1.1-6.4,1.7c-0.9,0.2-1.3,0.1-1.6-0.8
		c-4.2-11.3-8.5-22.7-12.8-34c-0.2-0.5-0.4-1-0.6-1.5C220.4,52.1,220.3,52.1,220.3,52.2z"/>
	<path class="st0" d="M164.5,38c5.8,21.6,11.5,43.1,17.3,64.7c-2.2,0.6-4.3,1.2-6.4,1.7c-0.3,0.1-0.8-0.5-1-0.8
		c-3.7-6.2-7.4-12.5-11.1-18.7c-1.8-3.1-3.7-6.2-5.5-9.3c-0.2-0.4-0.5-0.7-1-1c2.9,10.8,5.7,21.5,8.6,32.4c-2.9,0.8-5.8,1.5-8.7,2.3
		c-5.8-21.7-11.5-43.2-17.3-64.8c2.3-0.6,4.4-1.2,6.6-1.7c0.3-0.1,0.9,0.5,1.2,0.9c2.9,4.6,5.8,9.3,8.6,13.9
		c2.4,3.9,4.8,7.7,7.2,11.6c0.3,0.4,0.6,0.8,1.1,1.2c-0.5-2.1-1.1-4.1-1.6-6.2c-2-7.6-4.1-15.2-6.1-22.9c-0.2-0.9-0.2-1.3,0.9-1.6
		c2.1-0.5,4.2-1.1,6.2-1.6C163.8,38.1,164.1,38,164.5,38z"/>
	<path class="st0" d="M84.5,86.4c0.1-2.4,0.2-4.8,0.2-7.2c0.1-6.3,0.3-12.7,0.4-19c0-0.4,0.3-1.1,0.6-1.2c3-0.9,6.1-1.7,9.2-2.5
		c0,2.1,0,4,0,6c-0.1,6.8,0,13.7-0.6,20.4c-0.4,4.5,1.5,7.9,3.5,11.4c4.9,8.7,9.7,17.3,14.5,26c0.1,0.2,0.2,0.4,0.3,0.7
		c-0.3,0.1-0.5,0.2-0.7,0.3c-2.8,0.8-5.6,1.5-8.4,2.3c-0.7,0.2-1.1,0.1-1.5-0.6c-4.3-8.1-8.6-16.2-12.9-24.3
		c-0.2-0.4-0.5-0.8-0.7-1.2c-0.1,0-0.3,0-0.4,0c0,1.1-0.2,2.2,0,3.2c2.1,8.1,4.3,16.2,6.4,24.3c0.1,0.3,0.1,0.5,0.2,1
		c-3.3,0.9-6.6,1.8-10.1,2.7C78.7,107,73,85.5,67.2,63.9c3.4-0.9,6.7-1.8,10.1-2.7c2.3,8.5,4.5,16.9,6.8,25.3
		C84.2,86.4,84.3,86.4,84.5,86.4z"/>
	<path class="st0" d="M53.9,67.4c8.6,20.9,17.2,41.6,25.8,62.4c-0.6,0.2-1,0.4-1.5,0.5c-2.2,0.6-4.5,1.2-6.7,1.8
		c-0.9,0.3-1.3,0.1-1.6-0.8c-1.4-3.7-2.9-7.4-4.3-11.1c-0.3-0.8-0.7-1-1.5-0.8c-1.5,0.4-3,0.9-4.5,1.2c-1,0.2-1.2,0.6-1,1.6
		c0.6,4,1.2,8,1.8,12.1c0,0.2,0,0.5,0.1,0.8c-3.1,0.8-6.2,1.7-9.5,2.5c-0.2-1.8-0.5-3.4-0.7-5.1c-0.9-7.2-1.9-14.5-2.8-21.7
		c-1-7.7-2-15.5-3-23.2c-0.7-5.4-1.4-10.8-2.1-16.1c-0.1-0.6-0.1-1,0.6-1.2C46.6,69.3,50.2,68.4,53.9,67.4z M53.4,87.8
		c-0.1,0-0.2,0-0.4,0.1c1.3,8,2.7,16,4,24.2c1.7-0.4,3.2-0.8,4.9-1.3C59.1,103.1,56.3,95.5,53.4,87.8z"/>
	<path class="st0" d="M255.2,60.2c0.9,2.4,1.7,4.8,2.7,6.9c0.5,1.1,1.4,2.2,2.3,2.9c1.8,1.4,4,0.2,3.9-2c-0.1-4.3-1.8-8.1-5-10.9
		c-3.1-2.7-6.5-5-9.8-7.4c-6-4.3-9.2-10.3-10.5-17.4c-0.6-3.4-0.7-6.7,0.5-10c2-5.6,8.6-9.2,14.2-7.8c2.6,0.7,4.3,2.5,5.7,4.6
		c2.1,3.1,3.6,6.5,4.6,10.1c0.1,0.3-0.1,1-0.4,1.1c-2.3,1.1-4.7,2.2-7,3.3c-0.2,0.1-0.4,0.1-0.6,0.1c-0.7-2-1.5-4-2.2-5.9
		c-0.2-0.6-0.6-1.2-0.9-1.7c-0.6-0.8-1.5-1.2-2.3-0.8c-0.7,0.3-1.4,1-1.6,1.7c-0.7,3.2,0.3,6.1,2.1,8.5c1.3,1.8,3.1,3.3,4.9,4.7
		c2.7,2.2,5.7,4.1,8.4,6.4c6.2,5.2,9.5,12,10.2,20c0.4,4.5-0.5,8.8-3.9,12.1c-4.2,4.1-11.6,4.2-15.9,0.1c-2.5-2.3-4-5.2-5.3-8.3
		c-0.7-1.7-1.3-3.5-1.9-5.3c-0.3-0.7-0.1-1.1,0.6-1.4C250.5,62.6,252.8,61.4,255.2,60.2z"/>
	<path class="st0" d="M196.2,88.4c3.6-0.9,7-1.8,10.6-2.8c0.9,3.3,1.7,6.4,2.6,9.7c-6.9,1.9-13.8,3.7-20.8,5.5
		c-5.8-21.6-11.5-43.1-17.3-64.8c6.9-1.8,13.7-3.7,20.7-5.5c0.9,3.2,1.7,6.4,2.6,9.7c-1.2,0.3-2.3,0.7-3.5,1c-2,0.5-3.9,1.1-5.9,1.5
		c-0.9,0.2-1.1,0.6-0.9,1.5c1.3,4.6,2.5,9.2,3.7,13.9c0.2,0.9,0.6,1,1.4,0.8c1.9-0.6,3.8-1.1,5.8-1.6c0.3-0.1,0.7-0.1,1.1-0.2
		c0.8,3.1,1.7,6.2,2.4,9.3c0,0.2-0.4,0.7-0.7,0.8c-2.3,0.7-4.6,1.3-7.1,1.9C192.8,75.5,194.5,81.9,196.2,88.4z"/>
	<path class="st0" d="M124.5,76.2c0.9,3.3,1.7,6.5,2.6,9.9c-2.7,0.7-5.3,1.4-8,2.2c0.5,2,1,3.8,1.5,5.7c1.1,4.1,2.2,8.2,3.3,12.4
		c0.3,1.1,0.7,1.2,1.7,1c2.7-0.8,5.5-1.5,8.2-2.2c0.5-0.1,1.1-0.4,1.4,0.4c0.8,2.9,1.5,5.8,2.4,9c-6.9,1.9-13.8,3.7-20.8,5.5
		c-5.8-21.7-11.5-43.2-17.3-64.8c6.9-1.8,13.7-3.7,20.7-5.5c0.9,3.3,1.7,6.4,2.6,9.7c-3.5,1-6.9,1.9-10.5,2.8
		c0.6,2.3,1.1,4.4,1.7,6.5c0.7,2.8,1.5,5.6,2.2,8.4c0.2,0.9,0.6,1.1,1.4,0.8C119.9,77.5,122.1,76.9,124.5,76.2z"/>
	<path class="st0" d="M38.4,99.4c0.9,3.4,1.8,6.6,2.6,10c-2.4,0.6-4.5,1.2-6.7,1.8c-1.7,0.5-1.7,0.4-1.3,2.1
		c2.3,8.6,4.6,17.2,6.9,25.9c0.3,1,0.2,1.4-0.9,1.7c-2.6,0.6-5.2,1.4-7.9,2.1c-0.3,0.1-0.6,0.1-1.1,0.2c-0.5-2-1.1-3.9-1.6-5.8
		c-3.3-12.5-6.6-25-10-37.5C16.8,93,15,86.3,13.1,79.6c-0.2-0.9-0.2-1.3,0.8-1.5c5.9-1.5,11.9-3.1,17.8-4.7c0.8-0.2,1.1,0,1.3,0.8
		c0.6,2.6,1.3,5.1,2,7.6c0.2,0.7,0.1,1.1-0.7,1.3c-2.6,0.7-5.2,1.4-7.9,2.1c-0.7,0.2-0.9,0.5-0.7,1.2c1.3,4.8,2.6,9.6,3.8,14.4
		c0.2,0.8,0.6,0.9,1.3,0.7C33.4,100.7,35.8,100.1,38.4,99.4z"/>
	<path class="st1" d="M53.4,87.8c2.8,7.6,5.7,15.2,8.6,23c-1.7,0.5-3.3,0.9-4.9,1.3c-1.4-8.2-2.7-16.2-4-24.2
		C53.2,87.9,53.3,87.9,53.4,87.8z"/>
</g>
</svg>
