<?xml version="1.0" encoding="utf-8"?>
<!-- Generator: Adobe Illustrator 19.0.0, SVG Export Plug-In . SVG Version: 6.00 Build 0)  -->
<svg version="1.2" baseProfile="tiny" id="Layer_1" xmlns="http://www.w3.org/2000/svg" xmlns:xlink="http://www.w3.org/1999/xlink"
	 x="0px" y="0px" width="70px" height="70px" viewBox="0 0 70 70" xml:space="preserve">
<g id="sun">
	<path id="XMLID_67_" fill-rule="evenodd" fill="#FED420" d="M14.7,19.2c1.3,1.3,3.3,1.3,4.5,0c1.2-1.2,1.3-3.2,0-4.5l-4.5-4.5
		c-1.3-1.3-3.3-1.3-4.5,0c-1.2,1.2-1.3,3.2,0,4.5L14.7,19.2z M35,12.7c1.8,0,3.2-1.4,3.2-3.2V3.2C38.2,1.4,36.8,0,35,0
		c-1.8,0-3.2,1.4-3.2,3.2v6.3C31.8,11.3,33.2,12.7,35,12.7z M55.3,19.2l4.5-4.5c1.3-1.3,1.3-3.3,0-4.5c-1.2-1.2-3.2-1.3-4.5,0
		l-4.5,4.5c-1.3,1.3-1.3,3.3,0,4.5C52,20.5,54,20.5,55.3,19.2z M12.7,35c0-1.8-1.4-3.2-3.2-3.2H3.2C1.4,31.8,0,33.2,0,35
		c0,1.8,1.4,3.2,3.2,3.2h6.3C11.3,38.2,12.7,36.8,12.7,35z M55.3,50.8c-1.3-1.3-3.3-1.3-4.5,0c-1.2,1.2-1.3,3.2,0,4.5l4.5,4.5
		c1.3,1.3,3.3,1.3,4.5,0c1.2-1.2,1.3-3.2,0-4.5L55.3,50.8z M66.8,31.8h-6.3c-1.8,0-3.2,1.4-3.2,3.2c0,1.8,1.4,3.2,3.2,3.2h6.3
		c1.8,0,3.2-1.4,3.2-3.2C70,33.2,68.6,31.8,66.8,31.8z M14.7,50.8l-4.5,4.5c-1.3,1.3-1.3,3.3,0,4.5c1.2,1.2,3.2,1.2,4.5,0l4.5-4.5
		c1.3-1.3,1.3-3.3,0-4.5C18,49.5,16,49.5,14.7,50.8z M35,15.9c-10.5,0-19.1,8.5-19.1,19.1c0,10.5,8.5,19.1,19.1,19.1
		c10.5,0,19.1-8.5,19.1-19.1C54.1,24.5,45.5,15.9,35,15.9z M35,47.7c-7,0-12.7-5.7-12.7-12.7c0-7,5.7-12.7,12.7-12.7
		c7,0,12.7,5.7,12.7,12.7C47.7,42,42,47.7,35,47.7z M35,57.3c-1.8,0-3.2,1.4-3.2,3.2v6.3c0,1.8,1.4,3.2,3.2,3.2
		c1.8,0,3.2-1.4,3.2-3.2v-6.3C38.2,58.7,36.8,57.3,35,57.3z"/>
</g>
</svg>
