<?xml version="1.0" encoding="utf-8"?>
<!-- Generator: Adobe Illustrator 19.0.0, SVG Export Plug-In . SVG Version: 6.00 Build 0)  -->
<svg version="1.2" baseProfile="tiny" id="Layer_1" xmlns="http://www.w3.org/2000/svg" xmlns:xlink="http://www.w3.org/1999/xlink"
	 x="0px" y="0px" width="70px" height="70px" viewBox="0 0 70 70" xml:space="preserve">
<g id="Forma_1_copy">
	<path id="XMLID_19_" fill-rule="evenodd" fill="#FED420" d="M9.4,33c0-1.3-1-2.3-2.4-2.3H2.4c-1.3,0-2.4,1-2.4,2.3
		c0,1.3,1,2.3,2.4,2.3H7C8.3,35.4,9.4,34.3,9.4,33z M10.9,21.4c0.9,0.9,2.4,0.9,3.3,0c0.9-0.9,0.9-2.4,0-3.3l-3.3-3.3
		c-0.9-0.9-2.4-0.9-3.3,0c-0.9,0.9-0.9,2.4,0,3.3L10.9,21.4z M40.8,21.4l3.3-3.3c0.9-0.9,0.9-2.4,0-3.3c-0.9-0.9-2.4-0.9-3.3,0
		L37.5,18c-0.9,0.9-0.9,2.4,0,3.3C38.4,22.3,39.8,22.3,40.8,21.4z M25.8,16.6c1.3,0,2.3-1,2.3-2.4V9.6c0-1.3-1-2.4-2.3-2.4
		c-1.3,0-2.3,1-2.3,2.4v4.6C23.5,15.5,24.5,16.6,25.8,16.6z M25.8,18.9c-7.8,0-14.1,6.3-14.1,14.1c0,7.8,6.3,14.1,14.1,14.1
		c7.8,0,14.1-6.3,14.1-14.1C39.9,25.2,33.6,18.9,25.8,18.9z M25.8,42.4c-5.2,0-9.4-4.2-9.4-9.4c0-5.2,4.2-9.4,9.4-9.4
		c5.2,0,9.4,4.2,9.4,9.4C35.2,38.2,31,42.4,25.8,42.4z M40.8,44.6c-0.9-0.9-2.4-0.9-3.3,0c-0.9,0.9-0.9,2.4,0,3.3l3.3,3.3
		c0.9,0.9,2.4,0.9,3.3,0c0.9-0.9,0.9-2.4,0-3.3L40.8,44.6z M10.9,44.6l-3.3,3.3c-0.9,0.9-0.9,2.4,0,3.3c0.9,0.9,2.4,0.9,3.3,0
		l3.3-3.3c0.9-0.9,0.9-2.4,0-3.3C13.3,43.7,11.8,43.7,10.9,44.6z M49.3,30.7h-4.6c-1.3,0-2.4,1-2.4,2.3c0,1.3,1,2.3,2.4,2.3h4.6
		c1.3,0,2.4-1,2.4-2.3C51.7,31.7,50.6,30.7,49.3,30.7z M25.8,49.4c-1.3,0-2.3,1-2.3,2.4v4.6c0,1.3,1,2.4,2.3,2.4
		c1.3,0,2.3-1,2.3-2.4v-4.6C28.2,50.5,27.1,49.4,25.8,49.4z"/>
</g>
<g id="cloud_copy_2">
	<path id="XMLID_18_" fill-rule="evenodd" fill="#FFFFFF" d="M67.9,44.6L67.9,44.6L67.9,44.6c-0.1-6.7-5.4-12-11.9-12
		c-1.4,0-0.8-2-2-1.5c-2.4-4.7-9.1-5.7-14.7-5.7c-7.9,0-14.3,6.5-14.3,14.5c0,0.1,0,0.2,0,0.2c-5.5,1.1-9.6,6-9.6,11.9
		c0,6.7,5.3,12.1,11.9,12.1h40.5v-0.1c5.3,0,9.5-5.9,9.5-11.2C77.5,47.3,73.2,44.6,67.9,44.6z"/>
</g>
<g id="cloud_copy">
	<path id="XMLID_17_" fill-rule="evenodd" fill="#72B1C0" d="M62.2,45.9L62.2,45.9L62.2,45.9c-0.1-5.4-4.3-9.6-9.4-9.6
		c-1.1,0-2.2,0.2-3.1,0.6c-1.9-3.8-5.7-6.4-10.1-6.4c-6.3,0-11.3,5.2-11.3,11.6c0,0.1,0,0.1,0,0.2c-4.3,0.9-7.6,4.8-7.6,9.5
		c0,5.3,4.2,9.7,9.4,9.7h32.1v-0.1c4.2,0,7.5-3.5,7.5-7.7C69.7,49.3,66.4,45.9,62.2,45.9z"/>
</g>
</svg>
