<?xml version="1.0" encoding="utf-8"?>
<!-- Generator: Adobe Illustrator 19.0.0, SVG Export Plug-In . SVG Version: 6.00 Build 0)  -->
<svg version="1.2" baseProfile="tiny" id="Layer_1" xmlns="http://www.w3.org/2000/svg" xmlns:xlink="http://www.w3.org/1999/xlink"
	 x="0px" y="0px" width="70px" height="70px" viewBox="0 0 70 70" xml:space="preserve">
<g id="Forma_1_copy_2_">
	<path id="XMLID_21_" fill-rule="evenodd" fill="#FED420" d="M10.9,18.8c0.9,0.9,2.4,0.9,3.3,0c0.9-0.9,0.9-2.4,0-3.3l-3.3-3.3
		c-0.9-0.9-2.4-0.9-3.3,0c-0.9,0.9-0.9,2.4,0,3.3L10.9,18.8z M40.8,18.8l3.3-3.3c0.9-0.9,0.9-2.4,0-3.3c-0.9-0.9-2.4-0.9-3.3,0
		l-3.3,3.3c-0.9,0.9-0.9,2.4,0,3.3C38.4,19.7,39.8,19.7,40.8,18.8z M25.8,14c1.3,0,2.3-1,2.3-2.4V7c0-1.3-1-2.4-2.3-2.4
		c-1.3,0-2.3,1-2.3,2.4v4.6C23.5,12.9,24.5,14,25.8,14z M9.4,30.4c0-1.3-1-2.3-2.4-2.3H2.4c-1.3,0-2.4,1-2.4,2.3
		c0,1.3,1,2.3,2.4,2.3H7C8.3,32.8,9.4,31.7,9.4,30.4z M25.8,46.9c-1.3,0-2.3,1-2.3,2.4v4.6c0,1.3,1,2.4,2.3,2.4c1.3,0,2.3-1,2.3-2.4
		v-4.6C28.2,47.9,27.1,46.9,25.8,46.9z M10.9,42.1l-3.3,3.3c-0.9,0.9-0.9,2.4,0,3.3c0.9,0.9,2.4,0.9,3.3,0l3.3-3.3
		c0.9-0.9,0.9-2.4,0-3.3C13.3,41.1,11.8,41.1,10.9,42.1z M44.1,45.4l-3.3-3.3c-0.9-0.9-2.4-0.9-3.3,0c-0.9,0.9-0.9,2.4,0,3.3
		l3.3,3.3c0.9,0.9,2.4,0.9,3.3,0C45,47.8,45,46.3,44.1,45.4z M25.8,16.3c-7.8,0-14.1,6.3-14.1,14.1c0,7.8,6.3,14.1,14.1,14.1
		c7.8,0,14.1-6.3,14.1-14.1C39.9,22.6,33.6,16.3,25.8,16.3z M25.8,39.8c-5.2,0-9.4-4.2-9.4-9.4c0-5.2,4.2-9.4,9.4-9.4
		s9.4,4.2,9.4,9.4C35.2,35.6,31,39.8,25.8,39.8z"/>
</g>
<g id="cloud_copy_2_2_">
	<path id="XMLID_20_" fill-rule="evenodd" fill="#FFFFFF" d="M67.9,42L67.9,42L67.9,42c-0.1-6.7-5.4-12-11.9-12
		c-1.4,0-2.7,0.3-4,0.7c-2.4-4.7-7.1-8-12.7-8c-7.9,0-14.3,6.5-14.3,14.5c0,0.1,0,0.2,0,0.2c-5.5,1.1-9.6,6-9.6,11.9
		c0,6.7,5.3,12.1,11.9,12.1h40.5v-0.1c5.3,0,9.5-4.3,9.5-9.7C77.5,46.3,73.2,42,67.9,42z"/>
</g>
<g id="cloud_copy_2_">
	<path id="XMLID_19_" fill-rule="evenodd" fill="#72B1C0" d="M62.2,43.3L62.2,43.3L62.2,43.3c-0.1-5.4-4.3-9.6-9.4-9.6
		c-1.1,0-2.2,0.2-3.1,0.6c-1.9-3.8-5.7-6.4-10.1-6.4c-6.3,0-11.3,5.2-11.3,11.6c0,0.1,0,0.1,0,0.2c-4.3,0.9-7.6,4.8-7.6,9.5
		c0,5.3,4.2,9.7,9.4,9.7h32.1v-0.1c4.2,0,7.5-3.5,7.5-7.7S66.4,43.3,62.2,43.3z"/>
</g>
<g id="cloud_copy_3">
	<path id="XMLID_18_" fill-rule="evenodd" fill="#FFFFFF" d="M47.5,51L47.5,51L47.5,51c-0.1-4.5-3.8-8-8.4-8c-1,0-1.9,0.2-2.8,0.5
		c-1.7-3.2-5.1-5.3-9-5.3c-5.6,0-10.1,4.3-10.1,9.7c0,0.1,0,0.1,0,0.2c-3.9,0.7-6.8,4-6.8,7.9c0,4.5,3.8,8.1,8.4,8.1h28.7v-0.1
		c3.7,0,6.8-2.9,6.8-6.5S51.2,51,47.5,51z"/>
</g>
<g id="cloud_copy_3_1_">
	<path id="XMLID_17_" fill-rule="evenodd" fill="#72B1C0" d="M44.3,53.6L44.3,53.6L44.3,53.6c0-3.6-2.7-6.4-6-6.4
		c-0.7,0-1.4,0.2-2,0.4c-1.2-2.5-3.6-4.3-6.4-4.3c-4,0-7.2,3.5-7.2,7.7c0,0,0,0.1,0,0.1c-2.7,0.6-4.8,3.2-4.8,6.3
		c0,3.6,2.7,6.5,6,6.5h20.3v0c2.6,0,4.8-2.3,4.8-5.2C49.1,55.9,46.9,53.6,44.3,53.6z"/>
</g>
</svg>
