<?xml version="1.0" encoding="utf-8"?>
<!-- Generator: Adobe Illustrator 19.0.0, SVG Export Plug-In . SVG Version: 6.00 Build 0)  -->
<svg version="1.2" baseProfile="tiny" id="Layer_1" xmlns="http://www.w3.org/2000/svg" xmlns:xlink="http://www.w3.org/1999/xlink"
	 x="0px" y="0px" width="70px" height="70px" viewBox="0 0 70 70" xml:space="preserve">
<g id="cloud_copy_2_2_">
</g>
<g id="Forma_1_copy_2">
	<path id="XMLID_22_" fill-rule="evenodd" fill="#FED420" d="M7.6,25.4h-5C1.1,25.4,0,26.6,0,28c0,1.4,1.1,2.5,2.6,2.5h5
		c1.4,0,2.6-1.1,2.6-2.5C10.2,26.6,9,25.4,7.6,25.4z M11.8,8.2c-1-1-2.6-1-3.6,0c-1,1-1,2.6,0,3.6l3.6,3.6c1,1,2.6,1,3.6,0
		c1-1,1-2.6,0-3.6L11.8,8.2z M47.8,8.2c-1-1-2.6-1-3.6,0l-3.6,3.6c-1,1-1,2.6,0,3.6c1,1,2.6,1,3.6,0l3.6-3.6
		C48.7,10.8,48.8,9.2,47.8,8.2z M28,0c-1.4,0-2.5,1.1-2.5,2.6v5c0,1.4,1.1,2.6,2.5,2.6c1.4,0,2.5-1.1,2.5-2.6v-5
		C30.5,1.1,29.4,0,28,0z"/>
</g>
<g id="cloud_copy_4">
	<path id="XMLID_21_" fill-rule="evenodd" fill="#72B1C0" d="M59.6,34.9L59.6,34.9L59.6,34.9c-0.1-7.3-5.8-13-12.9-13
		c-1.5,0-2.9,0.3-4.3,0.8c-2.6-5.1-7.7-8.7-13.8-8.7c-8.6,0-15.5,7-15.5,15.7c0,0.1,0,0.2,0,0.3C7.3,31.2,2.8,36.5,2.8,42.8
		C2.8,50.1,8.6,56,15.7,56h43.9v-0.1c5.7,0,10.3-4.7,10.3-10.5C69.9,39.6,65.3,34.9,59.6,34.9z"/>
</g>
<g id="cloud_copy_2_4_">
	<path id="XMLID_19_" fill-rule="evenodd" fill="#FFFFFF" d="M53.8,49.2c0-0.1,0-0.1,0-0.2c0-7-5.2-12.6-11.6-12.6
		c-4.5,0-8.4,2.8-10.3,6.9c-1-0.4-2.1-0.6-3.2-0.6c-5.3,0-9.6,4.6-9.7,10.4h0v0.1c-4.3,0-7.7,3.8-7.7,8.4c0,4.6,3.5,8.4,7.7,8.4v0.1
		h32.9c5.3,0,9.7-4.7,9.7-10.5C61.5,54.4,58.2,50.1,53.8,49.2z"/>
</g>
<g id="cloud_copy_4_">
	<path id="XMLID_18_" fill-rule="evenodd" fill="#72B1C0" d="M49.9,51.6c0-0.1,0-0.1,0-0.2c0-5.2-4-9.4-9-9.4c-3.5,0-6.5,2.1-8,5.2
		c-0.8-0.3-1.6-0.5-2.5-0.5c-4.1,0-7.5,3.5-7.5,7.8h0v0c-3.3,0-6,2.8-6,6.3c0,3.5,2.7,6.3,6,6.3v0h25.6c4.2,0,7.5-3.5,7.5-7.9
		C56,55.5,53.4,52.3,49.9,51.6z"/>
</g>
</svg>
