<?xml version="1.0" encoding="utf-8"?>
<!-- Generator: Adobe Illustrator 24.1.3, SVG Export Plug-In . SVG Version: 6.00 Build 0)  -->
<svg version="1.1" id="Layer_1" xmlns="http://www.w3.org/2000/svg" xmlns:xlink="http://www.w3.org/1999/xlink" x="0px" y="0px"
	 viewBox="0 0 70 67.3" style="enable-background:new 0 0 70 67.3;" xml:space="preserve">
<style type="text/css">
	.st0{fill-rule:evenodd;clip-rule:evenodd;fill:#72B1C0;}
	.st1{fill-rule:evenodd;clip-rule:evenodd;fill:#8CCCDC;}
</style>
<g id="cloud_copy_5">
	<path class="st0" d="M59.2,22L59.2,22L59.2,22C59,14.5,53.1,8.4,45.7,8.4c-1.6,0-3.1,0.4-4.5,0.8C38.6,3.7,33.3,0,26.9,0
		c-9,0-16.1,7.3-16.1,16.5v0.2C4.7,18,0,23.7,0,30.2c0,7.6,6.1,13.9,13.5,13.9h45.7l0,0c5.9,0,10.8-4.9,10.8-11S65.1,22,59.2,22z"/>
</g>
<g id="Forma_1">
	<path class="st1" d="M14.9,55.3c5.1-3.1,9.2-5.5,19.8-1.2c5.3,2,9.4,2.9,12.9,2.9c6.1,0,10.2-2.4,13.5-4.5c1.2-0.8,1.4-2,0.2-2.9
		c-1-0.8-2.9-1-4.1-0.2c-5.1,3.1-9.2,5.5-19.8,1.2c-14.1-5.7-20.8-1.6-26.1,1.6c-1.2,0.8-1.4,2-0.2,2.9
		C11.8,55.9,13.7,56.1,14.9,55.3z M57.6,59.8c-5.1,3.1-9.2,5.5-19.8,1.2c-14.3-5.7-21-1.6-26.3,1.6c-1.2,0.8-1.4,2-0.2,2.9
		c1,0.8,2.9,1,4.1,0.2c4.9-3.1,8.8-5.5,19.8-1.2c5.3,2,9.4,2.9,12.9,2.9c6.1,0,10.2-2.4,13.5-4.5c1.2-0.8,1.4-2,0.2-2.9
		C60.6,59.2,58.8,59,57.6,59.8z"/>
</g>
</svg>
