<?xml version="1.0" encoding="utf-8"?>
<!-- Generator: Adobe Illustrator 19.0.0, SVG Export Plug-In . SVG Version: 6.00 Build 0)  -->
<svg version="1.2" baseProfile="tiny" id="Layer_1" xmlns="http://www.w3.org/2000/svg" xmlns:xlink="http://www.w3.org/1999/xlink"
	 x="0px" y="0px" width="70px" height="70px" viewBox="0 0 70 70" xml:space="preserve">
<g id="cloud_copy_8_">
	<path id="XMLID_20_" fill-rule="evenodd" fill="#72B1C0" d="M59.2,22L59.2,22L59.2,22c-0.1-7.6-6.1-13.7-13.5-13.7
		c-1.6,0-3.1,0.3-4.5,0.8C38.6,3.7,33.2,0,26.9,0C18,0,10.8,7.4,10.8,16.6c0,0.1,0,0.2,0,0.3C4.6,18.1,0,23.7,0,30.4
		C0,38,6,44.2,13.5,44.2h45.7v-0.1c5.9,0,10.8-4.9,10.8-11C70,27,65.1,22,59.2,22z"/>
</g>
<g id="teardrop_copy_3">
	<path id="XMLID_19_" fill-rule="evenodd" fill="#72D1E8" d="M21.4,56.9L16.9,48c-0.1-0.3-0.5-0.3-0.7,0l-4.5,8.8
		c-0.9,1.9-1,4.2,0,6.2c1.5,3,4.9,4.1,7.5,2.3C22,63.7,22.9,59.9,21.4,56.9z"/>
</g>
<g id="teardrop_copy_4">
	<path id="XMLID_18_" fill-rule="evenodd" fill="#72D1E8" d="M39.8,56.9L35.3,48c-0.1-0.3-0.5-0.3-0.7,0l-4.5,8.8
		c-0.9,1.9-1,4.2,0,6.2c1.5,3,4.9,4.1,7.5,2.3C40.4,63.7,41.3,59.9,39.8,56.9z"/>
</g>
<g id="teardrop_copy_5">
	<path id="XMLID_17_" fill-rule="evenodd" fill="#72D1E8" d="M58.2,56.9L53.7,48c-0.1-0.3-0.5-0.3-0.7,0l-4.5,8.8
		c-0.9,1.9-1,4.2,0,6.2c1.5,3,4.9,4.1,7.5,2.3C58.8,63.7,59.7,59.9,58.2,56.9z"/>
</g>
</svg>
