<?xml version="1.0" encoding="utf-8"?>
<!-- Generator: Adobe Illustrator 19.0.0, SVG Export Plug-In . SVG Version: 6.00 Build 0)  -->
<svg version="1.2" baseProfile="tiny" id="Layer_1" xmlns="http://www.w3.org/2000/svg" xmlns:xlink="http://www.w3.org/1999/xlink"
	 x="0px" y="0px" width="70px" height="70px" viewBox="10 -10 70 70" xml:space="preserve">
<g id="cloud_copy_16_">
</g>
<g id="cloud_copy_18_">
	<path fill-rule="evenodd" fill="#B8BFC0" d="M66.4,9.9L66.4,9.9L66.4,9.9C66.3,3,60.9-2.5,54.3-2.5c-1.4,0-2.8,0.3-4,0.8
		C47.8-6.6,43-10,37.3-10c-8,0-14.6,6.7-14.6,15c0,0.1,0,0.2,0,0.2C17.2,6.3,13,11.4,13,17.4c0,6.9,5.4,12.5,12.1,12.5h41.3v-0.1
		c5.4,0,9.7-4.5,9.7-10S71.8,9.9,66.4,9.9z"/>
</g>
<g id="Rounded_Rectangle_1_copy">
	<path fill-rule="evenodd" fill="#B8BFC0" d="M34.1,49.8l4.5-4.5c1.2-1.2,1.2-3.3,0-4.5c-1.2-1.2-3.3-1.2-4.5,0l-4.5,4.5l-4.5-4.5
		c-1.2-1.2-3.3-1.2-4.5,0c-1.2,1.2-1.2,3.3,0,4.5l4.5,4.5l-4.5,4.5c-1.2,1.2-1.2,3.3,0,4.5c1.2,1.2,3.3,1.2,4.5,0l4.5-4.5l4.5,4.5
		c1.2,1.2,3.3,1.2,4.5,0c1.2-1.2,1.2-3.3,0-4.5L34.1,49.8z"/>
</g>
<g id="Rounded_Rectangle_1_copy_3">
	<path fill-rule="evenodd" fill="#B8BFC0" d="M64,49.8l4.5-4.5c1.2-1.2,1.2-3.3,0-4.5c-1.2-1.2-3.3-1.2-4.5,0l-4.5,4.5L55,40.8
		c-1.2-1.2-3.3-1.2-4.5,0c-1.2,1.2-1.2,3.3,0,4.5l4.5,4.5l-4.5,4.5c-1.2,1.2-1.2,3.3,0,4.5c1.2,1.2,3.3,1.2,4.5,0l4.5-4.5l4.5,4.5
		c1.2,1.2,3.3,1.2,4.5,0c1.2-1.2,1.2-3.3,0-4.5L64,49.8z"/>
</g>
</svg>
