<?xml version="1.0" encoding="utf-8"?>
<!-- Generator: Adobe Illustrator 19.0.0, SVG Export Plug-In . SVG Version: 6.00 Build 0)  -->
<svg version="1.2" baseProfile="tiny" id="Layer_1" xmlns="http://www.w3.org/2000/svg" xmlns:xlink="http://www.w3.org/1999/xlink"
	 x="0px" y="0px" width="70px" height="70px" viewBox="10 -10 70 70" xml:space="preserve">
<g id="cloud_copy_20_">
	<path fill-rule="evenodd" fill="#B8BFC0" d="M67.5,9L67.5,9L67.5,9C67.4,2.4,62.2-2.8,55.9-2.8c-1.4,0-2.7,0.3-3.9,0.7
		C49.7-6.8,45-10,39.6-10c-7.7,0-13.9,6.4-13.9,14.3c0,0.1,0,0.2,0,0.2c-5.3,1.1-9.3,5.9-9.3,11.7c0,6.6,5.2,11.9,11.6,11.9h39.5
		v-0.1c5.1,0,9.3-4.3,9.3-9.5C76.8,13.3,72.6,9,67.5,9z"/>
</g>
<g id="Rounded_Rectangle_1_copy_2_">
	<path fill-rule="evenodd" fill="#B8BFC0" d="M23.9,47.3l4.3-4.3c1.2-1.2,1.2-3.1,0-4.3c-1.2-1.2-3.1-1.2-4.3,0l-4.3,4.3l-4.3-4.3
		c-1.2-1.2-3.1-1.2-4.3,0c-1.2,1.2-1.2,3.1,0,4.3l4.3,4.3l-4.3,4.3c-1.2,1.2-1.2,3.1,0,4.3c1.2,1.2,3.1,1.2,4.3,0l4.3-4.3l4.3,4.3
		c1.2,1.2,3.1,1.2,4.3,0c1.2-1.2,1.2-3.1,0-4.3L23.9,47.3z"/>
</g>
<g id="Rounded_Rectangle_1_copy_3_2_">
	<path fill-rule="evenodd" fill="#B8BFC0" d="M49.3,47.3l4.3-4.3c1.2-1.2,1.2-3.1,0-4.3c-1.2-1.2-3.1-1.2-4.3,0L45,42.9l-4.3-4.3
		c-1.2-1.2-3.1-1.2-4.3,0c-1.2,1.2-1.2,3.1,0,4.3l4.3,4.3l-4.3,4.3c-1.2,1.2-1.2,3.1,0,4.3c1.2,1.2,3.1,1.2,4.3,0l4.3-4.3l4.3,4.3
		c1.2,1.2,3.1,1.2,4.3,0c1.2-1.2,1.2-3.1,0-4.3L49.3,47.3z"/>
</g>
<g id="Rounded_Rectangle_1_copy_6">
	<path fill-rule="evenodd" fill="#B8BFC0" d="M74.7,47.3l4.3-4.3c1.2-1.2,1.2-3.1,0-4.3c-1.2-1.2-3.1-1.2-4.3,0l-4.3,4.3l-4.3-4.3
		c-1.2-1.2-3.1-1.2-4.3,0c-1.2,1.2-1.2,3.1,0,4.3l4.3,4.3l-4.3,4.3c-1.2,1.2-1.2,3.1,0,4.3c1.2,1.2,3.1,1.2,4.3,0l4.3-4.3l4.3,4.3
		c1.2,1.2,3.1,1.2,4.3,0c1.2-1.2,1.2-3.1,0-4.3L74.7,47.3z"/>
</g>
</svg>
