<?xml version="1.0" encoding="utf-8"?>
<!-- Generator: Adobe Illustrator 19.0.0, SVG Export Plug-In . SVG Version: 6.00 Build 0)  -->
<svg version="1.2" baseProfile="tiny" id="Layer_1" xmlns="http://www.w3.org/2000/svg" xmlns:xlink="http://www.w3.org/1999/xlink"
	 x="0px" y="0px" width="70px" height="70px" viewBox="10 -10 70 70" xml:space="preserve">
<g id="cloud_copy_14_">
	<path id="XMLID_19_" fill="#72B1C0" d="M65.9,10.8L65.9,10.8L65.9,10.8c-0.1-7.2-5.7-13-12.7-13c-1.5,0-2.9,0.3-4.2,0.8
		C46.4-6.5,41.3-10,35.4-10C27-10,20.2-3,20.2,5.6c0,0.1,0,0.2,0,0.3C14.4,7.1,10,12.4,10,18.7c0,7.2,5.7,13,12.7,13h43.2v-0.1
		C71.5,31.6,76,27,76,21.2S71.5,10.8,65.9,10.8z"/>
</g>
<g id="teardrop_copy_5_6_">
	<path id="XMLID_18_" fill="#56EAF7" d="M64.7,48.9l-5.6-10c-0.2-0.3-0.7-0.3-0.8,0l-5.6,10c-1.2,2.1-1.3,4.8,0,7.1
		c1.9,3.4,6.2,4.6,9.5,2.6C65.4,56.6,66.6,52.3,64.7,48.9z"/>
</g>
<g id="Rounded_Rectangle_1_copy_4">
	<path id="XMLID_17_" fill="#B8BFC0" d="M35.8,49.1l4.9-4.9c1.4-1.4,1.4-3.6,0-4.9c-1.4-1.4-3.6-1.4-4.9,0l-4.9,4.9L26,39.3
		c-1.4-1.4-3.6-1.4-4.9,0c-1.4,1.4-1.4,3.6,0,4.9l4.9,4.9L21,54c-1.4,1.4-1.4,3.6,0,4.9c1.4,1.4,3.6,1.4,4.9,0l4.9-4.9l4.9,4.9
		c1.4,1.4,3.6,1.4,4.9,0c1.4-1.4,1.4-3.6,0-4.9L35.8,49.1z"/>
</g>
</svg>
