<?xml version="1.0" encoding="utf-8"?>
<!-- Generator: Adobe Illustrator 19.0.0, SVG Export Plug-In . SVG Version: 6.00 Build 0)  -->
<svg version="1.2" baseProfile="tiny" id="Layer_1" xmlns="http://www.w3.org/2000/svg" xmlns:xlink="http://www.w3.org/1999/xlink"
	 x="0px" y="0px" width="70px" height="70px" viewBox="10 -10 70 70" xml:space="preserve">
<g id="cloud_copy_8_">
</g>
<g id="cloud_copy_28_">
	<path fill-rule="evenodd" fill="#72B1C0" d="M56.8,15.1L56.8,15.1L56.8,15.1C56.7,9,52,4.2,46.2,4.2c-1.3,0-2.4,0.3-3.5,0.7
		c-2.1-4.3-6.4-7.2-11.3-7.2c-7.1,0-12.8,5.9-12.8,13.1c0,0.1,0,0.1,0,0.2c-4.9,1-8.5,5.4-8.5,10.7c0,6,4.8,10.9,10.6,10.9h36.2
		v-0.1c4.7,0,8.5-3.9,8.5-8.7C65.3,19,61.5,15.1,56.8,15.1z"/>
</g>
<g id="Shape_3_copy_2">
	<polygon fill-rule="evenodd" fill="#FFFFFF" points="77,21 68.2,21 74.1,3.5 56.6,3.5 50.8,34 59.5,34 59.5,53 	"/>
</g>
<g id="Shape_3_copy">
	<polygon fill-rule="evenodd" fill="#FED420" points="79.9,23.7 72.1,23.7 77.3,9.3 61.8,9.3 56.6,33.3 64.3,33.3 64.3,50.1 	"/>
</g>
<g id="teardrop_copy_6">
	<path fill-rule="evenodd" fill="#56EAF7" d="M29.8,45.6l-3.5-7c-0.1-0.2-0.4-0.2-0.5,0l-3.5,7c-0.7,1.5-0.8,3.4,0,4.9
		c1.2,2.4,3.9,3.2,6,1.8C30.3,51,31,47.9,29.8,45.6z"/>
</g>
<g id="teardrop_copy_6_1_">
	<path fill-rule="evenodd" fill="#56EAF7" d="M44.4,45.6l-3.5-7c-0.1-0.2-0.4-0.2-0.5,0l-3.5,7c-0.7,1.5-0.8,3.4,0,4.9
		c1.2,2.4,3.9,3.2,6,1.8C44.8,51,45.6,47.9,44.4,45.6z"/>
</g>
</svg>
