<?xml version="1.0" encoding="utf-8"?>
<!-- Generator: Adobe Illustrator 19.0.0, SVG Export Plug-In . SVG Version: 6.00 Build 0)  -->
<svg version="1.2" baseProfile="tiny" id="Layer_1" xmlns="http://www.w3.org/2000/svg" xmlns:xlink="http://www.w3.org/1999/xlink"
	 x="0px" y="0px" width="70px" height="70px" viewBox="10 -10 70 70" xml:space="preserve">
<g id="Forma_1">
	<path id="XMLID_17_" fill="#8CCCDC" d="M73.6,37.8C66.8,43.5,61.4,48,46.9,40c-19.2-10.6-28.2-3-35.5,3c-1.6,1.4-1.9,3.8-0.5,5.4
		c1.4,1.6,3.8,1.8,5.5,0.5c6.8-5.7,12.2-10.2,26.7-2.2c7,3.8,12.6,5.3,17.3,5.3c8.2,0,13.5-4.5,18.2-8.3c1.6-1.4,1.9-3.8,0.5-5.4
		C77.7,36.6,75.2,36.4,73.6,37.8z M16.4,10.2C23.2,4.5,28.6,0,43.1,8c7,3.8,12.6,5.3,17.3,5.3c8.2,0,13.5-4.5,18.2-8.3
		c1.6-1.4,1.9-3.8,0.5-5.4s-3.8-1.8-5.5-0.5C66.8,4.8,61.4,9.3,46.9,1.3c-19.2-10.6-28.2-3-35.5,3c-1.6,1.4-1.9,3.8-0.5,5.4
		C12.3,11.4,14.7,11.6,16.4,10.2z M73.6,18.5c-6.8,5.7-12.2,10.2-26.7,2.2c-19.2-10.6-28.2-3-35.5,3c-1.6,1.4-1.9,3.8-0.5,5.4
		c1.4,1.6,3.8,1.8,5.5,0.5c6.8-5.7,12.2-10.2,26.7-2.2c7,3.8,12.6,5.3,17.3,5.3c8.2,0,13.5-4.5,18.2-8.3c1.6-1.4,1.9-3.8,0.5-5.4
		C77.7,17.3,75.2,17.1,73.6,18.5z"/>
</g>
</svg>
