<?xml version="1.0" encoding="utf-8"?>
<!-- Generator: Adobe Illustrator 19.0.0, SVG Export Plug-In . SVG Version: 6.00 Build 0)  -->
<svg version="1.2" baseProfile="tiny" id="Layer_1" xmlns="http://www.w3.org/2000/svg" xmlns:xlink="http://www.w3.org/1999/xlink"
	 x="0px" y="0px" width="70px" height="70px" viewBox="10 -10 70 70" xml:space="preserve">
<g id="sun_copy">
	<path fill-rule="evenodd" fill="#D2D2D2" d="M26.8,20.5c0-8.8,5.2-16.4,12.7-19.7C36.9-0.4,34.1-1,31.1-1C19.4-1,10,8.6,10,20.5
		C10,32.3,19.4,42,31.1,42c3,0,5.8-0.6,8.4-1.8C32,36.8,26.8,29.3,26.8,20.5z"/>
</g>
<g id="cloud_copy_6">
	<path fill-rule="evenodd" fill="#FFFFFF" d="M77.8,32.5L77.8,32.5L77.8,32.5c-0.1-7-5.6-12.5-12.4-12.5c-1.5,0-2.8,0.3-4.1,0.8
		c-2.5-4.9-7.4-8.3-13.2-8.3c-8.2,0-14.9,6.8-14.9,15.1c0,0.1,0,0.2,0,0.3c-5.7,1.2-9.9,6.2-9.9,12.3c0,6.9,5.5,12.6,12.4,12.6h42.1
		v-0.1c5.5,0,9.9-4.5,9.9-10.1C87.7,37,83.3,32.5,77.8,32.5z"/>
</g>
<g id="cloud_copy_6_1_">
	<path fill-rule="evenodd" fill="#72B1C0" d="M71.9,33.8L71.9,33.8L71.9,33.8c-0.1-5.6-4.4-10-9.8-10c-1.2,0-2.2,0.2-3.3,0.6
		c-1.9-3.9-5.9-6.6-10.5-6.6c-6.5,0-11.8,5.4-11.8,12.1c0,0.1,0,0.1,0,0.2c-4.5,0.9-7.9,5-7.9,9.9c0,5.6,4.4,10.1,9.8,10.1h33.3
		v-0.1c4.3,0,7.8-3.6,7.8-8C79.7,37.4,76.2,33.8,71.9,33.8z"/>
</g>
</svg>
