<?xml version="1.0" encoding="utf-8"?>
<!-- Generator: Adobe Illustrator 19.0.0, SVG Export Plug-In . SVG Version: 6.00 Build 0)  -->
<svg version="1.2" baseProfile="tiny" id="Layer_1" xmlns="http://www.w3.org/2000/svg" xmlns:xlink="http://www.w3.org/1999/xlink"
	 x="0px" y="0px" width="70px" height="70px" viewBox="10 -10 70 70" xml:space="preserve">
<g id="cloud_copy_4_4_">
	<path fill-rule="evenodd" fill="#72B1C0" d="M69.5,17.9L69.5,17.9L69.5,17.9C69.4,10.3,63.4,4.3,56,4.3c-1.6,0-3.1,0.3-4.5,0.8
		C48.8-0.3,43.4-4,37.1-4c-9,0-16.2,7.4-16.2,16.5c0,0.1,0,0.2,0,0.3C14.7,14,10,19.6,10,26.3C10,33.9,16.1,40,23.5,40h46v-0.1
		c6,0,10.8-4.9,10.8-11C80.4,22.8,75.5,17.9,69.5,17.9z"/>
</g>
<g id="cloud_copy_2_12_">
	<path fill-rule="evenodd" fill="#FFFFFF" d="M63.4,32.9c0-0.1,0-0.1,0-0.2c0-7.3-5.5-13.2-12.2-13.2c-4.8,0-8.8,3-10.8,7.3
		c-1.1-0.4-2.2-0.7-3.4-0.7c-5.6,0-10.1,4.8-10.1,10.9h0V37c-4.5,0-8.1,3.9-8.1,8.8c0,4.9,3.6,8.8,8.1,8.8v0.1h34.5
		c5.6,0,10.2-4.9,10.2-11C71.6,38.3,68.1,33.9,63.4,32.9z"/>
</g>
<g id="cloud_copy_30_">
	<path fill-rule="evenodd" fill="#72B1C0" d="M59.4,35.4c0-0.1,0-0.1,0-0.2c0-5.5-4.2-9.9-9.5-9.9c-3.7,0-6.9,2.2-8.4,5.5
		c-0.8-0.3-1.7-0.5-2.6-0.5c-4.3,0-7.8,3.6-7.9,8.2h0v0.1c-3.5,0-6.3,3-6.3,6.6s2.8,6.6,6.3,6.6v0.1h26.8c4.4,0,7.9-3.7,7.9-8.3
		C65.7,39.5,63,36.2,59.4,35.4z"/>
</g>
</svg>
