<?xml version="1.0" encoding="utf-8"?>
<!-- Generator: Adobe Illustrator 19.0.0, SVG Export Plug-In . SVG Version: 6.00 Build 0)  -->
<svg version="1.2" baseProfile="tiny" id="Layer_1" xmlns="http://www.w3.org/2000/svg" xmlns:xlink="http://www.w3.org/1999/xlink"
	 x="0px" y="0px" width="70px" height="70px" viewBox="10 -10 70 70" xml:space="preserve">
<g id="cloud_copy_8_">
</g>
<g id="sun_copy_7_">
	<path fill-rule="evenodd" fill="#FED420" d="M29.2,10.7c0-8.5,5-15.8,12.2-19c-2.5-1.1-5.2-1.7-8.1-1.7C22.1-10,13-0.7,13,10.7
		c0,11.4,9.1,20.7,20.3,20.7c2.9,0,5.6-0.6,8.1-1.7C34.2,26.5,29.2,19.2,29.2,10.7z"/>
</g>
<g id="cloud_copy_7_22_">
	<path fill-rule="evenodd" fill="#FFFFFF" d="M75.8,19.7L75.8,19.7L75.8,19.7c-0.1-6.7-5.4-12-11.9-12c-1.4,0-2.7,0.3-4,0.7
		c-2.4-4.7-7.1-8-12.7-8c-7.9,0-14.3,6.5-14.3,14.5c0,0.1,0,0.2,0,0.2l2.4,24h40.6v-0.1c5.3,0,9.5-4.3,9.5-9.7
		C85.4,24,81.1,19.7,75.8,19.7z"/>
</g>
<g id="cloud_copy_7_20_">
	<path fill-rule="evenodd" fill="#72B1C0" d="M70.1,21L70.1,21L70.1,21c-0.1-5.4-4.3-9.6-9.4-9.6c-1.1,0-2.2,0.2-3.1,0.6
		c-1.9-3.8-5.7-6.4-10.1-6.4c-6.3,0-11.3,5.2-11.3,11.6c0,0.1,0,0.1,0,0.2c-4.3,0.9-7.6,4.8-7.6,9.5c0,5.4,4.2,9.7,9.4,9.7h32.1
		v-0.1c4.2,0,7.6-3.5,7.6-7.8C77.6,24.5,74.2,21,70.1,21z"/>
</g>
<g id="cloud_copy_7_18_">
	<path fill-rule="evenodd" fill="#FFFFFF" d="M55.3,28.8L55.3,28.8L55.3,28.8c-0.1-4.5-3.8-8-8.5-8c-1,0-1.9,0.2-2.8,0.5
		c-1.7-3.2-2.5-5.3-6.4-5.3c-5.6,0-10.1,4.3-10.1,9.7c0,0.1,0,0.1,0,0.2c-3.9,0.7-6.8,4-6.8,7.9c0,4.5,3.8,8.1,8.5,8.1h26.2v-0.1
		c3.7,0,6.8-2.9,6.8-6.5S59.1,28.8,55.3,28.8z"/>
</g>
<g id="cloud_copy_7_16_">
	<path fill-rule="evenodd" fill="#72B1C0" d="M52.2,31.3L52.2,31.3L52.2,31.3c0-3.6-2.7-6.4-6-6.4c-0.7,0-1.4,0.2-2,0.4
		C43,22.8,40.6,21,37.8,21c-4,0-7.2,3.5-7.2,7.8c0,0,0,0.1,0,0.1c-2.7,0.6-4.8,3.2-4.8,6.3c0,3.6,2.7,6.5,6,6.5h20.3v0
		c2.6,0,4.8-2.3,4.8-5.2C56.9,33.6,54.8,31.3,52.2,31.3z"/>
</g>
<g id="teardrop_copy_7">
	<path fill-rule="evenodd" fill="#56EAF7" d="M38.3,53.2L35.2,47c-0.1-0.2-0.4-0.2-0.5,0l-3.1,6.2c-0.7,1.3-0.7,3,0,4.4
		c1.1,2.1,3.4,2.8,5.3,1.6C38.7,58,39.4,55.3,38.3,53.2z"/>
</g>
<g id="teardrop_copy_7_1_">
	<path fill-rule="evenodd" fill="#56EAF7" d="M51.3,53.2L48.1,47c-0.1-0.2-0.4-0.2-0.5,0l-3.1,6.2c-0.7,1.3-0.7,3,0,4.4
		c1.1,2.1,3.4,2.8,5.3,1.6C51.7,58,52.3,55.3,51.3,53.2z"/>
</g>
</svg>
