<?xml version="1.0" encoding="utf-8"?>
<!-- Generator: Adobe Illustrator 19.1.0, SVG Export Plug-In . SVG Version: 6.00 Build 0)  -->
<svg version="1.1" id="Layer_1" xmlns="http://www.w3.org/2000/svg" xmlns:xlink="http://www.w3.org/1999/xlink" x="0px" y="0px"
	 viewBox="0 0 200 200" style="enable-background:new 0 0 200 200;" xml:space="preserve">
<style type="text/css">
	.st0{clip-path:url(#SVGID_2_);fill:#FFFFFF;}
	.st1{fill:#FFFFFF;}
</style>
<g>
	<defs>
		<rect id="SVGID_1_" y="31.5" width="199.1" height="137.8"/>
	</defs>
	<clipPath id="SVGID_2_">
		<use xlink:href="#SVGID_1_"  style="overflow:visible;"/>
	</clipPath>
	<path class="st0" d="M174.1,108.1c-0.6,1.4-2.4,2.3-3.4,2.8c-2.3,1.1-5,1.6-7.7,0.3c-9.1-4.4-9.1-30.4-1.9-36.2
		c3.1-2.5,10.3-2.6,13,1C174.1,80.8,174.1,108.1,174.1,108.1 M174.2,53.3l-0.1,7c0,0-1.3-1.3-1.7-1.8c-0.6-0.7-2.1-2-3.8-3
		c-8.8-4.9-19.9-1.3-24.8,4.1c-15.4,17.1-14.1,58.8,4.3,69.9c5.2,3.1,13.8,2.8,19.4-0.2c2.3-1.2,3.4-2.5,5.2-4.1
		c0.1-0.1,1.3-1.2,1.3-1.2s0.5,11.1-1.6,15c-2.5,4.6-8.9,7.3-16.5,6.4c-9.2-1-16.2-10.1-20.5-14.4c0.1,6.1,0,12.4,0,19.2v6.4
		c0,0,3.1,3.3,4.8,4.5c5.6,4.3,13.4,7.4,20.1,7.9c6.6,0.4,9.5,0,9.5,0c19.6-1.4,29.4-17.1,29.4-38.5V53.3L174.2,53.3z"/>
	<path class="st0" d="M25,81.6c2.3-2.6,4.7-6,9.7-5.4c4.1,0.5,6.1,4.5,7,8.5c0.9,3.7,0.6,8.7,0.6,13.9v46.1h24.8v-48
		c0-8.2,0.1-16-1-23c-1.8-11-6.7-20.9-18.4-21.3c-6.8-0.2-12.4,2.4-16.4,5.7c-2.5,1.8-4.6,4.3-6.2,7.1c-0.1,0.1-0.1,0.2-0.1,0.2v-34
		c-8.3,0-25,0-25,0v113.2h25V81.6z"/>
</g>
<polygon class="st1" points="110.2,144.7 136.8,53.3 111.1,53.3 101,94.4 91.3,53.3 66,53.3 92.3,144.7 "/>
<path class="st1" d="M174.9,107.3c-0.6,1.4-2.4,2.3-3.4,2.8c-2.3,1.1-5,1.6-7.7,0.3c-9.1-4.4-9.1-30.4-1.9-36.2
	c3.1-2.5,10.3-2.6,13,1C175,80,175,107.3,174.9,107.3 M175.1,52.4l-0.1,7c0,0-1.3-1.3-1.7-1.8c-0.6-0.7-2.1-2-3.8-3
	c-8.8-4.9-19.9-1.3-24.8,4.1c-15.4,17.1-14.1,58.8,4.3,69.9c5.2,3.1,13.8,2.8,19.4-0.2c2.3-1.2,3.4-2.5,5.2-4.1
	c0.1-0.1,1.3-1.2,1.3-1.2s0.5,11.1-1.6,15c-2.5,4.6-8.9,7.3-16.5,6.4c-9.2-1-16.2-10.1-20.5-14.4c0.1,6.1,0,12.4,0,19.2v6.4
	c0,0,3.1,3.3,4.8,4.5c5.6,4.3,13.4,7.4,20.1,7.9c6.6,0.4,9.5,0,9.5,0c19.6-1.4,29.4-17.1,29.4-38.5V52.4L175.1,52.4z"/>
<path class="st1" d="M25.9,80.7c2.3-2.6,4.7-6,9.7-5.4c4.1,0.5,6.1,4.5,7,8.5c0.9,3.7,0.6,8.7,0.6,13.9v46.1h24.8v-48
	c0-8.2,0.1-16-1-23c-1.8-11-6.7-20.9-18.4-21.3c-6.8-0.2-12.4,2.4-16.4,5.7c-2.5,1.8-4.6,4.3-6.2,7.1c-0.1,0.1-0.1,0.2-0.1,0.2v-34
	c-8.3,0-25,0-25,0v113.2h25V80.7z"/>
</svg>
