<?xml version="1.0" encoding="utf-8"?>
<!-- Generator: Adobe Illustrator 19.1.0, SVG Export Plug-In . SVG Version: 6.00 Build 0)  -->
<svg version="1.0" id="Layer_1" xmlns="http://www.w3.org/2000/svg" xmlns:xlink="http://www.w3.org/1999/xlink" x="0px" y="0px"
	 viewBox="0 0 90 17" style="enable-background:new 0 0 90 17;" xml:space="preserve">
<style type="text/css">
	.st0{fill:#FFFFFF;}
</style>
<g>
	<path class="st0" d="M2.2,8.2L2.2,8.2l2.7-4.1h2.3L4.4,8.5l3.1,5.9H5.1L3,10.2l-0.8,1.2v3.1H0.1V4.1h2.1V8.2z"/>
	<path class="st0" d="M8,4.1h2.1v10.4H8V4.1z"/>
	<path class="st0" d="M13.4,11.5c0,0.2,0,0.5,0.1,0.7s0.1,0.4,0.2,0.5c0.1,0.1,0.2,0.2,0.4,0.3c0.2,0.1,0.4,0.1,0.7,0.1
		c0.3,0,0.6-0.1,0.9-0.3s0.4-0.5,0.4-1c0-0.2,0-0.4-0.1-0.6c-0.1-0.2-0.2-0.3-0.3-0.5c-0.1-0.1-0.3-0.3-0.6-0.4
		c-0.2-0.1-0.5-0.2-0.9-0.3c-0.5-0.2-0.9-0.3-1.2-0.5c-0.3-0.2-0.6-0.4-0.8-0.6c-0.2-0.2-0.4-0.5-0.5-0.9c-0.1-0.3-0.2-0.7-0.2-1.1
		c0-1,0.3-1.8,0.9-2.3s1.4-0.8,2.4-0.8c0.5,0,0.9,0.1,1.3,0.2c0.4,0.1,0.7,0.3,1,0.5c0.3,0.2,0.5,0.5,0.7,0.9
		c0.2,0.4,0.2,0.8,0.2,1.3V7h-2c0-0.5-0.1-0.9-0.3-1.1c-0.2-0.3-0.5-0.4-0.9-0.4c-0.2,0-0.4,0-0.6,0.1c-0.2,0.1-0.3,0.2-0.4,0.3
		c-0.1,0.1-0.2,0.2-0.2,0.4c0,0.1-0.1,0.3-0.1,0.4c0,0.3,0.1,0.6,0.2,0.8c0.1,0.2,0.4,0.4,0.9,0.6l1.6,0.7c0.4,0.2,0.7,0.4,1,0.5
		c0.3,0.2,0.5,0.4,0.6,0.6c0.1,0.2,0.3,0.5,0.3,0.7c0.1,0.3,0.1,0.6,0.1,0.9c0,1.1-0.3,1.9-1,2.4c-0.6,0.5-1.5,0.7-2.6,0.7
		c-1.2,0-2-0.3-2.5-0.8s-0.8-1.2-0.8-2.2v-0.4h2.1V11.5z"/>
	<path class="st0" d="M21.3,8.2L21.3,8.2L24,4.1h2.3l-2.8,4.4l3.1,5.9h-2.4l-2.1-4.3l-0.8,1.2v3.1h-2.1V4.1h2.1V8.2z"/>
	<path class="st0" d="M31.6,4.1l2.7,10.4h-2.2l-0.5-2.2h-2.8l-0.5,2.2h-2.2L29,4.1H31.6z M31.3,10.5l-1-4.7h0l-1,4.7H31.3z"/>
	<path class="st0" d="M38.9,4.1c0.9,0,1.5,0.2,2,0.7c0.5,0.4,0.7,1.1,0.7,2c0,0.7-0.1,1.3-0.4,1.7C41,8.9,40.5,9.2,40,9.3v0
		c0.5,0.1,0.9,0.2,1.1,0.5c0.2,0.3,0.4,0.7,0.4,1.3c0,0.2,0,0.4,0,0.6c0,0.2,0,0.5,0,0.8c0,0.6,0,1,0.1,1.3c0.1,0.3,0.2,0.5,0.4,0.6
		v0.1h-2.3c-0.1-0.1-0.2-0.3-0.2-0.5c0-0.2,0-0.4-0.1-0.6l-0.1-2c0-0.4-0.1-0.7-0.3-1s-0.5-0.3-0.9-0.3h-1.1v4.4h-2.1V4.1H38.9z
		 M38,8.6c0.5,0,0.9-0.1,1.2-0.4c0.3-0.2,0.4-0.6,0.4-1.2c0-1-0.5-1.4-1.5-1.4h-1v3H38z"/>
	<path class="st0" d="M47.7,4.1l2.7,10.4h-2.2l-0.5-2.2h-2.8l-0.5,2.2h-2.2l2.7-10.4H47.7z M47.5,10.5l-1-4.7h0l-1,4.7H47.5z
		 M48.3,1.4l-1.4,2.1h-1.4l0.8-2.1H48.3z"/>
	<path class="st0" d="M55.4,5.9c-0.2-0.3-0.5-0.5-1-0.5c-0.3,0-0.5,0.1-0.6,0.2c-0.2,0.1-0.3,0.4-0.4,0.7c-0.1,0.3-0.2,0.7-0.2,1.2
		c0,0.5-0.1,1.1-0.1,1.9c0,0.8,0,1.4,0.1,1.9s0.1,0.9,0.2,1.1c0.1,0.3,0.3,0.4,0.4,0.5c0.2,0.1,0.4,0.1,0.6,0.1c0.2,0,0.4,0,0.5-0.1
		c0.2-0.1,0.3-0.2,0.4-0.4s0.2-0.5,0.3-0.8c0.1-0.3,0.1-0.8,0.1-1.4h2.1c0,0.6,0,1.1-0.1,1.6s-0.2,0.9-0.5,1.3
		c-0.2,0.4-0.6,0.7-1,0.9c-0.4,0.2-1,0.3-1.7,0.3c-0.8,0-1.4-0.1-1.9-0.4c-0.5-0.3-0.8-0.6-1.1-1.1c-0.2-0.5-0.4-1-0.5-1.7
		C51,10.8,51,10.1,51,9.3c0-0.8,0-1.5,0.1-2.2c0.1-0.7,0.2-1.2,0.5-1.7c0.2-0.5,0.6-0.8,1.1-1.1c0.5-0.3,1.1-0.4,1.9-0.4
		c0.7,0,1.3,0.1,1.8,0.4c0.4,0.2,0.8,0.5,1,0.9s0.3,0.8,0.4,1.2c0.1,0.4,0.1,0.8,0.1,1.2h-2.1C55.6,6.8,55.5,6.3,55.4,5.9z"/>
	<path class="st0" d="M60.7,11.5c0,0.2,0,0.5,0.1,0.7c0,0.2,0.1,0.4,0.2,0.5c0.1,0.1,0.2,0.2,0.4,0.3c0.2,0.1,0.4,0.1,0.7,0.1
		c0.3,0,0.6-0.1,0.9-0.3c0.3-0.2,0.4-0.5,0.4-1c0-0.2,0-0.4-0.1-0.6c-0.1-0.2-0.2-0.3-0.3-0.5c-0.1-0.1-0.3-0.3-0.6-0.4
		c-0.2-0.1-0.5-0.2-0.9-0.3c-0.5-0.2-0.9-0.3-1.2-0.5c-0.3-0.2-0.6-0.4-0.8-0.6c-0.2-0.2-0.4-0.5-0.5-0.9s-0.2-0.7-0.2-1.1
		c0-1,0.3-1.8,0.9-2.3c0.6-0.5,1.4-0.8,2.4-0.8c0.5,0,0.9,0.1,1.3,0.2s0.7,0.3,1,0.5c0.3,0.2,0.5,0.5,0.7,0.9
		c0.2,0.4,0.2,0.8,0.2,1.3V7h-2c0-0.5-0.1-0.9-0.3-1.1c-0.2-0.3-0.5-0.4-0.9-0.4c-0.2,0-0.4,0-0.6,0.1c-0.2,0.1-0.3,0.2-0.4,0.3
		C61,5.9,60.9,6,60.9,6.2c0,0.1-0.1,0.3-0.1,0.4c0,0.3,0.1,0.6,0.2,0.8c0.1,0.2,0.4,0.4,0.9,0.6l1.6,0.7c0.4,0.2,0.7,0.4,1,0.5
		c0.3,0.2,0.5,0.4,0.6,0.6c0.2,0.2,0.3,0.5,0.3,0.7c0.1,0.3,0.1,0.6,0.1,0.9c0,1.1-0.3,1.9-1,2.4c-0.6,0.5-1.5,0.7-2.6,0.7
		c-1.2,0-2-0.3-2.5-0.8s-0.8-1.2-0.8-2.2v-0.4h2.1V11.5z"/>
	<path class="st0" d="M66.4,7.1c0.1-0.7,0.2-1.2,0.5-1.7c0.2-0.5,0.6-0.8,1.1-1.1C68.4,4,69,3.9,69.8,3.9c0.8,0,1.4,0.1,1.9,0.4
		c0.5,0.3,0.8,0.6,1.1,1.1c0.2,0.5,0.4,1,0.5,1.7s0.1,1.4,0.1,2.2c0,0.8,0,1.5-0.1,2.2c-0.1,0.7-0.2,1.2-0.5,1.7
		c-0.2,0.5-0.6,0.8-1.1,1.1c-0.5,0.3-1.1,0.4-1.9,0.4c-0.8,0-1.4-0.1-1.9-0.4c-0.5-0.3-0.8-0.6-1.1-1.1c-0.2-0.5-0.4-1-0.5-1.7
		c-0.1-0.7-0.1-1.4-0.1-2.2C66.3,8.5,66.3,7.8,66.4,7.1z M68.4,11c0,0.5,0.1,0.9,0.2,1.2s0.2,0.5,0.4,0.7c0.2,0.1,0.4,0.2,0.7,0.2
		s0.6-0.1,0.7-0.2c0.2-0.1,0.3-0.4,0.4-0.7s0.2-0.7,0.2-1.2s0.1-1.1,0.1-1.8c0-0.7,0-1.3-0.1-1.8c0-0.5-0.1-0.9-0.2-1.2
		c-0.1-0.3-0.2-0.5-0.4-0.7c-0.2-0.1-0.4-0.2-0.7-0.2s-0.6,0.1-0.7,0.2S68.7,6,68.6,6.3c-0.1,0.3-0.2,0.7-0.2,1.2
		c0,0.5-0.1,1.1-0.1,1.8C68.4,10,68.4,10.6,68.4,11z"/>
	<path class="st0" d="M79.5,11.2L79.5,11.2l0-7.1h1.9v10.4h-2.4l-2.6-7.3h0v7.3h-1.9V4.1H77L79.5,11.2z"/>
	<path class="st0" d="M85.9,8.1L85.9,8.1l1.5-4h2.3L87,10.4v4.1h-2.1v-4.1l-2.7-6.3h2.3L85.9,8.1z"/>
</g>
</svg>
