<?xml version="1.0" encoding="utf-8"?>
<!-- Generator: Adobe Illustrator 19.1.0, SVG Export Plug-In . SVG Version: 6.00 Build 0)  -->
<svg version="1.1" id="Layer_1" xmlns="http://www.w3.org/2000/svg" xmlns:xlink="http://www.w3.org/1999/xlink" x="0px" y="0px"
	 viewBox="0 0 200 200" style="enable-background:new 0 0 200 200;" xml:space="preserve">
<style type="text/css">
	.st0{fill:#FFFFFF;}
</style>
<g>
	<g>
		<g>
			<path class="st0" d="M73.1,132.8c-0.4,0-0.7,0-1.1-0.1v22l-16.4-14.2L66,129.7c-0.6-0.6-1.1-1.2-1.5-1.8l-18.9,19.3
				c-0.3,0.3-0.8,0.3-1.1,0l-25.6-24.9c0,0,0.1,0,0.1,0h43.8c0-0.4,0-0.8,0.1-1.2c0-0.4,0.1-0.8,0.2-1.2H18.9
				c-2.2,0-3.9,1.8-3.9,3.9v31c0,2.2,1.8,3.9,3.9,3.9h51.6c2.2,0,3.9-1.8,3.9-3.9v-22.1C74,132.8,73.6,132.8,73.1,132.8
				C73.2,132.8,73.2,132.8,73.1,132.8z M45,149.7c0.8,0,1.6-0.3,2.2-0.8l6.7-6.8l16.4,14.2H19.1l16.7-14.5l7.1,7
				C43.5,149.5,44.3,149.7,45,149.7z M34,140.3l-16.6,14.4v-30.5L34,140.3z"/>
			<path class="st0" d="M70.1,120h-0.2v0.5v0.9h2.3v0.7v0.5v2v2.9H73h1.2h0v-9.5h-1.6C72.4,119.5,71.5,120,70.1,120z"/>
		</g>
		<path class="st0" d="M73.2,132.9c-5.8,0-10.6-4.7-10.6-10.6c0-5.8,4.7-10.6,10.6-10.6s10.6,4.7,10.6,10.6
			C83.8,128.2,79,132.9,73.2,132.9z M73.2,114.1c-4.6,0-8.3,3.7-8.3,8.3c0,4.6,3.7,8.3,8.3,8.3s8.3-3.7,8.3-8.3
			C81.5,117.8,77.8,114.1,73.2,114.1z"/>
	</g>
	<g>
		<g>
			<path class="st0" d="M104.2,142.2c-0.3,0.3-0.5,0.5-0.8,0.7l15.6,15.6L97.3,160L97,145c-0.8,0-1.6-0.1-2.4-0.2l0.3,27
				c0,0.4-0.4,0.8-0.8,0.8l-35.7,0.6c0,0,0,0,0.1-0.1l31-31c-0.3-0.3-0.5-0.6-0.8-0.9c-0.3-0.3-0.5-0.6-0.7-1l-31.2,31.2
				c-1.5,1.5-1.5,4,0,5.5l21.9,21.9c1.5,1.5,4,1.5,5.5,0l36.5-36.5c1.5-1.5,1.5-4,0-5.5L105,141.2
				C104.8,141.5,104.5,141.8,104.2,142.2C104.2,142.1,104.2,142.2,104.2,142.2z M96.3,174c0.5-0.5,0.9-1.3,0.9-2.1l0-9.5l21.7-1.6
				l-36.2,36.2l1.6-22l10-0.1C95,174.9,95.8,174.6,96.3,174z M81.9,175.2l-1.6,21.9l-21.6-21.6L81.9,175.2z"/>
			<path class="st0" d="M93,135.2l-0.2,0.2l0.4,0.4l0.6,0.6l1.6-1.6l0.5,0.5l0.4,0.4l1.4,1.4l2.1,2.1l0.6-0.6l0.9-0.9l0,0l-6.7-6.7
				l-1.1,1.1C94.2,133.3,94,134.3,93,135.2z"/>
		</g>
		<path class="st0" d="M96.9,145.3c-2.7,0-5.4-1-7.5-3.1c-4.1-4.1-4.1-10.8,0-14.9c4.1-4.1,10.8-4.1,14.9,0c4.1,4.1,4.1,10.8,0,14.9
			C102.3,144.3,99.6,145.3,96.9,145.3z M96.9,126.5c-2.1,0-4.3,0.8-5.9,2.4c-3.2,3.2-3.2,8.5,0,11.8c3.2,3.2,8.5,3.2,11.8,0
			c3.2-3.2,3.2-8.5,0-11.8C101.1,127.3,99,126.5,96.9,126.5z"/>
	</g>
	<g>
		<g>
			<path class="st0" d="M132.8,126.9c0,0.4,0,0.7-0.1,1.1h22l-14.2,16.4L129.7,134c-0.6,0.6-1.2,1.1-1.8,1.5l19.3,18.9
				c0.3,0.3,0.3,0.8,0,1.1l-24.9,25.6c0,0,0-0.1,0-0.1v-43.8c-0.4,0-0.8,0-1.2-0.1c-0.4,0-0.8-0.1-1.2-0.2v44.1
				c0,2.2,1.8,3.9,3.9,3.9h31c2.2,0,3.9-1.8,3.9-3.9v-51.6c0-2.2-1.8-3.9-3.9-3.9h-22.1C132.8,126,132.8,126.4,132.8,126.9
				C132.8,126.8,132.8,126.8,132.8,126.9z M149.7,155c0-0.8-0.3-1.6-0.8-2.2l-6.8-6.7l14.2-16.4v51.2l-14.5-16.7l7-7.1
				C149.5,156.5,149.7,155.7,149.7,155z M140.3,166l14.4,16.6h-30.5L140.3,166z"/>
			<path class="st0" d="M120,129.9v0.2h0.5h0.9v-2.3h0.7h0.5h2h2.9V127v-1.2v0h-9.5v1.6C119.5,127.6,120,128.5,120,129.9z"/>
		</g>
		<path class="st0" d="M122.4,137.3c-5.8,0-10.6-4.7-10.6-10.6c0-5.8,4.7-10.6,10.6-10.6c5.8,0,10.6,4.7,10.6,10.6
			C132.9,132.6,128.2,137.3,122.4,137.3z M122.4,118.5c-4.6,0-8.3,3.7-8.3,8.3s3.7,8.3,8.3,8.3s8.3-3.7,8.3-8.3
			S127,118.5,122.4,118.5z"/>
	</g>
	<g>
		<g>
			<path class="st0" d="M142.2,95.8c0.3,0.3,0.5,0.5,0.7,0.8l15.6-15.6l1.6,21.6l-15,0.4c0,0.8-0.1,1.6-0.2,2.4l27-0.3
				c0.4,0,0.8,0.4,0.8,0.8l0.6,35.7c0,0,0,0-0.1-0.1l-31-31c-0.3,0.3-0.6,0.5-0.9,0.8c-0.3,0.3-0.6,0.5-1,0.7l31.2,31.2
				c1.5,1.5,4,1.5,5.5,0l21.9-21.9c1.5-1.5,1.5-4,0-5.5l-36.5-36.5c-1.5-1.5-4-1.5-5.5,0L141.2,95C141.5,95.2,141.8,95.5,142.2,95.8
				C142.1,95.8,142.2,95.8,142.2,95.8z M174,103.7c-0.5-0.5-1.3-0.9-2.1-0.9l-9.5,0l-1.6-21.7l36.2,36.2l-22-1.6l-0.1-10
				C174.9,105,174.6,104.2,174,103.7z M175.2,118.1l21.9,1.6l-21.6,21.6L175.2,118.1z"/>
			<path class="st0" d="M135.2,107l0.2,0.2l0.4-0.4l0.6-0.6l-1.6-1.6l0.5-0.5l0.4-0.4l1.4-1.4l2.1-2.1l-0.6-0.6l-0.9-0.9l0,0
				l-6.7,6.7l1.1,1.1C133.3,105.8,134.3,106,135.2,107z"/>
		</g>
		<path class="st0" d="M134.8,113.7c-2.7,0-5.4-1-7.5-3.1c-4.1-4.1-4.1-10.8,0-14.9c4.1-4.1,10.8-4.1,14.9,0
			c4.1,4.1,4.1,10.8,0,14.9C140.2,112.6,137.5,113.7,134.8,113.7z M134.8,94.8c-2.1,0-4.3,0.8-5.9,2.4c-3.2,3.2-3.2,8.5,0,11.8
			c3.2,3.2,8.5,3.2,11.8,0c3.2-3.2,3.2-8.5,0-11.8C139,95.6,136.9,94.8,134.8,94.8z"/>
	</g>
	<g>
		<g>
			<path class="st0" d="M126.9,67.2c0.4,0,0.7,0,1.1,0.1v-22l16.4,14.2L134,70.3c0.6,0.6,1.1,1.2,1.5,1.8l18.9-19.3
				c0.3-0.3,0.8-0.3,1.1,0l25.6,24.9c0,0-0.1,0-0.1,0h-43.8c0,0.4,0,0.8-0.1,1.2c0,0.4-0.1,0.8-0.2,1.2h44.1c2.2,0,3.9-1.8,3.9-3.9
				v-31c0-2.2-1.8-3.9-3.9-3.9h-51.6c-2.2,0-3.9,1.8-3.9,3.9v22.1C126,67.2,126.4,67.2,126.9,67.2C126.8,67.2,126.8,67.2,126.9,67.2
				z M155,50.3c-0.8,0-1.6,0.3-2.2,0.8l-6.7,6.8l-16.4-14.2h51.2l-16.7,14.5l-7.1-7C156.5,50.5,155.7,50.3,155,50.3z M166,59.7
				l16.6-14.4v30.5L166,59.7z"/>
			<path class="st0" d="M129.9,80h0.2v-0.5v-0.9h-2.3v-0.7v-0.5v-2v-2.9H127h-1.2h0v9.5h1.6C127.6,80.5,128.5,80,129.9,80z"/>
		</g>
		<path class="st0" d="M126.8,88.2c-5.8,0-10.6-4.7-10.6-10.6s4.7-10.6,10.6-10.6c5.8,0,10.6,4.7,10.6,10.6S132.6,88.2,126.8,88.2z
			 M126.8,69.3c-4.6,0-8.3,3.7-8.3,8.3s3.7,8.3,8.3,8.3s8.3-3.7,8.3-8.3S131.4,69.3,126.8,69.3z"/>
	</g>
	<g>
		<g>
			<path class="st0" d="M95.8,57.8c0.3-0.3,0.5-0.5,0.8-0.7L81.1,41.5l21.6-1.6l0.4,15c0.8,0,1.6,0.1,2.4,0.2l-0.3-27
				c0-0.4,0.4-0.8,0.8-0.8l35.7-0.6c0,0,0,0-0.1,0.1l-31,31c0.3,0.3,0.5,0.6,0.8,0.9c0.3,0.3,0.5,0.6,0.7,1l31.2-31.2
				c1.5-1.5,1.5-4,0-5.5L121.3,1.1c-1.5-1.5-4-1.5-5.5,0L79.3,37.6c-1.5,1.5-1.5,4,0,5.5L95,58.8C95.2,58.5,95.5,58.2,95.8,57.8
				C95.8,57.9,95.8,57.8,95.8,57.8z M103.7,26c-0.5,0.5-0.9,1.3-0.9,2.1l0,9.5l-21.7,1.6l36.2-36.2l-1.6,22l-10,0.1
				C105,25.1,104.2,25.4,103.7,26z M118.1,24.8l1.6-21.9l21.6,21.6L118.1,24.8z"/>
			<path class="st0" d="M107,64.8l0.2-0.2l-0.4-0.4l-0.6-0.6l-1.6,1.6l-0.5-0.5l-0.4-0.4l-1.4-1.4l-2.1-2.1l-0.6,0.6l-0.9,0.9l0,0
				l6.7,6.7l1.1-1.1C105.8,66.7,106,65.7,107,64.8z"/>
		</g>
		<path class="st0" d="M103.1,75.8c-2.7,0-5.4-1-7.5-3.1c-4.1-4.1-4.1-10.8,0-14.9c4.1-4.1,10.8-4.1,14.9,0c4.1,4.1,4.1,10.8,0,14.9
			C108.5,74.8,105.8,75.8,103.1,75.8z M103.1,56.9c-2.1,0-4.3,0.8-5.9,2.4c-3.2,3.2-3.2,8.5,0,11.8c3.2,3.2,8.5,3.2,11.8,0
			c3.2-3.2,3.2-8.5,0-11.8C107.4,57.7,105.2,56.9,103.1,56.9z"/>
	</g>
	<g>
		<g>
			<path class="st0" d="M67.2,73.1c0-0.4,0-0.7,0.1-1.1h-22l14.2-16.4L70.3,66c0.6-0.6,1.2-1.1,1.8-1.5L52.8,45.6
				c-0.3-0.3-0.3-0.8,0-1.1l24.9-25.6c0,0,0,0.1,0,0.1v43.8c0.4,0,0.8,0,1.2,0.1c0.4,0,0.8,0.1,1.2,0.2V18.9c0-2.2-1.8-3.9-3.9-3.9
				h-31c-2.2,0-3.9,1.8-3.9,3.9v51.6c0,2.2,1.8,3.9,3.9,3.9h22.1C67.2,74,67.2,73.6,67.2,73.1C67.2,73.2,67.2,73.2,67.2,73.1z
				 M50.3,45c0,0.8,0.3,1.6,0.8,2.2l6.8,6.7L43.6,70.3V19.1l14.5,16.7l-7,7.1C50.5,43.5,50.3,44.3,50.3,45z M59.7,34L45.3,17.4h30.5
				L59.7,34z"/>
			<path class="st0" d="M80,70.1v-0.2h-0.5h-0.9v2.3h-0.7h-0.5h-2h-2.9V73v1.2v0h9.5v-1.6C80.5,72.4,80,71.5,80,70.1z"/>
		</g>
		<path class="st0" d="M77.6,83.8c-5.8,0-10.6-4.7-10.6-10.6c0-5.8,4.7-10.6,10.6-10.6s10.6,4.7,10.6,10.6
			C88.2,79,83.4,83.8,77.6,83.8z M77.6,64.9c-4.6,0-8.3,3.7-8.3,8.3s3.7,8.3,8.3,8.3s8.3-3.7,8.3-8.3S82.2,64.9,77.6,64.9z"/>
	</g>
	<g>
		<g>
			<path class="st0" d="M57.8,104.2c-0.3-0.3-0.5-0.5-0.7-0.8l-15.6,15.6L40,97.3L55,97c0-0.8,0.1-1.6,0.2-2.4l-27,0.3
				c-0.4,0-0.8-0.4-0.8-0.8l-0.6-35.7c0,0,0,0,0.1,0.1l31,31c0.3-0.3,0.6-0.5,0.9-0.8c0.3-0.3,0.6-0.5,1-0.7L28.6,56.8
				c-1.5-1.5-4-1.5-5.5,0L1.1,78.7c-1.5,1.5-1.5,4,0,5.5l36.5,36.5c1.5,1.5,4,1.5,5.5,0L58.8,105C58.5,104.8,58.2,104.5,57.8,104.2
				C57.9,104.2,57.8,104.2,57.8,104.2z M26,96.3c0.5,0.5,1.3,0.9,2.1,0.9l9.5,0l1.6,21.7L2.9,82.7l22,1.6l0.1,10
				C25.1,95,25.4,95.8,26,96.3z M24.8,81.9L2.9,80.3l21.6-21.6L24.8,81.9z"/>
			<path class="st0" d="M64.8,93l-0.2-0.2l-0.4,0.4l-0.6,0.6l1.6,1.6L64.7,96l-0.4,0.4l-1.4,1.4l-2.1,2.1l0.6,0.6l0.9,0.9l0,0
				l6.7-6.7l-1.1-1.1C66.7,94.2,65.7,94,64.8,93z"/>
		</g>
		<path class="st0" d="M65.2,107.4c-2.7,0-5.4-1-7.5-3.1c-4.1-4.1-4.1-10.8,0-14.9c4.1-4.1,10.8-4.1,14.9,0c4.1,4.1,4.1,10.8,0,14.9
			C70.6,106.4,67.9,107.4,65.2,107.4z M65.2,88.6c-2.1,0-4.3,0.8-5.9,2.4c-3.2,3.2-3.2,8.5,0,11.8c3.2,3.2,8.5,3.2,11.8,0
			c3.2-3.2,3.2-8.5,0-11.8C69.5,89.4,67.4,88.6,65.2,88.6z"/>
	</g>
</g>
</svg>
