<?xml version="1.0" encoding="utf-8"?>
<!-- Generator: Adobe Illustrator 19.1.0, SVG Export Plug-In . SVG Version: 6.00 Build 0)  -->
<svg version="1.1" id="Layer_1" xmlns="http://www.w3.org/2000/svg" xmlns:xlink="http://www.w3.org/1999/xlink" x="0px" y="0px"
	 viewBox="0 0 200 200" style="enable-background:new 0 0 200 200;" xml:space="preserve">
<style type="text/css">
	.st0{fill:#FFFFFF;}
</style>
<g>
	<path class="st0" d="M100.1,199.9c-2.6,0-4.8-2.1-4.8-4.8c0-1.5,0.7-2.9,1.9-3.8l0-25.9c-3.3-1.2-5.5-4.3-5.5-7.9l0-32.4
		c0-1.6,1.3-2.9,2.9-2.9c1.6,0,2.9,1.3,2.9,2.9l0,32.4c0,1.5,1.2,2.6,2.6,2.6c1.5,0,2.6-1.2,2.6-2.6l0-32.4c0-1.6,1.3-2.9,2.9-2.9
		c1.6,0,2.9,1.3,2.9,2.9l0,32.4c0,3.5-2.2,6.7-5.5,7.9l0,25.9c1.2,0.9,1.9,2.3,1.9,3.8C104.8,197.8,102.7,199.9,100.1,199.9z
		 M94.6,124.2c-0.5,0-1,0.4-1,1l0,32.4c0,2.9,2,5.5,4.8,6.2l0.7,0.2l0,28.4l-0.5,0.3c-0.9,0.5-1.4,1.5-1.4,2.5
		c0,1.6,1.3,2.9,2.9,2.9s2.9-1.3,2.9-2.9c0-1-0.6-2-1.4-2.5l-0.5-0.3l0-28.4l0.7-0.2c2.8-0.8,4.8-3.3,4.8-6.2l0-32.4
		c0-0.5-0.4-1-1-1c-0.5,0-1,0.4-1,1l0,32.4c0,2.5-2,4.5-4.5,4.5c-2.5,0-4.5-2-4.5-4.5l0-32.4C95.5,124.6,95.1,124.2,94.6,124.2z"/>
</g>
<g>
	<path class="st0" d="M112,128.2c1.4-0.6,3.1,0.1,3.7,1.5c0.3,0.8,0.3,1.8-0.2,2.5l4.9,11.8c2.1-0.1,4,1.1,4.8,3.1l7.4,17.8
		c0.4,0.9-0.1,1.9-0.9,2.2c-0.9,0.4-1.9-0.1-2.2-0.9l-7.4-17.8c-0.3-0.8-1.2-1.2-2-0.8c-0.8,0.3-1.2,1.2-0.8,2l7.4,17.8
		c0.4,0.9-0.1,1.9-0.9,2.2c-0.9,0.4-1.9-0.1-2.2-0.9l-7.4-17.8c-0.8-1.9-0.3-4.2,1.2-5.5l-4.9-11.8c-0.9-0.2-1.6-0.8-1.9-1.7
		C109.9,130.4,110.5,128.8,112,128.2z M131.2,166c0.3-0.1,0.4-0.4,0.3-0.7l-7.4-17.8c-0.7-1.6-2.3-2.6-4-2.3l-0.4,0.1l-5.5-13.2
		l0.2-0.3c0.4-0.5,0.5-1.1,0.2-1.7c-0.4-0.9-1.4-1.3-2.2-0.9s-1.3,1.4-0.9,2.2c0.2,0.6,0.7,1,1.4,1l0.3,0l5.5,13.2l-0.3,0.3
		c-1.4,1.1-1.9,2.9-1.2,4.5l7.4,17.8c0.1,0.3,0.4,0.4,0.7,0.3c0.3-0.1,0.4-0.4,0.3-0.7l-7.4-17.8c-0.6-1.4,0.1-3,1.5-3.5
		c1.4-0.6,3,0.1,3.5,1.5l7.4,17.8C130.6,166,130.9,166.1,131.2,166z"/>
</g>
<g>
	<path class="st0" d="M128.4,111.5c0.6-1.4,2.3-2.1,3.7-1.5c0.8,0.3,1.4,1.1,1.7,1.9l11.8,4.9c1.4-1.5,3.6-2,5.5-1.2l17.8,7.4
		c0.9,0.4,1.3,1.3,0.9,2.2c-0.4,0.9-1.3,1.3-2.2,0.9l-17.8-7.4c-0.8-0.3-1.7,0-2,0.8c-0.3,0.8,0,1.7,0.8,2l17.8,7.4
		c0.9,0.4,1.3,1.3,0.9,2.2c-0.4,0.9-1.3,1.3-2.2,0.9l-17.8-7.4c-1.9-0.8-3.1-2.7-3.1-4.8l-11.8-4.9c-0.8,0.5-1.7,0.5-2.5,0.2
		C128.5,114.6,127.8,112.9,128.4,111.5z M168.7,124.7c0.1-0.3,0-0.6-0.3-0.7l-17.8-7.4c-1.6-0.7-3.4-0.2-4.5,1.2l-0.3,0.3l-13.2-5.5
		l0-0.3c-0.1-0.6-0.5-1.1-1-1.4c-0.9-0.4-1.9,0.1-2.2,0.9c-0.4,0.9,0.1,1.9,0.9,2.2c0.6,0.2,1.2,0.1,1.7-0.2l0.3-0.2l13.2,5.5
		l-0.1,0.4c-0.2,1.7,0.7,3.4,2.3,4l17.8,7.4c0.3,0.1,0.6,0,0.7-0.3c0.1-0.3,0-0.6-0.3-0.7l-17.8-7.4c-1.4-0.6-2-2.1-1.5-3.5
		c0.6-1.4,2.1-2,3.5-1.5L168,125C168.3,125.1,168.6,125,168.7,124.7z"/>
</g>
<g>
	<path class="st0" d="M128.2,88.1c-0.6-1.4,0.1-3.1,1.5-3.7c0.8-0.3,1.8-0.3,2.5,0.2l11.8-4.9c-0.1-2.1,1.1-4,3.1-4.8l17.8-7.4
		c0.9-0.4,1.9,0.1,2.2,0.9c0.4,0.9-0.1,1.9-0.9,2.2L148.4,78c-0.8,0.3-1.2,1.2-0.8,2c0.3,0.8,1.2,1.2,2,0.8l17.8-7.4
		c0.9-0.4,1.9,0.1,2.2,0.9c0.4,0.9-0.1,1.9-0.9,2.2L150.9,84c-1.9,0.8-4.2,0.3-5.5-1.2l-11.8,4.9c-0.2,0.9-0.8,1.6-1.7,1.9
		C130.5,90.2,128.8,89.5,128.2,88.1z M166.1,68.9c-0.1-0.3-0.4-0.4-0.7-0.3l-17.8,7.4c-1.6,0.7-2.6,2.3-2.3,4l0.1,0.4l-13.2,5.5
		l-0.3-0.2c-0.5-0.4-1.1-0.5-1.7-0.2c-0.9,0.4-1.3,1.4-0.9,2.2c0.4,0.9,1.4,1.3,2.2,0.9c0.6-0.2,1-0.7,1-1.4l0-0.3l13.2-5.5l0.3,0.3
		c1.1,1.4,2.9,1.9,4.5,1.2l17.8-7.4c0.3-0.1,0.4-0.4,0.3-0.7c-0.1-0.3-0.4-0.4-0.7-0.3L150.1,82c-1.4,0.6-3-0.1-3.5-1.5
		c-0.6-1.4,0.1-3,1.5-3.5l17.8-7.4C166.1,69.5,166.2,69.2,166.1,68.9z"/>
</g>
<g>
	<path class="st0" d="M111.6,71.7c-1.4-0.6-2.1-2.3-1.5-3.7c0.3-0.8,1.1-1.4,1.9-1.7l4.9-11.8c-1.5-1.4-2-3.6-1.2-5.5l7.4-17.8
		c0.4-0.9,1.3-1.3,2.2-0.9c0.9,0.4,1.3,1.3,0.9,2.2l-7.4,17.8c-0.3,0.8,0,1.7,0.8,2c0.8,0.3,1.7,0,2-0.8l7.4-17.8
		c0.4-0.9,1.3-1.3,2.2-0.9c0.9,0.4,1.3,1.3,0.9,2.2l-7.4,17.8c-0.8,1.9-2.7,3.1-4.8,3.1l-4.9,11.8c0.5,0.8,0.5,1.7,0.2,2.5
		C114.7,71.6,113,72.2,111.6,71.7z M124.8,31.3c-0.3-0.1-0.6,0-0.7,0.3l-7.4,17.8c-0.7,1.6-0.2,3.4,1.2,4.5l0.3,0.3l-5.5,13.2
		l-0.3,0c-0.6,0.1-1.1,0.5-1.4,1c-0.4,0.9,0.1,1.9,0.9,2.2c0.9,0.4,1.9-0.1,2.2-0.9c0.2-0.6,0.1-1.2-0.2-1.7l-0.2-0.3l5.5-13.2
		l0.4,0.1c1.7,0.2,3.4-0.7,4-2.3l7.4-17.8c0.1-0.3,0-0.6-0.3-0.7c-0.3-0.1-0.6,0-0.7,0.3l-7.4,17.8c-0.6,1.4-2.1,2-3.5,1.5
		c-1.4-0.6-2-2.1-1.5-3.5l7.4-17.8C125.2,31.8,125,31.4,124.8,31.3z"/>
</g>
<g>
	<path class="st0" d="M88.2,71.8c-1.4,0.6-3.1-0.1-3.7-1.5c-0.3-0.8-0.3-1.8,0.2-2.5L79.8,56c-2.1,0.1-4-1.1-4.8-3.1l-7.4-17.8
		c-0.4-0.9,0.1-1.9,0.9-2.2s1.9,0.1,2.2,0.9l7.4,17.8c0.3,0.8,1.2,1.2,2,0.8c0.8-0.3,1.2-1.2,0.8-2l-7.4-17.8
		c-0.4-0.9,0.1-1.9,0.9-2.2c0.9-0.4,1.9,0.1,2.2,0.9l7.4,17.8c0.8,1.9,0.3,4.2-1.2,5.5l4.9,11.8c0.9,0.2,1.6,0.8,1.9,1.7
		C90.3,69.6,89.6,71.2,88.2,71.8z M69,34c-0.3,0.1-0.4,0.4-0.3,0.7L76,52.5c0.7,1.6,2.3,2.6,4,2.3l0.4-0.1l5.5,13.2l-0.2,0.3
		c-0.4,0.5-0.5,1.1-0.2,1.7c0.4,0.9,1.4,1.3,2.2,0.9s1.3-1.4,0.9-2.2c-0.2-0.6-0.7-1-1.4-1l-0.3,0l-5.5-13.2l0.3-0.3
		c1.4-1.1,1.9-2.9,1.2-4.5l-7.4-17.8c-0.1-0.3-0.4-0.4-0.7-0.3c-0.3,0.1-0.4,0.4-0.3,0.7L82,50c0.6,1.4-0.1,3-1.5,3.5
		c-1.4,0.6-3-0.1-3.5-1.5l-7.4-17.8C69.6,34,69.2,33.9,69,34z"/>
</g>
<g>
	<path class="st0" d="M71.7,88.5c-0.6,1.4-2.3,2.1-3.7,1.5c-0.8-0.3-1.4-1.1-1.7-1.9l-11.8-4.9c-1.4,1.5-3.6,2-5.5,1.2l-17.8-7.4
		c-0.9-0.4-1.3-1.3-0.9-2.2s1.3-1.3,2.2-0.9l17.8,7.4c0.8,0.3,1.7,0,2-0.8c0.3-0.8,0-1.7-0.8-2l-17.8-7.4c-0.9-0.4-1.3-1.3-0.9-2.2
		c0.4-0.9,1.3-1.3,2.2-0.9l17.8,7.4c1.9,0.8,3.1,2.7,3.1,4.8L67.7,85c0.8-0.5,1.7-0.5,2.5-0.2C71.6,85.4,72.3,87.1,71.7,88.5z
		 M31.4,75.3c-0.1,0.3,0,0.6,0.3,0.7l17.8,7.4c1.6,0.7,3.4,0.2,4.5-1.2l0.3-0.3l13.2,5.5l0,0.3c0.1,0.6,0.5,1.1,1,1.4
		c0.9,0.4,1.9-0.1,2.2-0.9c0.4-0.9-0.1-1.9-0.9-2.2c-0.6-0.2-1.2-0.1-1.7,0.2l-0.3,0.2l-13.2-5.5l0.1-0.4c0.2-1.7-0.7-3.4-2.3-4
		L34.6,69c-0.3-0.1-0.6,0-0.7,0.3c-0.1,0.3,0,0.6,0.3,0.7L52,77.4c1.4,0.6,2,2.1,1.5,3.5c-0.6,1.4-2.1,2-3.5,1.5L32.1,75
		C31.8,74.9,31.5,75,31.4,75.3z"/>
</g>
<g>
	<path class="st0" d="M71.9,111.9c0.6,1.4-0.1,3.1-1.5,3.7c-0.8,0.3-1.8,0.3-2.5-0.2L56,120.3c0.1,2.1-1.1,4-3.1,4.8l-17.8,7.4
		c-0.9,0.4-1.9-0.1-2.2-0.9s0.1-1.9,0.9-2.2l17.8-7.4c0.8-0.3,1.2-1.2,0.8-2c-0.3-0.8-1.2-1.2-2-0.8l-17.8,7.4
		c-0.9,0.4-1.9-0.1-2.2-0.9c-0.4-0.9,0.1-1.9,0.9-2.2l17.8-7.4c1.9-0.8,4.2-0.3,5.5,1.2l11.8-4.9c0.2-0.9,0.8-1.6,1.7-1.9
		C69.6,109.8,71.3,110.5,71.9,111.9z M34.1,131.1c0.1,0.3,0.4,0.4,0.7,0.3l17.8-7.4c1.6-0.7,2.6-2.3,2.3-4l-0.1-0.4l13.2-5.5
		l0.3,0.2c0.5,0.4,1.1,0.5,1.7,0.2c0.9-0.4,1.3-1.4,0.9-2.2c-0.4-0.9-1.4-1.3-2.2-0.9c-0.6,0.2-1,0.7-1,1.4l0,0.3l-13.2,5.5
		l-0.3-0.3c-1.1-1.4-2.9-1.9-4.5-1.2l-17.8,7.4c-0.3,0.1-0.4,0.4-0.3,0.7c0.1,0.3,0.4,0.4,0.7,0.3l17.8-7.4c1.4-0.6,3,0.1,3.5,1.5
		c0.6,1.4-0.1,3-1.5,3.5l-17.8,7.4C34.1,130.5,33.9,130.8,34.1,131.1z"/>
</g>
<g>
	<path class="st0" d="M88.6,128.3c1.4,0.6,2.1,2.3,1.5,3.7c-0.3,0.8-1.1,1.4-1.9,1.7l-4.9,11.8c1.5,1.4,2,3.6,1.2,5.5l-7.4,17.8
		c-0.4,0.9-1.3,1.3-2.2,0.9c-0.9-0.4-1.3-1.3-0.9-2.2l7.4-17.8c0.3-0.8,0-1.7-0.8-2c-0.8-0.3-1.7,0-2,0.8l-7.4,17.8
		c-0.4,0.9-1.3,1.3-2.2,0.9c-0.9-0.4-1.3-1.3-0.9-2.2l7.4-17.8c0.8-1.9,2.7-3.1,4.8-3.1l4.9-11.8c-0.5-0.8-0.5-1.7-0.2-2.5
		C85.5,128.4,87.1,127.8,88.6,128.3z M75.4,168.7c0.3,0.1,0.6,0,0.7-0.3l7.4-17.8c0.7-1.6,0.2-3.4-1.2-4.5l-0.3-0.3l5.5-13.2l0.3,0
		c0.6-0.1,1.1-0.5,1.4-1c0.4-0.9-0.1-1.9-0.9-2.2s-1.9,0.1-2.2,0.9c-0.2,0.6-0.1,1.2,0.2,1.7l0.2,0.3l-5.5,13.2l-0.4-0.1
		c-1.7-0.2-3.4,0.7-4,2.3l-7.4,17.8c-0.1,0.3,0,0.6,0.3,0.7c0.3,0.1,0.6,0,0.7-0.3l7.4-17.8c0.6-1.4,2.1-2,3.5-1.5
		c1.4,0.6,2,2.1,1.5,3.5l-7.4,17.8C75,168.2,75.1,168.6,75.4,168.7z"/>
</g>
<g>
	<path class="st0" d="M200,100c0,2.6-2.1,4.8-4.8,4.8c-1.5,0-2.9-0.7-3.8-1.9l-25.9,0c-1.2,3.3-4.3,5.5-7.9,5.5l-32.4,0
		c-1.6,0-2.9-1.3-2.9-2.9c0-1.6,1.3-2.9,2.9-2.9l32.4,0c1.5,0,2.6-1.2,2.6-2.6c0-1.5-1.2-2.6-2.6-2.6l-32.4,0
		c-1.6,0-2.9-1.3-2.9-2.9c0-1.6,1.3-2.9,2.9-2.9l32.4,0c3.5,0,6.7,2.2,7.9,5.5l25.9,0c0.9-1.2,2.3-1.9,3.8-1.9
		C197.9,95.2,200,97.4,200,100z M124.3,105.5c0,0.5,0.4,1,1,1l32.4,0c2.9,0,5.5-2,6.2-4.8l0.2-0.7l28.4,0l0.3,0.5
		c0.5,0.9,1.5,1.4,2.5,1.4c1.6,0,2.9-1.3,2.9-2.9s-1.3-2.9-2.9-2.9c-1,0-2,0.6-2.5,1.4l-0.3,0.5l-28.4,0l-0.2-0.7
		c-0.8-2.8-3.3-4.8-6.2-4.8l-32.4,0c-0.5,0-1,0.4-1,1c0,0.5,0.4,1,1,1l32.4,0c2.5,0,4.5,2,4.5,4.5c0,2.5-2,4.5-4.5,4.5l-32.4,0
		C124.7,104.5,124.3,105,124.3,105.5z"/>
</g>
<g>
	<path class="st0" d="M100.1,0.1c2.6,0,4.8,2.1,4.8,4.8c0,1.5-0.7,2.9-1.9,3.8l0,25.9c3.3,1.2,5.5,4.3,5.5,7.9l0,32.4
		c0,1.6-1.3,2.9-2.9,2.9c-1.6,0-2.9-1.3-2.9-2.9l0-32.4c0-1.5-1.2-2.6-2.6-2.6c-1.5,0-2.6,1.2-2.6,2.6l0,32.4c0,1.6-1.3,2.9-2.9,2.9
		c-1.6,0-2.9-1.3-2.9-2.9l0-32.4c0-3.5,2.2-6.7,5.5-7.9l0-25.9c-1.2-0.9-1.9-2.3-1.9-3.8C95.3,2.2,97.4,0.1,100.1,0.1z M105.6,75.8
		c0.5,0,1-0.4,1-1l0-32.4c0-2.9-2-5.5-4.8-6.2L101,36l0-28.4l0.5-0.3c0.9-0.5,1.4-1.5,1.4-2.5c0-1.6-1.3-2.9-2.9-2.9
		c-1.6,0-2.9,1.3-2.9,2.9c0,1,0.6,2,1.4,2.5l0.5,0.3l0,28.4l-0.7,0.2c-2.8,0.8-4.8,3.3-4.8,6.2l0,32.4c0,0.5,0.4,1,1,1
		c0.5,0,1-0.4,1-1l0-32.4c0-2.5,2-4.5,4.5-4.5c2.5,0,4.5,2,4.5,4.5l0,32.4C104.6,75.4,105,75.8,105.6,75.8z"/>
</g>
<g>
	<path class="st0" d="M0,100c0-2.6,2.1-4.8,4.8-4.8c1.5,0,2.9,0.7,3.8,1.9l26,0c1.2-3.3,4.3-5.5,7.9-5.5l32.4,0
		c1.6,0,2.9,1.3,2.9,2.9c0,1.6-1.3,2.9-2.9,2.9l-32.4,0c-1.5,0-2.6,1.2-2.6,2.6c0,1.5,1.2,2.6,2.6,2.6l32.4,0c1.6,0,2.9,1.3,2.9,2.9
		c0,1.6-1.3,2.9-2.9,2.9l-32.4,0c-3.5,0-6.7-2.2-7.9-5.5l-26,0c-0.9,1.2-2.3,1.9-3.8,1.9C2.1,104.8,0,102.6,0,100z M75.9,94.5
		c0-0.5-0.4-1-1-1l-32.4,0c-2.9,0-5.5,2-6.2,4.8L36.1,99L7.5,99l-0.3-0.5c-0.5-0.9-1.5-1.4-2.5-1.4c-1.6,0-2.9,1.3-2.9,2.9
		s1.3,2.9,2.9,2.9c1,0,2-0.6,2.5-1.4l0.3-0.5l28.5,0l0.2,0.7c0.8,2.8,3.3,4.8,6.2,4.8l32.4,0c0.5,0,1-0.4,1-1c0-0.5-0.4-1-1-1
		l-32.4,0c-2.5,0-4.5-2-4.5-4.5c0-2.5,2-4.5,4.5-4.5l32.4,0C75.4,95.5,75.9,95,75.9,94.5z"/>
</g>
<g>
	<path class="st0" d="M165.5,165.4c-1.9,1.9-4.9,1.9-6.7,0c-1.1-1.1-1.6-2.6-1.3-4.1l-13.1-13.1c-3.2,1.5-6.9,0.8-9.4-1.7
		l-22.9-22.9c-1.1-1.1-1.1-2.9,0-4c1.1-1.1,2.9-1.1,4,0l22.9,22.9c1,1,2.7,1,3.7,0c1-1,1-2.7,0-3.7l-22.9-22.9c-1.1-1.1-1.1-2.9,0-4
		c1.1-1.1,2.9-1.1,4,0l22.9,22.9c2.5,2.5,3.1,6.3,1.7,9.4l13.1,13.1c1.5-0.2,3,0.3,4.1,1.3C167.3,160.5,167.3,163.6,165.5,165.4z
		 M113.3,121c-0.4,0.4-0.4,1,0,1.3l22.9,22.9c2.1,2.1,5.3,2.5,7.8,1l0.6-0.4l14.8,14.8l-0.1,0.5c-0.3,1,0,2.1,0.7,2.8
		c1.1,1.1,2.9,1.1,4.1,0s1.1-2.9,0-4.1c-0.7-0.7-1.8-1-2.8-0.7l-0.5,0.1L146,144.6l0.4-0.6c1.5-2.5,1-5.7-1-7.8l-22.9-22.9
		c-0.4-0.4-1-0.4-1.3,0c-0.4,0.4-0.4,1,0,1.3l22.9,22.9c1.8,1.8,1.8,4.7,0,6.4c-1.8,1.8-4.7,1.8-6.4,0L114.6,121
		C114.3,120.6,113.7,120.6,113.3,121z"/>
</g>
<g>
	<path class="st0" d="M165.5,34.6c1.9,1.9,1.9,4.9,0,6.7c-1.1,1.1-2.6,1.6-4.1,1.3l-13.1,13.1c1.5,3.2,0.8,6.9-1.7,9.4l-22.9,22.9
		c-1.1,1.1-2.9,1.1-4,0c-1.1-1.1-1.1-2.9,0-4l22.9-22.9c1-1,1-2.7,0-3.7c-1-1-2.7-1-3.7,0L116,80.3c-1.1,1.1-2.9,1.1-4,0
		c-1.1-1.1-1.1-2.9,0-4l22.9-22.9c2.5-2.5,6.3-3.1,9.4-1.7l13.1-13.1c-0.2-1.5,0.3-3,1.3-4.1C160.6,32.7,163.6,32.7,165.5,34.6z
		 M121.1,86.8c0.4,0.4,1,0.4,1.3,0l22.9-22.9c2.1-2.1,2.5-5.3,1-7.8l-0.4-0.6l14.8-14.8l0.5,0.1c1,0.3,2.1,0,2.8-0.7
		c1.1-1.1,1.1-2.9,0-4.1c-1.1-1.1-2.9-1.1-4.1,0c-0.7,0.7-1,1.8-0.7,2.8l0.1,0.5l-14.8,14.8l-0.6-0.4c-2.5-1.5-5.7-1-7.8,1
		l-22.9,22.9c-0.4,0.4-0.4,1,0,1.3c0.4,0.4,1,0.4,1.3,0l22.9-22.9c1.8-1.8,4.7-1.8,6.4,0c1.8,1.8,1.8,4.7,0,6.4l-22.9,22.9
		C120.7,85.8,120.7,86.4,121.1,86.8z"/>
</g>
<g>
	<path class="st0" d="M34.7,34.6c1.9-1.9,4.9-1.9,6.7,0c1.1,1.1,1.6,2.6,1.3,4.1l13.1,13.1c3.2-1.5,6.9-0.8,9.4,1.7l22.9,22.9
		c1.1,1.1,1.1,2.9,0,4c-1.1,1.1-2.9,1.1-4,0L61.2,57.4c-1-1-2.7-1-3.7,0c-1,1-1,2.7,0,3.7l22.9,22.9c1.1,1.1,1.1,2.9,0,4
		s-2.9,1.1-4,0L53.4,65.2c-2.5-2.5-3.1-6.3-1.7-9.4L38.7,42.7c-1.5,0.2-3-0.3-4.1-1.3C32.8,39.5,32.8,36.4,34.7,34.6z M86.8,79
		c0.4-0.4,0.4-1,0-1.3L63.9,54.7c-2.1-2.1-5.3-2.5-7.8-1l-0.6,0.4L40.7,39.2l0.1-0.5c0.3-1,0-2.1-0.7-2.8c-1.1-1.1-2.9-1.1-4.1,0
		c-1.1,1.1-1.1,2.9,0,4.1c0.7,0.7,1.8,1,2.8,0.7l0.5-0.1l14.8,14.8L53.8,56c-1.5,2.5-1,5.7,1,7.8l22.9,22.9c0.4,0.4,1,0.4,1.3,0
		c0.4-0.4,0.4-1,0-1.3L56.1,62.5c-1.8-1.8-1.8-4.7,0-6.4c1.8-1.8,4.7-1.8,6.4,0L85.5,79C85.9,79.4,86.5,79.4,86.8,79z"/>
</g>
<g>
	<path class="st0" d="M34.7,165.4c-1.9-1.9-1.9-4.9,0-6.7c1.1-1.1,2.6-1.6,4.1-1.3l13.1-13.1c-1.5-3.2-0.8-6.9,1.7-9.4l22.9-22.9
		c1.1-1.1,2.9-1.1,4,0c1.1,1.1,1.1,2.9,0,4l-22.9,22.9c-1,1-1,2.7,0,3.7c1,1,2.7,1,3.7,0l22.9-22.9c1.1-1.1,2.9-1.1,4,0
		c1.1,1.1,1.1,2.9,0,4l-22.9,22.9c-2.5,2.5-6.3,3.1-9.4,1.7l-13.1,13.1c0.2,1.5-0.3,3-1.3,4.1C39.5,167.3,36.5,167.3,34.7,165.4z
		 M79.1,113.2c-0.4-0.4-1-0.4-1.3,0l-22.9,22.9c-2.1,2.1-2.5,5.3-1,7.8l0.4,0.6l-14.8,14.8l-0.5-0.1c-1-0.3-2.1,0-2.8,0.7
		c-1.1,1.1-1.1,2.9,0,4.1c1.1,1.1,2.9,1.1,4.1,0c0.7-0.7,1-1.8,0.7-2.8l-0.1-0.5l14.8-14.8l0.6,0.4c2.5,1.5,5.7,1,7.8-1l22.9-22.9
		c0.4-0.4,0.4-1,0-1.3c-0.4-0.4-1-0.4-1.3,0l-22.9,22.9c-1.8,1.8-4.7,1.8-6.4,0c-1.8-1.8-1.8-4.7,0-6.4l22.9-22.9
		C79.4,114.2,79.4,113.6,79.1,113.2z"/>
</g>
</svg>
