<?xml version="1.0" encoding="utf-8"?>
<!-- Generator: Adobe Illustrator 19.1.0, SVG Export Plug-In . SVG Version: 6.00 Build 0)  -->
<svg version="1.1" id="Layer_1" xmlns="http://www.w3.org/2000/svg" xmlns:xlink="http://www.w3.org/1999/xlink" x="0px" y="0px"
	 viewBox="0 0 200 200" style="enable-background:new 0 0 200 200;" xml:space="preserve">
<style type="text/css">
	.st0{fill:#FFFFFF;}
</style>
<path class="st0" d="M101.3,200h-7.6c-3,0-5.4-2.4-5.4-5.4v-61.9c0-1.5,0.6-2.9,1.7-3.9l5.9-5.7c2.1-2,5.5-2,7.6,0.1l5,5
	c1,1,1.6,2.4,1.6,3.8v56.6c0,0.6-0.5,1.1-1.1,1.1s-1.1-0.5-1.1-1.1V132c0-0.9-0.3-1.7-1-2.3l-5-5c-1.3-1.3-3.3-1.3-4.6,0l-5.9,5.7
	c-0.6,0.6-1,1.5-1,2.4v61.9c0,1.8,1.5,3.3,3.3,3.3h7.6c1.8,0,3.3-1.5,3.3-3.3V151c0-0.8-0.3-1.7-0.9-2.3l-1.9-2
	c-0.6-0.7-1.5-1-2.4-1c-0.9,0-1.8,0.4-2.4,1.1l-1.8,2c-0.5,0.6-0.8,1.4-0.8,2.2v38.6c0,0.6-0.5,1.1-1.1,1.1c-0.6,0-1.1-0.5-1.1-1.1
	V151c0-1.3,0.5-2.6,1.4-3.6l1.8-2c1-1.1,2.4-1.8,4-1.8c1.5,0,3,0.6,4,1.7l1.9,2c1,1,1.5,2.3,1.5,3.7v43.6
	C106.7,197.6,104.3,200,101.3,200z"/>
<path class="st0" d="M194.6,111.7h-61.9c-1.5,0-2.9-0.6-3.9-1.7l-5.7-5.9c-2-2.1-2-5.5,0.1-7.6l5-5c1-1,2.4-1.6,3.8-1.6h56.6
	c0.6,0,1.1,0.5,1.1,1.1s-0.5,1.1-1.1,1.1H132c-0.9,0-1.7,0.3-2.3,1l-5,5c-1.3,1.3-1.3,3.3,0,4.6l5.7,5.9c0.6,0.6,1.5,1,2.4,1h61.9
	c1.8,0,3.3-1.5,3.3-3.3v-7.6c0-1.8-1.5-3.3-3.3-3.3H151c-0.8,0-1.7,0.3-2.3,0.9l-2,1.9c-0.7,0.6-1,1.5-1,2.4c0,0.9,0.4,1.8,1.1,2.4
	l2,1.8c0.6,0.5,1.4,0.8,2.2,0.8h38.6c0.6,0,1.1,0.5,1.1,1.1s-0.5,1.1-1.1,1.1H151c-1.3,0-2.6-0.5-3.6-1.4l-2-1.8
	c-1.1-1-1.8-2.4-1.8-4c0-1.5,0.6-3,1.7-4l2-1.9c1-1,2.3-1.5,3.7-1.5h43.6c3,0,5.4,2.4,5.4,5.4v7.6
	C200,109.2,197.6,111.7,194.6,111.7z"/>
<path class="st0" d="M157.5,84.4c-0.4,0-0.9-0.1-1.3-0.3l-4.4-1.9c-1.6-0.7-2.4-2.6-1.7-4.3l1.6-3.9c0.3-0.8,1-1.4,1.8-1.8
	l30.9-12.8c0.4-0.2,0.8,0,0.9,0.4c0.2,0.4,0,0.8-0.4,0.9L154,73.5c-0.5,0.2-0.8,0.5-1,1l-1.6,3.9c-0.4,0.9,0.1,2,1,2.4l4.4,1.9
	c0.5,0.2,1,0.2,1.4,0l33.8-14c0.5-0.2,0.8-0.5,1-1c0.2-0.5,0.2-1,0-1.4l-1.7-4.1c-0.2-0.5-0.5-0.8-1-1c-0.5-0.2-1-0.2-1.4,0
	l-23.8,9.8c-0.4,0.2-0.8,0.5-1,1l-0.7,1.5c-0.2,0.5-0.2,1,0,1.5c0.2,0.5,0.6,0.8,1.1,1l1.5,0.5c0.4,0.1,0.9,0.1,1.3,0l21.1-8.7
	c0.4-0.2,0.8,0,0.9,0.4c0.2,0.4,0,0.8-0.4,0.9l-21.1,8.7c-0.7,0.3-1.6,0.3-2.3,0.1l-1.5-0.5c-0.9-0.3-1.6-1-1.9-1.8
	c-0.4-0.8-0.4-1.8,0-2.7l0.7-1.5c0.3-0.8,1-1.4,1.7-1.7l23.8-9.8c0.8-0.3,1.7-0.3,2.5,0c0.8,0.3,1.4,1,1.8,1.8l1.7,4.1
	c0.3,0.8,0.3,1.7,0,2.5c-0.3,0.8-1,1.4-1.8,1.8l-33.8,14C158.4,84.3,158,84.4,157.5,84.4z"/>
<path class="st0" d="M122.4,51.2c-1.3,0-2.5-0.8-3.1-2l-1.6-3.9c-0.3-0.8-0.3-1.7,0-2.5l12.8-30.9c0.2-0.4,0.6-0.5,0.9-0.4
	c0.4,0.2,0.5,0.6,0.4,0.9l-12.8,30.9c-0.2,0.5-0.2,1,0,1.4l1.6,3.9c0.4,0.9,1.4,1.4,2.4,1l4.5-1.8c0.5-0.2,0.8-0.6,1-1l14-33.8
	c0.4-0.9-0.1-2-1-2.4l-4.1-1.7c-0.5-0.2-1-0.2-1.4,0c-0.5,0.2-0.8,0.5-1,1l-9.8,23.8c-0.2,0.4-0.2,0.9,0,1.4l0.6,1.6
	c0.2,0.5,0.6,0.9,1,1.1s1,0.2,1.5-0.1l1.4-0.7c0.4-0.2,0.7-0.5,0.9-1l8.7-21.1c0.2-0.4,0.6-0.5,0.9-0.4c0.4,0.2,0.5,0.6,0.4,0.9
	L132,36.5c-0.3,0.7-0.9,1.4-1.6,1.7l-1.4,0.7c-0.8,0.4-1.8,0.4-2.6,0.1c-0.9-0.3-1.5-1-1.9-1.9l-0.6-1.6c-0.3-0.8-0.3-1.7,0-2.4
	l9.8-23.8c0.3-0.8,1-1.4,1.8-1.8c0.8-0.3,1.7-0.3,2.5,0l4.1,1.7c1.7,0.7,2.5,2.6,1.8,4.3l-14,33.8c-0.3,0.8-1,1.5-1.8,1.8l-4.5,1.8
	C123.2,51.1,122.8,51.2,122.4,51.2z"/>
<path class="st0" d="M78.6,50.7c-0.4,0-0.8-0.1-1.2-0.2l-3.9-1.6c-0.8-0.3-1.4-1-1.8-1.8L58.9,16.2c-0.2-0.4,0-0.8,0.4-0.9
	c0.4-0.2,0.8,0,0.9,0.4L73,46.5c0.2,0.5,0.5,0.8,1,1l3.9,1.6c0.9,0.4,2-0.1,2.4-1l1.9-4.4c0.2-0.5,0.2-1,0-1.4l-14-33.8
	c-0.2-0.5-0.5-0.8-1-1c-0.5-0.2-1-0.2-1.4,0l-4.1,1.7c-0.9,0.4-1.4,1.5-1,2.4l9.8,23.8c0.2,0.4,0.5,0.8,1,1l1.5,0.7
	c0.5,0.2,1,0.2,1.5,0c0.5-0.2,0.8-0.6,1-1.1l0.5-1.5c0.1-0.4,0.1-0.9,0-1.3l-8.7-21.1c-0.2-0.4,0-0.8,0.4-0.9c0.4-0.2,0.8,0,0.9,0.4
	l8.7,21.1c0.3,0.7,0.3,1.6,0.1,2.3l-0.5,1.5c-0.3,0.9-1,1.6-1.8,1.9c-0.8,0.4-1.8,0.4-2.7,0l-1.5-0.7c-0.8-0.3-1.4-1-1.7-1.7
	l-9.8-23.8c-0.7-1.7,0.1-3.6,1.8-4.3l4.1-1.7c0.8-0.3,1.7-0.3,2.5,0c0.8,0.3,1.4,1,1.8,1.8l14,33.8c0.3,0.8,0.3,1.8,0,2.6l-1.9,4.4
	C81.1,50,79.9,50.7,78.6,50.7z"/>
<path class="st0" d="M43.5,83c-0.4,0-0.9-0.1-1.3-0.3L11.3,70c-0.4-0.2-0.5-0.6-0.4-0.9c0.2-0.4,0.6-0.5,0.9-0.4l30.9,12.8
	c0.5,0.2,1,0.2,1.4,0l3.9-1.6c0.9-0.4,1.4-1.5,1-2.4l-1.8-4.5c-0.2-0.5-0.6-0.8-1-1l-33.8-14c-0.5-0.2-1-0.2-1.4,0
	c-0.5,0.2-0.8,0.5-1,1L8.4,63c-0.2,0.5-0.2,1,0,1.4c0.2,0.5,0.5,0.8,1,1l23.8,9.8c0.4,0.2,0.9,0.2,1.4,0l1.6-0.6
	c0.5-0.2,0.9-0.6,1.1-1c0.2-0.5,0.2-1-0.1-1.5l-0.7-1.4c-0.2-0.4-0.5-0.7-1-0.9l-21.1-8.7C14,61,13.8,60.6,14,60.2
	c0.2-0.4,0.6-0.5,0.9-0.4L36,68.5c0.7,0.3,1.4,0.9,1.7,1.6l0.7,1.4c0.4,0.8,0.4,1.8,0.1,2.6c-0.3,0.9-1,1.5-1.9,1.9L35,76.7
	c-0.8,0.3-1.7,0.3-2.4,0L8.8,66.8C8,66.4,7.4,65.8,7,65c-0.3-0.8-0.3-1.7,0-2.5l1.7-4.1c0.3-0.8,1-1.4,1.8-1.8
	c0.8-0.3,1.7-0.3,2.5,0l33.8,14c0.8,0.3,1.5,1,1.8,1.8l1.8,4.5c0.7,1.7-0.2,3.6-1.8,4.2l-3.9,1.6C44.3,82.9,43.9,83,43.5,83z"/>
<path class="st0" d="M15.4,141.7c-0.3,0-0.6-0.2-0.7-0.4c-0.2-0.4,0-0.8,0.4-0.9L46,127.5c0.5-0.2,0.8-0.5,1-1l1.6-3.9
	c0.4-0.9-0.1-2-1-2.4l-4.4-1.9c-0.5-0.2-1-0.2-1.4,0L8,132.3c-0.5,0.2-0.8,0.5-1,1c-0.2,0.5-0.2,1,0,1.4l1.7,4.1
	c0.2,0.5,0.5,0.8,1,1c0.5,0.2,1,0.2,1.4,0l23.8-9.8c0.4-0.2,0.8-0.5,1-1l0.7-1.5c0.2-0.5,0.2-1,0-1.5c-0.2-0.5-0.6-0.8-1.1-1
	l-1.5-0.5c-0.4-0.1-0.9-0.1-1.3,0l-21.1,8.7c-0.4,0.2-0.8,0-0.9-0.4c-0.2-0.4,0-0.8,0.4-0.9l21.1-8.7c0.7-0.3,1.6-0.3,2.3-0.1
	l1.5,0.5c0.9,0.3,1.6,1,1.9,1.8s0.4,1.8,0,2.7l-0.7,1.5c-0.3,0.8-1,1.4-1.7,1.7l-23.8,9.8c-0.8,0.3-1.7,0.3-2.5,0
	c-0.8-0.3-1.4-1-1.8-1.8l-1.7-4.1c-0.3-0.8-0.3-1.7,0-2.5c0.3-0.8,1-1.4,1.8-1.8l33.8-14c0.8-0.3,1.8-0.3,2.6,0l4.4,1.9
	c1.6,0.7,2.4,2.6,1.7,4.3l-1.6,3.9c-0.3,0.8-1,1.4-1.8,1.8l-30.9,12.8C15.6,141.7,15.5,141.7,15.4,141.7z"/>
<path class="st0" d="M63.2,193.8c-0.4,0-0.9-0.1-1.3-0.3l-4.1-1.7c-1.7-0.7-2.5-2.6-1.8-4.3l14-33.8c0.3-0.8,1-1.5,1.8-1.8l4.5-1.8
	c1.7-0.7,3.6,0.2,4.2,1.8l1.6,3.9c0.3,0.8,0.3,1.7,0,2.5l-12.8,30.9c-0.2,0.4-0.6,0.5-0.9,0.4c-0.4-0.2-0.5-0.6-0.4-0.9l12.8-30.9
	c0.2-0.5,0.2-1,0-1.4l-1.6-3.9c-0.4-0.9-1.5-1.4-2.4-1l-4.5,1.8c-0.5,0.2-0.8,0.6-1,1l-14,33.8c-0.4,0.9,0.1,2,1,2.4l4.1,1.7
	c0.5,0.2,1,0.2,1.4,0c0.5-0.2,0.8-0.5,1-1l9.8-23.8c0.2-0.4,0.2-0.9,0-1.4l-0.6-1.6c-0.2-0.5-0.6-0.9-1-1.1c-0.5-0.2-1-0.2-1.5,0.1
	l-1.4,0.7c-0.4,0.2-0.7,0.5-0.9,1l-8.7,21.1c-0.2,0.4-0.6,0.5-0.9,0.4c-0.4-0.2-0.5-0.6-0.4-0.9l8.7-21.1c0.3-0.7,0.9-1.4,1.6-1.7
	l1.4-0.7c0.8-0.4,1.8-0.4,2.6-0.1c0.9,0.3,1.5,1,1.9,1.9l0.6,1.6c0.3,0.8,0.3,1.7,0,2.4l-9.8,23.8c-0.3,0.8-1,1.4-1.8,1.8
	C64.1,193.7,63.6,193.8,63.2,193.8z"/>
<path class="st0" d="M133.5,195.1c-1.3,0-2.5-0.8-3-2l-14-33.8c-0.3-0.8-0.3-1.8,0-2.6l1.9-4.4c0.7-1.6,2.6-2.4,4.3-1.7l3.9,1.6
	c0.8,0.3,1.4,1,1.8,1.8l12.8,30.9c0.2,0.4,0,0.8-0.4,0.9c-0.4,0.2-0.8,0-0.9-0.4L127,154.5c-0.2-0.5-0.5-0.8-1-1l-3.9-1.6
	c-0.9-0.4-2,0.1-2.4,1l-1.9,4.4c-0.2,0.5-0.2,1,0,1.4l14,33.8c0.4,0.9,1.5,1.4,2.4,1l4.1-1.7c0.9-0.4,1.4-1.5,1-2.4l-9.8-23.8
	c-0.2-0.4-0.5-0.8-1-1L127,164c-0.5-0.2-1-0.2-1.5,0c-0.5,0.2-0.8,0.6-1,1.1l-0.5,1.5c-0.1,0.4-0.1,0.9,0,1.3l8.7,21.1
	c0.2,0.4,0,0.8-0.4,0.9c-0.4,0.2-0.8,0-0.9-0.4l-8.7-21.1c-0.3-0.7-0.3-1.6-0.1-2.3l0.5-1.5c0.3-0.9,1-1.6,1.8-1.9
	c0.8-0.4,1.8-0.4,2.7,0l1.5,0.7c0.8,0.3,1.4,1,1.7,1.7l9.8,23.8c0.7,1.7-0.1,3.6-1.8,4.3l-4.1,1.7
	C134.3,195.1,133.9,195.1,133.5,195.1z"/>
<path class="st0" d="M188.2,144.7c-0.4,0-0.9-0.1-1.3-0.3l-33.8-14c-0.8-0.3-1.5-1-1.8-1.8l-1.8-4.5c-0.7-1.7,0.2-3.6,1.8-4.2
	l3.9-1.6c0.8-0.3,1.7-0.3,2.5,0l30.9,12.8c0.4,0.2,0.5,0.6,0.4,0.9s-0.6,0.5-0.9,0.4l-30.9-12.8c-0.5-0.2-1-0.2-1.4,0l-3.9,1.6
	c-0.9,0.4-1.4,1.5-1,2.4l1.8,4.5c0.2,0.5,0.6,0.8,1,1l33.8,14c0.5,0.2,1,0.2,1.4,0c0.5-0.2,0.8-0.5,1-1l1.7-4.1c0.2-0.5,0.2-1,0-1.4
	c-0.2-0.5-0.5-0.8-1-1l-23.8-9.8c-0.4-0.2-0.9-0.2-1.4,0l-1.6,0.6c-0.5,0.2-0.9,0.6-1.1,1c-0.2,0.5-0.2,1,0.1,1.5l0.7,1.4
	c0.2,0.4,0.5,0.7,1,0.9l21.1,8.7c0.4,0.2,0.5,0.6,0.4,0.9c-0.2,0.4-0.6,0.5-0.9,0.4l-21.1-8.7c-0.7-0.3-1.4-0.9-1.7-1.6l-0.7-1.4
	c-0.4-0.8-0.4-1.8-0.1-2.6c0.3-0.9,1-1.5,1.9-1.9l1.6-0.6c0.8-0.3,1.7-0.3,2.4,0l23.8,9.8c0.8,0.3,1.4,1,1.8,1.8
	c0.3,0.8,0.3,1.7,0,2.5l-1.7,4.1c-0.3,0.8-1,1.4-1.8,1.8C189.1,144.6,188.7,144.7,188.2,144.7z"/>
<path class="st0" d="M100.4,78.4c-1.4,0-2.8-0.5-3.8-1.6l-5-5c-1-1-1.6-2.4-1.6-3.8V11.4c0-0.6,0.5-1.1,1.1-1.1
	c0.6,0,1.1,0.5,1.1,1.1V68c0,0.9,0.3,1.7,1,2.3l5,5c1.3,1.3,3.3,1.3,4.6,0l5.9-5.7c0.6-0.6,1-1.5,1-2.4V5.4c0-1.8-1.5-3.3-3.3-3.3
	h-7.6c-1.8,0-3.3,1.5-3.3,3.3V49c0,0.8,0.3,1.7,0.9,2.3l1.9,2c0.6,0.7,1.5,1,2.4,1c0.9,0,1.8-0.4,2.4-1.1l1.8-2
	c0.5-0.6,0.8-1.4,0.8-2.2V10.5c0-0.6,0.5-1.1,1.1-1.1s1.1,0.5,1.1,1.1V49c0,1.3-0.5,2.6-1.4,3.6l-1.8,2c-1,1.1-2.4,1.8-4,1.8
	c-1.5,0-3-0.6-4-1.7l-1.9-2c-1-1-1.5-2.3-1.5-3.7V5.4c0-3,2.4-5.4,5.4-5.4h7.6c3,0,5.4,2.4,5.4,5.4v61.9c0,1.5-0.6,2.9-1.7,3.9
	l-5.9,5.7C103.1,77.9,101.7,78.4,100.4,78.4z"/>
<path class="st0" d="M68,110.1H11.4c-0.6,0-1.1-0.5-1.1-1.1s0.5-1.1,1.1-1.1H68c0.9,0,1.7-0.3,2.3-1l5-5c1.3-1.3,1.3-3.3,0-4.6
	l-5.7-5.9c-0.6-0.6-1.5-1-2.4-1H5.4c-1.8,0-3.3,1.5-3.3,3.3v7.6c0,1.8,1.5,3.3,3.3,3.3H49c0.8,0,1.7-0.3,2.3-0.9l2-1.9
	c0.7-0.6,1-1.5,1-2.4c0-0.9-0.4-1.8-1.1-2.4l-2-1.8c-0.6-0.5-1.4-0.8-2.2-0.8H10.5c-0.6,0-1.1-0.5-1.1-1.1s0.5-1.1,1.1-1.1H49
	c1.3,0,2.6,0.5,3.6,1.4l2,1.8c1.1,1,1.8,2.4,1.8,4c0,1.5-0.6,3-1.7,4l-2,1.9c-1,1-2.3,1.5-3.7,1.5H5.4c-3,0-5.4-2.4-5.4-5.4v-7.6
	c0-3,2.4-5.4,5.4-5.4h61.9c1.5,0,2.9,0.6,3.9,1.7l5.7,5.9c2,2.1,2,5.5-0.1,7.6l-5,5C70.8,109.5,69.4,110.1,68,110.1z"/>
<path class="st0" d="M46.8,157.8C46.7,157.8,46.7,157.8,46.8,157.8c-1.3,0-2.4-0.5-3.2-1.4l-4.2-4.3c-0.8-0.9-1.3-2-1.3-3.2
	c0-1.2,0.5-2.3,1.4-3.2l35.3-34.7c0.9-0.9,2.1-1.3,3.3-1.3l6.6,0.2c2.5,0.1,4.4,2.1,4.4,4.6l-0.1,5.7c0,1.2-0.5,2.3-1.4,3.2
	l-32.3,31.7c-0.4,0.4-1.1,0.4-1.5,0c-0.4-0.4-0.4-1.1,0-1.5l32.3-31.7c0.5-0.5,0.7-1.1,0.7-1.7l0.1-5.7c0-1.3-1-2.4-2.4-2.4
	l-6.6-0.2c-0.7,0-1.3,0.2-1.8,0.7l-35.3,34.7c-0.5,0.5-0.7,1.1-0.7,1.7c0,0.6,0.2,1.3,0.7,1.7L45,155c0.5,0.5,1.1,0.7,1.7,0.7
	c0,0,0,0,0,0c0.6,0,1.2-0.2,1.7-0.7l24.9-24.4c0.4-0.4,0.7-1,0.7-1.6l0.1-2.3c0-0.7-0.2-1.3-0.7-1.8c-0.5-0.5-1.1-0.7-1.8-0.7
	l-2.1,0.1c-0.6,0-1.2,0.3-1.6,0.7l-22,21.6c-0.4,0.4-1.1,0.4-1.5,0c-0.4-0.4-0.4-1.1,0-1.5l22-21.6c0.8-0.8,1.8-1.2,3-1.3l2.1-0.1
	c1.3-0.1,2.5,0.4,3.4,1.3c0.9,0.9,1.4,2.1,1.3,3.4l-0.1,2.3c0,1.2-0.5,2.3-1.4,3.1l-24.9,24.4C49.1,157.4,48,157.8,46.8,157.8z"/>
<path class="st0" d="M149.4,161.6C149.4,161.6,149.4,161.6,149.4,161.6c-1.3,0-2.4-0.5-3.2-1.4l-34.7-35.3c-0.9-0.9-1.3-2.1-1.3-3.3
	l0.2-6.6c0.1-2.4,2.1-4.4,4.5-4.4c0,0,0,0,0,0l5.7,0.1c1.2,0,2.3,0.5,3.2,1.4l31.7,32.3c0.4,0.4,0.4,1.1,0,1.5
	c-0.4,0.4-1.1,0.4-1.5,0l-31.7-32.3c-0.5-0.5-1.1-0.7-1.7-0.7l-5.7-0.1c0,0,0,0,0,0c-1.3,0-2.4,1.1-2.4,2.4l-0.2,6.6
	c0,0.7,0.2,1.3,0.7,1.8l34.7,35.3c0.5,0.5,1.1,0.7,1.7,0.7c0.6,0,1.3-0.2,1.7-0.7l4.3-4.2c1-0.9,1-2.5,0-3.4l-24.4-24.9
	c-0.4-0.4-1-0.7-1.6-0.7l-2.3-0.1c-0.7,0-1.3,0.2-1.8,0.7c-0.5,0.5-0.7,1.1-0.7,1.8l0.1,2.1c0,0.6,0.3,1.2,0.7,1.6l21.6,22
	c0.4,0.4,0.4,1.1,0,1.5c-0.4,0.4-1.1,0.4-1.5,0l-21.6-22c-0.8-0.8-1.2-1.8-1.3-3l-0.1-2.1c-0.1-1.3,0.4-2.5,1.3-3.4
	c0.9-0.9,2.1-1.4,3.4-1.3l2.3,0.1c1.2,0,2.3,0.5,3.1,1.4l24.4,24.9c1.8,1.8,1.7,4.7-0.1,6.4l-4.3,4.2
	C151.8,161.1,150.6,161.6,149.4,161.6z"/>
<path class="st0" d="M122.2,89.4c0,0-0.1,0-0.1,0l-6.6-0.2c-2.5-0.1-4.4-2.1-4.4-4.6l0.1-5.7c0-1.2,0.5-2.3,1.4-3.2L144.8,44
	c0.4-0.4,1.1-0.4,1.5,0c0.4,0.4,0.4,1.1,0,1.5L114,77.2c-0.5,0.5-0.7,1.1-0.7,1.7l-0.1,5.7c0,1.3,1,2.4,2.4,2.4l6.6,0.2
	c0.7,0,1.3-0.2,1.8-0.7l35.3-34.7c0.5-0.5,0.7-1.1,0.7-1.7c0-0.6-0.2-1.3-0.7-1.7l-4.2-4.3c-0.5-0.5-1.1-0.7-1.7-0.7c0,0,0,0,0,0
	c-0.6,0-1.2,0.2-1.7,0.7l-24.9,24.4c-0.4,0.4-0.7,1-0.7,1.6l-0.1,2.3c0,0.7,0.2,1.3,0.7,1.8c0.5,0.5,1.1,0.7,1.8,0.7l2.1-0.1
	c0.6,0,1.2-0.3,1.6-0.7l22-21.6c0.4-0.4,1.1-0.4,1.5,0c0.4,0.4,0.4,1.1,0,1.5l-22,21.6c-0.8,0.8-1.8,1.2-3,1.3l-2.1,0.1
	c-1.3,0.1-2.5-0.4-3.4-1.3c-0.9-0.9-1.4-2.1-1.3-3.4l0.1-2.3c0-1.2,0.5-2.3,1.4-3.1l24.9-24.4c0.9-0.8,2-1.3,3.2-1.3
	c1.2,0,2.3,0.5,3.2,1.4l4.2,4.3c0.8,0.9,1.3,2,1.3,3.2c0,1.2-0.5,2.3-1.4,3.2l-35.3,34.7C124.5,88.9,123.4,89.4,122.2,89.4z"/>
<path class="st0" d="M85.1,88.5C85.1,88.5,85.1,88.5,85.1,88.5l-5.7-0.1c-1.2,0-2.3-0.5-3.2-1.4L44.5,54.8c-0.4-0.4-0.4-1.1,0-1.5
	c0.4-0.4,1.1-0.4,1.5,0l31.7,32.3c0.5,0.5,1.1,0.7,1.7,0.7l5.7,0.1c0,0,0,0,0,0c1.3,0,2.4-1.1,2.4-2.4l0.2-6.6
	c0-0.7-0.2-1.3-0.7-1.8L52.3,40.4c-0.9-1-2.5-1-3.4,0l-4.3,4.2c-1,0.9-1,2.5,0,3.4L69,72.9c0.4,0.4,1,0.7,1.6,0.7l2.3,0.1
	c0.7,0,1.3-0.2,1.8-0.7c0.5-0.5,0.7-1.1,0.7-1.8L75.3,69c0-0.6-0.3-1.2-0.7-1.6L53,45.4c-0.4-0.4-0.4-1.1,0-1.5
	c0.4-0.4,1.1-0.4,1.5,0l21.6,22c0.8,0.8,1.2,1.8,1.3,3l0.1,2.1c0.1,1.3-0.4,2.5-1.3,3.4c-0.9,0.9-2.1,1.4-3.4,1.3l-2.3-0.1
	c-1.2,0-2.3-0.5-3.1-1.4L43.1,49.5c-1.8-1.8-1.7-4.7,0.1-6.4l4.3-4.2c1.8-1.8,4.7-1.7,6.4,0.1l34.7,35.3c0.9,0.9,1.3,2.1,1.3,3.3
	l-0.2,6.6C89.6,86.5,87.5,88.5,85.1,88.5z"/>
</svg>
