<?xml version="1.0" encoding="utf-8"?>
<!-- Generator: Adobe Illustrator 19.1.0, SVG Export Plug-In . SVG Version: 6.00 Build 0)  -->
<svg version="1.1" id="Layer_1" xmlns="http://www.w3.org/2000/svg" xmlns:xlink="http://www.w3.org/1999/xlink" x="0px" y="0px"
	 viewBox="0 0 200 200" style="enable-background:new 0 0 200 200;" xml:space="preserve">
<style type="text/css">
	.st0{fill:#FFFFFF;}
</style>
<g>
	<g>
		<path class="st0" d="M100.3,200c-5.9,0-11.4-2.5-15.6-6.9c-4-4.3-6.4-10.2-6.4-16c0-9.1,4.9-22.9,7-28.7c0.1-0.4,0.3-0.8,0.4-1.1
			c0.5-1.3,1.7-2.2,3.1-2.2h22.2c1.2,0,2.2,0.8,2.6,1.9c1.7,5.3,6.7,22.2,6.7,30.2C120.4,189.9,111.6,200,100.3,200z M88.9,147.4
			c-0.4,0-0.7,0.2-0.8,0.6c-0.1,0.3-0.3,0.7-0.4,1.1c-2,5.8-6.8,19.3-6.8,27.9c0,11.1,8.9,20.5,19.5,20.5c4.9,0,9.4-2.2,12.7-6.1
			c3.2-3.8,5-9,5-14.4c0-7.7-4.9-24.2-6.6-29.4c0-0.1-0.2-0.2-0.3-0.2H88.9z"/>
		<path class="st0" d="M100,164.2c-0.7,0-1.2-0.5-1.2-1.2v-62.3c0-0.7,0.5-1.2,1.2-1.2s1.2,0.5,1.2,1.2V163
			C101.2,163.7,100.7,164.2,100,164.2z"/>
		<path class="st0" d="M111.1,160.3c-0.5,0-1-0.4-1.2-0.9l-2.3-8.6c-0.2-0.6,0.2-1.3,0.9-1.5c0.6-0.2,1.3,0.2,1.5,0.9l2.3,8.6
			c0.2,0.6-0.2,1.3-0.9,1.5C111.3,160.3,111.2,160.3,111.1,160.3z"/>
		<rect x="82.5" y="161.9" class="st0" width="34.6" height="2.4"/>
		<path class="st0" d="M101.4,194.7c-0.6,0-1.1-0.4-1.2-1c-0.1-0.7,0.3-1.3,0.9-1.4c4-0.8,7.1-2.8,9-5.9c4.4-6.9,2-17,2-17.1
			c-0.2-0.7,0.2-1.3,0.9-1.5c0.7-0.2,1.3,0.2,1.5,0.9c0.1,0.5,2.6,11.3-2.3,19c-2.3,3.6-5.9,6-10.6,7
			C101.6,194.7,101.5,194.7,101.4,194.7z"/>
	</g>
	<g>
		<path class="st0" d="M155.8,176.6c-0.3,0-0.5,0-0.8,0c-5.9-0.2-11.7-2.7-15.8-6.8c-6.4-6.4-12.7-19.6-15.4-25.3
			c-0.2-0.4-0.4-0.8-0.5-1.1c-0.6-1.3-0.3-2.8,0.6-3.8l15.7-15.7c0.8-0.8,2.1-1.1,3.2-0.5c5,2.5,20.5,11,26.1,16.6
			c9.1,9.1,10,22.5,2,30.4C167,174.4,161.6,176.6,155.8,176.6z M141.6,125.6c-0.1,0-0.2,0-0.2,0.1l-15.7,15.7
			c-0.3,0.3-0.3,0.7-0.2,1c0.2,0.3,0.3,0.7,0.5,1.1c2.6,5.5,8.8,18.5,14.9,24.6c3.7,3.7,8.9,6,14.2,6.1c5.4,0.2,10.4-1.7,14.1-5.4
			c3.5-3.5,5.1-8.2,4.7-13.3c-0.5-5-2.8-9.8-6.7-13.7c-5.4-5.4-20.6-13.7-25.5-16.2C141.7,125.6,141.7,125.6,141.6,125.6z"/>
		<path class="st0" d="M144.5,145.7c-0.3,0-0.6-0.1-0.9-0.4l-44-44c-0.5-0.5-0.5-1.2,0-1.7c0.5-0.5,1.2-0.5,1.7,0l44,44
			c0.5,0.5,0.5,1.2,0,1.7C145.2,145.6,144.8,145.7,144.5,145.7z"/>
		<path class="st0" d="M149.6,135.2c-0.2,0-0.4-0.1-0.6-0.2l-7.7-4.4c-0.6-0.3-0.8-1.1-0.4-1.7c0.3-0.6,1.1-0.8,1.7-0.4l7.7,4.4
			c0.6,0.3,0.8,1.1,0.4,1.7C150.5,135,150,135.2,149.6,135.2z"/>
		
			<rect x="143.3" y="127.5" transform="matrix(0.707 0.7072 -0.7072 0.707 144.7399 -59.7549)" class="st0" width="2.4" height="34.6"/>
		<path class="st0" d="M167.1,166.3c-0.2,0-0.5-0.1-0.7-0.2c-0.6-0.4-0.7-1.1-0.4-1.7c2.3-3.4,3-7,2.2-10.5
			c-1.8-7.9-10.6-13.5-10.7-13.5c-0.6-0.4-0.7-1.1-0.4-1.7c0.4-0.6,1.1-0.7,1.7-0.4c0.4,0.2,9.8,6.1,11.8,15.1
			c0.9,4.2,0.1,8.4-2.5,12.4C167.9,166.1,167.5,166.3,167.1,166.3z"/>
	</g>
	<g>
		<path class="st0" d="M177.1,121.6c-9.1,0-22.9-4.9-28.8-7c-0.4-0.1-0.8-0.3-1.1-0.4c-1.3-0.5-2.2-1.7-2.2-3.1V88.9
			c0-1.2,0.8-2.2,1.9-2.6c5.3-1.7,22.2-6.7,30.2-6.7c12.9,0,22.9,8.8,22.9,20.1c0,5.9-2.5,11.4-6.9,15.6
			C188.8,119.3,182.9,121.6,177.1,121.6z M177.1,82c-7.7,0-24.2,4.9-29.4,6.6c-0.1,0-0.2,0.2-0.2,0.3v22.2c0,0.4,0.2,0.7,0.6,0.8
			c0.3,0.1,0.7,0.3,1.1,0.4c5.8,2,19.3,6.8,27.9,6.8c11.1,0,20.5-8.9,20.5-19.5c0-4.9-2.2-9.4-6.1-12.7
			C187.6,83.7,182.5,82,177.1,82z"/>
		<path class="st0" d="M163,101.2h-62.3c-0.7,0-1.2-0.5-1.2-1.2c0-0.7,0.5-1.2,1.2-1.2H163c0.7,0,1.2,0.5,1.2,1.2
			C164.2,100.7,163.7,101.2,163,101.2z"/>
		<path class="st0" d="M150.6,92.4c-0.5,0-1-0.4-1.2-0.9c-0.2-0.6,0.2-1.3,0.9-1.5l8.6-2.3c0.6-0.2,1.3,0.2,1.5,0.9
			c0.2,0.6-0.2,1.3-0.9,1.5l-8.6,2.3C150.8,92.4,150.7,92.4,150.6,92.4z"/>
		<rect x="161.9" y="82.9" class="st0" width="2.4" height="34.6"/>
		<path class="st0" d="M193.5,99.8c-0.6,0-1.1-0.4-1.2-1c-0.8-4-2.8-7.1-5.9-9c-6.9-4.4-17-2-17.1-2c-0.7,0.2-1.3-0.2-1.5-0.9
			c-0.2-0.7,0.2-1.3,0.9-1.5c0.5-0.1,11.2-2.6,19,2.3c3.6,2.3,6,5.9,7,10.6c0.1,0.7-0.3,1.3-0.9,1.4
			C193.7,99.8,193.6,99.8,193.5,99.8z"/>
	</g>
	<g>
		<path class="st0" d="M142,77c-0.9,0-1.7-0.3-2.3-1l-15.7-15.7c-0.8-0.8-1.1-2.1-0.5-3.2c2.5-5,11-20.5,16.6-26.1
			c9.1-9.1,22.5-10,30.4-2c4.1,4.1,6.3,9.8,6.1,15.9c-0.2,5.9-2.7,11.7-6.8,15.8c-6.4,6.4-19.6,12.7-25.3,15.4
			c-0.4,0.2-0.8,0.4-1.1,0.5C142.9,76.9,142.5,77,142,77z M157.1,26c-0.6,0-1.1,0-1.7,0.1c-5,0.5-9.8,2.8-13.7,6.7
			c-5.4,5.4-13.7,20.6-16.2,25.5c-0.1,0.1,0,0.3,0.1,0.4l15.7,15.7c0.3,0.3,0.7,0.3,1,0.2c0.3-0.2,0.7-0.3,1.1-0.5
			c5.5-2.6,18.5-8.8,24.6-14.9c7.9-7.9,8.2-20.8,0.7-28.3C165.7,27.7,161.6,26,157.1,26z"/>
		<path class="st0" d="M100.5,100.7c-0.3,0-0.6-0.1-0.9-0.4c-0.5-0.5-0.5-1.2,0-1.7l44-44c0.5-0.5,1.2-0.5,1.7,0
			c0.5,0.5,0.5,1.2,0,1.7l-44,44C101.1,100.6,100.8,100.7,100.5,100.7z"/>
		<path class="st0" d="M129.6,59.3c-0.2,0-0.4-0.1-0.6-0.2c-0.6-0.3-0.8-1.1-0.4-1.7l4.4-7.7c0.3-0.6,1.1-0.8,1.7-0.4
			c0.6,0.3,0.8,1.1,0.4,1.7l-4.4,7.7C130.4,59,130,59.3,129.6,59.3z"/>
		
			<rect x="127.5" y="54.3" transform="matrix(0.7071 0.7071 -0.7071 0.7071 81.6673 -86.1439)" class="st0" width="34.6" height="2.4"/>
		<path class="st0" d="M139.4,43c-0.2,0-0.4-0.1-0.6-0.2c-0.6-0.4-0.7-1.1-0.4-1.7c0.2-0.4,6.1-9.8,15.1-11.8
			c4.2-0.9,8.4-0.1,12.4,2.5c0.6,0.4,0.7,1.1,0.4,1.7c-0.4,0.6-1.1,0.7-1.7,0.4c-3.4-2.3-7-3-10.5-2.2c-8,1.8-13.5,10.6-13.5,10.7
			C140.2,42.8,139.8,43,139.4,43z"/>
	</g>
	<g>
		<path class="st0" d="M111.1,55H88.9c-1.2,0-2.2-0.8-2.6-1.9c-1.7-5.3-6.7-22.2-6.7-30.2C79.6,10.1,88.4,0,99.7,0
			c5.9,0,11.4,2.5,15.6,6.9c4,4.3,6.4,10.2,6.4,16c0,9.1-4.9,22.9-7,28.7c-0.1,0.4-0.3,0.8-0.4,1.1C113.7,54.1,112.5,55,111.1,55z
			 M99.7,2.4c-4.9,0-9.4,2.2-12.7,6.1c-3.2,3.8-5,9-5,14.4c0,7.7,4.9,24.2,6.6,29.4c0,0.1,0.2,0.2,0.3,0.2h22.2
			c0.4,0,0.7-0.2,0.8-0.6c0.1-0.3,0.3-0.7,0.4-1.1c2-5.8,6.8-19.3,6.8-27.9C119.1,11.8,110.2,2.4,99.7,2.4z"/>
		<path class="st0" d="M100,100.5c-0.7,0-1.2-0.5-1.2-1.2V37c0-0.7,0.5-1.2,1.2-1.2s1.2,0.5,1.2,1.2v62.3
			C101.2,100,100.7,100.5,100,100.5z"/>
		<path class="st0" d="M91.2,50.6c-0.5,0-1-0.4-1.2-0.9l-2.3-8.6c-0.2-0.6,0.2-1.3,0.9-1.5c0.6-0.2,1.3,0.2,1.5,0.9l2.3,8.6
			c0.2,0.6-0.2,1.3-0.9,1.5C91.4,50.6,91.3,50.6,91.2,50.6z"/>
		<rect x="82.9" y="35.6" class="st0" width="34.6" height="2.4"/>
		<path class="st0" d="M86.7,32.2c-0.5,0-1-0.4-1.2-0.9c-0.1-0.5-2.6-11.3,2.3-19c2.3-3.6,5.9-6,10.6-7c0.7-0.1,1.3,0.3,1.4,0.9
			c0.1,0.7-0.3,1.3-0.9,1.4c-4,0.8-7.1,2.8-9,5.9c-4.4,6.9-2,17-2,17.1c0.2,0.7-0.2,1.3-0.9,1.5C86.8,32.2,86.8,32.2,86.7,32.2z"/>
	</g>
	<g>
		<path class="st0" d="M58.4,76.9c-0.4,0-0.8-0.1-1.2-0.3c-5-2.5-20.5-11-26.1-16.6c-9.1-9.1-10-22.5-2-30.4
			c4.1-4.1,9.8-6.3,15.9-6.1c5.9,0.2,11.7,2.7,15.8,6.8c6.4,6.4,12.7,19.6,15.4,25.3c0.2,0.4,0.4,0.8,0.5,1.1
			c0.6,1.3,0.3,2.8-0.6,3.8l0,0L60.3,76.1C59.8,76.6,59.1,76.9,58.4,76.9z M44.2,25.8c-5.2,0-9.9,1.9-13.4,5.4
			c-3.5,3.5-5.1,8.2-4.7,13.3c0.5,5,2.8,9.8,6.7,13.7c5.4,5.4,20.6,13.7,25.5,16.2c0.1,0.1,0.3,0,0.4-0.1l15.7-15.7
			c0.3-0.3,0.3-0.7,0.2-1c-0.2-0.3-0.3-0.7-0.5-1.1C71.3,51,65.2,38.1,59,32c-3.7-3.7-8.9-6-14.2-6.1C44.6,25.8,44.4,25.8,44.2,25.8
			z"/>
		<path class="st0" d="M99.5,100.7c-0.3,0-0.6-0.1-0.9-0.4l-44-44c-0.5-0.5-0.5-1.2,0-1.7c0.5-0.5,1.2-0.5,1.7,0l44,44
			c0.5,0.5,0.5,1.2,0,1.7C100.1,100.6,99.8,100.7,99.5,100.7z"/>
		<path class="st0" d="M58,71.7c-0.2,0-0.4-0.1-0.6-0.2l-7.7-4.4c-0.6-0.3-0.8-1.1-0.4-1.7c0.3-0.6,1.1-0.8,1.7-0.4l7.7,4.4
			c0.6,0.3,0.8,1.1,0.4,1.7C58.9,71.4,58.5,71.7,58,71.7z"/>
		
			<rect x="54.3" y="37.9" transform="matrix(0.707 0.7072 -0.7072 0.707 55.2846 -23.0878)" class="st0" width="2.4" height="34.6"/>
		<path class="st0" d="M41.8,61.8c-0.2,0-0.4-0.1-0.6-0.2c-0.4-0.2-9.8-6.1-11.8-15.1c-0.9-4.2-0.1-8.4,2.5-12.4
			c0.4-0.6,1.1-0.7,1.7-0.4c0.6,0.4,0.7,1.1,0.4,1.7c-2.3,3.4-3,7-2.2,10.5c1.8,8,10.6,13.5,10.7,13.5c0.6,0.4,0.7,1.1,0.4,1.7
			C42.6,61.6,42.2,61.8,41.8,61.8z"/>
	</g>
	<g>
		<path class="st0" d="M22.9,120.4c-12.9,0-22.9-8.8-22.9-20.1C0,94.5,2.5,89,6.9,84.8c4.3-4,10.2-6.4,16-6.4c9.1,0,22.9,4.9,28.8,7
			c0.4,0.1,0.8,0.3,1.1,0.4c1.3,0.5,2.2,1.7,2.2,3.1v22.2c0,1.2-0.8,2.2-1.9,2.6C47.8,115.5,30.9,120.4,22.9,120.4z M22.9,80.9
			c-11.1,0-20.5,8.9-20.5,19.5c0,4.9,2.2,9.4,6.1,12.7c3.8,3.2,9,5,14.4,5c7.7,0,24.2-4.9,29.4-6.6c0.1,0,0.2-0.2,0.2-0.3V88.9
			c0-0.4-0.2-0.7-0.6-0.8c-0.3-0.1-0.7-0.3-1.1-0.4C45.1,85.6,31.6,80.9,22.9,80.9z"/>
		<path class="st0" d="M99.3,101.2H37c-0.7,0-1.2-0.5-1.2-1.2s0.5-1.2,1.2-1.2h62.3c0.7,0,1.2,0.5,1.2,1.2S100,101.2,99.3,101.2z"/>
		<path class="st0" d="M40.9,112.3c-0.5,0-1-0.4-1.2-0.9c-0.2-0.6,0.2-1.3,0.9-1.5l8.6-2.3c0.6-0.2,1.3,0.2,1.5,0.9
			c0.2,0.6-0.2,1.3-0.9,1.5l-8.6,2.3C41.1,112.3,41,112.3,40.9,112.3z"/>
		<rect x="35.6" y="82.5" class="st0" width="2.4" height="34.6"/>
		<path class="st0" d="M24.3,115.2c-3.7,0-8.2-0.6-12-3c-3.6-2.3-6-5.9-7-10.6c-0.1-0.7,0.3-1.3,0.9-1.4c0.7-0.1,1.3,0.3,1.4,0.9
			c0.8,4,2.8,7.1,5.9,9c6.9,4.4,17,2,17.1,2c0.7-0.2,1.3,0.2,1.5,0.9c0.2,0.7-0.2,1.3-0.9,1.5C31,114.6,28.1,115.2,24.3,115.2z"/>
	</g>
	<g>
		<path class="st0" d="M42.9,176.4c-5,0-9.8-1.8-13.4-5.4c-4.1-4.1-6.3-9.8-6.1-15.9c0.2-5.9,2.7-11.7,6.8-15.8
			c6.4-6.4,19.6-12.7,25.3-15.4c0.4-0.2,0.8-0.4,1.1-0.5c1.3-0.6,2.8-0.3,3.8,0.6l0,0c0,0,0,0,0,0l15.7,15.7
			c0.8,0.8,1.1,2.1,0.5,3.2c-2.5,5-11,20.5-16.6,26.1C55,173.9,48.8,176.4,42.9,176.4z M58,125.4c-0.1,0-0.3,0-0.4,0.1
			c-0.3,0.2-0.7,0.3-1.1,0.5C51,128.7,38.1,134.8,32,141c-7.9,7.9-8.2,20.8-0.7,28.3c3.5,3.5,8.2,5.1,13.3,4.7
			c5-0.5,9.8-2.8,13.7-6.7c5.4-5.4,13.7-20.6,16.2-25.5c0.1-0.1,0-0.3-0.1-0.4l-15.7-15.7C58.5,125.5,58.3,125.4,58,125.4z"/>
		<path class="st0" d="M55.5,145.8c-0.3,0-0.6-0.1-0.9-0.4c-0.5-0.5-0.5-1.2,0-1.7l44-44c0.5-0.5,1.2-0.5,1.7,0
			c0.5,0.5,0.5,1.2,0,1.7l-44,44C56.1,145.6,55.8,145.8,55.5,145.8z"/>
		<path class="st0" d="M66,150.8c-0.2,0-0.4-0.1-0.6-0.2c-0.6-0.3-0.8-1.1-0.4-1.7l4.4-7.7c0.3-0.6,1.1-0.8,1.7-0.4
			c0.6,0.3,0.8,1.1,0.4,1.7l-4.4,7.7C66.8,150.6,66.4,150.8,66,150.8z"/>
		
			<rect x="37.9" y="143.3" transform="matrix(0.7071 0.7071 -0.7071 0.7071 118.334 3.301)" class="st0" width="34.6" height="2.4"/>
		<path class="st0" d="M43.3,171c-3.1,0-6.1-1-9.1-2.9c-0.6-0.4-0.7-1.1-0.4-1.7c0.4-0.6,1.1-0.7,1.7-0.4c3.4,2.3,7,3,10.5,2.2
			c8-1.8,13.5-10.6,13.5-10.7c0.4-0.6,1.1-0.7,1.7-0.4c0.6,0.4,0.7,1.1,0.4,1.7c-0.2,0.4-6.1,9.8-15.1,11.8
			C45.5,170.9,44.4,171,43.3,171z"/>
	</g>
</g>
</svg>
