<?xml version="1.0" encoding="utf-8"?>
<!-- Generator: Adobe Illustrator 24.0.1, SVG Export Plug-In . SVG Version: 6.00 Build 0)  -->
<svg version="1.1" id="Layer_1" xmlns="http://www.w3.org/2000/svg" xmlns:xlink="http://www.w3.org/1999/xlink" x="0px" y="0px"
	 viewBox="0 0 13 17.1" style="enable-background:new 0 0 13 17.1;" xml:space="preserve">
<style type="text/css">
	.st0{fill-rule:evenodd;clip-rule:evenodd;fill:#777777;}
</style>
<path class="st0" d="M13,2c0-1.1-0.9-2-2-2H2C0.9,0,0,0.9,0,2v14.7h0c0,0.1,0.1,0.2,0.1,0.3c0.2,0.2,0.5,0.2,0.7,0l5.7-4.1l5.7,4.1
	c0.2,0.2,0.5,0.2,0.7,0c0,0,0,0,0,0c0.1-0.1,0.1-0.2,0.1-0.3h0V2z M6.2,12L1,15.6V2c0-0.6,0.4-1,1-1h9c0.6,0,1,0.4,1,1v13.6L6.8,12
	C6.7,11.8,6.3,11.8,6.2,12z"/>
</svg>
