<?xml version="1.0" encoding="utf-8"?>
<!-- Generator: Adobe Illustrator 16.0.0, SVG Export Plug-In . SVG Version: 6.00 Build 0)  -->
<!DOCTYPE svg PUBLIC "-//W3C//DTD SVG 1.1//EN" "http://www.w3.org/Graphics/SVG/1.1/DTD/svg11.dtd">
<svg version="1.1" id="Layer_1" xmlns="http://www.w3.org/2000/svg" xmlns:xlink="http://www.w3.org/1999/xlink" x="0px" y="0px"
	 width="50px" height="2350px" viewBox="0 0 50 2350" enable-background="new 0 0 50 2350" xml:space="preserve">
<path fill-rule="evenodd" clip-rule="evenodd" fill="#B4BBBC" d="M49.615,2324.957l-6.354,6.637
	c-0.259,0.271-0.598,0.406-0.938,0.406c-0.338-0.001-0.675-0.133-0.933-0.399c-0.519-0.534-0.521-1.403-0.007-1.941l5.427-5.67
	l-5.427-5.67c-0.515-0.538-0.512-1.407,0.007-1.942c0.519-0.533,1.356-0.53,1.871,0.008l6.354,6.637
	C50.127,2323.557,50.127,2324.422,49.615,2324.957z"/>
<path fill-rule="evenodd" clip-rule="evenodd" fill="#B4BBBC" d="M20,895c-11.046,0-20-8.955-20-20c0-11.046,8.954-20,20-20
	s20,8.954,20,20C40,886.045,31.046,895,20,895z M26.988,869.465l-1.454-1.455L20,873.545l-5.534-5.534l-1.455,1.455L18.545,875
	l-5.534,5.534l1.455,1.455L20,876.454l5.534,5.534l1.454-1.455L21.454,875L26.988,869.465z"/>
<path fill-rule="evenodd" clip-rule="evenodd" fill="#7F8687" d="M25.621,839.242l-6.364-6.364
	c-0.434-0.434-0.542-1.067-0.333-1.605c-2.003,1.694-4.59,2.72-7.42,2.72c-6.351,0-11.499-5.145-11.499-11.493
	c0-6.347,5.148-11.493,11.499-11.493c6.351,0,11.499,5.146,11.499,11.493c0,3.07-1.211,5.851-3.172,7.912
	c0.525-0.181,1.128-0.075,1.548,0.344l6.365,6.364c0.585,0.586,0.585,1.535,0,2.121C27.156,839.828,26.207,839.828,25.621,839.242z
	 M20.102,822.426c0-4.787-3.883-8.667-8.673-8.667c-4.79,0-8.673,3.881-8.673,8.667c0,4.788,3.883,8.669,8.673,8.669
	C16.219,831.095,20.102,827.213,20.102,822.426z"/>
<path fill-rule="evenodd" clip-rule="evenodd" fill="#FFFFFF" d="M11,337c-6.075,0-11-4.925-11-11c0-6.075,4.925-11,11-11
	s11,4.925,11,11C22,332.075,17.075,337,11,337z M8.508,324.3l-0.129,0.527c0.094-0.035,0.207-0.072,0.338-0.111
	s0.259-0.059,0.385-0.059c0.255,0,0.427,0.043,0.517,0.129c0.09,0.085,0.135,0.238,0.135,0.457c0,0.121-0.015,0.255-0.044,0.402
	c-0.029,0.146-0.066,0.301-0.109,0.465l-0.484,1.711c-0.043,0.18-0.074,0.341-0.094,0.484c-0.02,0.142-0.029,0.282-0.029,0.419
	c0,0.352,0.13,0.641,0.39,0.87c0.26,0.228,0.624,0.343,1.093,0.343c0.305,0,0.572-0.041,0.803-0.121
	c0.23-0.08,0.539-0.196,0.926-0.348l0.129-0.528c-0.066,0.031-0.174,0.067-0.322,0.108c-0.148,0.041-0.281,0.062-0.398,0.062
	c-0.25,0-0.425-0.041-0.527-0.123c-0.101-0.082-0.152-0.236-0.152-0.462c0-0.09,0.016-0.223,0.047-0.399
	c0.031-0.176,0.067-0.332,0.106-0.469l0.482-1.705c0.047-0.157,0.079-0.329,0.097-0.516c0.018-0.188,0.026-0.318,0.026-0.393
	c0-0.359-0.126-0.651-0.378-0.875c-0.252-0.225-0.611-0.337-1.076-0.337c-0.258,0-0.532,0.046-0.822,0.138
	C9.128,324.062,8.825,324.171,8.508,324.3z M12.121,321.025c-0.225-0.211-0.495-0.316-0.812-0.316s-0.588,0.105-0.814,0.316
	s-0.34,0.465-0.34,0.762s0.113,0.55,0.34,0.759c0.227,0.208,0.498,0.313,0.814,0.313s0.587-0.104,0.812-0.313
	c0.225-0.209,0.337-0.462,0.337-0.759S12.345,321.236,12.121,321.025z"/>
<path fill-rule="evenodd" clip-rule="evenodd" fill="#FFFFFF" d="M17.822,177.066c-0.054,0-0.102-0.043-0.153-0.067
	c-0.138,0.527-0.342,1.024-0.578,1.503c0.008,0.006,0.02,0.004,0.027,0.012l0.6,1.887c0.284,0.285,0.284,0.746,0,1.029l-1.286,1.287
	c-0.285,0.285-0.745,0.285-1.029,0l-1.889-0.6c-0.003-0.003-0.002-0.009-0.005-0.012c-0.478,0.237-0.975,0.443-1.502,0.58
	c0.02,0.046,0.06,0.088,0.06,0.136l-0.43,1.456c0,0.401-0.326,0.728-0.728,0.728H9.09c-0.402,0-0.728-0.326-0.728-0.728l-0.43-1.456
	c0-0.048,0.04-0.09,0.06-0.136c-0.526-0.137-1.021-0.342-1.498-0.579c-0.005,0.007-0.003,0.017-0.009,0.022l-1.888,0.6
	c-0.284,0.284-0.745,0.284-1.029,0l-1.286-1.287c-0.284-0.284-0.284-0.745,0-1.029l0.6-1.888c0.008-0.009,0.022-0.007,0.032-0.014
	c-0.238-0.481-0.444-0.982-0.583-1.513c-0.051,0.024-0.099,0.067-0.153,0.067l-1.456-0.43c-0.402,0-0.727-0.326-0.727-0.728v-1.819
	c0-0.402,0.325-0.728,0.727-0.728l1.456-0.43c0.054,0,0.103,0.043,0.153,0.067c0.174-0.666,0.435-1.295,0.763-1.881
	c-0.079-0.011-0.163-0.015-0.212-0.064l-0.6-1.458c-0.284-0.284-0.284-0.745,0-1.029l1.286-1.286c0.284-0.284,0.745-0.284,1.029,0
	l1.458,0.6c0.045,0.046,0.047,0.125,0.06,0.197c0.584-0.33,1.211-0.592,1.877-0.766c-0.02-0.046-0.06-0.088-0.06-0.136l0.43-1.455
	c0-0.402,0.326-0.728,0.728-0.728h1.819c0.402,0,0.728,0.326,0.728,0.728l0.43,1.455c0,0.048-0.04,0.09-0.06,0.136
	c0.667,0.174,1.295,0.437,1.88,0.768c0.013-0.067,0.013-0.145,0.057-0.188l1.458-0.6c0.284-0.285,0.745-0.285,1.029,0l1.286,1.286
	c0.284,0.285,0.284,0.745,0,1.03l-0.817,1.499c0.331,0.589,0.594,1.223,0.769,1.893c0.051-0.024,0.099-0.067,0.153-0.067l1.456,0.43
	c0.402,0,0.728,0.325,0.728,0.728v1.819c0,0.401-0.326,0.728-0.728,0.728L17.822,177.066z M13.362,178.366l-2.561-7.372
	c-0.022-0.067-0.067-0.111-0.145-0.111H9.254c-0.078,0-0.123,0.044-0.145,0.111l-2.605,7.372c-0.022,0.068,0,0.112,0.078,0.112
	h1.458c0.078,0,0.123-0.034,0.145-0.112l0.423-1.33h2.649l0.434,1.33c0.022,0.078,0.067,0.112,0.145,0.112h1.447
	C13.362,178.478,13.384,178.434,13.362,178.366z M9.922,172.982h0.033l0.857,2.659H9.065L9.922,172.982z"/>
<rect x="0" y="128.999" fill-rule="evenodd" clip-rule="evenodd" fill="#FFFFFF" width="18" height="2"/>
<rect x="0" y="123.999" fill-rule="evenodd" clip-rule="evenodd" fill="#FFFFFF" width="18" height="2"/>
<rect x="0" y="118.999" fill-rule="evenodd" clip-rule="evenodd" fill="#FFFFFF" width="18" height="2.001"/>
<polygon fill-rule="evenodd" clip-rule="evenodd" fill="#FFFFFF" points="8.511,30.533 7.057,31.988 0.534,25.465 0,24.999 
	0.534,24.533 7.057,18.011 8.511,19.465 3.977,23.999 15.522,23.999 15.522,25.999 3.977,25.999 "/>
<path fill-rule="evenodd" clip-rule="evenodd" fill="#FFFFFF" d="M11.996,73.99c0,1.545-0.585,2.955-1.545,4.018l1.068-0.015
	l3.476,3.501l-1.492,1.5l-3.476-3.5l-0.015-1.047c-1.064,0.959-2.474,1.544-4.02,1.544c-3.316,0-6.004-2.688-6.004-6.001
	s2.688-6,6.004-6S11.996,70.676,11.996,73.99z M2.169,73.988c0,2.109,1.71,3.819,3.821,3.819c2.11,0,3.82-1.71,3.82-3.819
	c0-2.108-1.71-3.818-3.82-3.818C3.879,70.17,2.169,71.88,2.169,73.988z"/>
<polygon fill-rule="evenodd" clip-rule="evenodd" fill="#FFFFFF" points="21.013,521.887 16.24,521.887 16.24,524.225 
	20.302,524.225 20.302,525.96 16.24,525.96 16.24,529.873 13.877,529.873 13.877,520.151 21.013,520.151 "/>
<path fill-rule="evenodd" clip-rule="evenodd" fill="#FFFFFF" d="M15.248,367.214c0.915-0.485,1.752-0.096,1.752,0.93v11.607
	c0,1.026-0.837,1.495-1.752,1.098l-4.166-2.865c-0.027-0.012-0.05-0.039-0.076-0.058v-7.714c0.025-0.022,0.049-0.048,0.076-0.063
	L15.248,367.214z"/>
<rect x="9.78" y="520.151" fill-rule="evenodd" clip-rule="evenodd" fill="#FFFFFF" width="2.348" height="9.722"/>
<path fill-rule="evenodd" clip-rule="evenodd" fill="#FFFFFF" d="M-0.01,526.027v-2.03c0-1.171,0.382-2.127,1.146-2.871
	s1.748-1.115,2.951-1.115c1.306,0,2.283,0.289,2.934,0.868c0.65,0.579,1.02,1.369,1.108,2.37l-0.014,0.041H5.906
	c-0.079-0.512-0.252-0.897-0.519-1.155s-0.675-0.387-1.223-0.387c-0.548,0-0.989,0.208-1.324,0.625
	c-0.334,0.416-0.502,0.954-0.502,1.612v2.044c0,0.677,0.165,1.221,0.495,1.632c0.33,0.412,0.792,0.618,1.387,0.618
	c0.432,0,0.771-0.033,1.017-0.1s0.441-0.156,0.585-0.267v-1.536H4.227v-1.496h3.958v3.652c-0.344,0.392-0.843,0.736-1.498,1.035
	c-0.655,0.298-1.478,0.447-2.467,0.447c-1.254,0-2.273-0.37-3.056-1.109C0.381,528.167-0.01,527.207-0.01,526.027z"/>
<path fill-rule="evenodd" clip-rule="evenodd" fill="#E72727" d="M4.265,567.376c3.474,2.116,8.392,10.103,4.034,13.546
	c0,0-1.017,0.848-2.667,1.028c0.8-2.078-0.633-3.952-0.633-3.952c-0.567,3.481-3,3-3,3c-0.016,0.06-0.028,0.119-0.038,0.177
	c-1.037-0.599-3.576-2.699-0.426-7.814c0,0,2.437-2.543,0.607-5.595C2.143,567.767,2.603,566.364,4.265,567.376z"/>
<path fill-rule="evenodd" clip-rule="evenodd" fill="#A0A4A4" d="M9.614,630.029V637H0.993C0.444,637,0,636.556,0,636.007v-16.015
	c0-0.548,0.444-0.993,0.993-0.993h16.015c0.548,0,0.993,0.445,0.993,0.993v16.015c0,0.549-0.445,0.993-0.993,0.993H12.42v-6.971
	h2.34l0.351-2.717h-2.69v-1.734c0-0.787,0.218-1.323,1.346-1.323l1.439,0v-2.43c-0.249-0.033-1.103-0.107-2.097-0.107
	c-2.074,0-3.494,1.267-3.494,3.591v2.004H7.269v2.717H9.614z"/>
<polygon fill-rule="evenodd" clip-rule="evenodd" fill="#FFFFFF" points="-0.006,482.991 -0.006,467.001 10.997,474.996 "/>
<path fill-rule="evenodd" clip-rule="evenodd" fill="#FFFFFF" d="M8.299,430.922c0,0-1.019,0.844-2.667,1.025
	C6.429,429.871,5,427.999,5,427.999c-0.567,3.481-3,3-3,3c-0.017,0.067-0.006,0.124-0.017,0.188
	c-1.02-0.579-3.623-2.667-0.448-7.826c0,0,2.437-2.543,0.607-5.595c0,0,0.46-1.403,2.123-0.391
	C7.739,419.492,12.657,427.479,8.299,430.922z"/>
<path fill-rule="evenodd" clip-rule="evenodd" fill="#FFFFFF" d="M6.626,384H5.248c-0.508,0-0.981-0.415-1.058-0.926l-0.765-5.093
	H2.297c-1.269,0-2.297-1.037-2.297-2.315v-3.241c0-1.278,1.028-2.314,2.297-2.314h7.352c0.12,0,0.231,0.03,0.346,0.049v7.772
	c-0.114,0.019-0.226,0.049-0.346,0.049H6.641l0.765,5.093C7.483,383.585,7.134,384,6.626,384z"/>
<rect y="276.999" fill-rule="evenodd" clip-rule="evenodd" fill="#FFFFFF" width="8" height="2.001"/>
<polygon fill-rule="evenodd" clip-rule="evenodd" fill="#FFFFFF" points="0,273.999 0,272 8,272 16,272 16,273.999 8,273.999 "/>
<polygon fill-rule="evenodd" clip-rule="evenodd" fill="#FFFFFF" points="11,267 11,269 8,269 0,269 0,267 8,267 "/>
<path fill-rule="evenodd" clip-rule="evenodd" fill="#FFFFFF" d="M3.986,217.211c0-0.66,0.449-1.195,1.004-1.195
	c0.554,0,1.004,0.535,1.004,1.195v1.593c0,0.66-0.45,1.196-1.004,1.196c-0.555,0-1.004-0.536-1.004-1.196V217.211z M10.986,217.211
	c0-0.66,0.45-1.195,1.004-1.195s1.004,0.535,1.004,1.195v1.593c0,0.66-0.449,1.196-1.004,1.196s-1.004-0.536-1.004-1.196V217.211z
	 M15.64,217.986c0.75,0,1.36,0.623,1.36,1.392v13.229c0,0.769-0.609,1.393-1.36,1.393H1.36C0.609,234,0,233.376,0,232.607V219.75
	c0-0.75,0.609-1.764,1.36-1.764h1.632v1.223c0,0.996,0.894,1.804,1.997,1.804s1.996-0.808,1.996-1.804v-1.223h3.007v1.223
	c0,0.996,0.894,1.804,1.997,1.804s1.996-0.808,1.996-1.804v-1.223H15.64z M13.773,222.996H3.227c-0.686,0-1.241,0.537-1.241,1.199
	v6.595c0,0.662,0.555,1.199,1.241,1.199h10.546c0.685,0,1.241-0.537,1.241-1.199v-6.595
	C15.014,223.532,14.458,222.996,13.773,222.996z"/>
<path fill-rule="evenodd" clip-rule="evenodd" fill="#A0A4A4" d="M27.523,738.944c-0.332,1.45-1.513,2.52-2.934,2.679
	c-3.366,0.378-6.772,0.38-10.165,0.378c-3.392,0.002-6.798,0-10.164-0.378c-1.421-0.16-2.602-1.229-2.934-2.679
	c-0.472-2.065-0.472-4.318-0.472-6.445c0-2.127,0.005-4.381,0.478-6.446c0.333-1.45,1.513-2.52,2.934-2.679
	c3.366-0.378,6.772-0.38,10.165-0.378c3.392-0.002,6.798,0,10.164,0.378c1.42,0.159,2.602,1.229,2.933,2.679
	c0.474,2.065,0.471,4.319,0.471,6.446C27.999,734.625,27.996,736.878,27.523,738.944z M8.597,726.192H2.878v1.718h1.929v10.487
	h1.825v-10.487h1.964V726.192z M13.554,729.303h-1.641v6.951c-0.364,0.517-0.708,0.771-1.038,0.771c-0.219,0-0.344-0.13-0.384-0.386
	c-0.015-0.054-0.015-0.255-0.015-0.641v-6.696h-1.64v7.191c0,0.642,0.055,1.078,0.145,1.353c0.164,0.46,0.528,0.676,1.057,0.676
	c0.603,0,1.222-0.366,1.875-1.117v0.992h1.641V729.303z M19.785,732.047c0-0.862-0.056-1.462-0.166-1.829
	c-0.219-0.681-0.658-1.026-1.311-1.026c-0.603,0-1.166,0.331-1.695,0.986v-3.986h-1.64v12.205h1.64v-0.881
	c0.548,0.681,1.112,1.006,1.695,1.006c0.653,0,1.092-0.346,1.311-1.022c0.109-0.386,0.166-0.991,0.166-1.833V732.047z
	 M25.977,735.248h-1.674c0,0.661-0.021,1.027-0.037,1.116c-0.094,0.441-0.329,0.662-0.733,0.662c-0.563,0-0.837-0.42-0.837-1.262
	v-1.613h3.281v-1.882c0-0.973-0.165-1.683-0.508-2.143c-0.459-0.622-1.113-0.933-1.936-0.933c-0.837,0-1.49,0.311-1.965,0.933
	c-0.348,0.46-0.507,1.17-0.507,2.143v3.184c0,0.967,0.179,1.684,0.527,2.139c0.474,0.621,1.127,0.932,1.985,0.932
	c0.856,0,1.53-0.326,1.983-0.986c0.199-0.291,0.328-0.622,0.384-0.987c0.015-0.165,0.035-0.53,0.035-1.062V735.248z M22.696,731.938
	c0-0.841,0.274-1.262,0.822-1.262c0.544,0,0.818,0.42,0.818,1.262v0.842h-1.64V731.938z M17.431,737.025
	c-0.27,0-0.543-0.13-0.818-0.405v-5.543c0.274-0.272,0.548-0.401,0.818-0.401c0.473,0,0.714,0.42,0.714,1.241v3.881
	C18.145,736.62,17.904,737.025,17.431,737.025z M21.396,720.396h-1.658v-1.002c-0.66,0.76-1.289,1.129-1.894,1.129
	c-0.534,0-0.902-0.218-1.067-0.683c-0.091-0.278-0.147-0.718-0.147-1.366v-7.268h1.653v6.766c0,0.391,0,0.594,0.02,0.648
	c0.036,0.258,0.167,0.39,0.389,0.39c0.331,0,0.679-0.258,1.046-0.78v-7.024h1.658V720.396z M12.816,711.096
	c0.831,0,1.476,0.313,1.935,0.942c0.347,0.464,0.514,1.183,0.514,2.164v3.219c0,0.977-0.167,1.702-0.514,2.162
	c-0.458,0.626-1.104,0.94-1.935,0.94c-0.826,0-1.471-0.314-1.929-0.94c-0.353-0.46-0.52-1.185-0.52-2.162v-3.219
	c0-0.981,0.167-1.7,0.52-2.164C11.345,711.409,11.991,711.096,12.816,711.096z M12.025,717.734c0,0.85,0.257,1.275,0.791,1.275
	c0.535,0,0.791-0.425,0.791-1.275v-3.866c0-0.85-0.256-1.274-0.791-1.274c-0.534,0-0.791,0.424-0.791,1.274V717.734z M6.303,720.396
	v-4.995c-0.167-0.885-0.535-2.181-1.124-3.901c-0.388-1.145-0.792-2.292-1.179-3.437h1.934l1.305,4.843l1.254-4.843h1.859
	l-2.211,7.338v4.995H6.303z"/>
<path fill-rule="evenodd" clip-rule="evenodd" fill="#A0A4A4" d="M9.527,771.405l7.043,7.059c0.287,0.287,0.43,0.666,0.43,1.043
	c0,0.375-0.141,0.75-0.423,1.036c-0.567,0.576-1.49,0.58-2.061,0.007l-6.016-6.03l-6.016,6.03c-0.571,0.572-1.494,0.569-2.061-0.007
	c-0.567-0.577-0.564-1.507,0.007-2.08l7.043-7.059C8.042,770.835,8.958,770.835,9.527,771.405z"/>
<path fill-rule="evenodd" clip-rule="evenodd" fill="#A0A4A4" d="M4.992,678.531c-1.57-0.029-2.896-1.066-3.352-2.492
	c0.219,0.042,0.443,0.065,0.675,0.065c0.327,0,0.644-0.044,0.945-0.126c-1.642-0.33-2.879-1.78-2.879-3.519c0-0.015,0-0.03,0-0.045
	c0.483,0.269,1.037,0.43,1.625,0.449c-0.963-0.644-1.597-1.742-1.597-2.987c0-0.658,0.177-1.274,0.486-1.804
	c1.77,2.171,4.415,3.6,7.397,3.75c-0.061-0.264-0.093-0.537-0.093-0.818c0-1.982,1.607-3.589,3.589-3.589
	c1.032,0,1.965,0.436,2.62,1.134c0.817-0.161,1.585-0.46,2.279-0.871c-0.268,0.838-0.837,1.542-1.578,1.985
	c0.726-0.086,1.418-0.28,2.062-0.564c-0.481,0.72-1.09,1.351-1.791,1.858c0.007,0.153,0.011,0.309,0.011,0.464
	c0,4.743-3.61,10.211-10.211,10.211c-2.027,0-3.913-0.595-5.501-1.613c0.281,0.034,0.566,0.051,0.856,0.051
	C2.217,680.068,3.764,679.494,4.992,678.531z"/>
<path fill-rule="evenodd" clip-rule="evenodd" fill="#FFFFFF" d="M4.537,1223.779h1.729v-0.928c0-0.561-0.163-0.994-0.488-1.304
	s-0.801-0.464-1.426-0.464c-0.573,0-1.022,0.129-1.348,0.386c-0.326,0.258-0.488,0.595-0.488,1.011H0.143
	c0-0.886,0.399-1.646,1.196-2.285s1.851-0.957,3.159-0.957c1.256,0,2.261,0.308,3.013,0.923s1.128,1.519,1.128,2.71v4.697
	c0,0.449,0.028,0.869,0.083,1.26s0.151,0.781,0.288,1.172H6.607c-0.072-0.221-0.132-0.443-0.181-0.664s-0.086-0.449-0.112-0.684
	c-0.358,0.455-0.791,0.826-1.299,1.113c-0.508,0.286-1.081,0.43-1.719,0.43c-1.087,0-1.922-0.278-2.505-0.835
	s-0.874-1.337-0.874-2.339c0-1.042,0.397-1.842,1.191-2.402S3.046,1223.779,4.537,1223.779z M2.672,1227.944
	c0.254,0.231,0.635,0.347,1.143,0.347c0.547,0,1.037-0.117,1.47-0.352s0.76-0.527,0.981-0.879v-1.797H4.498
	c-0.709,0-1.255,0.168-1.636,0.503c-0.381,0.336-0.571,0.74-0.571,1.216C2.291,1227.393,2.418,1227.713,2.672,1227.944z"/>
<path fill-rule="evenodd" clip-rule="evenodd" fill="#FFFFFF" d="M-0.016,2230.989l0-7.014h2.026v5.553l11.501-11.501H8.008v-2.013
	l8.978,0.001v2.012h-0.001l0,6.966h-2.019v-5.557l-11.553,11.553h5.579v2.026h-9.009L-0.016,2230.989L-0.016,2230.989z"/>
<path fill-rule="evenodd" clip-rule="evenodd" fill="#B4BBBC" d="M0.715,2270.92c0.483-0.622,1.251-0.935,2.304-0.935
	c0.472,0,0.891,0.073,1.257,0.217c0.366,0.145,0.675,0.341,0.927,0.589c0.253,0.248,0.447,0.543,0.583,0.886
	c0.135,0.343,0.203,0.717,0.203,1.123c0,0.429-0.046,0.794-0.139,1.098s-0.222,0.567-0.391,0.793
	c-0.168,0.226-0.37,0.422-0.605,0.588c-0.236,0.167-0.493,0.335-0.772,0.503c-0.278,0.15-0.466,0.31-0.564,0.479
	c-0.098,0.168-0.134,0.392-0.11,0.67H1.805c-0.008-0.301,0.016-0.563,0.073-0.787c0.056-0.224,0.132-0.421,0.228-0.592
	s0.208-0.324,0.337-0.461s0.265-0.26,0.407-0.369l0.431-0.369c0.142-0.114,0.268-0.236,0.378-0.366
	c0.111-0.13,0.201-0.276,0.27-0.438c0.069-0.162,0.104-0.354,0.104-0.578c0-0.401-0.105-0.713-0.315-0.933
	c-0.209-0.222-0.483-0.332-0.82-0.332c-0.413,0-0.726,0.148-0.939,0.446s-0.294,0.745-0.245,1.341H0.002
	C-0.007,2272.401,0.231,2271.543,0.715,2270.92z"/>
<rect x="1.664" y="2277.867" fill-rule="evenodd" clip-rule="evenodd" fill="#B4BBBC" width="1.957" height="2.133"/>
<g>
	<path fill-rule="evenodd" clip-rule="evenodd" fill="#FFFFFF" d="M8.108,2029.314c0,0-0.733,2.909-0.888,3.471
		c-0.547,1.984-2.155,3.971-2.28,4.134c-0.087,0.112-0.28,0.077-0.3-0.072c-0.035-0.253-0.444-2.757,0.038-4.8
		c0.242-1.025,1.624-6.882,1.624-6.882s-0.402-0.807-0.402-1.999c0-1.871,1.084-3.269,2.435-3.269c1.148,0,1.703,0.862,1.703,1.896
		c0,1.154-0.735,2.882-1.115,4.481c-0.317,1.339,0.672,2.432,1.993,2.432c2.392,0,4.003-3.072,4.003-6.714
		c0-2.769-1.863-4.841-5.254-4.841c-3.83,0-6.217,2.857-6.217,6.05c0,1.1,0.325,1.876,0.833,2.477
		c0.233,0.276,0.266,0.388,0.182,0.703c-0.062,0.233-0.2,0.792-0.258,1.015c-0.084,0.319-0.343,0.434-0.632,0.315
		c-1.764-0.72-2.586-2.652-2.586-4.825c0-3.587,3.025-7.889,9.025-7.889c4.822,0,7.995,3.488,7.995,7.234
		c0,4.954-2.754,8.656-6.813,8.656C9.83,2030.889,8.547,2030.151,8.108,2029.314z"/>
	<g opacity="0.4">
		<path d="M10.012,2014.998c4.822,0,7.995,3.488,7.995,7.234c0,4.954-2.754,8.656-6.813,8.656c-1.364,0-2.646-0.737-3.085-1.574
			c0,0-0.733,2.909-0.888,3.471c-0.547,1.984-2.155,3.971-2.28,4.134c-0.035,0.045-0.086,0.066-0.137,0.066
			c-0.076,0-0.151-0.049-0.163-0.139c-0.035-0.253-0.444-2.757,0.038-4.8c0.242-1.025,1.624-6.882,1.624-6.882
			s-0.402-0.807-0.402-1.999c0-1.871,1.084-3.269,2.435-3.269c1.148,0,1.703,0.862,1.703,1.896c0,1.154-0.735,2.882-1.115,4.481
			c-0.317,1.339,0.672,2.432,1.993,2.432c2.392,0,4.003-3.072,4.003-6.714c0-2.769-1.863-4.841-5.254-4.841
			c-3.83,0-6.217,2.857-6.217,6.05c0,1.1,0.325,1.876,0.833,2.477c0.233,0.276,0.266,0.388,0.182,0.703
			c-0.062,0.233-0.2,0.792-0.258,1.015c-0.063,0.237-0.221,0.361-0.417,0.361c-0.068,0-0.141-0.016-0.215-0.046
			c-1.764-0.72-2.586-2.652-2.586-4.825C0.987,2019.3,4.012,2014.998,10.012,2014.998 M10.012,2014.498
			c-5.962,0-9.525,4.266-9.525,8.389c0,2.571,1.083,4.548,2.897,5.288c0.134,0.055,0.27,0.083,0.404,0.083
			c0.43,0,0.783-0.288,0.9-0.734l0.112-0.442c0.054-0.215,0.111-0.442,0.146-0.571c0.141-0.525,0.015-0.801-0.283-1.153
			c-0.488-0.577-0.715-1.261-0.715-2.154c0-2.69,2.004-5.55,5.717-5.55c2.933,0,4.754,1.663,4.754,4.341
			c0,3.484-1.539,6.214-3.503,6.214c-0.512,0-0.971-0.209-1.258-0.572c-0.27-0.341-0.357-0.782-0.249-1.244
			c0.134-0.563,0.315-1.151,0.491-1.721c0.328-1.062,0.637-2.063,0.637-2.876c0-1.434-0.885-2.396-2.203-2.396
			c-1.646,0-2.935,1.655-2.935,3.769c0,0.976,0.248,1.721,0.377,2.046l-1.586,6.72c-0.417,1.766-0.213,3.847-0.054,4.93l0.007,0.054
			c0.045,0.33,0.323,0.57,0.659,0.57c0.21,0,0.404-0.095,0.532-0.26c0.7-0.895,1.893-2.587,2.367-4.308
			c0.099-0.358,0.423-1.632,0.652-2.536c0.723,0.613,1.781,1.007,2.839,1.007c4.238,0,7.313-3.851,7.313-9.156
			C18.507,2018.431,15.33,2014.498,10.012,2014.498L10.012,2014.498z"/>
	</g>
</g>
<g>
	<path fill-rule="evenodd" clip-rule="evenodd" fill="#FFFFFF" d="M14.799,1978.254h2.6l0.389-3.019h-2.989v-1.927
		c0-0.874,0.243-1.469,1.496-1.469l1.598-0.001v-2.7c-0.276-0.036-1.225-0.119-2.329-0.119c-2.305,0-3.883,1.407-3.883,3.99v2.226
		H9.076v3.019h2.606V1986h-9.58c-0.61,0-1.104-0.494-1.104-1.104v-17.794c0-0.609,0.494-1.104,1.104-1.104h17.794
		c0.609,0,1.104,0.495,1.104,1.104v17.794c0,0.609-0.494,1.104-1.104,1.104h-5.097V1978.254z"/>
	<g opacity="0.4">
		<path d="M19.896,1965.998c0.609,0,1.104,0.495,1.104,1.104v17.794c0,0.609-0.494,1.104-1.104,1.104h-5.097v-7.746h2.6l0.389-3.019
			h-2.989v-1.927c0-0.874,0.243-1.469,1.496-1.469l1.598-0.001v-2.7c-0.276-0.036-1.225-0.119-2.329-0.119
			c-2.305,0-3.883,1.407-3.883,3.99v2.226H9.076v3.019h2.606V1986h-9.58c-0.61,0-1.104-0.494-1.104-1.104v-17.794
			c0-0.609,0.494-1.104,1.104-1.104H19.896 M19.896,1965.498H2.103c-0.884,0-1.604,0.72-1.604,1.604v17.794
			c0,0.884,0.719,1.604,1.604,1.604h9.58h0.5v-0.5v-7.746v-0.5h-0.5H9.576v-2.019h2.106h0.5v-0.5v-2.226
			c0-2.186,1.265-3.49,3.383-3.49c0.723,0,1.39,0.037,1.829,0.072v1.747l-1.099,0.001c-1.789,0-1.996,1.124-1.996,1.969v1.927v0.5
			h0.5h2.42l-0.26,2.019h-2.161h-0.5v0.5V1986v0.5h0.5h5.097c0.884,0,1.604-0.72,1.604-1.604v-17.794
			C21.5,1966.218,20.781,1965.498,19.896,1965.498L19.896,1965.498z"/>
	</g>
</g>
<circle fill-rule="evenodd" clip-rule="evenodd" fill="#7E888A" cx="32" cy="1074.999" r="2"/>
<circle fill-rule="evenodd" clip-rule="evenodd" fill="#7E888A" cx="25" cy="1074.999" r="2"/>
<path fill-rule="evenodd" clip-rule="evenodd" fill="#7E888A" d="M-0.016,1020c0-1.104,0.895-2,2-2h15.987c1.105,0,2,0.896,2,2v13
	c0,1.105-0.896,2-2,2H1.984c-1.104,0-2-0.896-2-2V1020z M3.063,1025.376l6.478,3.404l0.365,0.001l0.365-0.001l6.477-3.404
	l0.04-1.651l-6.882,3.313l-6.851-3.313L3.063,1025.376z"/>
<circle fill-rule="evenodd" clip-rule="evenodd" fill="#7E888A" cx="18" cy="1074.999" r="2"/>
<path fill-rule="evenodd" clip-rule="evenodd" fill="#FFFFFF" d="M14.879,1134.04c-1.333,0.613-2.811,0.964-4.374,0.964
	c-5.798,0-10.498-4.7-10.498-10.499s4.7-10.499,10.498-10.499c1.563,0,3.041,0.351,4.374,0.964c-3.61,1.66-6.123,5.3-6.123,9.535
	S11.269,1132.379,14.879,1134.04z"/>
<path fill-rule="evenodd" clip-rule="evenodd" fill="#FFFFFF" d="M19.976,1379.728c0-1.38,0.5-2.404,1.499-3.072
	c1-0.669,2.511-1.033,4.535-1.093l2.196-0.076v-1.561c0-0.466-0.025-0.896-0.077-1.289s-0.164-0.731-0.336-1.016
	c-0.173-0.283-0.42-0.503-0.742-0.66c-0.323-0.156-0.757-0.234-1.299-0.234c-0.509,0-0.92,0.069-1.234,0.209
	s-0.56,0.336-0.736,0.591c-0.177,0.254-0.295,0.554-0.355,0.901c-0.061,0.347-0.09,0.724-0.09,1.129
	c-0.732,0-1.29-0.122-1.673-0.367c-0.383-0.246-0.575-0.669-0.575-1.27c0-0.449,0.125-0.83,0.375-1.143
	c0.25-0.313,0.592-0.57,1.027-0.769c0.435-0.198,0.941-0.345,1.519-0.438c0.577-0.093,1.193-0.139,1.848-0.139
	c0.81,0,1.516,0.078,2.118,0.234c0.604,0.157,1.107,0.412,1.512,0.769c0.405,0.355,0.709,0.818,0.911,1.39s0.304,1.271,0.304,2.102
	v6.74c0,0.364,0.03,0.665,0.091,0.902c0.061,0.236,0.154,0.427,0.284,0.571c0.129,0.144,0.299,0.245,0.51,0.304
	c0.212,0.06,0.463,0.09,0.756,0.09h0.078v1.092H28.84l-0.413-2.234h-0.221c-0.275,0.363-0.542,0.698-0.801,1.003
	c-0.258,0.305-0.542,0.566-0.853,0.787c-0.31,0.22-0.661,0.392-1.053,0.514s-0.864,0.185-1.415,0.185
	c-0.586,0-1.131-0.083-1.635-0.248s-0.939-0.419-1.305-0.762s-0.652-0.774-0.859-1.295
	C20.079,1381.054,19.976,1380.438,19.976,1379.728z M23.07,1381.676c0.349,0.402,0.89,0.604,1.622,0.604
	c0.534,0,1.018-0.085,1.454-0.254c0.436-0.17,0.806-0.411,1.111-0.724c0.306-0.313,0.541-0.694,0.704-1.143
	c0.163-0.449,0.245-0.948,0.245-1.499v-2.107l-1.692,0.076c-0.749,0.034-1.376,0.125-1.88,0.273s-0.911,0.355-1.221,0.622
	s-0.532,0.595-0.666,0.983c-0.134,0.39-0.2,0.839-0.2,1.346C22.547,1380.666,22.722,1381.273,23.07,1381.676z M1.163,1382.45
	c0.181-0.056,0.344-0.159,0.491-0.311c0.146-0.153,0.287-0.36,0.42-0.622c0.134-0.263,0.282-0.602,0.446-1.016l5.866-15.438h2.067
	l5.982,16.084c0.104,0.271,0.209,0.495,0.316,0.674c0.108,0.178,0.235,0.318,0.381,0.425c0.146,0.105,0.314,0.18,0.504,0.222
	c0.189,0.043,0.414,0.064,0.672,0.064h0.349v1.092h-7.274v-1.092h0.607c1.06,0,1.589-0.415,1.589-1.244
	c0-0.145-0.02-0.292-0.058-0.445c-0.039-0.152-0.093-0.325-0.162-0.52l-1.06-2.908H5.349l-1.008,2.729
	c-0.078,0.204-0.138,0.405-0.181,0.604c-0.043,0.199-0.064,0.37-0.064,0.515c0,0.439,0.144,0.762,0.433,0.964
	c0.289,0.204,0.73,0.306,1.324,0.306H6.46v1.092H0v-1.092h0.504C0.762,1382.533,0.982,1382.506,1.163,1382.45z M11.823,1376.109
	l-1.641-4.545c-0.276-0.771-0.528-1.492-0.756-2.165c-0.229-0.673-0.416-1.322-0.562-1.948c-0.061,0.313-0.131,0.615-0.213,0.907
	c-0.082,0.292-0.17,0.591-0.265,0.896s-0.203,0.623-0.323,0.958s-0.258,0.704-0.413,1.111l-1.796,4.786H11.823z"/>
<path fill-rule="evenodd" clip-rule="evenodd" fill="#FFFFFF" d="M6.919,1429.777c0.119,0.313,0.342,0.563,0.667,0.749
	c0.431,0.252,0.922,0.379,1.477,0.379c0.985,0,1.965-0.313,2.941-0.94v2.999c-0.832,0.383-1.585,0.651-2.259,0.806
	c-0.674,0.154-1.403,0.231-2.187,0.231c-0.89,0-1.676-0.11-2.36-0.329c-0.684-0.22-1.267-0.533-1.75-0.939s-0.818-0.838-1.004-1.296
	c-0.187-0.457-0.28-1.12-0.28-1.989v-6.669H0.013v-2.69c0.765-0.242,1.42-0.59,1.965-1.043c0.545-0.453,0.982-0.998,1.313-1.633
	s0.557-1.443,0.681-2.424H6.74v4.806h4.619v2.984H6.74v4.876C6.74,1428.756,6.799,1429.464,6.919,1429.777z"/>
<rect x="5" y="1868" fill-rule="evenodd" clip-rule="evenodd" fill="#FFFFFF" width="3" height="3"/>
<rect x="5" y="1878" fill-rule="evenodd" clip-rule="evenodd" fill="#FFFFFF" width="3" height="3"/>
<rect x="5" y="1873" fill-rule="evenodd" clip-rule="evenodd" fill="#FFFFFF" width="3" height="3"/>
<path fill-rule="evenodd" clip-rule="evenodd" fill="#B4BBBC" d="M10.48,1663.577c0.801-0.808,2.104-0.812,2.912-0.011
	c0.807,0.802,0.812,2.106,0.01,2.914l-8.442,8.504l8.442,8.504c0.801,0.807,0.796,2.111-0.01,2.913
	c-0.402,0.399-0.926,0.599-1.451,0.599c-0.53,0-1.059-0.203-1.461-0.608l-9.883-9.956c-0.797-0.803-0.797-2.1,0-2.902
	L10.48,1663.577z"/>
<path fill-rule="evenodd" clip-rule="evenodd" fill="#B4BBBC" d="M6.064,1770.717l-1.65-2.112c-0.277-0.355-0.243-0.874,0.078-1.157
	c0.321-0.283,0.806-0.226,1.083,0.13l1.654,2.118l1.766-2.379c0.267-0.359,0.733-0.419,1.042-0.131
	c0.309,0.287,0.342,0.813,0.075,1.172l-1.751,2.359h2.782c1.026,0,1.857,0.84,1.857,1.874v6.534c0,1.035-0.832,1.874-1.857,1.874
	H1.857c-1.025,0-1.857-0.839-1.857-1.874v-6.534c0-1.034,0.832-1.874,1.857-1.874H6.064z M11.646,1775.42
	c0.269,0,0.486-0.219,0.486-0.49s-0.218-0.492-0.486-0.492s-0.486,0.221-0.486,0.492S11.377,1775.42,11.646,1775.42z
	 M11.646,1773.563c0.269,0,0.486-0.221,0.486-0.493s-0.218-0.493-0.486-0.493s-0.486,0.221-0.486,0.493
	S11.377,1773.563,11.646,1773.563z M1.84,1778.298c0,0.526,0.42,0.952,0.939,0.952h6.574c0.519,0,0.939-0.426,0.939-0.952v-4.768
	c0-0.526-0.42-0.953-0.939-0.953H2.779c-0.519,0-0.939,0.427-0.939,0.953V1778.298z"/>
<polygon fill-rule="evenodd" clip-rule="evenodd" fill="#FFFFFF" points="12.533,1731.988 7,1726.454 1.466,1731.988 
	0.011,1730.533 5.545,1725 0.011,1719.465 1.466,1718.011 7,1723.545 12.533,1718.011 13.988,1719.465 8.454,1725 13.988,1730.533 
	"/>
<path fill-rule="evenodd" clip-rule="evenodd" fill="#FFFFFF" d="M2.984,1823.004l-2.981-0.575c0.737-3.728,4.068-6.434,7.921-6.434
	c2.138,0,4.159,0.831,5.664,2.297l1.426-1.396v5.031H9.881l1.552-1.522c-0.936-0.902-2.188-1.41-3.51-1.41
	C5.52,1818.994,3.443,1820.681,2.984,1823.004z"/>
<rect y="1868" fill-rule="evenodd" clip-rule="evenodd" fill="#FFFFFF" width="3" height="3"/>
<rect y="1878" fill-rule="evenodd" clip-rule="evenodd" fill="#FFFFFF" width="3" height="3"/>
<rect y="1873" fill-rule="evenodd" clip-rule="evenodd" fill="#FFFFFF" width="3" height="3"/>
<path fill-rule="evenodd" clip-rule="evenodd" fill="#222222" d="M2.857,1584.999c-1.578,0-2.857-1.318-2.857-2.945v-10.268
	c0-1.626,1.279-2.944,2.857-2.944H9.33l-2.538-3.32c-0.427-0.558-0.374-1.372,0.12-1.818c0.493-0.445,1.239-0.354,1.666,0.203
	l2.545,3.33l2.717-3.738c0.411-0.566,1.128-0.658,1.603-0.207c0.475,0.452,0.526,1.276,0.115,1.842l-2.694,3.709h4.279
	c1.578,0,2.857,1.318,2.857,2.944v10.268c0,1.627-1.279,2.945-2.857,2.945H2.857z M15.834,1573.263c0-0.827-0.647-1.498-1.445-1.498
	H4.276c-0.798,0-1.445,0.671-1.445,1.498v7.491c0,0.827,0.647,1.498,1.445,1.498h10.113c0.798,0,1.445-0.671,1.445-1.498V1573.263z
	 M17.917,1576.232c0.413,0,0.748-0.346,0.748-0.772s-0.335-0.772-0.748-0.772s-0.748,0.346-0.748,0.772
	S17.504,1576.232,17.917,1576.232z M17.917,1573.314c0.413,0,0.748-0.347,0.748-0.774c0-0.429-0.335-0.775-0.748-0.775
	s-0.748,0.347-0.748,0.775C17.169,1572.968,17.504,1573.314,17.917,1573.314z"/>
<path fill-rule="evenodd" clip-rule="evenodd" fill="#FFFFFF" d="M6.912,1513.703c0.493-0.445,1.239-0.354,1.666,0.203l2.545,3.33
	l2.717-3.738c0.411-0.566,1.128-0.658,1.603-0.207c0.475,0.452,0.526,1.276,0.115,1.842l-2.694,3.708h4.279
	c1.578,0,2.857,1.319,2.857,2.946v10.267c0,1.627-1.279,2.945-2.857,2.945H2.857c-1.578,0-2.857-1.318-2.857-2.945v-10.267
	c0-1.627,1.279-2.946,2.857-2.946H9.33l-2.538-3.319C6.365,1514.964,6.418,1514.149,6.912,1513.703z M17.917,1526.232
	c0.413,0,0.748-0.346,0.748-0.772s-0.335-0.772-0.748-0.772s-0.748,0.346-0.748,0.772S17.504,1526.232,17.917,1526.232z
	 M17.917,1523.314c0.413,0,0.748-0.347,0.748-0.774c0-0.429-0.335-0.775-0.748-0.775s-0.748,0.347-0.748,0.775
	C17.169,1522.968,17.504,1523.314,17.917,1523.314z M4.276,1521.765c-0.798,0-1.445,0.671-1.445,1.498v7.49
	c0,0.828,0.647,1.498,1.445,1.498h10.113c0.798,0,1.445-0.67,1.445-1.498v-7.49c0-0.827-0.647-1.498-1.445-1.498H4.276z"/>
<path fill-rule="evenodd" clip-rule="evenodd" fill="#FFFFFF" d="M2.037,1479.056c0.86-0.486,1.763-0.81,2.709-0.972
	c0.937-0.137,1.715-0.214,2.334-0.231c-0.191-0.248-0.362-0.515-0.511-0.798c-0.175-0.274-0.262-0.605-0.262-0.993
	c0-0.23,0.033-0.425,0.1-0.579c0.059-0.163,0.113-0.313,0.163-0.451c-0.302,0.035-0.586,0.052-0.853,0.052
	c-1.413-0.017-2.49-0.457-3.23-1.319c-0.776-0.803-1.164-1.738-1.164-2.806c0-1.29,0.549-2.46,1.648-3.511
	c0.754-0.615,1.539-1.016,2.352-1.204c0.805-0.162,1.56-0.243,2.264-0.243h5.309l-1.64,0.947H9.619
	c0.167,0.102,0.354,0.252,0.563,0.447c0.2,0.205,0.396,0.458,0.588,0.757c0.183,0.282,0.346,0.614,0.487,0.999
	c0.117,0.385,0.175,0.833,0.175,1.346c-0.016,0.939-0.226,1.69-0.629,2.255c-0.198,0.273-0.408,0.525-0.629,0.757
	c-0.245,0.23-0.506,0.465-0.783,0.704c-0.158,0.162-0.305,0.346-0.439,0.551c-0.158,0.214-0.237,0.462-0.237,0.743
	c0,0.273,0.081,0.5,0.244,0.68c0.138,0.17,0.271,0.32,0.401,0.448l0.9,0.73c0.56,0.452,1.05,0.952,1.472,1.499
	c0.397,0.555,0.604,1.281,0.621,2.178c0,1.273-0.568,2.4-1.704,3.383c-1.178,1.017-2.877,1.542-5.098,1.576
	c-1.859-0.018-3.247-0.409-4.164-1.177c-0.925-0.716-1.388-1.573-1.388-2.57c0-0.486,0.15-1.027,0.451-1.624
	C0.743,1480.031,1.272,1479.507,2.037,1479.056z M9.124,1472.597c0.039-0.352,0.058-0.646,0.058-0.887
	c0-1.036-0.268-2.08-0.803-3.133c-0.251-0.505-0.581-0.915-0.991-1.232c-0.418-0.3-0.899-0.458-1.443-0.476
	c-0.719,0.018-1.318,0.305-1.794,0.861c-0.402,0.581-0.594,1.232-0.577,1.951c0,0.95,0.281,1.939,0.843,2.966
	c0.272,0.479,0.623,0.886,1.053,1.22s0.922,0.501,1.475,0.501c0.699-0.025,1.281-0.274,1.747-0.745
	C8.915,1473.29,9.06,1472.947,9.124,1472.597z M3.52,1483.978c0.803,0.599,1.901,0.905,3.296,0.923
	c1.251-0.018,2.206-0.29,2.865-0.82c0.642-0.521,0.963-1.191,0.963-2.012c0-0.666-0.22-1.248-0.659-1.742
	c-0.465-0.471-1.192-1.047-2.181-1.73c-0.169-0.018-0.368-0.026-0.596-0.026c-0.135-0.017-0.481,0-1.04,0.052
	c-0.549,0.077-1.111,0.2-1.686,0.371c-0.135,0.052-0.326,0.129-0.57,0.23c-0.245,0.111-0.495,0.27-0.748,0.475
	c-0.245,0.213-0.452,0.479-0.621,0.795c-0.195,0.333-0.292,0.734-0.292,1.204C2.252,1482.619,2.675,1483.38,3.52,1483.978z
	 M21,1475.655h-2.8v2.759h-1.4v-2.759H14v-1.38h2.8v-2.758h1.4v2.758H21V1475.655z"/>
<path fill-rule="evenodd" clip-rule="evenodd" fill="#FFFFFF" d="M30.002,1174.888v0.22c0,0.558-0.453,1.01-1.01,1.01h-3.077
	c-0.558,0-1.01-0.452-1.01-1.01v-0.22c0-0.558,0.452-1.01,1.01-1.01h3.077C29.549,1173.878,30.002,1174.331,30.002,1174.888z
	 M25.471,1163.696l0.156,0.156c0.394,0.395,0.394,1.034,0,1.428l-2.176,2.176c-0.395,0.394-1.034,0.394-1.428,0l-0.156-0.156
	c-0.395-0.394-0.395-1.034,0-1.428l2.176-2.176C24.437,1163.302,25.076,1163.302,25.471,1163.696z M0,1175.108v-0.22
	c0-0.558,0.452-1.01,1.009-1.01h3.078c0.558,0,1.009,0.452,1.009,1.01v0.22c0,0.558-0.452,1.01-1.009,1.01H1.009
	C0.452,1176.118,0,1175.666,0,1175.108z M5.276,1185.629c-0.395,0.395-1.034,0.395-1.428,0l-0.156-0.156
	c-0.395-0.394-0.395-1.033,0-1.428l2.176-2.176c0.394-0.395,1.034-0.395,1.428,0l0.156,0.156c0.395,0.395,0.395,1.033,0,1.428
	L5.276,1185.629z M15.106,1160c0.558,0,1.01,0.452,1.01,1.009v3.077c0,0.558-0.452,1.01-1.01,1.01h-0.22
	c-0.558,0-1.01-0.452-1.01-1.01v-3.077c0-0.558,0.452-1.009,1.01-1.009H15.106z M5.956,1163.696l2.176,2.176
	c0.394,0.394,0.394,1.034,0,1.428l-0.156,0.156c-0.394,0.394-1.033,0.394-1.428,0l-2.176-2.176c-0.394-0.394-0.394-1.033,0-1.428
	l0.156-0.156C4.922,1163.302,5.562,1163.302,5.956,1163.696z M6.1,1174.893c0-4.804,3.895-8.699,8.699-8.699
	c4.805,0,8.699,3.896,8.699,8.699s-3.894,8.698-8.699,8.698C9.995,1183.591,6.1,1179.696,6.1,1174.893z M14.695,1181.998
	c3.864,0,6.997-3.133,6.997-6.997s-3.132-6.997-6.997-6.997c-3.864,0-6.997,3.133-6.997,6.997S10.831,1181.998,14.695,1181.998z
	 M19.954,1175.086c0,2.91-2.36,5.27-5.271,5.27c-2.911,0-5.271-2.36-5.271-5.27c0-2.911,2.36-5.27,5.271-5.27
	C17.594,1169.816,19.954,1172.176,19.954,1175.086z M15.106,1184.904c0.558,0,1.01,0.451,1.01,1.01v3.076
	c0,0.559-0.452,1.01-1.01,1.01h-0.22c-0.558,0-1.01-0.451-1.01-1.01v-3.076c0-0.559,0.452-1.01,1.01-1.01H15.106z M25.813,1185.293
	c-0.394,0.394-1.033,0.394-1.428,0l-2.176-2.176c-0.395-0.395-0.395-1.034,0-1.429l0.156-0.155c0.394-0.395,1.034-0.395,1.428,0
	l2.176,2.176c0.395,0.394,0.395,1.033,0,1.428L25.813,1185.293z"/>
<path fill-rule="evenodd" clip-rule="evenodd" fill="#FFFFFF" d="M10.828,1315.094L18.047,1335H14.67l-1.627-4.758h-7.67L3.732,1335
	H0.355l7.314-19.906H10.828z M12.141,1327.576l-2.898-8.463H9.201l-2.912,8.463H12.141z M31.896,1325.02v6.576
	c0,0.629,0.039,1.217,0.116,1.764s0.212,1.094,0.403,1.641h-3.363c-0.101-0.311-0.185-0.62-0.253-0.93s-0.121-0.629-0.157-0.957
	c-0.502,0.638-1.107,1.157-1.818,1.559s-1.513,0.602-2.406,0.602c-1.522,0-2.691-0.39-3.507-1.169
	c-0.816-0.779-1.224-1.87-1.224-3.274c0-1.458,0.556-2.579,1.668-3.363c1.112-0.784,2.711-1.176,4.799-1.176h2.42v-1.299
	c0-0.783-0.228-1.393-0.684-1.825s-1.121-0.649-1.996-0.649c-0.802,0-1.431,0.18-1.887,0.54c-0.456,0.36-0.684,0.832-0.684,1.415
	h-3.322c0-1.24,0.558-2.306,1.675-3.199c1.116-0.893,2.591-1.34,4.423-1.34c1.759,0,3.165,0.431,4.218,1.292
	S31.896,1323.352,31.896,1325.02z M28.574,1328.369H26.1c-0.994,0-1.757,0.234-2.29,0.704s-0.8,1.037-0.8,1.702
	c0,0.574,0.178,1.023,0.533,1.347s0.889,0.485,1.6,0.485c0.766,0,1.451-0.164,2.058-0.492s1.064-0.738,1.374-1.23V1328.369z"/>
<path fill-rule="evenodd" clip-rule="evenodd" fill="#FFFFFF" d="M2.347,1829.703l-1.515,1.397v-5.173h5.313l-1.556,1.594
	c0.936,0.901,2.186,1.48,3.508,1.48c2.403,0,4.474-1.687,4.933-4.01l2.97,0.575c-0.737,3.728-4.09,6.434-7.942,6.434
	C5.919,1832.001,3.852,1831.17,2.347,1829.703z"/>
<rect x="10" y="1868" fill-rule="evenodd" clip-rule="evenodd" fill="#FFFFFF" width="3" height="3"/>
<rect x="10" y="1878" fill-rule="evenodd" clip-rule="evenodd" fill="#FFFFFF" width="3" height="3"/>
<rect x="10" y="1873" fill-rule="evenodd" clip-rule="evenodd" fill="#FFFFFF" width="3" height="3"/>
<path fill-rule="evenodd" clip-rule="evenodd" fill="#222222" d="M8.029,2179.04c0-1.642,0.822-2.809,1.752-3.435v-0.043
	c-0.692-0.497-1.428-1.556-1.428-2.938c0-2.268,1.666-4.276,4.651-4.276s4.651,2.009,4.651,4.276c0,1.383-0.735,2.441-1.428,2.938
	v0.043c0.93,0.626,1.752,1.793,1.752,3.435c0,2.7-2.12,4.472-4.976,4.472S8.029,2181.74,8.029,2179.04z M13.005,2170.896
	c-1.017,0-1.688,0.778-1.688,1.728c0,0.93,0.671,1.707,1.688,1.707s1.687-0.777,1.687-1.707
	C14.692,2171.675,14.021,2170.896,13.005,2170.896z M14.995,2178.91c0-1.188-0.801-2.03-1.99-2.03c-1.19,0-1.99,0.843-1.99,2.03
	c0,1.21,0.8,2.053,1.99,2.053C14.194,2180.963,14.995,2180.12,14.995,2178.91z M3.228,2183.273c-0.13,0-0.216-0.086-0.216-0.215
	v-11.061H2.968l-2.336,1.599c-0.13,0.087-0.238,0.043-0.238-0.129v-2.679c0-0.13,0.043-0.217,0.151-0.303l2.466-1.771
	c0.108-0.087,0.238-0.13,0.39-0.13h2.423c0.13,0,0.216,0.086,0.216,0.216v14.258c0,0.129-0.086,0.215-0.216,0.215H3.228z"/>
<g>
	<path fill-rule="evenodd" clip-rule="evenodd" fill="#FFFFFF" d="M4.519,2136.393c-0.402,0.405-0.932,0.607-1.461,0.607
		c-0.524,0-1.049-0.199-1.451-0.598c-0.807-0.8-0.812-2.104-0.01-2.909l8.441-8.493l-8.441-8.493
		c-0.802-0.807-0.797-2.109,0.01-2.909c0.807-0.801,2.11-0.796,2.912,0.01l9.882,9.943c0.797,0.802,0.797,2.097,0,2.898
		L4.519,2136.393z"/>
	<g opacity="0.4">
		<path d="M3.058,2113c0.529,0,1.059,0.203,1.461,0.607l9.882,9.943c0.797,0.802,0.797,2.097,0,2.898l-9.882,9.943
			c-0.402,0.405-0.932,0.607-1.461,0.607c-0.524,0-1.049-0.199-1.451-0.598c-0.807-0.8-0.812-2.104-0.01-2.909l8.441-8.493
			l-8.441-8.493c-0.802-0.807-0.797-2.109,0.01-2.909C2.009,2113.199,2.534,2113,3.058,2113 M3.059,2112.5L3.059,2112.5
			c-0.68,0-1.321,0.264-1.803,0.743c-0.485,0.48-0.753,1.121-0.756,1.805c-0.002,0.683,0.262,1.326,0.744,1.812L9.334,2125
			l-8.091,8.141c-0.482,0.484-0.746,1.127-0.744,1.811c0.002,0.684,0.271,1.325,0.756,1.807c0.482,0.479,1.123,0.742,1.803,0.742
			c0.688,0,1.333-0.269,1.816-0.755l9.882-9.943c0.988-0.993,0.988-2.61,0-3.604l-9.882-9.943
			C4.39,2112.769,3.745,2112.5,3.059,2112.5L3.059,2112.5z"/>
	</g>
</g>
<g>
	<path fill-rule="evenodd" clip-rule="evenodd" fill="#FFFFFF" d="M14.392,2086.402c-0.401,0.398-0.926,0.598-1.451,0.598
		c-0.529,0-1.058-0.203-1.46-0.608l-9.883-9.956c-0.797-0.804-0.797-2.1,0-2.902l9.883-9.956c0.801-0.808,2.104-0.813,2.911-0.011
		c0.807,0.803,0.812,2.106,0.01,2.914l-8.441,8.504l8.441,8.504C15.204,2084.296,15.199,2085.6,14.392,2086.402z"/>
	<g opacity="0.4">
		<path d="M12.942,2062.968c0.524,0,1.049,0.199,1.45,0.599c0.807,0.803,0.812,2.106,0.01,2.914l-8.441,8.504l8.441,8.504
			c0.801,0.808,0.796,2.111-0.01,2.914c-0.401,0.398-0.926,0.598-1.451,0.598c-0.529,0-1.058-0.203-1.46-0.608l-9.883-9.956
			c-0.797-0.804-0.797-2.1,0-2.902l9.883-9.956C11.883,2063.172,12.413,2062.969,12.942,2062.968 M12.942,2062.468L12.942,2062.468
			c-0.688,0.001-1.333,0.27-1.816,0.757l-9.883,9.956c-0.987,0.994-0.987,2.612,0,3.607l9.883,9.956
			c0.484,0.487,1.129,0.756,1.815,0.756c0.68,0,1.32-0.264,1.803-0.743c1.001-0.995,1.006-2.619,0.013-3.621l-8.092-8.151
			l8.092-8.151c0.993-1.002,0.988-2.626-0.013-3.621C14.262,2062.732,13.622,2062.468,12.942,2062.468L12.942,2062.468z"/>
	</g>
</g>
<path fill-rule="evenodd" clip-rule="evenodd" fill="#FFFFFF" d="M0.391,1917.378c0.519-0.534,1.356-0.531,1.872,0.007l6.353,6.637
	c0.512,0.535,0.512,1.4,0,1.936l-6.353,6.637c-0.259,0.271-0.599,0.406-0.939,0.406c-0.337,0-0.675-0.133-0.933-0.398
	c-0.519-0.535-0.522-1.404-0.007-1.942l5.427-5.67l-5.427-5.669C-0.131,1918.781-0.128,1917.912,0.391,1917.378z"/>
<path fill-rule="evenodd" clip-rule="evenodd" fill="#B4BBBC" d="M0.607,1613.598c0.807-0.801,2.11-0.796,2.912,0.01l9.882,9.943
	c0.797,0.802,0.797,2.097,0,2.898l-9.882,9.943c-0.402,0.405-0.932,0.607-1.461,0.607c-0.524,0-1.049-0.199-1.451-0.598
	c-0.807-0.801-0.812-2.104-0.01-2.909L9.039,1625l-8.441-8.493C-0.204,1615.701-0.199,1614.397,0.607,1613.598z"/>
<path fill-rule="evenodd" clip-rule="evenodd" fill="#FFFFFF" d="M11.199,1269.786c-0.586-0.557-1.441-0.835-2.566-0.835
	c-1.031,0-1.84,0.231-2.426,0.694s-0.879,1.069-0.879,1.819H1.057c0-1.594,0.718-2.965,2.153-4.113s3.331-1.723,5.687-1.723
	c2.262,0,4.069,0.554,5.423,1.661s2.03,2.733,2.03,4.878v8.455c0,0.809,0.05,1.564,0.149,2.268s0.272,1.406,0.519,2.109h-4.324
	c-0.129-0.398-0.237-0.797-0.325-1.195s-0.155-0.809-0.202-1.23c-0.645,0.82-1.424,1.488-2.338,2.004s-1.945,0.773-3.094,0.773
	c-1.957,0-3.46-0.501-4.509-1.503s-1.573-2.405-1.573-4.21c0-1.875,0.715-3.316,2.145-4.324s3.486-1.512,6.17-1.512h3.111v-1.67
	C12.078,1271.125,11.785,1270.343,11.199,1269.786z M8.896,1276.475c-1.277,0-2.259,0.302-2.944,0.905s-1.028,1.333-1.028,2.188
	c0,0.738,0.229,1.315,0.686,1.731s1.143,0.624,2.057,0.624c0.984,0,1.866-0.211,2.646-0.633s1.368-0.949,1.767-1.582v-3.234H8.896z"
	/>
<path fill-rule="evenodd" clip-rule="evenodd" fill="#FFFFFF" d="M8.719,921.492H14l-0.229,4.899H8.719v13.607H3.573v-13.607H0
	v-4.899h3.574c0,0,0-2.008,0-4.185c0-3.289,2.111-6.308,6.976-6.308c1.969,0,3.426,0.19,3.426,0.19l-0.115,4.575
	c0,0-1.486-0.014-3.106-0.014c-1.754,0-2.035,0.814-2.035,2.165c0,0.2,0,0.245,0,0.225C8.719,918.509,8.719,919.417,8.719,921.492z"
	/>
<path fill-rule="evenodd" clip-rule="evenodd" fill="#FFFFFF" d="M19.755,970.494c0.009,0.195,0.013,0.391,0.013,0.587
	c0,6.004-4.544,12.927-12.854,12.927c-2.552,0-4.926-0.752-6.926-2.041c0.354,0.042,0.713,0.063,1.078,0.063
	c2.117,0,4.065-0.726,5.611-1.945c-1.978-0.036-3.646-1.35-4.221-3.155c0.276,0.053,0.559,0.082,0.85,0.082
	c0.412,0,0.811-0.056,1.19-0.16c-2.066-0.417-3.624-2.253-3.624-4.455c0-0.019,0-0.038,0.001-0.057
	c0.608,0.34,1.305,0.544,2.046,0.568c-1.212-0.815-2.01-2.206-2.01-3.782c0-0.832,0.223-1.613,0.612-2.284
	c2.228,2.749,5.557,4.557,9.312,4.747c-0.077-0.332-0.117-0.679-0.117-1.036c0-2.509,2.023-4.542,4.518-4.542
	c1.3,0,2.474,0.552,3.298,1.435c1.029-0.205,1.996-0.583,2.869-1.104c-0.337,1.062-1.054,1.952-1.986,2.514
	c0.914-0.11,1.785-0.354,2.595-0.715C21.404,969.053,20.638,969.854,19.755,970.494z"/>
</svg>
