<svg id="Layer_1" data-name="Layer 1" xmlns="http://www.w3.org/2000/svg" viewBox="0 0 218.98 84.6"><defs><style>.cls-1{fill:#f8971d;}</style></defs><title>jobline_felso_logo</title><path class="cls-1" d="M33.21,16.71H25.6V52.4H16.91a16.22,16.22,0,1,0,16.3,16.22V60H53.85V52.4H33.21V16.71ZM25.6,68.63A8.69,8.69,0,1,1,16.91,60H25.6v8.65Zm3.8-55.33a4.42,4.42,0,1,0,0-8.84A4.42,4.42,0,1,0,29.41,13.3Zm56.37,3.61c-4,0-6.88,1.73-8.07,3.61V5.11H70.6v39h7V40.91c1.41,2.26,4.23,3.88,7.91,3.88,7.59,0,12.57-6,12.57-14C98.07,22.9,93.57,16.92,85.77,16.92ZM84.25,38.37c-3.63,0-6.66-2.75-6.66-7.55s3-7.49,6.66-7.49,6.61,2.64,6.61,7.49S87.94,38.37,84.25,38.37Zm-32-21.56a13.62,13.62,0,0,0-14,14.07,13.65,13.65,0,0,0,14,14.07,13.65,13.65,0,0,0,14-14.07A13.62,13.62,0,0,0,52.29,16.81Zm0,21.62c-3.52,0-6.77-2.59-6.77-7.55s3.25-7.55,6.77-7.55,6.77,2.53,6.77,7.55S55.81,38.43,52.29,38.43Zm67.23-34a4.42,4.42,0,1,0,0,8.84A4.42,4.42,0,1,0,119.52,4.46Zm80.82,1.47a4.6,4.6,0,0,0-3.47,1.4V0.25H193.4V19h3.47v-7.5A2.4,2.4,0,0,1,199.27,9a2.25,2.25,0,0,1,2.37,2.54V19h3.47V11C205.11,8.19,203.6,5.93,200.34,5.93Zm19.12,10.79V6.27H216v7.42a2.31,2.31,0,0,1-2.43,2.52,2.28,2.28,0,0,1-2.35-2.57V6.27h-3.47v8.07a4.71,4.71,0,0,0,4.87,5,4.06,4.06,0,0,0,3.55-1.71,8.63,8.63,0,0,0,.1,1.37h3.31A21.31,21.31,0,0,1,219.46,16.72ZM102.4,44.14h7.21v-39H102.4v39Zm85.88-29.65a2.36,2.36,0,1,0,2.4,2.36A2.38,2.38,0,0,0,188.28,14.49ZM115.94,44.14h7.21V17.62h-7.21V44.14Zm54.93-27.34c-6.83,0-13.11,5.5-13.11,14,0,9,6.45,14.18,13.76,14.18,6.56,0,10.78-3.83,12.14-8.41l-6-1.78a5.89,5.89,0,0,1-6.07,4,6.48,6.48,0,0,1-6.72-6h19.07c0-.11.11-1.19,0.11-2.21C184,22,179.11,16.81,170.88,16.81ZM165,27.86a5.76,5.76,0,0,1,6-5.23c4.12,0,5.85,2.59,6,5.23H165ZM144.17,16.92a8.87,8.87,0,0,0-7.69,4V17.62h-7V44.14h7.21V28.88c0-3.07,1.84-5.5,5-5.5,3.47,0,4.93,2.32,4.93,5.28V44.14h7.2V27.43C153.81,21.61,150.78,16.92,144.17,16.92Z" transform="translate(-0.61 -0.25)"/></svg>