<?xml version="1.0" encoding="utf-8"?>
<!-- Generator: Adobe Illustrator 19.0.0, SVG Export Plug-In . SVG Version: 6.00 Build 0)  -->
<svg version="1.2" baseProfile="tiny" id="Layer_1" xmlns="http://www.w3.org/2000/svg" xmlns:xlink="http://www.w3.org/1999/xlink"
	 x="0px" y="0px" width="50px" height="50px" viewBox="0 0 50 50" xml:space="preserve">
<g id="Forma_1_copy">
	<path fill-rule="evenodd" fill="#FED420" d="M7.8,30.2l-2.4,2.4c-0.7,0.7-0.7,1.7,0,2.4c0.7,0.7,1.7,0.7,2.4,0l2.4-2.4
		c0.7-0.7,0.7-1.7,0-2.4C9.5,29.5,8.5,29.5,7.8,30.2z M6.7,21.8c0-0.9-0.7-1.7-1.7-1.7H1.7c-0.9,0-1.7,0.7-1.7,1.7
		c0,0.9,0.7,1.7,1.7,1.7H5C6,23.5,6.7,22.8,6.7,21.8z M18.5,10.1c0.9,0,1.7-0.7,1.7-1.7V5c0-0.9-0.7-1.7-1.7-1.7
		c-0.9,0-1.7,0.7-1.7,1.7v3.3C16.8,9.3,17.6,10.1,18.5,10.1z M7.8,13.5c0.7,0.7,1.7,0.7,2.4,0c0.7-0.7,0.7-1.7,0-2.4L7.8,8.8
		c-0.7-0.7-1.7-0.7-2.4,0c-0.7,0.7-0.7,1.7,0,2.4L7.8,13.5z M29.2,13.5l2.4-2.4c0.7-0.7,0.7-1.7,0-2.4c-0.7-0.7-1.7-0.7-2.4,0
		l-2.4,2.4c-0.7,0.7-0.7,1.7,0,2.4C27.5,14.2,28.5,14.2,29.2,13.5z M29.2,30.2c-0.7-0.7-1.7-0.7-2.4,0c-0.7,0.7-0.7,1.7,0,2.4
		l2.4,2.4c0.7,0.7,1.7,0.7,2.4,0c0.7-0.7,0.7-1.7,0-2.4L29.2,30.2z M18.5,33.6c-0.9,0-1.7,0.7-1.7,1.7v3.3c0,0.9,0.7,1.7,1.7,1.7
		c0.9,0,1.7-0.7,1.7-1.7v-3.3C20.2,34.4,19.4,33.6,18.5,33.6z M35.3,20.1H32c-0.9,0-1.7,0.7-1.7,1.7c0,0.9,0.7,1.7,1.7,1.7h3.3
		c0.9,0,1.7-0.7,1.7-1.7C37,20.9,36.2,20.1,35.3,20.1z M18.5,11.7c-5.6,0-10.1,4.5-10.1,10.1c0,5.6,4.5,10.1,10.1,10.1
		c5.6,0,10.1-4.5,10.1-10.1C28.6,16.3,24.1,11.7,18.5,11.7z M18.5,28.5c-3.7,0-6.7-3-6.7-6.7c0-3.7,3-6.7,6.7-6.7
		c3.7,0,6.7,3,6.7,6.7C25.2,25.5,22.2,28.5,18.5,28.5z"/>
</g>
<g id="cloud_copy_2">
	<path fill-rule="evenodd" fill="#FFFFFF" d="M48.7,30.1L48.7,30.1L48.7,30.1c-0.1-4.8-3.9-8.6-8.5-8.6c-1,0-2,0.2-2.8,0.5
		c-1.7-3.4-5.1-5.7-9.1-5.7c-5.7,0-10.2,4.7-10.2,10.4c0,0.1,0,0.1,0,0.2c-3.9,0.8-6.8,4.3-6.8,8.5c0,4.8,3.8,8.7,8.5,8.7h29V44
		c3.8,0,6.8-4.2,6.8-8C55.5,32.1,52.4,30.1,48.7,30.1z"/>
</g>
<g id="cloud_copy">
	<path fill-rule="evenodd" fill="#72B1C0" d="M44.5,31L44.5,31L44.5,31c-0.1-3.8-3.1-6.9-6.8-6.9c-0.8,0-1.5,0.2-2.3,0.4
		c-1.3-2.7-4-4.6-7.2-4.6c-4.5,0-8.1,3.7-8.1,8.3c0,0,0,0.1,0,0.1c-3.1,0.6-5.4,3.4-5.4,6.8c0,3.8,3,6.9,6.8,6.9h23v0
		c3,0,5.4-2.5,5.4-5.5C49.9,33.5,47.5,31,44.5,31z"/>
</g>
</svg>
