<?xml version="1.0" encoding="utf-8"?>
<!-- Generator: Adobe Illustrator 19.0.0, SVG Export Plug-In . SVG Version: 6.00 Build 0)  -->
<svg version="1.2" baseProfile="tiny" id="Layer_1" xmlns="http://www.w3.org/2000/svg" xmlns:xlink="http://www.w3.org/1999/xlink"
	 x="0px" y="0px" width="50px" height="50px" viewBox="0 0 50 50" xml:space="preserve">
<g id="Forma_1_copy_2_">
	<path fill-rule="evenodd" fill="#FED420" d="M18.5,9.7c0.9,0,1.7-0.7,1.7-1.7V4.7c0-0.9-0.7-1.7-1.7-1.7c-0.9,0-1.7,0.7-1.7,1.7V8
		C16.8,9,17.6,9.7,18.5,9.7z M6.7,21.5c0-0.9-0.7-1.7-1.7-1.7H1.7c-0.9,0-1.7,0.7-1.7,1.7c0,0.9,0.7,1.7,1.7,1.7H5
		C6,23.2,6.7,22.4,6.7,21.5z M7.8,13.2c0.7,0.7,1.7,0.7,2.4,0c0.7-0.7,0.7-1.7,0-2.4L7.8,8.4c-0.7-0.7-1.7-0.7-2.4,0
		c-0.7,0.7-0.7,1.7,0,2.4L7.8,13.2z M18.5,11.4c-5.6,0-10.1,4.5-10.1,10.1c0,5.6,4.5,10.1,10.1,10.1c5.6,0,10.1-4.5,10.1-10.1
		C28.6,15.9,24.1,11.4,18.5,11.4z M18.5,28.2c-3.7,0-6.7-3-6.7-6.7c0-3.7,3-6.7,6.7-6.7c3.7,0,6.7,3,6.7,6.7
		C25.2,25.2,22.2,28.2,18.5,28.2z M29.2,13.2l2.4-2.4c0.7-0.7,0.7-1.7,0-2.4c-0.7-0.7-1.7-0.7-2.4,0l-2.4,2.4
		c-0.7,0.7-0.7,1.7,0,2.4C27.5,13.8,28.5,13.8,29.2,13.2z M31.6,32.2l-2.4-2.4c-0.7-0.7-1.7-0.7-2.4,0c-0.7,0.7-0.7,1.7,0,2.4
		l2.4,2.4c0.7,0.7,1.7,0.7,2.4,0C32.2,33.9,32.2,32.9,31.6,32.2z M18.5,33.3c-0.9,0-1.7,0.7-1.7,1.7v3.3c0,0.9,0.7,1.7,1.7,1.7
		c0.9,0,1.7-0.7,1.7-1.7V35C20.2,34,19.4,33.3,18.5,33.3z M7.8,29.8l-2.4,2.4c-0.7,0.7-0.7,1.7,0,2.4c0.7,0.7,1.7,0.7,2.4,0l2.4-2.4
		c0.7-0.7,0.7-1.7,0-2.4C9.5,29.2,8.5,29.2,7.8,29.8z"/>
</g>
<g id="cloud_copy_2_2_">
	<path fill-rule="evenodd" fill="#FFFFFF" d="M48.7,29.8L48.7,29.8L48.7,29.8c-0.1-4.8-3.9-8.6-8.5-8.6c-1,0-2,0.2-2.8,0.5
		c-1.7-3.4-5.1-5.7-9.1-5.7c-5.7,0-10.2,4.7-10.2,10.4c0,0.1,0,0.1,0,0.2c-3.9,0.8-6.8,4.3-6.8,8.5c0,4.8,3.8,8.7,8.5,8.7h29v-0.1
		c3.8,0,6.8-3.1,6.8-6.9C55.5,32.9,52.4,29.8,48.7,29.8z"/>
</g>
<g id="cloud_copy_2_">
	<path fill-rule="evenodd" fill="#72B1C0" d="M44.5,30.7L44.5,30.7L44.5,30.7c-0.1-3.8-3.1-6.9-6.8-6.9c-0.8,0-1.5,0.2-2.3,0.4
		c-1.3-2.7-4-4.6-7.2-4.6c-4.5,0-8.1,3.7-8.1,8.3c0,0,0,0.1,0,0.1c-3.1,0.6-5.4,3.4-5.4,6.8c0,3.8,3,6.9,6.8,6.9h23v0
		c3,0,5.4-2.5,5.4-5.5C49.9,33.2,47.5,30.7,44.5,30.7z"/>
</g>
<g id="cloud_copy_3">
	<path fill-rule="evenodd" fill="#FFFFFF" d="M34,36.3L34,36.3L34,36.3c0-3.2-2.7-5.7-6-5.7c-0.7,0-1.4,0.1-2,0.4
		c-1.2-2.3-3.6-3.8-6.4-3.8c-4,0-7.3,3.1-7.3,6.9c0,0,0,0.1,0,0.1c-2.8,0.5-4.8,2.9-4.8,5.7c0,3.2,2.7,5.8,6,5.8H34v0
		c2.7,0,4.8-2.1,4.8-4.6S36.7,36.3,34,36.3z"/>
</g>
<g id="cloud_copy_3_1_">
	<path fill-rule="evenodd" fill="#72B1C0" d="M31.7,38.1L31.7,38.1L31.7,38.1c0-2.6-1.9-4.6-4.3-4.6c-0.5,0-1,0.1-1.4,0.3
		c-0.8-1.8-2.6-3.1-4.6-3.1c-2.8,0-5.1,2.5-5.1,5.5c0,0,0,0.1,0,0.1c-2,0.4-3.4,2.3-3.4,4.5c0,2.6,1.9,4.6,4.3,4.6h14.5v0
		c1.9,0,3.4-1.7,3.4-3.7C35.1,39.7,33.6,38.1,31.7,38.1z"/>
</g>
</svg>
