<?xml version="1.0" encoding="utf-8"?>
<!-- Generator: Adobe Illustrator 19.0.0, SVG Export Plug-In . SVG Version: 6.00 Build 0)  -->
<svg version="1.2" baseProfile="tiny" id="Layer_1" xmlns="http://www.w3.org/2000/svg" xmlns:xlink="http://www.w3.org/1999/xlink"
	 x="0px" y="0px" width="50px" height="50px" viewBox="0 0 50 50" xml:space="preserve">
<g id="Forma_1_copy_2">
	<path fill-rule="evenodd" fill="#FED420" d="M5.5,18.2H1.9c-1,0-1.8,0.8-1.8,1.8c0,1,0.8,1.8,1.8,1.8h3.6c1,0,1.8-0.8,1.8-1.8
		C7.3,19,6.5,18.2,5.5,18.2z M8.5,5.9c-0.7-0.7-1.9-0.7-2.6,0c-0.7,0.7-0.7,1.9,0,2.6L8.5,11c0.7,0.7,1.9,0.7,2.6,0
		c0.7-0.7,0.7-1.9,0-2.6L8.5,5.9z M34.2,5.9c-0.7-0.7-1.9-0.7-2.6,0L29,8.5c-0.7,0.7-0.7,1.9,0,2.6c0.7,0.7,1.9,0.7,2.6,0l2.5-2.5
		C34.9,7.8,34.9,6.6,34.2,5.9z M20,0.1c-1,0-1.8,0.8-1.8,1.8v3.6c0,1,0.8,1.8,1.8,1.8c1,0,1.8-0.8,1.8-1.8V1.9
		C21.9,0.9,21,0.1,20,0.1z"/>
</g>
<g id="cloud_copy_4">
	<path fill-rule="evenodd" fill="#72B1C0" d="M42.6,25L42.6,25L42.6,25c-0.1-5.2-4.2-9.3-9.2-9.3c-1.1,0-2.1,0.2-3.1,0.6
		c-1.8-3.7-5.5-6.2-9.8-6.2c-6.1,0-11.1,5-11.1,11.2c0,0.1,0,0.1,0,0.2c-4.2,0.9-7.4,4.6-7.4,9.2c0,5.2,4.1,9.4,9.2,9.4h31.3V40
		c4.1,0,7.4-3.4,7.4-7.5C50,28.3,46.7,25,42.6,25z"/>
</g>
<g id="cloud_copy_2_4_">
	<path fill-rule="evenodd" fill="#FFFFFF" d="M38.5,35.2c0,0,0-0.1,0-0.1c0-5-3.7-9-8.3-9c-3.2,0-6,2-7.4,5
		c-0.7-0.3-1.5-0.5-2.3-0.5c-3.8,0-6.9,3.3-6.9,7.4h0v0c-3.1,0-5.5,2.7-5.5,6c0,3.3,2.5,6,5.5,6v0h23.5c3.8,0,6.9-3.4,6.9-7.5
		C44,38.9,41.6,35.9,38.5,35.2z"/>
</g>
<g id="cloud_copy_4_">
	<path fill-rule="evenodd" fill="#72B1C0" d="M35.7,36.9c0,0,0-0.1,0-0.1c0-3.7-2.9-6.7-6.5-6.7c-2.5,0-4.7,1.5-5.7,3.7
		c-0.6-0.2-1.2-0.3-1.8-0.3c-2.9,0-5.3,2.5-5.4,5.6h0v0C14,39,12,41,12,43.5S14,48,16.3,48v0h18.3c3,0,5.4-2.5,5.4-5.6
		C40,39.7,38.2,37.4,35.7,36.9z"/>
</g>
</svg>
