<?xml version="1.0" encoding="utf-8"?>
<!-- Generator: Adobe Illustrator 24.1.3, SVG Export Plug-In . SVG Version: 6.00 Build 0)  -->
<svg version="1.1" id="Layer_1" xmlns="http://www.w3.org/2000/svg" xmlns:xlink="http://www.w3.org/1999/xlink" x="0px" y="0px"
	 viewBox="0 0 50 48.1" style="enable-background:new 0 0 50 48.1;" xml:space="preserve">
<style type="text/css">
	.st0{fill-rule:evenodd;clip-rule:evenodd;fill:#72B1C0;}
	.st1{fill-rule:evenodd;clip-rule:evenodd;fill:#8CCCDC;}
</style>
<g id="cloud_copy_5">
	<path class="st0" d="M42.3,15.7L42.3,15.7L42.3,15.7C42.1,10.3,37.9,6,32.7,6c-1.2,0-2.2,0.3-3.2,0.6C27.6,2.6,23.8,0,19.2,0
		C12.8,0,7.7,5.2,7.7,11.8V12c-4.4,0.9-7.7,5-7.7,9.6c0,5.4,4.4,9.9,9.6,9.9h32.7l0,0c4.2,0,7.7-3.5,7.7-7.9S46.5,15.7,42.3,15.7z"
		/>
</g>
<g id="Forma_1">
	<path class="st1" d="M10.6,39.5c3.6-2.2,6.6-3.9,14.1-0.9c3.8,1.5,6.7,2,9.2,2c4.4,0,7.3-1.7,9.6-3.2c0.9-0.6,1-1.5,0.1-2
		c-0.7-0.6-2-0.7-2.9-0.1c-3.6,2.2-6.6,3.9-14.1,0.9C16.6,32.1,11.8,35,8,37.3c-0.9,0.6-1,1.5-0.1,2C8.5,39.9,9.8,40.1,10.6,39.5z
		 M41.1,42.7c-3.6,2.2-6.6,3.9-14.1,0.9c-10.2-4.1-15-1.2-18.8,1.2c-0.9,0.6-1,1.5-0.1,2c0.7,0.6,2,0.7,2.9,0.1
		c3.5-2.2,6.3-3.9,14.1-0.9c3.8,1.5,6.7,2,9.2,2c4.4,0,7.3-1.7,9.6-3.2c0.9-0.6,1-1.5,0.1-2C43.3,42.3,42,42.1,41.1,42.7z"/>
</g>
</svg>
