<?xml version="1.0" encoding="utf-8"?>
<!-- Generator: Adobe Illustrator 19.0.0, SVG Export Plug-In . SVG Version: 6.00 Build 0)  -->
<svg version="1.2" baseProfile="tiny" id="Layer_1" xmlns="http://www.w3.org/2000/svg" xmlns:xlink="http://www.w3.org/1999/xlink"
	 x="0px" y="0px" width="50px" height="50px" viewBox="0 0 50 50" xml:space="preserve">
<g id="cloud_copy_8_">
</g>
<g id="cloud_copy_5">
	<path fill-rule="evenodd" fill="#72B1C0" d="M40.3,15L40.3,15L40.3,15c-0.1-5.2-4.1-9.3-9.2-9.3c-1.1,0-2.1,0.2-3.1,0.6
		C26.3,2.5,22.6,0,18.3,0c-6.1,0-11,5-11,11.3c0,0.1,0,0.1,0,0.2C3.2,12.3,0,16.1,0,20.7c0,5.2,4.1,9.4,9.2,9.4h31.1V30
		c4,0,7.3-3.4,7.3-7.5C47.6,18.4,44.3,15,40.3,15z"/>
</g>
<g id="Rounded_Rectangle_1_copy_2">
	<path fill-rule="evenodd" fill="#56EAF7" d="M16.5,37.1c-0.4-1.3-1.7-2.1-3.1-1.8c-1.3,0.4-2.1,1.7-1.8,3.1l1.9,9.8
		c0.4,1.3,1.7,2.1,3.1,1.8c1.3-0.4,2.1-1.7,1.8-3.1L16.5,37.1z M26.5,37.1c-0.4-1.3-1.7-2.1-3.1-1.8c-1.3,0.4-2.1,1.7-1.8,3.1
		l1.9,9.8c0.4,1.3,1.7,2.1,3.1,1.8c1.3-0.4,2.1-1.7,1.8-3.1L26.5,37.1z M38.5,46.9l-1.9-9.8c-0.4-1.3-1.7-2.1-3.1-1.8
		c-1.3,0.4-2.1,1.7-1.8,3.1l1.9,9.8c0.4,1.3,1.7,2.1,3.1,1.8C38.1,49.6,38.8,48.2,38.5,46.9z"/>
</g>
</svg>
