<?xml version="1.0" encoding="utf-8"?>
<!-- Generator: Adobe Illustrator 19.0.0, SVG Export Plug-In . SVG Version: 6.00 Build 0)  -->
<svg version="1.2" baseProfile="tiny" id="Layer_1" xmlns="http://www.w3.org/2000/svg" xmlns:xlink="http://www.w3.org/1999/xlink"
	 x="0px" y="0px" width="50px" height="50px" viewBox="0 0 50 50" xml:space="preserve">
<g id="cloud_copy_8_">
</g>
<g id="cloud_copy_14_">
	<path fill-rule="evenodd" fill="#72B1C0" d="M39.9,14.8L39.9,14.8L39.9,14.8c-0.1-5.1-4.1-9.2-9.1-9.2c-1.1,0-2.1,0.2-3,0.6
		C26,2.5,22.4,0,18.1,0c-6,0-10.9,5-10.9,11.2c0,0.1,0,0.1,0,0.2C3.1,12.2,0,16,0,20.5c0,5.1,4.1,9.3,9.1,9.3h30.8v-0.1
		c4,0,7.3-3.3,7.3-7.4C47.1,18.2,43.9,14.8,39.9,14.8z"/>
</g>
<g id="teardrop_copy_5_6_">
	<path fill-rule="evenodd" fill="#56EAF7" d="M39,42l-4-7.2c-0.1-0.2-0.5-0.2-0.6,0l-4,7.2c-0.8,1.5-0.9,3.4,0,5.1
		c1.4,2.4,4.4,3.3,6.8,1.9C39.6,47.6,40.4,44.5,39,42z"/>
</g>
<g id="Rounded_Rectangle_1_copy_4">
	<path fill-rule="evenodd" fill="#B8BFC0" d="M18.4,42.2l3.5-3.5c1-1,1-2.5,0-3.5c-1-1-2.5-1-3.5,0l-3.5,3.5l-3.5-3.5
		c-1-1-2.5-1-3.5,0c-1,1-1,2.5,0,3.5l3.5,3.5l-3.5,3.5c-1,1-1,2.5,0,3.5s2.5,1,3.5,0l3.5-3.5l3.5,3.5c1,1,2.5,1,3.5,0s1-2.5,0-3.5
		L18.4,42.2z"/>
</g>
</svg>
