<?xml version="1.0" encoding="utf-8"?>
<!-- Generator: Adobe Illustrator 19.0.0, SVG Export Plug-In . SVG Version: 6.00 Build 0)  -->
<svg version="1.2" baseProfile="tiny" id="Layer_1" xmlns="http://www.w3.org/2000/svg" xmlns:xlink="http://www.w3.org/1999/xlink"
	 x="0px" y="0px" width="50px" height="50px" viewBox="0 0 50 50" xml:space="preserve">
<g id="cloud_copy_8_">
	<path fill="#72B1C0" d="M42.3,15.7L42.3,15.7L42.3,15.7c-0.1-5.5-4.3-9.8-9.6-9.8c-1.1,0-2.2,0.2-3.2,0.6C27.6,2.7,23.8,0,19.3,0
		C12.9,0,7.7,5.3,7.7,11.8c0,0.1,0,0.1,0,0.2C3.3,12.9,0,16.9,0,21.7c0,5.4,4.3,9.9,9.6,9.9h32.7v-0.1c4.2,0,7.7-3.5,7.7-7.9
		C50,19.2,46.6,15.7,42.3,15.7z"/>
</g>
<g id="teardrop_copy_3">
	<path fill="#72D1E8" d="M15.3,40.6l-3.2-6.3c-0.1-0.2-0.4-0.2-0.5,0l-3.2,6.3c-0.7,1.3-0.7,3,0,4.5c1.1,2.1,3.5,2.9,5.4,1.7
		C15.7,45.5,16.4,42.8,15.3,40.6z"/>
</g>
<g id="teardrop_copy_4">
	<path fill="#72D1E8" d="M28.4,40.6l-3.2-6.3c-0.1-0.2-0.4-0.2-0.5,0l-3.2,6.3c-0.7,1.3-0.7,3,0,4.5c1.1,2.1,3.5,2.9,5.4,1.7
		C28.9,45.5,29.5,42.8,28.4,40.6z"/>
</g>
<g id="teardrop_copy_5">
	<path fill="#72D1E8" d="M41.6,40.6l-3.2-6.3c-0.1-0.2-0.4-0.2-0.5,0l-3.2,6.3c-0.7,1.3-0.7,3,0,4.5c1.1,2.1,3.5,2.9,5.4,1.7
		C42,45.5,42.7,42.8,41.6,40.6z"/>
</g>
</svg>
