<?xml version="1.0" encoding="utf-8"?>
<!-- Generator: Adobe Illustrator 19.0.0, SVG Export Plug-In . SVG Version: 6.00 Build 0)  -->
<svg version="1.2" baseProfile="tiny" id="Layer_1" xmlns="http://www.w3.org/2000/svg" xmlns:xlink="http://www.w3.org/1999/xlink"
	 x="0px" y="0px" width="50px" height="50px" viewBox="0 0 50 50" xml:space="preserve">
<g id="cloud_copy_16_">
	<path fill-rule="evenodd" fill="#B8BFC0" d="M42.3,18.7L42.3,18.7L42.3,18.7c-0.1-5.5-4.3-9.8-9.6-9.8c-1.1,0-2.2,0.2-3.2,0.6
		C27.6,5.7,23.7,3,19.2,3C12.9,3,7.7,8.3,7.7,14.8c0,0.1,0,0.1,0,0.2C3.3,15.9,0,19.9,0,24.7c0,5.4,4.3,9.9,9.6,9.9h32.7v-0.1
		c4.2,0,7.7-3.5,7.7-7.9S46.6,18.7,42.3,18.7z"/>
</g>
<g id="Ellipse_2">
	<circle fill-rule="evenodd" fill="#B8BFC0" cx="11.9" cy="43.8" r="3.9"/>
</g>
<g id="Ellipse_2_copy">
	<circle fill-rule="evenodd" fill="#B8BFC0" cx="25.1" cy="43.8" r="3.9"/>
</g>
<g id="Ellipse_2_copy_2">
	<circle fill-rule="evenodd" fill="#B8BFC0" cx="38.3" cy="43.8" r="3.9"/>
</g>
</svg>
