<?xml version="1.0" encoding="utf-8"?>
<!-- Generator: Adobe Illustrator 19.0.0, SVG Export Plug-In . SVG Version: 6.00 Build 0)  -->
<svg version="1.2" baseProfile="tiny" id="Layer_1" xmlns="http://www.w3.org/2000/svg" xmlns:xlink="http://www.w3.org/1999/xlink"
	 x="0px" y="0px" width="50px" height="50px" viewBox="0 0 50 50" xml:space="preserve">
<g id="cloud_copy_18_">
	<path fill-rule="evenodd" fill="#B8BFC0" d="M41.7,14.2L41.7,14.2L41.7,14.2c-0.1-4.9-3.9-8.9-8.7-8.9c-1,0-2,0.2-2.9,0.5
		C28.4,2.4,25,0,20.9,0c-5.8,0-10.4,4.8-10.4,10.7c0,0.1,0,0.1,0,0.2c-4,0.8-7,4.4-7,8.7c0,4.9,3.9,8.9,8.7,8.9h29.5v-0.1
		c3.8,0,6.9-3.2,6.9-7.1C48.7,17.4,45.6,14.2,41.7,14.2z"/>
</g>
<g id="Rounded_Rectangle_1_copy">
	<path fill-rule="evenodd" fill="#B8BFC0" d="M18.6,42.8l3.2-3.2c0.9-0.9,0.9-2.3,0-3.2c-0.9-0.9-2.3-0.9-3.2,0l-3.2,3.2l-3.2-3.2
		c-0.9-0.9-2.3-0.9-3.2,0c-0.9,0.9-0.9,2.3,0,3.2l3.2,3.2L9,46c-0.9,0.9-0.9,2.3,0,3.2c0.9,0.9,2.3,0.9,3.2,0l3.2-3.2l3.2,3.2
		c0.9,0.9,2.3,0.9,3.2,0c0.9-0.9,0.9-2.3,0-3.2L18.6,42.8z"/>
</g>
<g id="Rounded_Rectangle_1_copy_3">
	<path fill-rule="evenodd" fill="#B8BFC0" d="M40,42.8l3.2-3.2c0.9-0.9,0.9-2.3,0-3.2c-0.9-0.9-2.3-0.9-3.2,0l-3.2,3.2l-3.2-3.2
		c-0.9-0.9-2.3-0.9-3.2,0c-0.9,0.9-0.9,2.3,0,3.2l3.2,3.2L30.3,46c-0.9,0.9-0.9,2.3,0,3.2c0.9,0.9,2.3,0.9,3.2,0l3.2-3.2l3.2,3.2
		c0.9,0.9,2.3,0.9,3.2,0c0.9-0.9,0.9-2.3,0-3.2L40,42.8z"/>
</g>
</svg>
