<?xml version="1.0" encoding="utf-8"?>
<!-- Generator: Adobe Illustrator 19.0.0, SVG Export Plug-In . SVG Version: 6.00 Build 0)  -->
<svg version="1.2" baseProfile="tiny" id="Layer_1" xmlns="http://www.w3.org/2000/svg" xmlns:xlink="http://www.w3.org/1999/xlink"
	 x="0px" y="0px" width="50px" height="50px" viewBox="0 0 50 50" xml:space="preserve">
<g id="cloud_copy_20_">
	<path fill-rule="evenodd" fill="#B8BFC0" d="M41.1,13.6L41.1,13.6L41.1,13.6c-0.1-4.7-3.8-8.5-8.3-8.5c-1,0-1.9,0.2-2.8,0.5
		c-1.6-3.3-5-5.6-8.9-5.6c-5.5,0-10,4.6-10,10.2c0,0.1,0,0.1,0,0.2c-3.8,0.8-6.7,4.2-6.7,8.3c0,4.7,3.7,8.5,8.3,8.5h28.2v-0.1
		c3.7,0,6.6-3.1,6.6-6.8S44.8,13.6,41.1,13.6z"/>
</g>
<g id="Rounded_Rectangle_1_copy_2_">
	<path fill-rule="evenodd" fill="#B8BFC0" d="M9.9,40.9l3.1-3.1c0.9-0.9,0.9-2.2,0-3.1c-0.9-0.9-2.2-0.9-3.1,0l-3.1,3.1l-3.1-3.1
		c-0.9-0.9-2.2-0.9-3.1,0c-0.9,0.9-0.9,2.2,0,3.1l3.1,3.1L0.7,44c-0.9,0.9-0.9,2.2,0,3.1c0.9,0.9,2.2,0.9,3.1,0L6.8,44l3.1,3.1
		c0.9,0.9,2.2,0.9,3.1,0c0.9-0.9,0.9-2.2,0-3.1L9.9,40.9z"/>
</g>
<g id="Rounded_Rectangle_1_copy_3_2_">
	<path fill-rule="evenodd" fill="#B8BFC0" d="M28.1,40.9l3.1-3.1c0.9-0.9,0.9-2.2,0-3.1c-0.9-0.9-2.2-0.9-3.1,0L25,37.8l-3.1-3.1
		c-0.9-0.9-2.2-0.9-3.1,0c-0.9,0.9-0.9,2.2,0,3.1l3.1,3.1L18.9,44c-0.9,0.9-0.9,2.2,0,3.1c0.9,0.9,2.2,0.9,3.1,0L25,44l3.1,3.1
		c0.9,0.9,2.2,0.9,3.1,0c0.9-0.9,0.9-2.2,0-3.1L28.1,40.9z"/>
</g>
<g id="Rounded_Rectangle_1_copy_6">
	<path fill-rule="evenodd" fill="#B8BFC0" d="M46.3,40.9l3.1-3.1c0.9-0.9,0.9-2.2,0-3.1c-0.9-0.9-2.2-0.9-3.1,0l-3.1,3.1l-3.1-3.1
		c-0.9-0.9-2.2-0.9-3.1,0c-0.9,0.9-0.9,2.2,0,3.1l3.1,3.1L37,44c-0.9,0.9-0.9,2.2,0,3.1c0.9,0.9,2.2,0.9,3.1,0l3.1-3.1l3.1,3.1
		c0.9,0.9,2.2,0.9,3.1,0c0.9-0.9,0.9-2.2,0-3.1L46.3,40.9z"/>
</g>
</svg>
