<?xml version="1.0" encoding="utf-8"?>
<!-- Generator: Adobe Illustrator 19.0.0, SVG Export Plug-In . SVG Version: 6.00 Build 0)  -->
<svg version="1.2" baseProfile="tiny" id="Layer_1" xmlns="http://www.w3.org/2000/svg" xmlns:xlink="http://www.w3.org/1999/xlink"
	 x="0px" y="0px" width="50px" height="50px" viewBox="0 0 50 50" xml:space="preserve">
<g id="Forma_1_copy_4_">
	<path fill-rule="evenodd" fill="#FED420" d="M6.7,18.5c0-0.9-0.7-1.7-1.7-1.7H1.7c-0.9,0-1.7,0.7-1.7,1.7c0,0.9,0.7,1.7,1.7,1.7H5
		C6,20.2,6.7,19.5,6.7,18.5z M29.2,10.2l2.4-2.4c0.7-0.7,0.7-1.7,0-2.4c-0.7-0.7-1.7-0.7-2.4,0l-2.4,2.4c-0.7,0.7-0.7,1.7,0,2.4
		C27.5,10.9,28.5,10.9,29.2,10.2z M18.5,6.8c0.9,0,1.7-0.7,1.7-1.7V1.7c0-0.9-0.7-1.7-1.7-1.7c-0.9,0-1.7,0.7-1.7,1.7v3.3
		C16.8,6,17.6,6.8,18.5,6.8z M7.8,10.2c0.7,0.7,1.7,0.7,2.4,0c0.7-0.7,0.7-1.7,0-2.4L7.8,5.5c-0.7-0.7-1.7-0.7-2.4,0
		c-0.7,0.7-0.7,1.7,0,2.4L7.8,10.2z M18.5,30.3c-0.9,0-1.7,0.7-1.7,1.7v3.3c0,0.9,0.7,1.7,1.7,1.7c0.9,0,1.7-0.7,1.7-1.7V32
		C20.2,31.1,19.4,30.3,18.5,30.3z M7.8,26.9l-2.4,2.4c-0.7,0.7-0.7,1.7,0,2.4c0.7,0.7,1.7,0.7,2.4,0l2.4-2.4c0.7-0.7,0.7-1.7,0-2.4
		C9.5,26.2,8.5,26.2,7.8,26.9z M35.3,16.9H32c-0.9,0-1.7,0.7-1.7,1.7c0,0.9,0.7,1.7,1.7,1.7h3.3c0.9,0,1.7-0.7,1.7-1.7
		C37,17.6,36.3,16.9,35.3,16.9z M29.2,26.9c-0.7-0.7-1.7-0.7-2.4,0c-0.7,0.7-0.7,1.7,0,2.4l2.4,2.4c0.7,0.7,1.7,0.7,2.4,0
		c0.7-0.7,0.7-1.7,0-2.4L29.2,26.9z M18.5,8.5C12.9,8.5,8.4,13,8.4,18.5c0,5.6,4.5,10.1,10.1,10.1c5.6,0,10.1-4.5,10.1-10.1
		C28.6,13,24.1,8.5,18.5,8.5z M18.5,25.3c-3.7,0-6.7-3-6.7-6.7c0-3.7,3-6.7,6.7-6.7c3.7,0,6.7,3,6.7,6.7
		C25.2,22.3,22.2,25.3,18.5,25.3z"/>
</g>
<g id="cloud_copy_2_8_">
	<path fill-rule="evenodd" fill="#FFFFFF" d="M48.7,26.8L48.7,26.8L48.7,26.8c-0.1-4.8-3.9-8.6-8.5-8.6c-1,0-2,0.2-2.8,0.5
		c-1.7-3.4-5.1-5.7-9.1-5.7c-5.7,0-10.2,4.7-10.2,10.4c0,0.1,0,0.1,0,0.2c-3.9,0.8-6.8,4.3-6.8,8.5c0,4.8,3.8,8.7,8.5,8.7h29v-0.1
		c3.8,0,6.8-3.1,6.8-6.9C55.5,29.9,52.4,26.8,48.7,26.8z"/>
</g>
<g id="cloud_copy_22_">
	<path fill-rule="evenodd" fill="#72B1C0" d="M44.5,27.8L44.5,27.8L44.5,27.8c-0.1-3.8-3.1-6.9-6.8-6.9c-0.8,0-1.5,0.2-2.3,0.4
		c-1.3-2.7-4-4.6-7.2-4.6c-4.5,0-8.1,3.7-8.1,8.3c0,0,0,0.1,0,0.1c-3.1,0.6-5.4,3.4-5.4,6.8c0,3.8,3,6.9,6.8,6.9h23v0
		c3,0,5.4-2.5,5.4-5.6C50,30.2,47.5,27.8,44.5,27.8z"/>
</g>
<g id="teardrop_copy_3_6_">
	<path fill-rule="evenodd" fill="#56EAF7" d="M25.5,45.3l-2.2-4.4c-0.1-0.1-0.3-0.1-0.3,0l-2.2,4.4c-0.5,0.9-0.5,2.1,0,3.1
		c0.8,1.5,2.5,2,3.8,1.2C25.8,48.7,26.3,46.8,25.5,45.3z"/>
</g>
<g id="teardrop_copy_4_6_">
	<path fill-rule="evenodd" fill="#56EAF7" d="M34.8,45.3l-2.2-4.4c-0.1-0.1-0.3-0.1-0.3,0L30,45.3c-0.5,0.9-0.5,2.1,0,3.1
		c0.8,1.5,2.5,2,3.8,1.2C35.1,48.7,35.5,46.8,34.8,45.3z"/>
</g>
<g id="teardrop_copy_5_8_">
	<path fill-rule="evenodd" fill="#56EAF7" d="M44,45.3l-2.2-4.4c-0.1-0.1-0.3-0.1-0.3,0l-2.2,4.4c-0.5,0.9-0.5,2.1,0,3.1
		c0.8,1.5,2.5,2,3.8,1.2C44.3,48.7,44.8,46.8,44,45.3z"/>
</g>
</svg>
