<?xml version="1.0" encoding="utf-8"?>
<!-- Generator: Adobe Illustrator 19.0.0, SVG Export Plug-In . SVG Version: 6.00 Build 0)  -->
<svg version="1.2" baseProfile="tiny" id="Layer_1" xmlns="http://www.w3.org/2000/svg" xmlns:xlink="http://www.w3.org/1999/xlink"
	 x="0px" y="0px" width="50px" height="50px" viewBox="0 0 50 50" xml:space="preserve">
<g id="Forma_1_copy_6_">
	<path fill-rule="evenodd" fill="#FED420" d="M28.4,26.3l-2.1-2.1c-0.6-0.6-1.6-0.6-2.1,0c-0.6,0.6-0.6,1.5,0,2.1l2.1,2.1
		c0.6,0.6,1.6,0.6,2.1,0C29,27.8,29,26.9,28.4,26.3z M6,16.6c0-0.8-0.7-1.5-1.5-1.5h-3c-0.8,0-1.5,0.7-1.5,1.5
		c0,0.8,0.7,1.5,1.5,1.5h3C5.4,18.2,6,17.5,6,16.6z M7,9.1c0.6,0.6,1.6,0.6,2.1,0c0.6-0.6,0.6-1.5,0-2.1L7,4.9
		c-0.6-0.6-1.6-0.6-2.1,0C4.3,5.5,4.3,6.4,4.9,7L7,9.1z M26.3,9.1L28.4,7c0.6-0.6,0.6-1.6,0-2.1c-0.6-0.6-1.5-0.6-2.1,0L24.1,7
		c-0.6,0.6-0.6,1.6,0,2.1C24.7,9.7,25.7,9.7,26.3,9.1z M16.6,6c0.8,0,1.5-0.7,1.5-1.5v-3c0-0.8-0.7-1.5-1.5-1.5
		c-0.8,0-1.5,0.7-1.5,1.5v3C15.1,5.4,15.8,6,16.6,6z M7,24.1l-2.1,2.1c-0.6,0.6-0.6,1.6,0,2.1C5.5,29,6.4,29,7,28.4l2.1-2.1
		c0.6-0.6,0.6-1.6,0-2.1C8.6,23.5,7.6,23.5,7,24.1z M16.6,7.6c-5,0-9.1,4.1-9.1,9.1c0,5,4.1,9.1,9.1,9.1c5,0,9.1-4.1,9.1-9.1
		C25.7,11.6,21.6,7.6,16.6,7.6z M16.6,22.7c-3.3,0-6-2.7-6-6c0-3.3,2.7-6,6-6c3.3,0,6,2.7,6,6C22.7,20,20,22.7,16.6,22.7z
		 M16.6,27.2c-0.8,0-1.5,0.7-1.5,1.5v3c0,0.8,0.7,1.5,1.5,1.5c0.8,0,1.5-0.7,1.5-1.5v-3C18.2,27.9,17.5,27.2,16.6,27.2z"/>
</g>
<g id="cloud_copy_2_10_">
	<path fill-rule="evenodd" fill="#FFFFFF" d="M43.8,24.1L43.8,24.1L43.8,24.1c-0.1-4.3-3.5-7.8-7.7-7.8c-0.9,0-1.8,0.2-2.6,0.5
		c-1.5-3-4.6-5.2-8.2-5.2c-5.1,0-9.2,4.2-9.2,9.4c0,0.1,0,0.1,0,0.2C12.6,21.9,10,25,10,28.8c0,4.3,3.4,7.8,7.7,7.8h26.1v0
		c3.4,0,6.1-2.8,6.1-6.2C49.9,26.9,47.2,24.1,43.8,24.1z"/>
</g>
<g id="cloud_copy_24_">
	<path fill-rule="evenodd" fill="#B8BFC0" d="M40.1,24.9L40.1,24.9L40.1,24.9c0-3.5-2.7-6.2-6.1-6.2c-0.7,0-1.4,0.2-2,0.4
		c-1.2-2.4-3.6-4.1-6.5-4.1c-4,0-7.3,3.4-7.3,7.5c0,0,0,0.1,0,0.1c-2.8,0.6-4.9,3.1-4.9,6.1c0,3.4,2.7,6.2,6.1,6.2h20.7v0
		c2.7,0,4.9-2.2,4.9-5S42.7,24.9,40.1,24.9z"/>
</g>
<g id="Rounded_Rectangle_1_copy_5">
	<path fill-rule="evenodd" fill="#B8BFC0" d="M23.9,44.9l2.3-2.3c0.6-0.6,0.6-1.6,0-2.3c-0.6-0.6-1.6-0.6-2.3,0l-2.3,2.3l-2.3-2.3
		c-0.6-0.6-1.6-0.6-2.3,0c-0.6,0.6-0.6,1.6,0,2.3l2.3,2.3l-2.3,2.3c-0.6,0.6-0.6,1.6,0,2.3c0.6,0.6,1.6,0.6,2.3,0l2.3-2.3l2.3,2.3
		c0.6,0.6,1.6,0.6,2.3,0c0.6-0.6,0.6-1.6,0-2.3L23.9,44.9z"/>
</g>
<g id="Rounded_Rectangle_1_copy_5_1_">
	<path fill-rule="evenodd" fill="#B8BFC0" d="M38.9,44.9l2.3-2.3c0.6-0.6,0.6-1.6,0-2.3c-0.6-0.6-1.6-0.6-2.3,0l-2.3,2.3l-2.3-2.3
		c-0.6-0.6-1.6-0.6-2.3,0c-0.6,0.6-0.6,1.6,0,2.3l2.3,2.3l-2.3,2.3c-0.6,0.6-0.6,1.6,0,2.3c0.6,0.6,1.6,0.6,2.3,0l2.3-2.3l2.3,2.3
		c0.6,0.6,1.6,0.6,2.3,0c0.6-0.6,0.6-1.6,0-2.3L38.9,44.9z"/>
</g>
</svg>
