<?xml version="1.0" encoding="utf-8"?>
<!-- Generator: Adobe Illustrator 19.0.0, SVG Export Plug-In . SVG Version: 6.00 Build 0)  -->
<svg version="1.2" baseProfile="tiny" id="Layer_1" xmlns="http://www.w3.org/2000/svg" xmlns:xlink="http://www.w3.org/1999/xlink"
	 x="0px" y="0px" width="50px" height="50px" viewBox="0 0 50 50" xml:space="preserve">
<g id="cloud_copy_8_">
</g>
<g id="cloud_copy_28_">
	<path fill-rule="evenodd" fill="#72B1C0" d="M33.5,18.6L33.5,18.6L33.5,18.6c-0.1-4.3-3.4-7.7-7.6-7.7c-0.9,0-1.7,0.2-2.5,0.5
		c-1.5-3-4.5-5.2-8.1-5.2c-5,0-9.1,4.2-9.1,9.4c0,0.1,0,0.1,0,0.2c-3.5,0.7-6.1,3.9-6.1,7.6c0,4.3,3.4,7.8,7.6,7.8h25.8v0
		c3.4,0,6.1-2.8,6.1-6.2C39.6,21.4,36.9,18.6,33.5,18.6z"/>
</g>
<g id="Shape_3_copy_2">
	<polygon fill-rule="evenodd" fill="#FFFFFF" points="47.9,22.8 41.7,22.8 45.8,10.3 33.4,10.3 29.2,32.1 35.5,32.1 35.5,45.7 	"/>
</g>
<g id="Shape_3_copy">
	<polygon fill-rule="evenodd" fill="#FED420" points="50,24.8 44.5,24.8 48.2,14.5 37.1,14.5 33.4,31.6 38.9,31.6 38.9,43.6 	"/>
</g>
<g id="teardrop_copy_6">
	<path fill-rule="evenodd" fill="#56EAF7" d="M14.3,40.3l-2.5-5c-0.1-0.2-0.3-0.2-0.4,0l-2.5,5c-0.5,1.1-0.6,2.4,0,3.5
		c0.9,1.7,2.8,2.3,4.3,1.3C14.6,44.2,15.1,42,14.3,40.3z"/>
</g>
<g id="teardrop_copy_6_1_">
	<path fill-rule="evenodd" fill="#56EAF7" d="M24.6,40.3l-2.5-5c-0.1-0.2-0.3-0.2-0.4,0l-2.5,5c-0.5,1.1-0.6,2.4,0,3.5
		c0.9,1.7,2.8,2.3,4.3,1.3C25,44.2,25.5,42,24.6,40.3z"/>
</g>
</svg>
