<?xml version="1.0" encoding="utf-8"?>
<!-- Generator: Adobe Illustrator 19.0.0, SVG Export Plug-In . SVG Version: 6.00 Build 0)  -->
<svg version="1.2" baseProfile="tiny" id="Layer_1" xmlns="http://www.w3.org/2000/svg" xmlns:xlink="http://www.w3.org/1999/xlink"
	 x="0px" y="0px" width="50px" height="50px" viewBox="0 0 50 50" xml:space="preserve">
<g id="sun">
	<path id="XMLID_2_" fill-rule="evenodd" fill="#FED420" d="M9.1,25c0-1.3-1-2.3-2.3-2.3H2.3C1,22.7,0,23.7,0,25
		c0,1.3,1,2.3,2.3,2.3h4.5C8.1,27.3,9.1,26.3,9.1,25z M10.5,36.3l-3.2,3.2c-0.9,0.9-0.9,2.3,0,3.2c0.9,0.9,2.3,0.9,3.2,0l3.2-3.2
		c0.9-0.9,0.9-2.3,0-3.2C12.9,35.4,11.4,35.4,10.5,36.3z M25,9.1c1.3,0,2.3-1,2.3-2.3V2.3C27.3,1,26.3,0,25,0c-1.3,0-2.3,1-2.3,2.3
		v4.5C22.7,8.1,23.7,9.1,25,9.1z M10.5,13.7c0.9,0.9,2.3,0.9,3.2,0c0.9-0.9,0.9-2.3,0-3.2l-3.2-3.2c-0.9-0.9-2.3-0.9-3.2,0
		c-0.9,0.9-0.9,2.3,0,3.2L10.5,13.7z M39.5,13.7l3.2-3.2c0.9-0.9,0.9-2.3,0-3.2c-0.9-0.9-2.3-0.9-3.2,0l-3.2,3.2
		c-0.9,0.9-0.9,2.3,0,3.2C37.1,14.6,38.6,14.6,39.5,13.7z M47.7,22.7h-4.5c-1.3,0-2.3,1-2.3,2.3c0,1.3,1,2.3,2.3,2.3h4.5
		c1.3,0,2.3-1,2.3-2.3C50,23.7,49,22.7,47.7,22.7z M39.5,36.3c-0.9-0.9-2.3-0.9-3.2,0c-0.9,0.9-0.9,2.3,0,3.2l3.2,3.2
		c0.9,0.9,2.3,0.9,3.2,0c0.9-0.9,0.9-2.3,0-3.2L39.5,36.3z M25,40.9c-1.3,0-2.3,1-2.3,2.3v4.5c0,1.3,1,2.3,2.3,2.3
		c1.3,0,2.3-1,2.3-2.3v-4.5C27.3,41.9,26.3,40.9,25,40.9z M25,11.4c-7.5,0-13.6,6.1-13.6,13.6c0,7.5,6.1,13.6,13.6,13.6
		c7.5,0,13.6-6.1,13.6-13.6C38.6,17.5,32.5,11.4,25,11.4z M25,34.1c-5,0-9.1-4.1-9.1-9.1c0-5,4.1-9.1,9.1-9.1c5,0,9.1,4.1,9.1,9.1
		C34.1,30,30,34.1,25,34.1z"/>
</g>
</svg>
