<?xml version="1.0" encoding="utf-8"?>
<!-- Generator: Adobe Illustrator 19.0.0, SVG Export Plug-In . SVG Version: 6.00 Build 0)  -->
<svg version="1.2" baseProfile="tiny" id="Layer_1" xmlns="http://www.w3.org/2000/svg" xmlns:xlink="http://www.w3.org/1999/xlink"
	 x="0px" y="0px" width="50px" height="50px" viewBox="0 0 50 50" xml:space="preserve">
<g id="Forma_1">
	<path fill="#8CCCDC" d="M4.6,15.9c4.9-4.1,8.7-7.3,19.1-1.5c5,2.7,9,3.8,12.4,3.8c5.9,0,9.7-3.2,13-5.9c1.2-1,1.3-2.7,0.3-3.9
		s-2.7-1.3-3.9-0.3c-4.9,4.1-8.7,7.3-19.1,1.5C12.6,2,6.2,7.4,1,11.7c-1.2,1-1.3,2.7-0.3,3.9C1.6,16.7,3.4,16.9,4.6,15.9z
		 M45.4,35.6c-4.9,4.1-8.7,7.3-19.1,1.5C12.6,29.6,6.2,35,1,39.3c-1.2,1-1.3,2.7-0.3,3.9s2.7,1.3,3.9,0.3c4.9-4.1,8.7-7.3,19.1-1.5
		c5,2.7,9,3.8,12.4,3.8c5.9,0,9.7-3.2,13-5.9c1.2-1,1.3-2.7,0.3-3.9C48.3,34.8,46.6,34.6,45.4,35.6z M45.4,21.8
		c-4.9,4.1-8.7,7.3-19.1,1.5C12.6,15.8,6.2,21.2,1,25.5c-1.2,1-1.3,2.7-0.3,3.9c1,1.2,2.7,1.3,3.9,0.3c4.9-4.1,8.7-7.3,19.1-1.5
		c5,2.7,9,3.8,12.4,3.8c5.9,0,9.7-3.2,13-5.9c1.2-1,1.3-2.7,0.3-3.9C48.3,21,46.6,20.8,45.4,21.8z"/>
</g>
</svg>
