<?xml version="1.0" encoding="utf-8"?>
<!-- Generator: Adobe Illustrator 19.0.0, SVG Export Plug-In . SVG Version: 6.00 Build 0)  -->
<svg version="1.2" baseProfile="tiny" id="Layer_1" xmlns="http://www.w3.org/2000/svg" xmlns:xlink="http://www.w3.org/1999/xlink"
	 x="0px" y="0px" width="50px" height="50px" viewBox="0 0 50 50" xml:space="preserve">
<g id="sun_copy">
	<path fill-rule="evenodd" fill="#D2D2D2" d="M12.1,21.4c0-6.3,3.7-11.7,9.1-14.1c-1.8-0.8-3.9-1.3-6-1.3C6.8,6,0,12.9,0,21.4
		c0,8.5,6.8,15.4,15.1,15.4c2.1,0,4.2-0.5,6-1.3C15.8,33.1,12.1,27.7,12.1,21.4z"/>
</g>
<g id="cloud_copy_6">
	<path fill-rule="evenodd" fill="#FFFFFF" d="M48.6,30L48.6,30L48.6,30c-0.1-5-4-9-8.9-9c-1,0-2,0.2-3,0.5c-1.8-3.5-5.3-6-9.5-6
		c-5.9,0-10.6,4.8-10.6,10.8c0,0.1,0,0.1,0,0.2c-4.1,0.8-7.1,4.5-7.1,8.8c0,5,4,9,8.9,9h30.2v-0.1c3.9,0,7.1-3.2,7.1-7.2
		C55.7,33.2,52.6,30,48.6,30z"/>
</g>
<g id="cloud_copy_6_1_">
	<path fill-rule="evenodd" fill="#72B1C0" d="M44.4,31L44.4,31L44.4,31c-0.1-4-3.2-7.2-7-7.2c-0.8,0-1.6,0.2-2.3,0.4
		c-1.4-2.8-4.2-4.8-7.5-4.8c-4.7,0-8.4,3.9-8.4,8.7c0,0.1,0,0.1,0,0.1c-3.2,0.7-5.6,3.6-5.6,7.1c0,4,3.1,7.2,7,7.2h23.9v0
		c3.1,0,5.6-2.6,5.6-5.8C50,33.5,47.5,31,44.4,31z"/>
</g>
</svg>
