<?xml version="1.0" encoding="utf-8"?>
<!-- Generator: Adobe Illustrator 19.0.0, SVG Export Plug-In . SVG Version: 6.00 Build 0)  -->
<svg version="1.2" baseProfile="tiny" id="Layer_1" xmlns="http://www.w3.org/2000/svg" xmlns:xlink="http://www.w3.org/1999/xlink"
	 x="0px" y="0px" width="50px" height="50px" viewBox="0 0 50 50" xml:space="preserve">
<g id="sun_copy_3_">
	<path fill-rule="evenodd" fill="#D2D2D2" d="M12.5,19.1c0-6.1,3.9-11.4,9.4-13.7c-1.9-0.8-4-1.2-6.2-1.2C7,4.2,0,10.9,0,19.1
		c0,8.3,7,14.9,15.6,14.9c2.2,0,4.3-0.4,6.2-1.2C16.4,30.5,12.5,25.2,12.5,19.1z"/>
</g>
<g id="cloud_copy_7">
	<path fill-rule="evenodd" fill="#FFFFFF" d="M48.4,27L48.4,27L48.4,27c-0.1-5.2-4.2-9.3-9.2-9.3c-1.1,0-2.1,0.2-3.1,0.6
		c-1.8-3.6-5.5-6.2-9.8-6.2c-6.1,0-11,5-11,11.2c0,0.1,0,0.1,0,0.2L17.1,42h31.2V42c4.1,0,7.4-3.3,7.4-7.5
		C55.7,30.4,52.4,27,48.4,27z"/>
</g>
<g id="cloud_copy_7_1_">
	<path fill-rule="evenodd" fill="#72B1C0" d="M43.9,28L43.9,28L43.9,28c-0.1-4.1-3.3-7.4-7.3-7.4c-0.9,0-1.7,0.2-2.4,0.5
		c-1.4-2.9-4.4-4.9-7.8-4.9c-4.8,0-8.7,4-8.7,9c0,0.1,0,0.1,0,0.1c-3.3,0.7-5.8,3.7-5.8,7.3c0,4.1,3.3,7.5,7.3,7.5h24.7v0
		c3.2,0,5.8-2.7,5.8-6S47.2,28,43.9,28z"/>
</g>
<g id="cloud_copy_7_2_">
	<path fill-rule="evenodd" fill="#FFFFFF" d="M32.6,34L32.6,34L32.6,34c-0.1-3.4-2.9-6.2-6.5-6.2c-0.8,0-1.5,0.2-2.2,0.4
		c-1.3-2.4-1.9-4.1-5-4.1c-4.3,0-7.8,3.3-7.8,7.5c0,0,0,0.1,0,0.1c-3,0.6-5.2,3.1-5.2,6.1c0,3.4,2.9,6.2,6.5,6.2h20.1v0
		c2.9,0,5.2-2.2,5.2-5S35.5,34,32.6,34z"/>
</g>
<g id="cloud_copy_7_3_">
	<path fill-rule="evenodd" fill="#72B1C0" d="M30.2,36L30.2,36L30.2,36c0-2.8-2.1-4.9-4.6-4.9c-0.5,0-1.1,0.1-1.5,0.3
		c-0.9-1.9-2.8-3.3-4.9-3.3c-3,0-5.5,2.7-5.5,6c0,0,0,0.1,0,0.1c-2.1,0.5-3.7,2.5-3.7,4.9c0,2.7,2.1,5,4.6,5h15.6v0
		c2,0,3.7-1.8,3.7-4C33.8,37.8,32.2,36,30.2,36z"/>
</g>
</svg>
