<?xml version="1.0" encoding="utf-8"?>
<!-- Generator: Adobe Illustrator 19.0.0, SVG Export Plug-In . SVG Version: 6.00 Build 0)  -->
<svg version="1.2" baseProfile="tiny" id="Layer_1" xmlns="http://www.w3.org/2000/svg" xmlns:xlink="http://www.w3.org/1999/xlink"
	 x="0px" y="0px" width="50px" height="50px" viewBox="0 0 50 50" xml:space="preserve">
<g id="cloud_copy_4_4_">
	<path fill-rule="evenodd" fill="#72B1C0" d="M42.3,19.9L42.3,19.9L42.3,19.9c-0.1-5.4-4.3-9.7-9.6-9.7c-1.1,0-2.2,0.2-3.2,0.6
		C27.6,7,23.7,4.3,19.2,4.3c-6.4,0-11.5,5.2-11.5,11.7c0,0.1,0,0.1,0,0.2C3.3,17.1,0,21.1,0,25.8c0,5.4,4.3,9.8,9.6,9.8h32.7v-0.1
		c4.2,0,7.7-3.5,7.7-7.8C50,23.4,46.6,19.9,42.3,19.9z"/>
</g>
<g id="cloud_copy_2_12_">
	<path fill-rule="evenodd" fill="#FFFFFF" d="M38,30.5c0-0.1,0-0.1,0-0.2c0-5.2-3.9-9.4-8.7-9.4c-3.4,0-6.3,2.1-7.7,5.2
		c-0.8-0.3-1.6-0.5-2.4-0.5c-4,0-7.2,3.4-7.2,7.7h0v0c-3.2,0-5.8,2.8-5.8,6.2c0,3.5,2.6,6.2,5.8,6.2v0h24.5c4,0,7.2-3.5,7.2-7.8
		C43.8,34.4,41.3,31.2,38,30.5z"/>
</g>
<g id="cloud_copy_30_">
	<path fill-rule="evenodd" fill="#72B1C0" d="M35.1,32.3c0,0,0-0.1,0-0.1c0-3.9-3-7-6.7-7c-2.6,0-4.9,1.6-6,3.9
		c-0.6-0.2-1.2-0.4-1.9-0.4c-3.1,0-5.6,2.6-5.6,5.8h0v0c-2.5,0-4.5,2.1-4.5,4.7s2,4.7,4.5,4.7v0H34c3.1,0,5.6-2.6,5.6-5.9
		C39.6,35.2,37.7,32.9,35.1,32.3z"/>
</g>
</svg>
