<?xml version="1.0" encoding="utf-8"?>
<!-- Generator: Adobe Illustrator 19.0.0, SVG Export Plug-In . SVG Version: 6.00 Build 0)  -->
<svg version="1.2" baseProfile="tiny" id="Layer_1" xmlns="http://www.w3.org/2000/svg" xmlns:xlink="http://www.w3.org/1999/xlink"
	 x="0px" y="0px" width="50px" height="50px" viewBox="0 0 50 50" xml:space="preserve">
<g id="cloud_copy_8_">
</g>
<g id="sun_copy_7_">
	<path fill-rule="evenodd" fill="#FED420" d="M14.6,14.8c0-6.1,3.6-11.3,8.7-13.5C21.5,0.4,19.6,0,17.5,0C9.5,0,3,6.6,3,14.8
		c0,8.2,6.5,14.8,14.5,14.8c2.1,0,4-0.4,5.8-1.2C18.2,26,14.6,20.8,14.6,14.8z"/>
</g>
<g id="cloud_copy_7_22_">
	<path fill-rule="evenodd" fill="#FFFFFF" d="M47.8,21.2L47.8,21.2L47.8,21.2c-0.1-4.8-3.8-8.6-8.5-8.6c-1,0-1.9,0.2-2.8,0.5
		c-1.7-3.4-5.1-5.7-9.1-5.7c-5.6,0-10.2,4.6-10.2,10.4c0,0.1,0,0.1,0,0.2l1.7,17.1h29V35c3.8,0,6.8-3.1,6.8-6.9
		C54.7,24.3,51.6,21.2,47.8,21.2z"/>
</g>
<g id="cloud_copy_7_20_">
	<path fill-rule="evenodd" fill="#72B1C0" d="M43.7,22.1L43.7,22.1L43.7,22.1c-0.1-3.8-3-6.9-6.7-6.9c-0.8,0-1.5,0.2-2.2,0.4
		c-1.3-2.7-4-4.6-7.2-4.6c-4.5,0-8.1,3.7-8.1,8.3c0,0,0,0.1,0,0.1c-3.1,0.6-5.4,3.4-5.4,6.8c0,3.8,3,6.9,6.7,6.9h22.9v0
		c3,0,5.4-2.5,5.4-5.5C49.1,24.6,46.7,22.1,43.7,22.1z"/>
</g>
<g id="cloud_copy_7_18_">
	<path fill-rule="evenodd" fill="#FFFFFF" d="M33.2,27.7L33.2,27.7L33.2,27.7c0-3.2-2.7-5.7-6-5.7c-0.7,0-1.4,0.1-2,0.4
		c-1.2-2.3-1.8-3.8-4.6-3.8c-4,0-7.2,3.1-7.2,6.9c0,0,0,0.1,0,0.1c-2.8,0.5-4.8,2.9-4.8,5.7c0,3.2,2.7,5.8,6,5.8h18.7v0
		c2.7,0,4.8-2.1,4.8-4.6C38,29.7,35.9,27.7,33.2,27.7z"/>
</g>
<g id="cloud_copy_7_16_">
	<path fill-rule="evenodd" fill="#72B1C0" d="M30.9,29.5L30.9,29.5L30.9,29.5c0-2.6-1.9-4.6-4.3-4.6c-0.5,0-1,0.1-1.4,0.3
		c-0.8-1.8-2.6-3-4.5-3c-2.8,0-5.1,2.5-5.1,5.5c0,0,0,0.1,0,0.1c-1.9,0.4-3.4,2.3-3.4,4.5c0,2.5,1.9,4.6,4.3,4.6h14.5v0
		c1.9,0,3.4-1.7,3.4-3.7C34.4,31.1,32.8,29.5,30.9,29.5z"/>
</g>
<g id="teardrop_copy_7">
	<path fill-rule="evenodd" fill="#56EAF7" d="M21.1,45.1l-2.2-4.4c-0.1-0.1-0.3-0.1-0.3,0l-2.2,4.4c-0.5,0.9-0.5,2.1,0,3.1
		c0.8,1.5,2.5,2,3.8,1.2S21.8,46.6,21.1,45.1z"/>
</g>
<g id="teardrop_copy_7_1_">
	<path fill-rule="evenodd" fill="#56EAF7" d="M30.3,45.1l-2.2-4.4c-0.1-0.1-0.3-0.1-0.3,0l-2.2,4.4c-0.5,0.9-0.5,2.1,0,3.1
		c0.8,1.5,2.5,2,3.8,1.2S31.1,46.6,30.3,45.1z"/>
</g>
</svg>
