<svg xmlns="http://www.w3.org/2000/svg" xmlns:xlink="http://www.w3.org/1999/xlink" width="170" height="48" viewBox="0 0 170 48">
    <defs>
        <path id="a" d="M7.244 13.277c.682-.682 1.448-1.278 2.557-1.875a8.698 8.698 0 0 1 3.238-.597c2.386 0 4.261.853 5.71 2.557 1.448 1.705 1.96 4.261 1.96 7.67v13.294h-7.244V21.117c0-1.704-.256-2.983-.682-3.664-.426-.682-1.108-1.023-2.131-1.023-.851 0-1.534.17-2.13.256-.596.256-1.108.596-1.449 1.022v16.448H0L.171 1.09h7.073v12.187zm24.458 13.124l3.835-15.084h7.414l-7.499 23.01h-7.329l-7.5-23.01h7.415l3.664 15.084zM50.11 27.68c.596 1.022 1.448 1.534 2.727 1.534.852 0 1.45-.171 1.96-.426.596-.256 1.022-.682 1.45-1.108v-9.545c-.428-.597-.854-1.022-1.45-1.278-.51-.256-1.279-.427-1.96-.427-1.279 0-2.13.683-2.813 1.875-.597 1.108-1.022 2.983-1.022 4.858.255 1.79.596 3.494 1.108 4.517zm-5.625-13.55c1.534-2.301 3.835-3.24 6.647-3.24 1.28 0 2.386.427 3.24.853.595.427 1.533 1.023 1.96 1.705l.424-2.131h6.648v22.84c0 2.982-1.023 5.369-2.982 7.073-2.046 1.619-5.029 2.47-8.608 2.47-1.108 0-2.387-.17-3.665-.425s-2.557-.681-3.664-1.278l1.704-5.113c.682.255 1.534.596 2.387.68 1.022.257 1.96.428 3.238.428 1.534 0 2.557-.427 3.238-1.023a3.672 3.672 0 0 0 1.28-2.812v-1.875a6.806 6.806 0 0 1-2.302 1.875 6.69 6.69 0 0 1-2.983.68c-2.812 0-5.114-1.021-6.647-3.152-1.534-2.13-2.387-4.942-2.387-8.522.171-3.58.853-6.733 2.472-9.033zm36.598-6.013c1.342.57 2.356 1.349 3.04 2.337.684.988 1.026 2.103 1.026 3.344 0 1.545-.437 2.837-1.311 3.876-.874 1.039-2.134 1.81-3.781 2.318 1.748.177 3.173.792 4.275 1.842 1.102 1.052 1.653 2.565 1.653 4.54a7.206 7.206 0 0 1-1.16 3.972c-.772 1.204-1.925 2.16-3.457 2.869-1.533.709-3.376 1.064-5.53 1.064-3.926 0-6.978-1.342-9.156-4.028l3.57-3.458c.862.836 1.692 1.444 2.49 1.824.798.38 1.678.57 2.64.57 1.09 0 1.977-.291 2.66-.874.685-.582 1.027-1.406 1.027-2.47 0-1.19-.33-2.058-.988-2.602-.66-.545-1.647-.817-2.964-.817h-2.204l.76-4.56h1.52c1.089 0 1.932-.267 2.527-.798.595-.532.893-1.254.893-2.166 0-.861-.285-1.526-.855-1.995-.57-.47-1.337-.703-2.3-.703-1.772 0-3.42.735-4.938 2.204l-3.345-3.534c2.483-2.406 5.51-3.61 9.082-3.61 1.874 0 3.483.285 4.826.855zm19.474 20.177c.468-.823.703-1.97.703-3.44 0-1.52-.216-2.59-.647-3.21-.43-.62-1.126-.931-2.09-.931-.531 0-1.076.133-1.633.399a5.322 5.322 0 0 0-1.558 1.159c0 1.799.095 3.224.286 4.275.189 1.052.506 1.81.949 2.28.443.469 1.058.703 1.843.703.962 0 1.678-.412 2.147-1.235zm3.876-11.115c1.126.684 2.006 1.672 2.64 2.964.634 1.292.95 2.838.95 4.636 0 1.723-.385 3.312-1.158 4.769-.773 1.457-1.888 2.609-3.344 3.458-1.457.848-3.174 1.273-5.15 1.273-3.394 0-5.933-1.096-7.618-3.287-1.684-2.191-2.528-5.225-2.528-9.101 0-2.912.477-5.472 1.427-7.676.948-2.204 2.303-3.913 4.064-5.13 1.762-1.215 3.833-1.823 6.214-1.823 2.33 0 4.331.57 6.003 1.71l-2.432 3.989c-1.115-.658-2.255-.987-3.42-.987-1.317 0-2.394.53-3.23 1.595-.835 1.064-1.343 2.61-1.52 4.636 1.47-1.368 3.218-2.052 5.245-2.052 1.444 0 2.73.342 3.857 1.026zm13.774-4.198c-.456.52-.786 1.393-.988 2.621-.203 1.23-.304 2.945-.304 5.15 0 2.229.1 3.957.304 5.187.202 1.229.532 2.102.988 2.622.456.518 1.076.777 1.862.777.784 0 1.399-.247 1.843-.74.442-.493.766-1.354.969-2.583.202-1.23.304-2.983.304-5.264 0-2.28-.102-4.034-.304-5.263-.203-1.229-.527-2.083-.97-2.564-.443-.481-1.058-.723-1.842-.723-.786 0-1.406.26-1.862.78zm9.31-2.223c1.722 2.33 2.584 5.662 2.584 9.994s-.862 7.669-2.584 10.012c-1.724 2.344-4.206 3.515-7.448 3.515-3.243 0-5.732-1.172-7.467-3.516-1.735-2.343-2.603-5.68-2.603-10.012 0-4.357.868-7.695 2.603-10.013 1.735-2.317 4.224-3.476 7.467-3.476 3.242 0 5.724 1.166 7.448 3.496zm10.487 24.006V7.384H166c0 15.126-12.262 27.388-27.388 27.388-.203 0-.406-.004-.608-.008zm-5.49-31.31a1.28 1.28 0 1 0 2.56 0 1.28 1.28 0 0 0-2.56 0zm4.733 0a3.457 3.457 0 0 1-3.454 3.454 3.458 3.458 0 0 1-3.454-3.454A3.459 3.459 0 0 1 133.793 0a3.458 3.458 0 0 1 3.454 3.454z"/>
    </defs>
    <g fill="none" fill-rule="evenodd" transform="translate(2 2)">
        <mask id="b" fill="#fff">
            <use xlink:href="#a"/>
        </mask>
        <g fill="#000" fill-rule="nonzero" mask="url(#b)">
            <path d="M-2-2h170v48H-2z"/>
        </g>
    </g>
</svg>
