<?xml version="1.0" encoding="utf-8"?>
<!-- Generator: Adobe Illustrator 19.0.0, SVG Export Plug-In . SVG Version: 6.00 Build 0)  -->
<svg version="1.2" baseProfile="tiny" id="Layer_1" xmlns="http://www.w3.org/2000/svg" xmlns:xlink="http://www.w3.org/1999/xlink"
	 x="0px" y="0px" width="36px" height="36px" viewBox="0 0 36 36" xml:space="preserve">
<g id="sun">
	<path id="XMLID_41_" fill-rule="evenodd" fill="#FED420" d="M7.6,26.1l-2.3,2.3c-0.6,0.6-0.7,1.7,0,2.3c0.6,0.6,1.7,0.6,2.3,0
		l2.3-2.3c0.6-0.6,0.7-1.7,0-2.3C9.3,25.5,8.2,25.5,7.6,26.1z M28.4,9.9l2.3-2.3c0.6-0.6,0.7-1.7,0-2.3c-0.6-0.6-1.7-0.6-2.3,0
		l-2.3,2.3c-0.6,0.6-0.7,1.7,0,2.3C26.7,10.5,27.8,10.5,28.4,9.9z M7.6,9.9c0.6,0.6,1.7,0.7,2.3,0c0.6-0.6,0.6-1.7,0-2.3L7.6,5.3
		C7,4.6,5.9,4.6,5.3,5.3c-0.6,0.6-0.6,1.7,0,2.3L7.6,9.9z M18,6.5c0.9,0,1.6-0.7,1.6-1.7V1.7C19.6,0.7,18.9,0,18,0
		c-0.9,0-1.6,0.7-1.6,1.7v3.2C16.4,5.8,17.1,6.5,18,6.5z M6.5,18c0-0.9-0.7-1.6-1.7-1.6H1.6C0.7,16.4,0,17.1,0,18
		c0,0.9,0.7,1.6,1.7,1.6h3.2C5.8,19.6,6.5,18.9,6.5,18z M18,29.5c-0.9,0-1.6,0.7-1.6,1.7v3.2c0,0.9,0.7,1.7,1.6,1.7
		c0.9,0,1.6-0.7,1.6-1.7v-3.2C19.6,30.2,18.9,29.5,18,29.5z M28.4,26.1c-0.6-0.6-1.7-0.7-2.3,0c-0.6,0.6-0.6,1.7,0,2.3l2.3,2.3
		c0.6,0.6,1.7,0.7,2.3,0c0.6-0.6,0.6-1.7,0-2.3L28.4,26.1z M34.3,16.4h-3.2c-0.9,0-1.7,0.7-1.7,1.6c0,0.9,0.7,1.6,1.7,1.6h3.2
		c0.9,0,1.7-0.7,1.7-1.6C36,17.1,35.3,16.4,34.3,16.4z M18,8.2c-5.4,0-9.8,4.4-9.8,9.8c0,5.4,4.4,9.8,9.8,9.8c5.4,0,9.8-4.4,9.8-9.8
		C27.8,12.6,23.4,8.2,18,8.2z M18,24.5c-3.6,0-6.5-2.9-6.5-6.5c0-3.6,2.9-6.5,6.5-6.5c3.6,0,6.5,2.9,6.5,6.5
		C24.5,21.6,21.6,24.5,18,24.5z"/>
</g>
</svg>
