<?xml version="1.0" encoding="utf-8"?>
<!-- Generator: Adobe Illustrator 19.0.0, SVG Export Plug-In . SVG Version: 6.00 Build 0)  -->
<svg version="1.2" baseProfile="tiny" id="Layer_1" xmlns="http://www.w3.org/2000/svg" xmlns:xlink="http://www.w3.org/1999/xlink"
	 x="0px" y="0px" width="36px" height="36px" viewBox="-6 8 36 36" xml:space="preserve">
<g id="Forma_1">
	<path fill-rule="evenodd" fill="#8CCCDC" d="M-2.7,18.3c3.5-2.9,6.3-5.2,13.7-1.1c3.6,2,6.5,2.7,8.9,2.7c4.2,0,7-2.3,9.3-4.3
		c0.8-0.7,1-2,0.2-2.8c-0.7-0.8-2-0.9-2.8-0.2c-3.5,2.9-6.3,5.2-13.7,1.1C3.1,8.3-1.6,12.2-5.3,15.3c-0.8,0.7-1,2-0.2,2.8
		C-4.8,18.9-3.6,19-2.7,18.3z M26.7,32.5c-3.5,2.9-6.3,5.2-13.7,1.1C3.1,28.2-1.6,32-5.3,35.2c-0.8,0.7-1,2-0.2,2.8
		c0.7,0.8,2,0.9,2.8,0.2C0.8,35.3,3.5,33,11,37.1c3.6,2,6.5,2.7,8.9,2.7c4.2,0,7-2.3,9.3-4.3c0.8-0.7,1-2,0.2-2.8
		C28.8,31.9,27.5,31.8,26.7,32.5z M26.7,22.6c-3.5,2.9-6.3,5.2-13.7,1.1c-9.9-5.4-14.5-1.6-18.2,1.5c-0.8,0.7-1,2-0.2,2.8
		c0.7,0.8,2,0.9,2.8,0.2C0.8,25.3,3.5,23,11,27.1c3.6,2,6.5,2.7,8.9,2.7c4.2,0,7-2.3,9.3-4.3c0.8-0.7,1-2,0.2-2.8
		C28.8,22,27.5,21.8,26.7,22.6z"/>
</g>
</svg>
