<?xml version="1.0" encoding="utf-8"?>
<!-- Generator: Adobe Illustrator 19.0.0, SVG Export Plug-In . SVG Version: 6.00 Build 0)  -->
<svg version="1.2" baseProfile="tiny" id="Layer_1" xmlns="http://www.w3.org/2000/svg" xmlns:xlink="http://www.w3.org/1999/xlink"
	 x="0px" y="0px" width="36px" height="36px" viewBox="-6 8 36 36" xml:space="preserve">
<g id="Forma_1_copy">
	<path fill-rule="evenodd" fill="#FED420" d="M-1.2,25.6c0-0.7-0.5-1.2-1.2-1.2h-2.4c-0.7,0-1.2,0.5-1.2,1.2c0,0.7,0.5,1.2,1.2,1.2
		h2.4C-1.8,26.8-1.2,26.2-1.2,25.6z M-0.5,19.7c0.5,0.5,1.2,0.5,1.7,0c0.5-0.5,0.5-1.2,0-1.7l-1.7-1.7c-0.5-0.5-1.2-0.5-1.7,0
		c-0.5,0.5-0.5,1.2,0,1.7L-0.5,19.7z M7.2,17.2c0.7,0,1.2-0.5,1.2-1.2v-2.4c0-0.7-0.5-1.2-1.2-1.2C6.5,12.4,6,13,6,13.6V16
		C6,16.7,6.5,17.2,7.2,17.2z M14.8,19.7l1.7-1.7c0.5-0.5,0.5-1.2,0-1.7c-0.5-0.5-1.2-0.5-1.7,0L13.1,18c-0.5,0.5-0.5,1.2,0,1.7
		C13.6,20.1,14.3,20.1,14.8,19.7z M7.2,18.4c-4,0-7.2,3.2-7.2,7.2c0,4,3.2,7.2,7.2,7.2c4,0,7.2-3.2,7.2-7.2
		C14.3,21.6,11.1,18.4,7.2,18.4z M7.2,30.4c-2.6,0-4.8-2.1-4.8-4.8c0-2.6,2.1-4.8,4.8-4.8c2.6,0,4.8,2.1,4.8,4.8
		C11.9,28.2,9.8,30.4,7.2,30.4z M14.8,31.5c-0.5-0.5-1.2-0.5-1.7,0c-0.5,0.5-0.5,1.2,0,1.7l1.7,1.7c0.5,0.5,1.2,0.5,1.7,0
		c0.5-0.5,0.5-1.2,0-1.7L14.8,31.5z M-0.5,31.5l-1.7,1.7c-0.5,0.5-0.5,1.2,0,1.7c0.5,0.5,1.2,0.5,1.7,0l1.7-1.7
		c0.5-0.5,0.5-1.2,0-1.7C0.8,31,0,31-0.5,31.5z M19.1,24.4h-2.4c-0.7,0-1.2,0.5-1.2,1.2c0,0.7,0.5,1.2,1.2,1.2h2.4
		c0.7,0,1.2-0.5,1.2-1.2C20.3,24.9,19.8,24.4,19.1,24.4z M7.2,34C6.5,34,6,34.5,6,35.2v2.4c0,0.7,0.5,1.2,1.2,1.2
		c0.7,0,1.2-0.5,1.2-1.2v-2.4C8.4,34.5,7.8,34,7.2,34z"/>
</g>
<g id="cloud_copy_2">
	<path fill-rule="evenodd" fill="#FFFFFF" d="M28.6,31.5L28.6,31.5L28.6,31.5c0-3.4-2.7-6.1-6.1-6.1c-0.7,0-1.4,0.1-2,0.4
		c-1.2-2.4-3.6-4.1-6.5-4.1c-4,0-7.3,3.3-7.3,7.4c0,0,0,0.1,0,0.1c-2.8,0.6-4.9,3.1-4.9,6c0,3.4,2.7,6.2,6.1,6.2h20.7v0
		c2.7,0,4.9-3,4.9-5.7C33.5,32.9,31.3,31.5,28.6,31.5z"/>
</g>
<g id="cloud_copy">
	<path fill-rule="evenodd" fill="#72B1C0" d="M25.7,32.1L25.7,32.1L25.7,32.1c0-2.7-2.2-4.9-4.8-4.9c-0.6,0-1.1,0.1-1.6,0.3
		c-1-1.9-2.9-3.3-5.1-3.3c-3.2,0-5.8,2.7-5.8,5.9c0,0,0,0.1,0,0.1c-2.2,0.5-3.9,2.4-3.9,4.8c0,2.7,2.2,4.9,4.8,4.9h16.3v0
		c2.1,0,3.8-1.8,3.8-3.9C29.5,33.9,27.8,32.1,25.7,32.1z"/>
</g>
</svg>
