<?xml version="1.0" encoding="utf-8"?>
<!-- Generator: Adobe Illustrator 19.0.0, SVG Export Plug-In . SVG Version: 6.00 Build 0)  -->
<svg version="1.2" baseProfile="tiny" id="Layer_1" xmlns="http://www.w3.org/2000/svg" xmlns:xlink="http://www.w3.org/1999/xlink"
	 x="0px" y="0px" width="36px" height="36px" viewBox="-6 8 36 36" xml:space="preserve">
<g id="Forma_1_copy_2_">
	<path fill-rule="evenodd" fill="#FED420" d="M-0.5,17c0.5,0.5,1.2,0.5,1.7,0c0.5-0.5,0.5-1.2,0-1.7l-1.7-1.7
		c-0.5-0.5-1.2-0.5-1.7,0c-0.5,0.5-0.5,1.2,0,1.7L-0.5,17z M-1.2,22.9c0-0.7-0.5-1.2-1.2-1.2h-2.4c-0.7,0-1.2,0.5-1.2,1.2
		c0,0.7,0.5,1.2,1.2,1.2h2.4C-1.8,24.1-1.2,23.6-1.2,22.9z M14.8,17l1.7-1.7c0.5-0.5,0.5-1.2,0-1.7c-0.5-0.5-1.2-0.5-1.7,0l-1.7,1.7
		c-0.5,0.5-0.5,1.2,0,1.7C13.6,17.4,14.3,17.4,14.8,17z M7.2,14.5c0.7,0,1.2-0.5,1.2-1.2v-2.4c0-0.7-0.5-1.2-1.2-1.2
		C6.5,9.7,6,10.3,6,10.9v2.4C6,14,6.5,14.5,7.2,14.5z M7.2,15.7c-4,0-7.2,3.2-7.2,7.2c0,4,3.2,7.2,7.2,7.2c4,0,7.2-3.2,7.2-7.2
		C14.3,18.9,11.1,15.7,7.2,15.7z M7.2,27.7c-2.6,0-4.8-2.1-4.8-4.8c0-2.6,2.1-4.8,4.8-4.8c2.6,0,4.8,2.1,4.8,4.8
		C11.9,25.5,9.8,27.7,7.2,27.7z M16.5,30.5l-1.7-1.7c-0.5-0.5-1.2-0.5-1.7,0c-0.5,0.5-0.5,1.2,0,1.7l1.7,1.7c0.5,0.5,1.2,0.5,1.7,0
		C16.9,31.7,16.9,31,16.5,30.5z M7.2,31.3c-0.7,0-1.2,0.5-1.2,1.2v2.4c0,0.7,0.5,1.2,1.2,1.2c0.7,0,1.2-0.5,1.2-1.2v-2.4
		C8.4,31.8,7.8,31.3,7.2,31.3z M-0.5,28.8l-1.7,1.7c-0.5,0.5-0.5,1.2,0,1.7c0.5,0.5,1.2,0.5,1.7,0l1.7-1.7c0.5-0.5,0.5-1.2,0-1.7
		C0.8,28.3,0,28.3-0.5,28.8z"/>
</g>
<g id="cloud_copy_2_2_">
	<path fill-rule="evenodd" fill="#FFFFFF" d="M28.6,28.8L28.6,28.8L28.6,28.8c0-3.4-2.7-6.1-6.1-6.1c-0.7,0-1.4,0.1-2,0.4
		c-1.2-2.4-3.6-4.1-6.5-4.1c-4,0-7.3,3.3-7.3,7.4c0,0,0,0.1,0,0.1c-2.8,0.6-4.9,3.1-4.9,6c0,3.4,2.7,6.2,6.1,6.2h20.7v0
		c2.7,0,4.9-2.2,4.9-4.9S31.3,28.8,28.6,28.8z"/>
</g>
<g id="cloud_copy_2_">
	<path fill-rule="evenodd" fill="#72B1C0" d="M25.7,29.4L25.7,29.4L25.7,29.4c0-2.7-2.2-4.9-4.8-4.9c-0.6,0-1.1,0.1-1.6,0.3
		c-1-1.9-2.9-3.3-5.1-3.3c-3.2,0-5.8,2.7-5.8,5.9c0,0,0,0.1,0,0.1C6.2,28,4.5,30,4.5,32.4c0,2.7,2.2,4.9,4.8,4.9h16.3v0
		c2.1,0,3.8-1.8,3.8-3.9C29.5,31.2,27.8,29.4,25.7,29.4z"/>
</g>
<g id="cloud_copy_3">
	<path fill-rule="evenodd" fill="#FFFFFF" d="M18.2,33.4L18.2,33.4L18.2,33.4c0-2.3-1.9-4.1-4.3-4.1c-0.5,0-1,0.1-1.4,0.3
		c-0.9-1.6-2.6-2.7-4.6-2.7c-2.9,0-5.2,2.2-5.2,4.9c0,0,0,0.1,0,0.1c-2,0.4-3.5,2-3.5,4c0,2.3,1.9,4.1,4.3,4.1h14.6v0
		c1.9,0,3.4-1.5,3.4-3.3C21.6,34.9,20.1,33.4,18.2,33.4z"/>
</g>
<g id="cloud_copy_3_1_">
	<path fill-rule="evenodd" fill="#72B1C0" d="M16.6,34.7L16.6,34.7L16.6,34.7c0-1.8-1.4-3.3-3-3.3c-0.4,0-0.7,0.1-1,0.2
		c-0.6-1.3-1.8-2.2-3.2-2.2c-2,0-3.6,1.8-3.6,3.9c0,0,0,0,0,0.1c-1.4,0.3-2.4,1.6-2.4,3.2c0,1.8,1.4,3.3,3,3.3h10.3v0
		c1.3,0,2.4-1.2,2.4-2.6C19,35.9,17.9,34.7,16.6,34.7z"/>
</g>
</svg>
