<?xml version="1.0" encoding="utf-8"?>
<!-- Generator: Adobe Illustrator 19.0.0, SVG Export Plug-In . SVG Version: 6.00 Build 0)  -->
<svg version="1.2" baseProfile="tiny" id="Layer_1" xmlns="http://www.w3.org/2000/svg" xmlns:xlink="http://www.w3.org/1999/xlink"
	 x="0px" y="0px" width="36px" height="36px" viewBox="-6 8 36 36" xml:space="preserve">
<g id="Forma_1_copy_2">
	<path fill-rule="evenodd" fill="#FED420" d="M-2.1,21.1h-2.6c-0.7,0-1.3,0.6-1.3,1.3c0,0.7,0.6,1.3,1.3,1.3h2.6
		c0.7,0,1.3-0.6,1.3-1.3C-0.8,21.7-1.4,21.1-2.1,21.1z M0.1,12.2c-0.5-0.5-1.3-0.5-1.9,0c-0.5,0.5-0.5,1.3,0,1.9L0,15.9
		c0.5,0.5,1.3,0.5,1.9,0c0.5-0.5,0.5-1.3,0-1.9L0.1,12.2z M18.5,12.2c-0.5-0.5-1.3-0.5-1.9,0L14.9,14c-0.5,0.5-0.5,1.3,0,1.9
		c0.5,0.5,1.3,0.5,1.9,0l1.8-1.8C19,13.6,19.1,12.7,18.5,12.2z M8.4,8C7.7,8,7.1,8.6,7.1,9.3v2.6c0,0.7,0.6,1.3,1.3,1.3
		c0.7,0,1.3-0.6,1.3-1.3V9.3C9.7,8.6,9.1,8,8.4,8z"/>
</g>
<g id="cloud_copy_4">
	<path fill-rule="evenodd" fill="#72B1C0" d="M24.6,25.9L24.6,25.9L24.6,25.9c-0.1-3.7-3-6.7-6.6-6.7c-0.8,0-1.5,0.2-2.2,0.4
		c-1.3-2.6-4-4.5-7.1-4.5c-4.4,0-8,3.6-8,8.1c0,0,0,0.1,0,0.1c-3,0.6-5.3,3.3-5.3,6.6c0,3.7,3,6.7,6.6,6.7h22.5v0
		c2.9,0,5.3-2.4,5.3-5.4C29.9,28.3,27.6,25.9,24.6,25.9z"/>
</g>
<g id="cloud_copy_2_4_">
	<path fill-rule="evenodd" fill="#FFFFFF" d="M21.6,33.3c0,0,0-0.1,0-0.1c0-3.6-2.7-6.5-6-6.5c-2.3,0-4.3,1.5-5.3,3.6
		c-0.5-0.2-1.1-0.3-1.7-0.3c-2.7,0-4.9,2.4-5,5.3h0v0c-2.2,0-4,1.9-4,4.3s1.8,4.3,4,4.3v0h16.9c2.7,0,5-2.4,5-5.4
		C25.6,35.9,23.9,33.8,21.6,33.3z"/>
</g>
<g id="cloud_copy_4_">
	<path fill-rule="evenodd" fill="#72B1C0" d="M19.6,34.5C19.6,34.5,19.7,34.5,19.6,34.5c0-2.8-2.1-4.9-4.6-4.9
		c-1.8,0-3.4,1.1-4.1,2.7C10.5,32.1,10,32,9.6,32c-2.1,0-3.8,1.8-3.9,4h0v0c-1.7,0-3.1,1.4-3.1,3.2s1.4,3.2,3.1,3.2v0h13.2
		c2.1,0,3.9-1.8,3.9-4C22.8,36.5,21.4,34.9,19.6,34.5z"/>
</g>
</svg>
