<?xml version="1.0" encoding="utf-8"?>
<!-- Generator: Adobe Illustrator 19.0.0, SVG Export Plug-In . SVG Version: 6.00 Build 0)  -->
<svg version="1.2" baseProfile="tiny" id="Layer_1" xmlns="http://www.w3.org/2000/svg" xmlns:xlink="http://www.w3.org/1999/xlink"
	 x="0px" y="0px" width="36px" height="36px" viewBox="-6 8 36 36" xml:space="preserve">
<g id="cloud_copy_4_2_">
	<path fill-rule="evenodd" fill="#72B1C0" d="M24.5,22.2L24.5,22.2L24.5,22.2c-0.1-3.9-3.1-7-6.9-7c-0.8,0-1.6,0.2-2.3,0.4
		c-1.4-2.7-4.1-4.6-7.4-4.6c-4.6,0-8.3,3.8-8.3,8.4c0,0,0,0.1,0,0.1C-3.6,20.2-6,23.1-6,26.5c0,3.9,3.1,7,6.9,7h23.5v0
		c3.1,0,5.5-2.5,5.5-5.6C30,24.7,27.5,22.2,24.5,22.2z"/>
</g>
<g id="cloud_copy_2_6_">
	<path fill-rule="evenodd" fill="#FFFFFF" d="M21.3,29.9c0,0,0-0.1,0-0.1c0-3.7-2.8-6.8-6.2-6.8c-2.4,0-4.5,1.5-5.5,3.7
		c-0.5-0.2-1.1-0.3-1.7-0.3c-2.8,0-5.2,2.5-5.2,5.6h0v0c-2.3,0-4.2,2-4.2,4.5S0.3,41,2.6,41v0h17.7c2.9,0,5.2-2.5,5.2-5.6
		C25.5,32.7,23.7,30.4,21.3,29.9z"/>
</g>
<g id="cloud_copy_6_">
	<path fill-rule="evenodd" fill="#72B1C0" d="M19.3,31.2C19.3,31.1,19.3,31.1,19.3,31.2c0-2.9-2.2-5.2-4.8-5.2
		c-1.9,0-3.5,1.1-4.3,2.8c-0.4-0.2-0.9-0.3-1.3-0.3c-2.2,0-4,1.9-4,4.2h0v0c-1.8,0-3.2,1.5-3.2,3.4s1.4,3.4,3.2,3.4v0h13.7
		c2.2,0,4-1.9,4-4.2C22.5,33.3,21.1,31.6,19.3,31.2z"/>
</g>
</svg>
