<?xml version="1.0" encoding="utf-8"?>
<!-- Generator: Adobe Illustrator 23.0.6, SVG Export Plug-In . SVG Version: 6.00 Build 0)  -->
<svg version="1.1" id="Layer_1" xmlns="http://www.w3.org/2000/svg" xmlns:xlink="http://www.w3.org/1999/xlink" x="0px" y="0px"
	 viewBox="0 0 36 36" style="enable-background:new 0 0 36 36;" xml:space="preserve">
<style type="text/css">
	.st0{fill-rule:evenodd;clip-rule:evenodd;fill:#72B1C0;}
	.st1{display:none;}
	.st2{display:inline;fill-rule:evenodd;clip-rule:evenodd;fill:#56EAF7;}
	.st3{fill-rule:evenodd;clip-rule:evenodd;fill:#8CCCDC;}
</style>
<g id="cloud_copy_5">
	<path class="st0" d="M30,11.8L30,11.8L30,11.8c-0.1-3.7-3-6.7-6.6-6.7c-0.8,0-1.5,0.2-2.2,0.4c-1.3-2.7-3.9-4.5-7-4.5
		C9.8,1,6.3,4.6,6.3,9.1v0.1C3.3,9.8,1,12.6,1,15.8c0,3.7,3,6.8,6.6,6.8H30l0,0c2.9,0,5.3-2.4,5.3-5.4S32.9,11.8,30,11.8z"/>
</g>
<g id="Rounded_Rectangle_1_copy_2" class="st1">
	<path class="st2" d="M11.9,26.7c-0.3-1-1.2-1.5-2.2-1.3c-1,0.3-1.5,1.2-1.3,2.2l1.4,7c0.2,1,1.2,1.6,2.2,1.4c1-0.3,1.5-1.2,1.3-2.2
		L11.9,26.7z M19.1,26.7c-0.3-1-1.2-1.5-2.2-1.3c-1,0.3-1.5,1.2-1.3,2.2l1.4,7c0.3,1,1.2,1.5,2.2,1.3c1-0.3,1.5-1.2,1.3-2.2
		L19.1,26.7z M27.7,33.7l-1.4-7c-0.3-1-1.2-1.5-2.2-1.3c-1,0.3-1.5,1.2-1.3,2.2l1.4,7c0.3,1,1.2,1.5,2.2,1.3
		C27.4,35.7,28,34.7,27.7,33.7z"/>
</g>
<g id="Forma_1">
	<path class="st3" d="M8.3,28.1c2.5-1.5,4.5-2.7,9.7-0.6c2.6,1,4.6,1.4,6.3,1.4c3,0,5-1.2,6.6-2.2c0.6-0.4,0.7-1,0.1-1.4
		c-0.5-0.4-1.4-0.5-2-0.1c-2.5,1.5-4.5,2.7-9.7,0.6C12.4,23,9.1,25,6.5,26.6c-0.6,0.4-0.7,1-0.1,1.4C6.8,28.4,7.7,28.5,8.3,28.1z
		 M29.2,30.3c-2.5,1.5-4.5,2.7-9.7,0.6c-7-2.8-10.3-0.8-12.9,0.8c-0.6,0.4-0.7,1-0.1,1.4c0.5,0.4,1.4,0.5,2,0.1
		c2.4-1.5,4.3-2.7,9.7-0.6c2.6,1,4.6,1.4,6.3,1.4c3,0,5-1.2,6.6-2.2c0.6-0.4,0.7-1,0.1-1.4C30.7,30,29.8,29.9,29.2,30.3z"/>
</g>
</svg>
