<?xml version="1.0" encoding="utf-8"?>
<!-- Generator: Adobe Illustrator 19.0.0, SVG Export Plug-In . SVG Version: 6.00 Build 0)  -->
<svg version="1.2" baseProfile="tiny" id="Layer_1" xmlns="http://www.w3.org/2000/svg" xmlns:xlink="http://www.w3.org/1999/xlink"
	 x="0px" y="0px" width="36px" height="36px" viewBox="-6 8 36 36" xml:space="preserve">
<g id="cloud_copy_4_2_">
</g>
<g id="cloud_copy_8_">
	<path fill-rule="evenodd" fill="#72B1C0" d="M24.4,19.3L24.4,19.3L24.4,19.3c-0.1-3.9-3.1-7.1-6.9-7.1c-0.8,0-1.6,0.2-2.3,0.4
		C13.8,9.9,11.1,8,7.8,8c-4.6,0-8.3,3.8-8.3,8.5c0,0,0,0.1,0,0.1c-3.2,0.7-5.5,3.5-5.5,7c0,3.9,3.1,7.1,6.9,7.1h23.5v0
		c3.1,0,5.5-2.5,5.5-5.7S27.5,19.3,24.4,19.3z"/>
</g>
<g id="teardrop_copy_3">
	<path fill-rule="evenodd" fill="#72D1E8" d="M5,37.2l-2.3-4.5c-0.1-0.2-0.3-0.2-0.3,0L0,37.2c-0.5,1-0.5,2.2,0,3.2
		c0.8,1.5,2.5,2.1,3.9,1.2C5.3,40.8,5.8,38.8,5,37.2z"/>
</g>
<g id="teardrop_copy_4">
	<path fill-rule="evenodd" fill="#72D1E8" d="M14.4,37.2l-2.3-4.5c-0.1-0.2-0.3-0.2-0.3,0l-2.3,4.5c-0.5,1-0.5,2.2,0,3.2
		c0.8,1.5,2.5,2.1,3.9,1.2C14.8,40.8,15.2,38.8,14.4,37.2z"/>
</g>
<g id="teardrop_copy_5">
	<path fill-rule="evenodd" fill="#72D1E8" d="M23.9,37.2l-2.3-4.5c-0.1-0.2-0.3-0.2-0.3,0L19,37.2c-0.5,1-0.5,2.2,0,3.2
		c0.8,1.5,2.5,2.1,3.9,1.2C24.2,40.8,24.7,38.8,23.9,37.2z"/>
</g>
</svg>
