<?xml version="1.0" encoding="utf-8"?>
<!-- Generator: Adobe Illustrator 19.0.0, SVG Export Plug-In . SVG Version: 6.00 Build 0)  -->
<svg version="1.2" baseProfile="tiny" id="Layer_1" xmlns="http://www.w3.org/2000/svg" xmlns:xlink="http://www.w3.org/1999/xlink"
	 x="0px" y="0px" width="36px" height="36px" viewBox="-6 8 36 36" xml:space="preserve">
<g id="cloud_copy_14_">
	<path fill="#72B1C0" d="M23.6,18.9L23.6,18.9L23.6,18.9c0-3.7-2.9-6.7-6.5-6.7c-0.8,0-1.5,0.2-2.2,0.4C13.6,10,11,8.2,8,8.2
		c-4.3,0-7.8,3.6-7.8,8v0.1c-3,0.6-5.2,3.3-5.2,6.6c0,3.7,2.9,6.7,6.5,6.7h22.2l0,0c2.9,0,5.2-2.4,5.2-5.4
		C28.8,21.3,26.5,18.9,23.6,18.9z"/>
</g>
<g id="teardrop_copy_5_6_">
	<path fill="#56EAF7" d="M23,38.4l-2.9-5.1c-0.1-0.2-0.3-0.2-0.4,0l-2.9,5.1c-0.6,1.1-0.7,2.5,0,3.6c1,1.8,3.2,2.4,4.9,1.4
		S24,40.2,23,38.4z"/>
</g>
<g id="Rounded_Rectangle_1_copy_4">
	<path fill="#B8BFC0" d="M8.1,38.6l2.5-2.5c0.7-0.7,0.7-1.8,0-2.5s-1.8-0.7-2.5,0l-2.5,2.5l-2.5-2.5c-0.7-0.7-1.8-0.7-2.5,0
		c-0.7,0.6-0.7,1.7,0,2.4l2.5,2.5L0.6,41c-0.7,0.7-0.7,1.8,0,2.5s1.8,0.7,2.5,0L5.6,41l2.5,2.5c0.7,0.7,1.8,0.7,2.5,0s0.7-1.8,0-2.5
		L8.1,38.6z"/>
</g>
</svg>
