<?xml version="1.0" encoding="utf-8"?>
<!-- Generator: Adobe Illustrator 19.0.0, SVG Export Plug-In . SVG Version: 6.00 Build 0)  -->
<svg version="1.2" baseProfile="tiny" id="Layer_1" xmlns="http://www.w3.org/2000/svg" xmlns:xlink="http://www.w3.org/1999/xlink"
	 x="0px" y="0px" width="36px" height="36px" viewBox="-6 8 36 36" xml:space="preserve">
<g id="cloud_copy_16_">
	<path fill-rule="evenodd" fill="#B8BFC0" d="M24.4,21.1L24.4,21.1L24.4,21.1c-0.1-3.9-3.1-7.1-6.9-7.1c-0.8,0-1.6,0.2-2.3,0.4
		c-1.4-2.8-4.1-4.7-7.4-4.7c-4.6,0-8.3,3.8-8.3,8.5c0,0,0,0.1,0,0.1C-3.6,19.1-6,22-6,25.4c0,3.9,3.1,7.1,6.9,7.1h23.5v0
		c3.1,0,5.5-2.5,5.5-5.7S27.5,21.1,24.4,21.1z"/>
</g>
<g id="Ellipse_2">
	<circle fill-rule="evenodd" fill="#B8BFC0" cx="2.6" cy="39.2" r="2.8"/>
</g>
<g id="Ellipse_2_copy">
	<circle fill-rule="evenodd" fill="#B8BFC0" cx="12.1" cy="39.2" r="2.8"/>
</g>
<g id="Ellipse_2_copy_2">
	<circle fill-rule="evenodd" fill="#B8BFC0" cx="21.5" cy="39.2" r="2.8"/>
</g>
</svg>
