<?xml version="1.0" encoding="utf-8"?>
<!-- Generator: Adobe Illustrator 19.0.0, SVG Export Plug-In . SVG Version: 6.00 Build 0)  -->
<svg version="1.2" baseProfile="tiny" id="Layer_1" xmlns="http://www.w3.org/2000/svg" xmlns:xlink="http://www.w3.org/1999/xlink"
	 x="0px" y="0px" width="36px" height="36px" viewBox="-6 8 36 36" xml:space="preserve">
<g id="cloud_copy_18_">
	<path fill-rule="evenodd" fill="#B8BFC0" d="M23,18.2L23,18.2L23,18.2c-0.1-3.5-2.8-6.4-6.2-6.4c-0.7,0-1.4,0.2-2.1,0.4
		C13.4,9.7,10.9,8,8,8c-4.1,0-7.5,3.4-7.5,7.7c0,0,0,0.1,0,0.1c-2.9,0.6-5,3.2-5,6.3c0,3.5,2.8,6.4,6.2,6.4H23v0c2.8,0,5-2.3,5-5.1
		C28,20.5,25.8,18.2,23,18.2z"/>
</g>
<g id="Rounded_Rectangle_1_copy">
	<path fill-rule="evenodd" fill="#B8BFC0" d="M6.4,38.8l2.3-2.3c0.6-0.6,0.6-1.7,0-2.3c-0.6-0.6-1.7-0.6-2.3,0l-2.3,2.3l-2.3-2.3
		c-0.6-0.6-1.7-0.6-2.3,0c-0.6,0.6-0.6,1.7,0,2.3l2.3,2.3l-2.3,2.3c-0.6,0.6-0.6,1.7,0,2.3c0.6,0.6,1.7,0.6,2.3,0l2.3-2.3l2.3,2.3
		C7,44,8.1,44,8.7,43.4c0.6-0.6,0.6-1.7,0-2.3L6.4,38.8z"/>
</g>
<g id="Rounded_Rectangle_1_copy_3">
	<path fill-rule="evenodd" fill="#B8BFC0" d="M21.8,38.8l2.3-2.3c0.6-0.6,0.6-1.7,0-2.3c-0.6-0.6-1.7-0.6-2.3,0l-2.3,2.3l-2.3-2.3
		c-0.6-0.6-1.7-0.6-2.3,0c-0.6,0.6-0.6,1.7,0,2.3l2.3,2.3l-2.3,2.3c-0.6,0.6-0.6,1.7,0,2.3c0.6,0.6,1.7,0.6,2.3,0l2.3-2.3l2.3,2.3
		c0.6,0.6,1.7,0.6,2.3,0c0.6-0.6,0.6-1.7,0-2.3L21.8,38.8z"/>
</g>
</svg>
