<?xml version="1.0" encoding="utf-8"?>
<!-- Generator: Adobe Illustrator 19.0.0, SVG Export Plug-In . SVG Version: 6.00 Build 0)  -->
<svg version="1.2" baseProfile="tiny" id="Layer_1" xmlns="http://www.w3.org/2000/svg" xmlns:xlink="http://www.w3.org/1999/xlink"
	 x="0px" y="0px" width="36px" height="36px" viewBox="-6 8 36 36" xml:space="preserve">
<g id="cloud_copy_20_">
	<path fill-rule="evenodd" fill="#B8BFC0" d="M23.5,17.8L23.5,17.8L23.5,17.8c0-3.4-2.7-6.1-6-6.1c-0.7,0-1.4,0.1-2,0.4
		C14.4,9.7,12,8,9.2,8C5.3,8,2,11.3,2,15.4c0,0,0,0.1,0,0.1c-2.7,0.6-4.8,3-4.8,6c0,3.4,2.7,6.1,6,6.1h20.3v0c2.6,0,4.8-2.2,4.8-4.9
		C28.3,20,26.2,17.8,23.5,17.8z"/>
</g>
<g id="Rounded_Rectangle_1_copy_2_">
	<path fill-rule="evenodd" fill="#B8BFC0" d="M1.1,37.4l2.2-2.2C4,34.6,4,33.6,3.3,33c-0.6-0.6-1.6-0.6-2.2,0l-2.2,2.2L-3.3,33
		c-0.6-0.6-1.6-0.6-2.2,0c-0.6,0.6-0.6,1.6,0,2.2l2.2,2.2l-2.2,2.2c-0.6,0.6-0.6,1.6,0,2.2c0.6,0.6,1.6,0.6,2.2,0l2.2-2.2l2.2,2.2
		c0.6,0.6,1.6,0.6,2.2,0s0.6-1.6,0-2.2L1.1,37.4z"/>
</g>
<g id="Rounded_Rectangle_1_copy_3_2_">
	<path fill-rule="evenodd" fill="#B8BFC0" d="M14.2,37.4l2.2-2.2c0.6-0.6,0.6-1.6,0-2.2c-0.6-0.6-1.6-0.6-2.2,0L12,35.2L9.8,33
		c-0.6-0.6-1.6-0.6-2.2,0c-0.6,0.6-0.6,1.6,0,2.2l2.2,2.2l-2.2,2.2c-0.6,0.6-0.6,1.6,0,2.2c0.6,0.6,1.6,0.6,2.2,0l2.2-2.2l2.2,2.2
		c0.6,0.6,1.6,0.6,2.2,0c0.6-0.6,0.6-1.6,0-2.2L14.2,37.4z"/>
</g>
<g id="Rounded_Rectangle_1_copy_6">
	<path fill-rule="evenodd" fill="#B8BFC0" d="M27.3,37.4l2.2-2.2c0.6-0.6,0.6-1.6,0-2.2c-0.6-0.6-1.6-0.6-2.2,0l-2.2,2.2L22.8,33
		c-0.6-0.6-1.6-0.6-2.2,0c-0.6,0.6-0.6,1.6,0,2.2l2.2,2.2l-2.2,2.2c-0.6,0.6-0.6,1.6,0,2.2c0.6,0.6,1.6,0.6,2.2,0l2.2-2.2l2.2,2.2
		c0.6,0.6,1.6,0.6,2.2,0c0.6-0.6,0.6-1.6,0-2.2L27.3,37.4z"/>
</g>
</svg>
