<?xml version="1.0" encoding="utf-8"?>
<!-- Generator: Adobe Illustrator 19.0.0, SVG Export Plug-In . SVG Version: 6.00 Build 0)  -->
<svg version="1.2" baseProfile="tiny" id="Layer_1" xmlns="http://www.w3.org/2000/svg" xmlns:xlink="http://www.w3.org/1999/xlink"
	 x="0px" y="0px" width="36px" height="36px" viewBox="-6 8 36 36" xml:space="preserve">
<g id="Forma_1_copy_4_">
	<path fill-rule="evenodd" fill="#FED420" d="M-0.5,15.2c0.5,0.5,1.2,0.5,1.7,0c0.5-0.5,0.5-1.2,0-1.7l-1.7-1.7
		c-0.5-0.5-1.2-0.5-1.7,0c-0.5,0.5-0.5,1.2,0,1.7L-0.5,15.2z M-1.2,21.2c0-0.7-0.5-1.2-1.2-1.2h-2.4C-5.5,20-6,20.5-6,21.2
		c0,0.7,0.5,1.2,1.2,1.2h2.4C-1.8,22.4-1.2,21.8-1.2,21.2z M7.2,12.8c0.7,0,1.2-0.5,1.2-1.2V9.2C8.4,8.5,7.8,8,7.2,8
		C6.5,8,6,8.5,6,9.2v2.4C6,12.2,6.5,12.8,7.2,12.8z M14.8,15.2l1.7-1.7c0.5-0.5,0.5-1.2,0-1.7c-0.5-0.5-1.2-0.5-1.7,0l-1.7,1.7
		c-0.5,0.5-0.5,1.2,0,1.7C13.6,15.7,14.3,15.7,14.8,15.2z M19.1,20h-2.4c-0.7,0-1.2,0.5-1.2,1.2c0,0.7,0.5,1.2,1.2,1.2h2.4
		c0.7,0,1.2-0.5,1.2-1.2C20.3,20.5,19.8,20,19.1,20z M14.8,27.1c-0.5-0.5-1.2-0.5-1.7,0c-0.5,0.5-0.5,1.2,0,1.7l1.7,1.7
		c0.5,0.5,1.2,0.5,1.7,0c0.5-0.5,0.5-1.2,0-1.7L14.8,27.1z M7.2,14c-4,0-7.2,3.2-7.2,7.2c0,4,3.2,7.2,7.2,7.2c4,0,7.2-3.2,7.2-7.2
		C14.3,17.2,11.1,14,7.2,14z M7.2,26c-2.6,0-4.8-2.1-4.8-4.8c0-2.6,2.1-4.8,4.8-4.8c2.6,0,4.8,2.1,4.8,4.8C12,23.8,9.8,26,7.2,26z
		 M7.2,29.5c-0.7,0-1.2,0.5-1.2,1.2v2.4c0,0.7,0.5,1.2,1.2,1.2c0.7,0,1.2-0.5,1.2-1.2v-2.4C8.4,30.1,7.8,29.5,7.2,29.5z M-0.5,27.1
		l-1.7,1.7c-0.5,0.5-0.5,1.2,0,1.7c0.5,0.5,1.2,0.5,1.7,0l1.7-1.7c0.5-0.5,0.5-1.2,0-1.7C0.8,26.6,0,26.6-0.5,27.1z"/>
</g>
<g id="cloud_copy_2_8_">
	<path fill-rule="evenodd" fill="#FFFFFF" d="M28.6,27.1L28.6,27.1L28.6,27.1c0-3.4-2.7-6.1-6.1-6.1c-0.7,0-1.4,0.1-2,0.4
		c-1.2-2.4-3.6-4.1-6.5-4.1c-4,0-7.3,3.3-7.3,7.4c0,0,0,0.1,0,0.1c-2.8,0.6-4.9,3.1-4.9,6C1.9,34.2,4.6,37,8,37h20.7v0
		c2.7,0,4.9-2.2,4.9-4.9S31.3,27.1,28.6,27.1z"/>
</g>
<g id="cloud_copy_22_">
	<path fill-rule="evenodd" fill="#72B1C0" d="M25.7,27.7L25.7,27.7L25.7,27.7c0-2.7-2.2-4.9-4.8-4.9c-0.6,0-1.1,0.1-1.6,0.3
		c-1-1.9-2.9-3.3-5.1-3.3c-3.2,0-5.8,2.7-5.8,5.9c0,0,0,0.1,0,0.1c-2.2,0.5-3.9,2.4-3.9,4.8c0,2.7,2.2,4.9,4.8,4.9h16.4v0
		c2.1,0,3.8-1.8,3.8-4C29.6,29.5,27.8,27.7,25.7,27.7z"/>
</g>
<g id="teardrop_copy_3_6_">
	<path fill-rule="evenodd" fill="#56EAF7" d="M12.2,40.2L10.6,37c-0.1-0.1-0.2-0.1-0.2,0l-1.6,3.2c-0.3,0.7-0.4,1.5,0,2.2
		c0.5,1.1,1.8,1.4,2.7,0.8C12.4,42.6,12.7,41.3,12.2,40.2z"/>
</g>
<g id="teardrop_copy_4_6_">
	<path fill-rule="evenodd" fill="#56EAF7" d="M18.8,40.2L17.2,37c-0.1-0.1-0.2-0.1-0.2,0l-1.6,3.2c-0.3,0.7-0.4,1.5,0,2.2
		c0.5,1.1,1.8,1.4,2.7,0.8C19,42.6,19.3,41.3,18.8,40.2z"/>
</g>
<g id="teardrop_copy_5_8_">
	<path fill-rule="evenodd" fill="#56EAF7" d="M25.3,40.2L23.7,37c-0.1-0.1-0.2-0.1-0.2,0l-1.6,3.2c-0.3,0.7-0.4,1.5,0,2.2
		c0.5,1.1,1.8,1.4,2.7,0.8C25.6,42.6,25.9,41.3,25.3,40.2z"/>
</g>
</svg>
