<?xml version="1.0" encoding="utf-8"?>
<!-- Generator: Adobe Illustrator 19.0.0, SVG Export Plug-In . SVG Version: 6.00 Build 0)  -->
<svg version="1.2" baseProfile="tiny" id="Layer_1" xmlns="http://www.w3.org/2000/svg" xmlns:xlink="http://www.w3.org/1999/xlink"
	 x="0px" y="0px" width="36px" height="36px" viewBox="-6 8 36 36" xml:space="preserve">
<g id="Forma_1_copy_6_">
	<path fill-rule="evenodd" fill="#FED420" d="M6,12.4c0.6,0,1.1-0.5,1.1-1.1V9.1C7.1,8.5,6.6,8,6,8C5.4,8,4.9,8.5,4.9,9.1v2.2
		C4.9,11.9,5.4,12.4,6,12.4z M-1,14.6c0.4,0.4,1.1,0.4,1.5,0C1,14.2,1,13.5,0.6,13l-1.5-1.5c-0.4-0.4-1.1-0.4-1.5,0
		c-0.4,0.4-0.4,1.1,0,1.5L-1,14.6z M-1.6,20c0-0.6-0.5-1.1-1.1-1.1h-2.2C-5.5,18.9-6,19.4-6,20c0,0.6,0.5,1.1,1.1,1.1h2.2
		C-2.1,21.1-1.6,20.6-1.6,20z M12.9,14.6l1.5-1.5c0.4-0.4,0.4-1.1,0-1.5c-0.4-0.4-1.1-0.4-1.5,0L11.4,13c-0.4,0.4-0.4,1.1,0,1.5
		C11.8,15,12.5,15,12.9,14.6z M6,13.4c-3.6,0-6.5,2.9-6.5,6.5c0,3.6,2.9,6.5,6.5,6.5c3.6,0,6.5-2.9,6.5-6.5
		C12.5,16.4,9.6,13.4,6,13.4z M6,24.3c-2.4,0-4.4-1.9-4.4-4.4c0-2.4,1.9-4.4,4.4-4.4s4.4,1.9,4.4,4.4C10.3,22.4,8.4,24.3,6,24.3z
		 M-1,25.4l-1.5,1.5c-0.4,0.4-0.4,1.1,0,1.5c0.4,0.4,1.1,0.4,1.5,0l1.5-1.5c0.4-0.4,0.4-1.1,0-1.5C0.2,24.9-0.5,24.9-1,25.4z
		 M14.4,26.9l-1.5-1.5c-0.4-0.4-1.1-0.4-1.5,0c-0.4,0.4-0.4,1.1,0,1.5l1.5,1.5c0.4,0.4,1.1,0.4,1.5,0C14.9,28,14.9,27.3,14.4,26.9z
		 M6,27.6c-0.6,0-1.1,0.5-1.1,1.1v2.2c0,0.6,0.5,1.1,1.1,1.1c0.6,0,1.1-0.5,1.1-1.1v-2.2C7.1,28.1,6.6,27.6,6,27.6z"/>
</g>
<g id="cloud_copy_2_10_">
	<path fill-rule="evenodd" fill="#FFFFFF" d="M25.5,25.3L25.5,25.3L25.5,25.3c0-3.1-2.5-5.6-5.5-5.6c-0.6,0-1.3,0.1-1.8,0.3
		c-1.1-2.2-3.3-3.7-5.9-3.7c-3.7,0-6.6,3-6.6,6.7c0,0,0,0.1,0,0.1c-2.5,0.5-4.4,2.8-4.4,5.5c0,3.1,2.5,5.6,5.5,5.6h18.8v0
		c2.4,0,4.4-2,4.4-4.5C29.9,27.3,27.9,25.3,25.5,25.3z"/>
</g>
<g id="cloud_copy_24_">
	<path fill-rule="evenodd" fill="#B8BFC0" d="M22.8,25.9L22.8,25.9L22.8,25.9c0-2.5-2-4.5-4.4-4.5c-0.5,0-1,0.1-1.5,0.3
		c-0.9-1.8-2.6-3-4.7-3c-2.9,0-5.2,2.4-5.2,5.4c0,0,0,0.1,0,0.1c-2,0.4-3.5,2.2-3.5,4.4c0,2.5,2,4.5,4.4,4.5h14.9v0
		c1.9,0,3.5-1.6,3.5-3.6S24.8,25.9,22.8,25.9z"/>
</g>
<g id="Rounded_Rectangle_1_copy_5">
	<path fill-rule="evenodd" fill="#B8BFC0" d="M11.2,40.3l1.6-1.6c0.4-0.4,0.4-1.2,0-1.6c-0.4-0.4-1.2-0.4-1.6,0l-1.6,1.6l-1.6-1.6
		c-0.4-0.4-1.2-0.4-1.6,0c-0.4,0.4-0.4,1.2,0,1.6l1.6,1.6L6.3,42c-0.4,0.4-0.4,1.2,0,1.6c0.4,0.4,1.2,0.4,1.6,0L9.6,42l1.6,1.6
		c0.4,0.4,1.2,0.4,1.6,0s0.4-1.2,0-1.6L11.2,40.3z"/>
</g>
<g id="Rounded_Rectangle_1_copy_5_1_">
	<path fill-rule="evenodd" fill="#B8BFC0" d="M22,40.3l1.6-1.6c0.4-0.4,0.4-1.2,0-1.6c-0.4-0.4-1.2-0.4-1.6,0l-1.6,1.6l-1.6-1.6
		c-0.4-0.4-1.2-0.4-1.6,0c-0.4,0.4-0.4,1.2,0,1.6l1.6,1.6L17.1,42c-0.4,0.4-0.4,1.2,0,1.6s1.2,0.4,1.6,0l1.6-1.6l1.6,1.6
		c0.4,0.4,1.2,0.4,1.6,0c0.4-0.4,0.4-1.2,0-1.6L22,40.3z"/>
</g>
</svg>
