<?xml version="1.0" encoding="utf-8"?>
<!-- Generator: Adobe Illustrator 19.0.0, SVG Export Plug-In . SVG Version: 6.00 Build 0)  -->
<svg version="1.2" baseProfile="tiny" id="Layer_1" xmlns="http://www.w3.org/2000/svg" xmlns:xlink="http://www.w3.org/1999/xlink"
	 x="0px" y="0px" width="36px" height="36px" viewBox="-6 8 36 36" xml:space="preserve">
<g id="cloud_copy_8_">
</g>
<g id="cloud_copy_28_">
	<path fill-rule="evenodd" fill="#72B1C0" d="M18,19.9L18,19.9L18,19.9c0-3.1-2.5-5.6-5.5-5.6c-0.6,0-1.2,0.1-1.8,0.3
		C9.7,12.5,7.5,11,4.9,11c-3.6,0-6.6,3-6.6,6.7c0,0,0,0.1,0,0.1C-4.1,18.4-6,20.6-6,23.3c0,3.1,2.4,5.6,5.5,5.6H18v0
		c2.4,0,4.4-2,4.4-4.5C22.4,21.9,20.4,19.9,18,19.9z"/>
</g>
<g id="Shape_3_copy_2">
	<polygon fill-rule="evenodd" fill="#FFFFFF" points="28.4,23 23.9,23 26.9,14 17.9,14 14.9,29.7 19.4,29.7 19.4,39.4 	"/>
</g>
<g id="Shape_3_copy">
	<polygon fill-rule="evenodd" fill="#FED420" points="29.9,24.4 25.9,24.4 28.5,17 20.6,17 17.9,29.3 21.9,29.3 21.9,37.9 	"/>
</g>
<g id="teardrop_copy_6">
	<path fill-rule="evenodd" fill="#56EAF7" d="M4.2,35.6L2.4,32c-0.1-0.1-0.2-0.1-0.3,0l-1.8,3.6c-0.4,0.8-0.4,1.7,0,2.5
		c0.6,1.2,2,1.6,3.1,0.9C4.4,38.4,4.8,36.8,4.2,35.6z"/>
</g>
<g id="teardrop_copy_6_1_">
	<path fill-rule="evenodd" fill="#56EAF7" d="M11.6,35.6L9.8,32c-0.1-0.1-0.2-0.1-0.3,0l-1.8,3.6c-0.4,0.8-0.4,1.7,0,2.5
		c0.6,1.2,2,1.6,3.1,0.9C11.9,38.4,12.3,36.8,11.6,35.6z"/>
</g>
</svg>
