<?xml version="1.0" encoding="utf-8"?>
<!-- Generator: Adobe Illustrator 19.0.0, SVG Export Plug-In . SVG Version: 6.00 Build 0)  -->
<svg version="1.2" baseProfile="tiny" id="Layer_1" xmlns="http://www.w3.org/2000/svg" xmlns:xlink="http://www.w3.org/1999/xlink"
	 x="0px" y="0px" width="36px" height="36px" viewBox="-6 8 36 36" xml:space="preserve">
<g id="sun_copy">
	<path fill-rule="evenodd" fill="#D2D2D2" d="M2.6,23.6c0-4.5,2.7-8.4,6.5-10.1c-1.3-0.6-2.8-0.9-4.3-0.9c-5.9,0-10.8,4.9-10.8,11
		c0,6.1,4.8,11,10.8,11c1.5,0,3-0.3,4.3-0.9C5.3,31.9,2.6,28.1,2.6,23.6z"/>
</g>
<g id="cloud_copy_6">
	<path fill-rule="evenodd" fill="#FFFFFF" d="M28.7,29.7L28.7,29.7L28.7,29.7c-0.1-3.6-2.9-6.4-6.3-6.4c-0.7,0-1.4,0.2-2.1,0.4
		c-1.3-2.5-3.8-4.2-6.7-4.2c-4.2,0-7.6,3.5-7.6,7.7c0,0,0,0.1,0,0.1c-2.9,0.6-5.1,3.2-5.1,6.3c0,3.5,2.8,6.4,6.3,6.4h21.5v0
		c2.8,0,5.1-2.3,5.1-5.1C33.7,32,31.5,29.7,28.7,29.7z"/>
</g>
<g id="cloud_copy_6_1_">
	<path fill-rule="evenodd" fill="#72B1C0" d="M25.6,30.4L25.6,30.4L25.6,30.4c0-2.8-2.3-5.1-5-5.1c-0.6,0-1.1,0.1-1.7,0.3
		c-1-2-3-3.4-5.3-3.4c-3.3,0-6,2.8-6,6.2c0,0,0,0.1,0,0.1c-2.3,0.5-4,2.5-4,5c0,2.8,2.2,5.1,5,5.1h17v0c2.2,0,4-1.8,4-4.1
		S27.8,30.4,25.6,30.4z"/>
</g>
</svg>
