<?xml version="1.0" encoding="utf-8"?>
<!-- Generator: Adobe Illustrator 19.0.0, SVG Export Plug-In . SVG Version: 6.00 Build 0)  -->
<svg version="1.2" baseProfile="tiny" id="Layer_1" xmlns="http://www.w3.org/2000/svg" xmlns:xlink="http://www.w3.org/1999/xlink"
	 x="0px" y="0px" width="36px" height="36px" viewBox="-6 8 36 36" xml:space="preserve">
<g id="sun_copy_3_">
	<path fill-rule="evenodd" fill="#D2D2D2" d="M3.1,21.9c0-4.5,2.8-8.3,6.9-10C8.6,11.3,7.1,11,5.4,11C-0.9,11-6,15.9-6,21.9
		c0,6,5.1,10.9,11.4,10.9c1.6,0,3.2-0.3,4.6-0.9C6,30.3,3.1,26.4,3.1,21.9z"/>
</g>
<g id="cloud_copy_7">
	<path fill-rule="evenodd" fill="#FFFFFF" d="M29.4,27.7L29.4,27.7L29.4,27.7c-0.1-3.8-3-6.8-6.7-6.8c-0.8,0-1.5,0.2-2.2,0.4
		c-1.3-2.7-4-4.5-7.2-4.5c-4.5,0-8.1,3.7-8.1,8.2c0,0,0,0.1,0,0.1l1.3,13.5h22.8v0c3,0,5.4-2.4,5.4-5.5
		C34.7,30.1,32.3,27.7,29.4,27.7z"/>
</g>
<g id="cloud_copy_7_1_">
	<path fill-rule="evenodd" fill="#72B1C0" d="M26.1,28.4L26.1,28.4L26.1,28.4c0-3-2.4-5.4-5.3-5.4c-0.6,0-1.2,0.1-1.8,0.3
		c-1.1-2.1-3.2-3.6-5.7-3.6c-3.5,0-6.4,2.9-6.4,6.5c0,0,0,0.1,0,0.1c-2.4,0.5-4.3,2.7-4.3,5.3c0,3,2.4,5.5,5.3,5.5h18.1v0
		c2.3,0,4.3-2,4.3-4.4S28.5,28.4,26.1,28.4z"/>
</g>
<g id="cloud_copy_7_2_">
	<path fill-rule="evenodd" fill="#FFFFFF" d="M17.8,32.8L17.8,32.8L17.8,32.8c0-2.5-2.2-4.5-4.8-4.5c-0.6,0-1.1,0.1-1.6,0.3
		c-0.9-1.8-1.4-3-3.6-3c-3.2,0-5.7,2.4-5.7,5.5c0,0,0,0.1,0,0.1c-2.2,0.4-3.8,2.3-3.8,4.5c0,2.5,2.1,4.5,4.8,4.5h14.7v0
		c2.1,0,3.8-1.6,3.8-3.6S19.9,32.8,17.8,32.8z"/>
</g>
<g id="cloud_copy_7_3_">
	<path fill-rule="evenodd" fill="#72B1C0" d="M16,34.3L16,34.3L16,34.3c0-2-1.5-3.6-3.4-3.6c-0.4,0-0.8,0.1-1.1,0.2
		c-0.7-1.4-2-2.4-3.6-2.4c-2.2,0-4,2-4,4.4c0,0,0,0,0,0.1c-1.5,0.3-2.7,1.8-2.7,3.6c0,2,1.5,3.6,3.4,3.6H16v0c1.5,0,2.7-1.3,2.7-2.9
		C18.7,35.6,17.5,34.3,16,34.3z"/>
</g>
</svg>
