<?xml version="1.0" encoding="utf-8"?>
<!-- Generator: Adobe Illustrator 19.0.0, SVG Export Plug-In . SVG Version: 6.00 Build 0)  -->
<svg version="1.2" baseProfile="tiny" id="Layer_1" xmlns="http://www.w3.org/2000/svg" xmlns:xlink="http://www.w3.org/1999/xlink"
	 x="0px" y="0px" width="36px" height="36px" viewBox="-6 8 36 36" xml:space="preserve">
<g id="cloud_copy_4_4_">
	<path fill-rule="evenodd" fill="#72B1C0" d="M24.3,22.1L24.3,22.1L24.3,22.1c-0.1-3.9-3.1-7-6.9-7c-0.8,0-1.6,0.2-2.3,0.4
		C13.7,12.9,11,11,7.8,11c-4.6,0-8.3,3.8-8.3,8.4c0,0,0,0.1,0,0.1C-3.6,20.2-6,23-6,26.4c0,3.9,3.1,7,6.9,7h23.4v0
		c3,0,5.5-2.5,5.5-5.6C29.8,24.7,27.3,22.1,24.3,22.1z"/>
</g>
<g id="cloud_copy_2_12_">
	<path fill-rule="evenodd" fill="#FFFFFF" d="M21.2,29.8c0,0,0-0.1,0-0.1c0-3.7-2.8-6.7-6.2-6.7c-2.4,0-4.5,1.5-5.5,3.7
		c-0.5-0.2-1.1-0.3-1.7-0.3c-2.8,0-5.1,2.5-5.2,5.5h0v0c-2.3,0-4.1,2-4.1,4.5c0,2.5,1.8,4.5,4.1,4.5v0h17.6c2.9,0,5.2-2.5,5.2-5.6
		C25.3,32.5,23.5,30.3,21.2,29.8z"/>
</g>
<g id="cloud_copy_30_">
	<path fill-rule="evenodd" fill="#72B1C0" d="M19.1,31.1C19.1,31,19.1,31,19.1,31.1c0-2.9-2.1-5.1-4.8-5.1c-1.9,0-3.5,1.1-4.3,2.8
		c-0.4-0.2-0.9-0.3-1.3-0.3c-2.2,0-4,1.8-4,4.1h0v0c-1.8,0-3.2,1.5-3.2,3.4s1.4,3.4,3.2,3.4v0h13.7c2.2,0,4-1.9,4-4.2
		C22.3,33.1,20.9,31.4,19.1,31.1z"/>
</g>
</svg>
