<?xml version="1.0" encoding="utf-8"?>
<!-- Generator: Adobe Illustrator 19.0.0, SVG Export Plug-In . SVG Version: 6.00 Build 0)  -->
<svg version="1.2" baseProfile="tiny" id="Layer_1" xmlns="http://www.w3.org/2000/svg" xmlns:xlink="http://www.w3.org/1999/xlink"
	 x="0px" y="0px" width="36px" height="36px" viewBox="-6 8 36 36" xml:space="preserve">
<g id="cloud_copy_5">
	<path fill="#72B1C0" d="M23,18.8L23,18.8L23,18.8c-0.1-3.7-3-6.7-6.6-6.7c-0.8,0-1.5,0.2-2.2,0.4C12.9,9.8,10.3,8,7.2,8
		c-4.4,0-7.9,3.6-7.9,8.1v0.1c-3,0.6-5.3,3.4-5.3,6.6c0,3.7,3,6.8,6.6,6.8H23l0,0c2.9,0,5.3-2.4,5.3-5.4S25.9,18.8,23,18.8z"/>
</g>
<g id="Rounded_Rectangle_1_copy_2">
	<path fill="#56EAF7" d="M5.9,34.7c-0.3-1-1.2-1.5-2.2-1.3c-1,0.3-1.5,1.2-1.3,2.2l1.4,7C4,43.6,5,44.2,6,44c1-0.3,1.5-1.2,1.3-2.2
		L5.9,34.7z M13.1,34.7c-0.3-1-1.2-1.5-2.2-1.3c-1,0.3-1.5,1.2-1.3,2.2l1.4,7c0.3,1,1.2,1.5,2.2,1.3c1-0.3,1.5-1.2,1.3-2.2
		L13.1,34.7z M21.7,41.7l-1.4-7c-0.3-1-1.2-1.5-2.2-1.3c-1,0.3-1.5,1.2-1.3,2.2l1.4,7c0.3,1,1.2,1.5,2.2,1.3
		C21.4,43.7,22,42.7,21.7,41.7z"/>
</g>
</svg>
