<?xml version="1.0" encoding="utf-8"?>
<!-- Generator: Adobe Illustrator 19.0.0, SVG Export Plug-In . SVG Version: 6.00 Build 0)  -->
<svg version="1.2" baseProfile="tiny" id="Layer_1" xmlns="http://www.w3.org/2000/svg" xmlns:xlink="http://www.w3.org/1999/xlink"
	 x="0px" y="0px" width="36px" height="36px" viewBox="-6 8 36 36" xml:space="preserve">
<g id="sun_copy_7_">
	<path fill-rule="evenodd" fill="#FED420" d="M4.2,18.6c0-4.4,2.6-8.1,6.3-9.7C9.2,8.3,7.8,8,6.3,8C0.5,8-4.1,12.8-4.1,18.6
		c0,5.9,4.7,10.6,10.4,10.6c1.5,0,2.9-0.3,4.2-0.9C6.8,26.7,4.2,23,4.2,18.6z"/>
</g>
<g id="cloud_copy_7_22_">
	<path fill-rule="evenodd" fill="#FFFFFF" d="M28.1,23.2L28.1,23.2L28.1,23.2C28,19.8,25.3,17,22,17c-0.7,0-1.4,0.2-2,0.4
		c-1.2-2.4-3.7-4.1-6.5-4.1c-4.1,0-7.4,3.3-7.4,7.5c0,0,0,0.1,0,0.1l1.2,12.3h20.8v0c2.7,0,4.9-2.2,4.9-5
		C33,25.5,30.8,23.2,28.1,23.2z"/>
</g>
<g id="cloud_copy_7_20_">
	<path fill-rule="evenodd" fill="#72B1C0" d="M25.1,23.9L25.1,23.9L25.1,23.9c0-2.8-2.2-4.9-4.8-4.9c-0.6,0-1.1,0.1-1.6,0.3
		c-1-1.9-2.9-3.3-5.2-3.3c-3.2,0-5.8,2.7-5.8,6c0,0,0,0.1,0,0.1c-2.2,0.5-3.9,2.5-3.9,4.9c0,2.7,2.2,5,4.8,5h16.5v0
		c2.1,0,3.9-1.8,3.9-4C29,25.7,27.3,23.9,25.1,23.9z"/>
</g>
<g id="cloud_copy_7_18_">
	<path fill-rule="evenodd" fill="#FFFFFF" d="M17.6,27.9L17.6,27.9L17.6,27.9c0-2.3-2-4.1-4.3-4.1c-0.5,0-1,0.1-1.4,0.3
		c-0.9-1.6-1.3-2.7-3.3-2.7c-2.9,0-5.2,2.2-5.2,5c0,0,0,0.1,0,0.1c-2,0.4-3.5,2.1-3.5,4.1c0,2.3,1.9,4.1,4.3,4.1h13.4v0
		c1.9,0,3.5-1.5,3.5-3.3S19.5,27.9,17.6,27.9z"/>
</g>
<g id="cloud_copy_7_16_">
	<path fill-rule="evenodd" fill="#72B1C0" d="M15.9,29.2L15.9,29.2L15.9,29.2c0-1.8-1.4-3.3-3.1-3.3c-0.4,0-0.7,0.1-1,0.2
		c-0.6-1.3-1.8-2.2-3.3-2.2c-2,0-3.7,1.8-3.7,4c0,0,0,0,0,0.1c-1.4,0.3-2.5,1.6-2.5,3.3c0,1.8,1.4,3.3,3.1,3.3h10.4v0
		c1.4,0,2.5-1.2,2.5-2.7C18.4,30.4,17.3,29.2,15.9,29.2z"/>
</g>
<g id="teardrop_copy_7">
	<path fill-rule="evenodd" fill="#56EAF7" d="M8.8,40.5l-1.6-3.2c-0.1-0.1-0.2-0.1-0.2,0l-1.6,3.2c-0.3,0.7-0.4,1.5,0,2.3
		c0.5,1.1,1.8,1.5,2.7,0.8C9.1,42.9,9.4,41.5,8.8,40.5z"/>
</g>
<g id="teardrop_copy_7_1_">
	<path fill-rule="evenodd" fill="#56EAF7" d="M15.5,40.5l-1.6-3.2c-0.1-0.1-0.2-0.1-0.2,0L12,40.5c-0.3,0.7-0.4,1.5,0,2.3
		c0.5,1.1,1.8,1.5,2.7,0.8C15.7,42.9,16,41.5,15.5,40.5z"/>
</g>
</svg>
