<?xml version="1.0" encoding="utf-8"?>
<!-- Generator: Adobe Illustrator 19.0.0, SVG Export Plug-In . SVG Version: 6.00 Build 0)  -->
<svg version="1.2" baseProfile="tiny" id="Layer_1" xmlns="http://www.w3.org/2000/svg" xmlns:xlink="http://www.w3.org/1999/xlink"
	 x="0px" y="0px" width="36px" height="36px" viewBox="-6 8 36 36" xml:space="preserve">
<g id="cloud_copy_18_">
	<path fill="#B8BFC0" d="M23.2,18.4L23.2,18.4L23.2,18.4C23.1,14.9,20.4,12,17,12c-0.7,0-1.4,0.2-2.1,0.4c-1.3-2.5-3.8-4.2-6.7-4.2
		c-4.1,0-7.5,3.4-7.5,7.7V16c-2.9,0.6-5,3.2-5,6.3c0,3.5,2.8,6.4,6.2,6.4h21.3l0,0c2.8,0,5-2.3,5-5.1C28.2,20.6,26,18.4,23.2,18.4z"
		/>
</g>
<g id="Rounded_Rectangle_1_copy">
	<path fill="#B8BFC0" d="M6.6,39l2.3-2.3c0.6-0.6,0.6-1.7,0-2.3s-1.7-0.6-2.3,0l-2.3,2.3L2,34.4c-0.6-0.6-1.7-0.6-2.3,0
		s-0.6,1.7,0,2.3L2,39l-2.3,2.3c-0.6,0.6-0.6,1.7,0,2.3s1.7,0.6,2.3,0l2.3-2.3l2.3,2.3c0.6,0.6,1.7,0.6,2.3,0s0.6-1.7,0-2.3L6.6,39z
		"/>
</g>
<g id="Rounded_Rectangle_1_copy_3">
	<path fill="#B8BFC0" d="M22,39l2.3-2.3c0.6-0.6,0.6-1.7,0-2.3s-1.7-0.6-2.3,0l-2.3,2.3l-2.3-2.3c-0.6-0.6-1.7-0.6-2.3,0
		s-0.6,1.7,0,2.3l2.3,2.3l-2.3,2.3c-0.6,0.6-0.6,1.7,0,2.3s1.7,0.6,2.3,0l2.3-2.3l2.3,2.3c0.6,0.6,1.7,0.6,2.3,0
		c0.6-0.6,0.6-1.7,0-2.3L22,39z"/>
</g>
</svg>
