<svg version="1.1" xmlns="http://www.w3.org/2000/svg" xmlns:xlink="http://www.w3.org/1999/xlink" x="0px" y="0px" width="200px"
	 height="42.5px" viewBox="0 0 200 42.5" style="enable-background:new 0 0 200 42.5;" xml:space="preserve">
<style type="text/css">
	.st0{opacity:1;fill:#FFFFFF;}
	.st1{opacity:1;fill:#FFFFFF;}
	.st2{fill:#E95A1A;}
	.st3{clip-path:url(#SVGID_2_);fill:#FFFFFF;}
</style>
<g id="HVG_logo_group">
	<g>
		<path class="st0" d="M4.1,35.4v0.7h-1v3.2c0,0.1,0,0.2,0,0.2c0,0.1,0,0.1,0.1,0.1c0,0,0.1,0.1,0.2,0.1c0.1,0,0.2,0,0.3,0h0.4v0.7
			H3.4c-0.2,0-0.4,0-0.6,0c-0.2,0-0.3-0.1-0.4-0.2c-0.1-0.1-0.2-0.2-0.2-0.3c0-0.1-0.1-0.3-0.1-0.6v-3.2H1.4v-0.7h0.9v-1.5h0.8v1.5
			H4.1z"/>
		<path class="st0" d="M6.6,36.9C6.7,36.6,6.8,36.3,7,36c0.2-0.2,0.5-0.4,0.8-0.6c0.3-0.1,0.7-0.2,1.1-0.2c0.4,0,0.8,0.1,1.1,0.2
			c0.3,0.1,0.6,0.3,0.8,0.6c0.2,0.2,0.4,0.5,0.5,0.8c0.1,0.3,0.2,0.7,0.2,1s-0.1,0.7-0.2,1c-0.1,0.3-0.3,0.6-0.5,0.8
			c-0.2,0.2-0.5,0.4-0.8,0.6c-0.3,0.1-0.7,0.2-1.1,0.2c-0.4,0-0.8-0.1-1.1-0.2c-0.3-0.1-0.6-0.3-0.8-0.6c-0.2-0.2-0.4-0.5-0.5-0.8
			c-0.1-0.3-0.2-0.7-0.2-1S6.5,37.2,6.6,36.9z M7.4,38.8c0.1,0.2,0.2,0.4,0.3,0.6c0.1,0.2,0.3,0.3,0.5,0.4c0.2,0.1,0.4,0.1,0.6,0.1
			c0.2,0,0.4,0,0.6-0.1c0.2-0.1,0.4-0.2,0.5-0.4c0.1-0.2,0.3-0.4,0.3-0.6c0.1-0.2,0.1-0.5,0.1-0.8c0-0.3,0-0.6-0.1-0.8
			c-0.1-0.2-0.2-0.4-0.3-0.6c-0.1-0.2-0.3-0.3-0.5-0.4C9.3,36.1,9.1,36,8.9,36c-0.2,0-0.4,0-0.6,0.1c-0.2,0.1-0.4,0.2-0.5,0.4
			c-0.1,0.2-0.3,0.4-0.3,0.6c-0.1,0.2-0.1,0.5-0.1,0.8C7.3,38.2,7.3,38.5,7.4,38.8z"/>
		<path class="st0" d="M14.9,33.5v2.6h0c0.1-0.3,0.4-0.5,0.6-0.6c0.3-0.1,0.6-0.2,1-0.2c0.4,0,0.7,0.1,1,0.2
			c0.3,0.1,0.5,0.3,0.7,0.6c0.2,0.2,0.3,0.5,0.4,0.9c0.1,0.3,0.1,0.7,0.1,1c0,0.4,0,0.7-0.1,1c-0.1,0.3-0.2,0.6-0.4,0.8
			c-0.2,0.2-0.4,0.4-0.7,0.6c-0.3,0.1-0.6,0.2-1,0.2c-0.1,0-0.3,0-0.4,0c-0.2,0-0.3-0.1-0.5-0.1c-0.2-0.1-0.3-0.1-0.4-0.2
			c-0.1-0.1-0.2-0.2-0.3-0.4h0v0.7H14v-7H14.9z M17.9,37.2c-0.1-0.2-0.2-0.4-0.3-0.6c-0.1-0.2-0.3-0.3-0.5-0.4
			c-0.2-0.1-0.4-0.2-0.7-0.2c-0.3,0-0.5,0.1-0.7,0.2c-0.2,0.1-0.4,0.3-0.5,0.4c-0.1,0.2-0.2,0.4-0.3,0.6c-0.1,0.2-0.1,0.5-0.1,0.7
			c0,0.2,0,0.5,0.1,0.7c0.1,0.2,0.2,0.4,0.3,0.6c0.1,0.2,0.3,0.3,0.5,0.4c0.2,0.1,0.4,0.2,0.7,0.2c0.3,0,0.5-0.1,0.7-0.2
			c0.2-0.1,0.3-0.3,0.5-0.4c0.1-0.2,0.2-0.4,0.3-0.6c0.1-0.2,0.1-0.5,0.1-0.7C18,37.6,17.9,37.4,17.9,37.2z"/>
		<path class="st0" d="M21.4,36.9c0.1-0.3,0.3-0.6,0.5-0.8c0.2-0.2,0.5-0.4,0.8-0.6c0.3-0.1,0.7-0.2,1.1-0.2c0.4,0,0.8,0.1,1.1,0.2
			c0.3,0.1,0.6,0.3,0.8,0.6c0.2,0.2,0.4,0.5,0.5,0.8c0.1,0.3,0.2,0.7,0.2,1s-0.1,0.7-0.2,1c-0.1,0.3-0.3,0.6-0.5,0.8
			c-0.2,0.2-0.5,0.4-0.8,0.6c-0.3,0.1-0.7,0.2-1.1,0.2c-0.4,0-0.8-0.1-1.1-0.2c-0.3-0.1-0.6-0.3-0.8-0.6c-0.2-0.2-0.4-0.5-0.5-0.8
			c-0.1-0.3-0.2-0.7-0.2-1S21.3,37.2,21.4,36.9z M22.2,38.8c0.1,0.2,0.2,0.4,0.3,0.6c0.1,0.2,0.3,0.3,0.5,0.4
			c0.2,0.1,0.4,0.1,0.6,0.1c0.2,0,0.4,0,0.6-0.1c0.2-0.1,0.4-0.2,0.5-0.4c0.1-0.2,0.3-0.4,0.3-0.6c0.1-0.2,0.1-0.5,0.1-0.8
			c0-0.3,0-0.6-0.1-0.8c-0.1-0.2-0.2-0.4-0.3-0.6c-0.1-0.2-0.3-0.3-0.5-0.4c-0.2-0.1-0.4-0.1-0.6-0.1c-0.2,0-0.4,0-0.6,0.1
			c-0.2,0.1-0.4,0.2-0.5,0.4c-0.1,0.2-0.3,0.4-0.3,0.6c-0.1,0.2-0.1,0.5-0.1,0.8C22.1,38.2,22.2,38.5,22.2,38.8z"/>
		<path class="st0" d="M29.6,35.4v1.1h0c0.2-0.4,0.5-0.7,0.7-0.9c0.3-0.2,0.7-0.3,1.1-0.3v0.9c-0.3,0-0.6,0-0.9,0.1
			c-0.2,0.1-0.4,0.2-0.6,0.4c-0.1,0.2-0.2,0.4-0.3,0.6c-0.1,0.3-0.1,0.5-0.1,0.9v2.3h-0.8v-5.1H29.6z"/>
		<path class="st0" d="M36.4,36.1h-2.9v-0.7h4V36l-3.1,3.8h3.2v0.7h-4.3v-0.6L36.4,36.1z"/>
		<path class="st0" d="M44.7,40.5c-0.1,0.1-0.3,0.1-0.6,0.1c-0.2,0-0.4-0.1-0.5-0.2c-0.1-0.1-0.2-0.3-0.2-0.6
			c-0.2,0.3-0.5,0.5-0.8,0.6c-0.3,0.1-0.6,0.2-1,0.2c-0.2,0-0.4,0-0.7-0.1c-0.2-0.1-0.4-0.1-0.5-0.2c-0.2-0.1-0.3-0.3-0.4-0.4
			c-0.1-0.2-0.1-0.4-0.1-0.7c0-0.3,0-0.5,0.1-0.7c0.1-0.2,0.2-0.3,0.4-0.4c0.2-0.1,0.3-0.2,0.6-0.3c0.2-0.1,0.4-0.1,0.6-0.1
			c0.2,0,0.4-0.1,0.7-0.1c0.2,0,0.4-0.1,0.5-0.1c0.2,0,0.3-0.1,0.4-0.2c0.1-0.1,0.1-0.2,0.1-0.4c0-0.2,0-0.3-0.1-0.4
			c-0.1-0.1-0.2-0.2-0.3-0.3c-0.1-0.1-0.2-0.1-0.4-0.1c-0.1,0-0.3,0-0.4,0c-0.4,0-0.6,0.1-0.9,0.2c-0.2,0.1-0.4,0.4-0.4,0.8h-0.8
			c0-0.3,0.1-0.6,0.2-0.8c0.1-0.2,0.3-0.4,0.5-0.5c0.2-0.1,0.4-0.2,0.7-0.3c0.3-0.1,0.5-0.1,0.8-0.1c0.2,0,0.5,0,0.7,0
			c0.2,0,0.4,0.1,0.6,0.2c0.2,0.1,0.3,0.2,0.4,0.4c0.1,0.2,0.2,0.4,0.2,0.7v2.6c0,0.2,0,0.3,0,0.4c0,0.1,0.1,0.1,0.2,0.1
			c0.1,0,0.2,0,0.3,0V40.5z M43.3,37.8c-0.1,0.1-0.2,0.1-0.4,0.2c-0.2,0-0.3,0.1-0.5,0.1c-0.2,0-0.4,0-0.6,0.1
			c-0.2,0-0.4,0.1-0.5,0.1c-0.2,0.1-0.3,0.2-0.4,0.3c-0.1,0.1-0.1,0.3-0.1,0.5c0,0.1,0,0.3,0.1,0.3c0.1,0.1,0.1,0.2,0.2,0.2
			c0.1,0.1,0.2,0.1,0.3,0.1c0.1,0,0.2,0,0.4,0c0.3,0,0.5,0,0.7-0.1c0.2-0.1,0.4-0.2,0.5-0.3c0.1-0.1,0.2-0.2,0.3-0.4
			c0.1-0.1,0.1-0.3,0.1-0.4V37.8z M43.6,32.9l-1.4,1.6h-0.6l0.9-1.6H43.6z"/>
		<path class="st0" d="M47.8,39.3c0.1,0.1,0.2,0.2,0.3,0.3c0.1,0.1,0.3,0.1,0.4,0.2c0.2,0,0.3,0,0.5,0c0.1,0,0.3,0,0.4,0
			c0.1,0,0.3-0.1,0.4-0.1c0.1-0.1,0.2-0.1,0.3-0.2c0.1-0.1,0.1-0.2,0.1-0.4c0-0.2-0.1-0.4-0.2-0.5c-0.2-0.1-0.4-0.2-0.6-0.3
			c-0.2-0.1-0.5-0.1-0.8-0.2c-0.3-0.1-0.6-0.1-0.8-0.2c-0.2-0.1-0.5-0.2-0.6-0.4c-0.2-0.2-0.2-0.4-0.2-0.8c0-0.3,0.1-0.5,0.2-0.7
			c0.1-0.2,0.3-0.3,0.4-0.4c0.2-0.1,0.4-0.2,0.6-0.3c0.2-0.1,0.5-0.1,0.7-0.1c0.3,0,0.6,0,0.8,0.1c0.2,0,0.5,0.1,0.6,0.3
			c0.2,0.1,0.3,0.3,0.4,0.5c0.1,0.2,0.2,0.5,0.2,0.8h-0.8c0-0.2-0.1-0.3-0.1-0.4c-0.1-0.1-0.2-0.2-0.3-0.3c-0.1-0.1-0.2-0.1-0.4-0.1
			c-0.1,0-0.3,0-0.4,0c-0.1,0-0.3,0-0.4,0c-0.1,0-0.2,0.1-0.3,0.1c-0.1,0-0.2,0.1-0.3,0.2c-0.1,0.1-0.1,0.2-0.1,0.3
			c0,0.1,0.1,0.3,0.2,0.4c0.1,0.1,0.2,0.2,0.4,0.2c0.2,0.1,0.3,0.1,0.5,0.2c0.2,0,0.4,0.1,0.6,0.1c0.2,0,0.4,0.1,0.6,0.2
			c0.2,0.1,0.4,0.2,0.5,0.3c0.2,0.1,0.3,0.2,0.4,0.4c0.1,0.2,0.1,0.4,0.1,0.6c0,0.3-0.1,0.6-0.2,0.8c-0.1,0.2-0.3,0.4-0.5,0.5
			c-0.2,0.1-0.4,0.2-0.7,0.3c-0.3,0-0.5,0.1-0.8,0.1c-0.3,0-0.6,0-0.8-0.1c-0.3-0.1-0.5-0.2-0.7-0.3c-0.2-0.1-0.4-0.3-0.5-0.5
			c-0.1-0.2-0.2-0.5-0.2-0.8h0.8C47.7,39.1,47.7,39.2,47.8,39.3z"/>
		<path class="st0" d="M58.3,37.4c0-0.2,0.1-0.3,0.2-0.4c0.1-0.1,0.3-0.2,0.4-0.2c0.2,0,0.3,0.1,0.4,0.2c0.1,0.1,0.2,0.3,0.2,0.4
			c0,0.2-0.1,0.3-0.2,0.4C59.2,38,59.1,38,58.9,38c-0.2,0-0.3-0.1-0.4-0.2C58.3,37.7,58.3,37.6,58.3,37.4z"/>
		<path class="st0" d="M67.8,33.5v2.7h0c0.1-0.2,0.2-0.3,0.3-0.4c0.1-0.1,0.3-0.2,0.4-0.3c0.1-0.1,0.3-0.1,0.5-0.2
			c0.2,0,0.3,0,0.5,0c0.3,0,0.6,0,0.8,0.1c0.2,0.1,0.4,0.2,0.5,0.4c0.1,0.2,0.2,0.4,0.3,0.6c0.1,0.2,0.1,0.5,0.1,0.8v3.3h-0.8V37
			c0-0.3-0.1-0.6-0.3-0.7c-0.2-0.2-0.4-0.3-0.8-0.3c-0.3,0-0.5,0-0.7,0.1c-0.2,0.1-0.3,0.2-0.5,0.3c-0.1,0.1-0.2,0.3-0.3,0.5
			c-0.1,0.2-0.1,0.4-0.1,0.6v2.9H67v-7H67.8z"/>
		<path class="st0" d="M74.9,35.4v1.1h0c0.2-0.4,0.5-0.7,0.7-0.9c0.3-0.2,0.7-0.3,1.1-0.3v0.9c-0.3,0-0.6,0-0.9,0.1
			c-0.2,0.1-0.4,0.2-0.6,0.4c-0.1,0.2-0.2,0.4-0.3,0.6c-0.1,0.3-0.1,0.5-0.1,0.9v2.3h-0.8v-5.1H74.9z"/>
		<path class="st0" d="M84.4,33.5v2.6h0c0.1-0.3,0.4-0.5,0.6-0.6c0.3-0.1,0.6-0.2,1-0.2c0.4,0,0.7,0.1,1,0.2
			c0.3,0.1,0.5,0.3,0.7,0.6c0.2,0.2,0.3,0.5,0.4,0.9c0.1,0.3,0.1,0.7,0.1,1c0,0.4,0,0.7-0.1,1c-0.1,0.3-0.2,0.6-0.4,0.8
			c-0.2,0.2-0.4,0.4-0.7,0.6c-0.3,0.1-0.6,0.2-1,0.2c-0.1,0-0.3,0-0.4,0c-0.2,0-0.3-0.1-0.5-0.1c-0.2-0.1-0.3-0.1-0.4-0.2
			c-0.1-0.1-0.2-0.2-0.3-0.4h0v0.7h-0.8v-7H84.4z M87.4,37.2c-0.1-0.2-0.2-0.4-0.3-0.6c-0.1-0.2-0.3-0.3-0.5-0.4
			c-0.2-0.1-0.4-0.2-0.7-0.2c-0.3,0-0.5,0.1-0.7,0.2c-0.2,0.1-0.4,0.3-0.5,0.4c-0.1,0.2-0.2,0.4-0.3,0.6c-0.1,0.2-0.1,0.5-0.1,0.7
			c0,0.2,0,0.5,0.1,0.7c0.1,0.2,0.2,0.4,0.3,0.6c0.1,0.2,0.3,0.3,0.5,0.4c0.2,0.1,0.4,0.2,0.7,0.2c0.3,0,0.5-0.1,0.7-0.2
			c0.2-0.1,0.3-0.3,0.5-0.4c0.1-0.2,0.2-0.4,0.3-0.6c0.1-0.2,0.1-0.5,0.1-0.7C87.5,37.6,87.4,37.4,87.4,37.2z"/>
		<path class="st0" d="M91.8,35.4v1.1h0c0.2-0.4,0.5-0.7,0.7-0.9c0.3-0.2,0.7-0.3,1.1-0.3v0.9c-0.3,0-0.6,0-0.9,0.1
			c-0.2,0.1-0.4,0.2-0.6,0.4c-0.1,0.2-0.2,0.4-0.3,0.6c-0.1,0.3-0.1,0.5-0.1,0.9v2.3H91v-5.1H91.8z"/>
		<path class="st0" d="M100.5,40.5c-0.1,0.1-0.3,0.1-0.6,0.1c-0.2,0-0.4-0.1-0.5-0.2c-0.1-0.1-0.2-0.3-0.2-0.6
			c-0.2,0.3-0.5,0.5-0.8,0.6c-0.3,0.1-0.6,0.2-1,0.2c-0.2,0-0.4,0-0.7-0.1c-0.2-0.1-0.4-0.1-0.5-0.2c-0.2-0.1-0.3-0.3-0.4-0.4
			c-0.1-0.2-0.1-0.4-0.1-0.7c0-0.3,0-0.5,0.1-0.7c0.1-0.2,0.2-0.3,0.4-0.4c0.2-0.1,0.3-0.2,0.6-0.3s0.4-0.1,0.6-0.1
			c0.2,0,0.4-0.1,0.7-0.1c0.2,0,0.4-0.1,0.5-0.1c0.2,0,0.3-0.1,0.4-0.2c0.1-0.1,0.1-0.2,0.1-0.4c0-0.2,0-0.3-0.1-0.4
			c-0.1-0.1-0.2-0.2-0.3-0.3c-0.1-0.1-0.2-0.1-0.4-0.1c-0.1,0-0.3,0-0.4,0c-0.4,0-0.6,0.1-0.9,0.2c-0.2,0.1-0.4,0.4-0.4,0.8h-0.8
			c0-0.3,0.1-0.6,0.2-0.8c0.1-0.2,0.3-0.4,0.5-0.5c0.2-0.1,0.4-0.2,0.7-0.3c0.3-0.1,0.5-0.1,0.8-0.1c0.2,0,0.5,0,0.7,0
			c0.2,0,0.4,0.1,0.6,0.2c0.2,0.1,0.3,0.2,0.4,0.4c0.1,0.2,0.2,0.4,0.2,0.7v2.6c0,0.2,0,0.3,0,0.4c0,0.1,0.1,0.1,0.2,0.1
			c0.1,0,0.2,0,0.3,0V40.5z M99.1,37.8C99,37.9,98.9,38,98.7,38c-0.2,0-0.3,0.1-0.5,0.1c-0.2,0-0.4,0-0.6,0.1
			c-0.2,0-0.4,0.1-0.5,0.1c-0.2,0.1-0.3,0.2-0.4,0.3c-0.1,0.1-0.1,0.3-0.1,0.5c0,0.1,0,0.3,0.1,0.3c0.1,0.1,0.1,0.2,0.2,0.2
			c0.1,0.1,0.2,0.1,0.3,0.1c0.1,0,0.2,0,0.4,0c0.3,0,0.5,0,0.7-0.1c0.2-0.1,0.4-0.2,0.5-0.3c0.1-0.1,0.2-0.2,0.3-0.4
			c0.1-0.1,0.1-0.3,0.1-0.4V37.8z"/>
		<path class="st0" d="M103.7,35.4v0.8h0c0.3-0.6,0.9-0.9,1.7-0.9c0.3,0,0.6,0,0.8,0.1c0.2,0.1,0.4,0.2,0.5,0.4
			c0.1,0.2,0.2,0.4,0.3,0.6c0.1,0.2,0.1,0.5,0.1,0.8v3.3h-0.8V37c0-0.3-0.1-0.6-0.3-0.7c-0.2-0.2-0.4-0.3-0.8-0.3
			c-0.3,0-0.5,0-0.7,0.1c-0.2,0.1-0.3,0.2-0.5,0.3c-0.1,0.1-0.2,0.3-0.3,0.5c-0.1,0.2-0.1,0.4-0.1,0.6v2.9h-0.8v-5.1H103.7z"/>
		<path class="st0" d="M113.8,40.5v-0.7h0c-0.1,0.3-0.4,0.5-0.6,0.6c-0.3,0.1-0.6,0.2-1,0.2c-0.4,0-0.7-0.1-1-0.2
			c-0.3-0.1-0.5-0.3-0.7-0.6c-0.2-0.2-0.3-0.5-0.4-0.8c-0.1-0.3-0.1-0.7-0.1-1c0-0.4,0-0.7,0.1-1c0.1-0.3,0.2-0.6,0.4-0.8
			c0.2-0.2,0.4-0.4,0.7-0.6c0.3-0.1,0.6-0.2,1-0.2c0.1,0,0.3,0,0.4,0c0.2,0,0.3,0.1,0.5,0.1c0.2,0.1,0.3,0.1,0.4,0.2
			c0.1,0.1,0.2,0.2,0.3,0.4h0v-2.6h0.8v7H113.8z M110.8,38.7c0.1,0.2,0.2,0.4,0.3,0.6c0.1,0.2,0.3,0.3,0.5,0.4
			c0.2,0.1,0.4,0.2,0.7,0.2c0.3,0,0.5-0.1,0.7-0.2c0.2-0.1,0.4-0.3,0.5-0.4c0.1-0.2,0.2-0.4,0.3-0.6c0.1-0.2,0.1-0.5,0.1-0.7
			c0-0.2,0-0.5-0.1-0.7c-0.1-0.2-0.2-0.4-0.3-0.6c-0.1-0.2-0.3-0.3-0.5-0.4c-0.2-0.1-0.4-0.2-0.7-0.2c-0.3,0-0.5,0.1-0.7,0.2
			c-0.2,0.1-0.4,0.3-0.5,0.4c-0.1,0.2-0.2,0.4-0.3,0.6c-0.1,0.2-0.1,0.5-0.1,0.7C110.7,38.2,110.7,38.4,110.8,38.7z"/>
		<path class="st0" d="M117.6,34.5v-1h0.8v1H117.6z M118.5,35.4v5.1h-0.8v-5.1H118.5z"/>
		<path class="st0" d="M122.2,35.4v0.8h0c0.3-0.6,0.9-0.9,1.7-0.9c0.3,0,0.6,0,0.8,0.1c0.2,0.1,0.4,0.2,0.5,0.4
			c0.1,0.2,0.2,0.4,0.3,0.6c0.1,0.2,0.1,0.5,0.1,0.8v3.3h-0.8V37c0-0.3-0.1-0.6-0.3-0.7c-0.2-0.2-0.4-0.3-0.8-0.3
			c-0.3,0-0.5,0-0.7,0.1c-0.2,0.1-0.3,0.2-0.5,0.3c-0.1,0.1-0.2,0.3-0.3,0.5c-0.1,0.2-0.1,0.4-0.1,0.6v2.9h-0.8v-5.1H122.2z"/>
		<path class="st0" d="M132.4,41.9c-0.4,0.4-1,0.6-1.8,0.6c-0.2,0-0.5,0-0.7-0.1c-0.2-0.1-0.5-0.1-0.7-0.3c-0.2-0.1-0.4-0.3-0.5-0.5
			c-0.1-0.2-0.2-0.4-0.2-0.7h0.8c0,0.2,0.1,0.3,0.1,0.4c0.1,0.1,0.2,0.2,0.3,0.3c0.1,0.1,0.3,0.1,0.4,0.1c0.2,0,0.3,0,0.4,0
			c0.3,0,0.5,0,0.7-0.1c0.2-0.1,0.3-0.2,0.5-0.4c0.1-0.2,0.2-0.4,0.3-0.6c0.1-0.2,0.1-0.5,0.1-0.8v-0.3h0c-0.1,0.3-0.4,0.5-0.7,0.7
			c-0.3,0.1-0.6,0.2-0.9,0.2c-0.4,0-0.7-0.1-1-0.2c-0.3-0.1-0.5-0.3-0.7-0.6c-0.2-0.2-0.3-0.5-0.4-0.8c-0.1-0.3-0.1-0.6-0.1-1
			c0-0.3,0-0.6,0.1-0.9c0.1-0.3,0.2-0.6,0.4-0.9c0.2-0.3,0.4-0.5,0.7-0.6c0.3-0.2,0.7-0.3,1.1-0.3c0.3,0,0.6,0.1,0.9,0.2
			c0.3,0.1,0.5,0.4,0.6,0.6h0v-0.7h0.8V40C133,40.9,132.8,41.5,132.4,41.9z M131.3,39.6c0.2-0.1,0.3-0.3,0.5-0.5
			c0.1-0.2,0.2-0.4,0.3-0.6c0.1-0.2,0.1-0.5,0.1-0.7c0-0.2,0-0.4-0.1-0.7c-0.1-0.2-0.1-0.4-0.3-0.6c-0.1-0.2-0.3-0.3-0.4-0.4
			c-0.2-0.1-0.4-0.2-0.7-0.2c-0.3,0-0.5,0.1-0.7,0.2c-0.2,0.1-0.3,0.2-0.5,0.4c-0.1,0.2-0.2,0.4-0.3,0.6c-0.1,0.2-0.1,0.5-0.1,0.7
			c0,0.2,0,0.5,0.1,0.7c0,0.2,0.1,0.4,0.2,0.6c0.1,0.2,0.3,0.3,0.4,0.5c0.2,0.1,0.4,0.2,0.7,0.2C130.9,39.8,131.1,39.7,131.3,39.6z"
			/>
		<path class="st0" d="M140.4,37.4c0-0.2,0.1-0.3,0.2-0.4c0.1-0.1,0.3-0.2,0.4-0.2c0.2,0,0.3,0.1,0.4,0.2c0.1,0.1,0.2,0.3,0.2,0.4
			c0,0.2-0.1,0.3-0.2,0.4c-0.1,0.1-0.3,0.2-0.4,0.2c-0.2,0-0.3-0.1-0.4-0.2C140.5,37.7,140.4,37.6,140.4,37.4z"/>
		<path class="st0" d="M152.7,40.1c-0.4,0.3-0.9,0.4-1.4,0.4c-0.4,0-0.8-0.1-1.1-0.2c-0.3-0.1-0.5-0.3-0.8-0.6
			c-0.2-0.2-0.4-0.5-0.5-0.8c-0.1-0.3-0.2-0.7-0.2-1.1c0-0.4,0.1-0.7,0.2-1.1c0.1-0.3,0.3-0.6,0.5-0.8c0.2-0.2,0.5-0.4,0.8-0.6
			c0.3-0.1,0.6-0.2,1-0.2c0.5,0,0.8,0.1,1.1,0.3c0.3,0.2,0.5,0.4,0.7,0.7c0.2,0.3,0.3,0.6,0.4,0.9c0.1,0.3,0.1,0.7,0.1,1h-3.8
			c0,0.2,0,0.4,0.1,0.6c0.1,0.2,0.2,0.4,0.3,0.5c0.1,0.2,0.3,0.3,0.5,0.4c0.2,0.1,0.4,0.1,0.7,0.1c0.4,0,0.6-0.1,0.9-0.2
			c0.2-0.2,0.4-0.4,0.4-0.7h0.8C153.4,39.4,153.1,39.9,152.7,40.1z M152.5,36.9c-0.1-0.2-0.2-0.3-0.3-0.5c-0.1-0.1-0.3-0.2-0.5-0.3
			c-0.2-0.1-0.4-0.1-0.6-0.1c-0.2,0-0.4,0-0.6,0.1c-0.2,0.1-0.3,0.2-0.4,0.3c-0.1,0.1-0.2,0.3-0.3,0.5c-0.1,0.2-0.1,0.4-0.1,0.6h2.9
			C152.7,37.2,152.6,37.1,152.5,36.9z"/>
		<path class="st0" d="M159.8,40.5v-0.7h0c-0.1,0.3-0.4,0.5-0.6,0.6c-0.3,0.1-0.6,0.2-1,0.2c-0.4,0-0.7-0.1-1-0.2
			c-0.3-0.1-0.5-0.3-0.7-0.6c-0.2-0.2-0.3-0.5-0.4-0.8c-0.1-0.3-0.1-0.7-0.1-1c0-0.4,0-0.7,0.1-1c0.1-0.3,0.2-0.6,0.4-0.8
			c0.2-0.2,0.4-0.4,0.7-0.6c0.3-0.1,0.6-0.2,1-0.2c0.1,0,0.3,0,0.4,0c0.2,0,0.3,0.1,0.5,0.1c0.2,0.1,0.3,0.1,0.4,0.2
			c0.1,0.1,0.2,0.2,0.3,0.4h0v-2.6h0.8v7H159.8z M156.8,38.7c0.1,0.2,0.2,0.4,0.3,0.6c0.1,0.2,0.3,0.3,0.5,0.4
			c0.2,0.1,0.4,0.2,0.7,0.2c0.3,0,0.5-0.1,0.7-0.2c0.2-0.1,0.4-0.3,0.5-0.4c0.1-0.2,0.2-0.4,0.3-0.6c0.1-0.2,0.1-0.5,0.1-0.7
			c0-0.2,0-0.5-0.1-0.7c-0.1-0.2-0.2-0.4-0.3-0.6c-0.1-0.2-0.3-0.3-0.5-0.4c-0.2-0.1-0.4-0.2-0.7-0.2c-0.3,0-0.5,0.1-0.7,0.2
			c-0.2,0.1-0.4,0.3-0.5,0.4c-0.1,0.2-0.2,0.4-0.3,0.6c-0.1,0.2-0.1,0.5-0.1,0.7C156.7,38.2,156.7,38.4,156.8,38.7z"/>
		<path class="st0" d="M167,40.5v-0.8h0c-0.2,0.3-0.4,0.5-0.7,0.7c-0.3,0.1-0.6,0.2-1,0.2c-0.3,0-0.6,0-0.8-0.1
			c-0.2-0.1-0.4-0.2-0.5-0.4c-0.1-0.2-0.2-0.4-0.3-0.6c-0.1-0.2-0.1-0.5-0.1-0.8v-3.3h0.8v3.4c0,0.3,0.1,0.6,0.3,0.7
			c0.2,0.2,0.4,0.3,0.8,0.3c0.3,0,0.5,0,0.7-0.1c0.2-0.1,0.3-0.2,0.5-0.3c0.1-0.1,0.2-0.3,0.3-0.5c0.1-0.2,0.1-0.4,0.1-0.6v-2.9h0.8
			v5.1H167z"/>
		<path class="st0" d="M171.7,33.5v4.2l2.3-2.2h1.1l-2,1.8l2.2,3.2h-1.1l-1.7-2.7l-0.8,0.7v1.9h-0.8v-7H171.7z"/>
		<path class="st0" d="M182.1,40.5c-0.1,0.1-0.3,0.1-0.6,0.1c-0.2,0-0.4-0.1-0.5-0.2s-0.2-0.3-0.2-0.6c-0.2,0.3-0.5,0.5-0.8,0.6
			c-0.3,0.1-0.6,0.2-1,0.2c-0.2,0-0.4,0-0.7-0.1c-0.2-0.1-0.4-0.1-0.5-0.2c-0.2-0.1-0.3-0.3-0.4-0.4c-0.1-0.2-0.1-0.4-0.1-0.7
			c0-0.3,0-0.5,0.1-0.7c0.1-0.2,0.2-0.3,0.4-0.4c0.2-0.1,0.3-0.2,0.6-0.3c0.2-0.1,0.4-0.1,0.6-0.1c0.2,0,0.4-0.1,0.7-0.1
			c0.2,0,0.4-0.1,0.5-0.1c0.2,0,0.3-0.1,0.4-0.2c0.1-0.1,0.1-0.2,0.1-0.4c0-0.2,0-0.3-0.1-0.4c-0.1-0.1-0.2-0.2-0.3-0.3
			c-0.1-0.1-0.2-0.1-0.4-0.1c-0.1,0-0.3,0-0.4,0c-0.4,0-0.6,0.1-0.9,0.2c-0.2,0.1-0.4,0.4-0.4,0.8h-0.8c0-0.3,0.1-0.6,0.2-0.8
			c0.1-0.2,0.3-0.4,0.5-0.5c0.2-0.1,0.4-0.2,0.7-0.3c0.3-0.1,0.5-0.1,0.8-0.1c0.2,0,0.5,0,0.7,0c0.2,0,0.4,0.1,0.6,0.2
			c0.2,0.1,0.3,0.2,0.4,0.4c0.1,0.2,0.2,0.4,0.2,0.7v2.6c0,0.2,0,0.3,0,0.4c0,0.1,0.1,0.1,0.2,0.1c0.1,0,0.2,0,0.3,0V40.5z
			 M180.7,37.8c-0.1,0.1-0.2,0.1-0.4,0.2c-0.2,0-0.3,0.1-0.5,0.1c-0.2,0-0.4,0-0.6,0.1c-0.2,0-0.4,0.1-0.5,0.1
			c-0.2,0.1-0.3,0.2-0.4,0.3c-0.1,0.1-0.1,0.3-0.1,0.5c0,0.1,0,0.3,0.1,0.3c0.1,0.1,0.1,0.2,0.2,0.2c0.1,0.1,0.2,0.1,0.3,0.1
			c0.1,0,0.2,0,0.4,0c0.3,0,0.5,0,0.7-0.1c0.2-0.1,0.4-0.2,0.5-0.3c0.1-0.1,0.2-0.2,0.3-0.4c0.1-0.1,0.1-0.3,0.1-0.4V37.8z
			 M181,32.9l-1.4,1.6H179l0.9-1.6H181z"/>
		<path class="st0" d="M187.6,36.3c-0.2-0.2-0.5-0.3-0.8-0.3c-0.3,0-0.6,0.1-0.8,0.2c-0.2,0.1-0.4,0.3-0.5,0.4
			c-0.1,0.2-0.2,0.4-0.3,0.6c-0.1,0.2-0.1,0.5-0.1,0.7c0,0.2,0,0.5,0.1,0.7c0.1,0.2,0.1,0.4,0.3,0.6c0.1,0.2,0.3,0.3,0.5,0.4
			c0.2,0.1,0.4,0.2,0.7,0.2c0.4,0,0.7-0.1,1-0.3c0.2-0.2,0.4-0.5,0.4-0.9h0.9c-0.1,0.6-0.3,1.1-0.7,1.5c-0.4,0.3-0.9,0.5-1.5,0.5
			c-0.4,0-0.7-0.1-1-0.2c-0.3-0.1-0.5-0.3-0.7-0.5c-0.2-0.2-0.4-0.5-0.5-0.8c-0.1-0.3-0.2-0.7-0.2-1c0-0.4,0-0.7,0.1-1.1
			c0.1-0.3,0.2-0.6,0.4-0.9c0.2-0.2,0.5-0.4,0.8-0.6c0.3-0.1,0.7-0.2,1.1-0.2c0.3,0,0.6,0,0.8,0.1c0.3,0.1,0.5,0.2,0.7,0.3
			c0.2,0.1,0.4,0.3,0.5,0.5c0.1,0.2,0.2,0.5,0.2,0.8H188C187.9,36.7,187.8,36.5,187.6,36.3z"/>
		<path class="st0" d="M191.5,34.5v-1h0.8v1H191.5z M192.4,35.4v5.1h-0.8v-5.1H192.4z"/>
		<path class="st0" d="M195.2,36.9c0.1-0.3,0.3-0.6,0.5-0.8c0.2-0.2,0.5-0.4,0.8-0.6c0.3-0.1,0.7-0.2,1.1-0.2c0.4,0,0.8,0.1,1.1,0.2
			c0.3,0.1,0.6,0.3,0.8,0.6c0.2,0.2,0.4,0.5,0.5,0.8c0.1,0.3,0.2,0.7,0.2,1s-0.1,0.7-0.2,1c-0.1,0.3-0.3,0.6-0.5,0.8
			c-0.2,0.2-0.5,0.4-0.8,0.6c-0.3,0.1-0.7,0.2-1.1,0.2c-0.4,0-0.8-0.1-1.1-0.2c-0.3-0.1-0.6-0.3-0.8-0.6c-0.2-0.2-0.4-0.5-0.5-0.8
			c-0.1-0.3-0.2-0.7-0.2-1S195.1,37.2,195.2,36.9z M196.1,38.8c0.1,0.2,0.2,0.4,0.3,0.6c0.1,0.2,0.3,0.3,0.5,0.4
			c0.2,0.1,0.4,0.1,0.6,0.1c0.2,0,0.4,0,0.6-0.1c0.2-0.1,0.4-0.2,0.5-0.4c0.1-0.2,0.3-0.4,0.3-0.6c0.1-0.2,0.1-0.5,0.1-0.8
			c0-0.3,0-0.6-0.1-0.8c-0.1-0.2-0.2-0.4-0.3-0.6c-0.1-0.2-0.3-0.3-0.5-0.4c-0.2-0.1-0.4-0.1-0.6-0.1c-0.2,0-0.4,0-0.6,0.1
			c-0.2,0.1-0.4,0.2-0.5,0.4c-0.1,0.2-0.3,0.4-0.3,0.6c-0.1,0.2-0.1,0.5-0.1,0.8C195.9,38.2,196,38.5,196.1,38.8z M197.8,32.9
			l-0.9,1.6h0.6l1.4-1.6H197.8z"/>
		<path class="st1" d="M29.7,1.9h1.5v11h15.4v-11h1.5v24.2h-1.5V14.2H31.1v11.9h-1.5V1.9z"/>
		<path class="st1" d="M52.3,1.9h10.1c1.1,0,2.1,0.1,3,0.3c0.9,0.2,1.7,0.6,2.4,1.1c0.7,0.5,1.2,1.1,1.6,1.9C69.9,6,70.1,7,70.1,8.2
			c0,1.6-0.5,3-1.4,4.1c-0.9,1.1-2.2,1.8-3.8,2.1v0.1c1.1,0.1,2,0.4,2.6,0.9c0.6,0.5,1.1,1,1.4,1.7c0.3,0.7,0.5,1.4,0.6,2.2
			c0.1,0.8,0.1,1.6,0.1,2.4c0,0.5,0,0.9,0,1.4c0,0.5,0,0.9,0.1,1.3c0,0.4,0.1,0.8,0.2,1.1c0.1,0.3,0.2,0.6,0.4,0.8h-1.7
			c-0.3-0.6-0.5-1.2-0.5-2c0-0.8-0.1-1.5-0.1-2.4c0-0.8,0-1.6-0.1-2.4c-0.1-0.8-0.3-1.5-0.6-2.2c-0.4-0.6-0.9-1.1-1.7-1.5
			c-0.8-0.4-1.9-0.6-3.3-0.6h-8.6v11h-1.5V1.9z M62.4,13.8c0.9,0,1.7-0.1,2.5-0.3c0.8-0.2,1.4-0.5,1.9-1c0.5-0.5,1-1,1.3-1.7
			c0.3-0.7,0.5-1.5,0.5-2.5c0-0.9-0.2-1.7-0.5-2.3c-0.3-0.6-0.8-1.2-1.4-1.6c-0.6-0.4-1.2-0.7-2-0.9c-0.7-0.2-1.5-0.3-2.3-0.3h-8.6
			v10.6H62.4z"/>
		<path class="st1" d="M78.6,14c0-1.8,0.3-3.4,0.8-5c0.5-1.5,1.3-2.9,2.3-4c1-1.1,2.2-2,3.6-2.7c1.4-0.7,3.1-1,4.9-1
			c1.4,0,2.7,0.2,3.7,0.6c1,0.4,1.9,0.8,2.6,1.4c0.7,0.6,1.3,1.2,1.7,1.8c0.5,0.7,0.8,1.3,1,1.8c0.2,0.6,0.4,1.1,0.5,1.5
			c0.1,0.4,0.1,0.6,0.1,0.7h-1.5c-0.2-1-0.5-1.9-1-2.7c-0.5-0.8-1.1-1.5-1.9-2c-0.7-0.6-1.6-1-2.5-1.3c-0.9-0.3-1.9-0.4-2.9-0.4
			c-1.6,0-3,0.3-4.2,0.9C84.7,4.2,83.6,5,82.8,6c-0.9,1-1.5,2.2-2,3.6c-0.5,1.4-0.7,2.8-0.7,4.4c0,1.6,0.2,3,0.7,4.4
			c0.5,1.4,1.1,2.6,2,3.6c0.9,1,1.9,1.8,3.2,2.5c1.2,0.6,2.7,0.9,4.2,0.9c1.2,0,2.3-0.2,3.3-0.7c1-0.5,1.9-1.1,2.7-1.9
			C96.9,22,97.5,21,98,20c0.5-1.1,0.7-2.1,0.8-3.3h1.5c-0.1,1.4-0.5,2.8-1.1,4c-0.6,1.2-1.3,2.3-2.2,3.2c-0.9,0.9-1.9,1.6-3.1,2.1
			c-1.2,0.5-2.4,0.7-3.8,0.7c-1.8,0-3.4-0.3-4.9-1c-1.4-0.7-2.6-1.6-3.6-2.7c-1-1.1-1.7-2.5-2.3-4C78.9,17.5,78.6,15.8,78.6,14z"/>
		<path class="st1" d="M103.4,1.9h16.3v1.3h-14.8v9.7h13.9v1.3h-13.9v10.6h14.9v1.3h-16.4V1.9z"/>
		<path class="st1" d="M122.4,1.9h1.9l15.3,22.2h0.1V1.9h1.5v24.2h-1.8L123.9,3.8h-0.1v22.4h-1.5V1.9z"/>
		<path class="st1" d="M142.7,3.2V1.9h18.5v1.3h-8.5v22.9h-1.5V3.2H142.7z"/>
		<path class="st1" d="M162.9,1.9h16.3v1.3h-14.8v9.7h13.9v1.3h-13.9v10.6h14.9v1.3h-16.4V1.9z"/>
		<path class="st1" d="M181.9,1.9H192c1.1,0,2.1,0.1,3,0.3c0.9,0.2,1.7,0.6,2.4,1.1c0.7,0.5,1.2,1.1,1.6,1.9
			c0.4,0.8,0.6,1.8,0.6,2.9c0,1.6-0.5,3-1.4,4.1c-0.9,1.1-2.2,1.8-3.8,2.1v0.1c1.1,0.1,2,0.4,2.6,0.9c0.6,0.5,1.1,1,1.4,1.7
			c0.3,0.7,0.5,1.4,0.6,2.2c0.1,0.8,0.1,1.6,0.1,2.4c0,0.5,0,0.9,0,1.4c0,0.5,0,0.9,0.1,1.3c0,0.4,0.1,0.8,0.2,1.1
			c0.1,0.3,0.2,0.6,0.4,0.8h-1.7c-0.3-0.6-0.5-1.2-0.5-2c0-0.8-0.1-1.5-0.1-2.4c0-0.8,0-1.6-0.1-2.4c-0.1-0.8-0.3-1.5-0.6-2.2
			c-0.4-0.6-0.9-1.1-1.7-1.5c-0.8-0.4-1.9-0.6-3.3-0.6h-8.6v11h-1.5V1.9z M192,13.8c0.9,0,1.7-0.1,2.5-0.3c0.8-0.2,1.4-0.5,1.9-1
			c0.5-0.5,1-1,1.3-1.7c0.3-0.7,0.5-1.5,0.5-2.5c0-0.9-0.2-1.7-0.5-2.3c-0.3-0.6-0.8-1.2-1.4-1.6c-0.6-0.4-1.2-0.7-2-0.9
			c-0.7-0.2-1.5-0.3-2.3-0.3h-8.6v10.6H192z"/>
		<rect x="1.4" y="1.4" class="st2" width="25.3" height="25.3"/>
		<g>
			<defs>
				<rect id="SVGID_1_" width="28.1" height="28.1"/>
			</defs>
			<clipPath id="SVGID_2_">
				<use xlink:href="#SVGID_1_"  style="overflow:visible;"/>
			</clipPath>
			<path class="st3" d="M6.5,11.2c0.2-0.2,0.4-0.4,0.8-0.6c0.3-0.1,0.6-0.2,1-0.2c0.7,0,1.3,0.3,1.7,0.8c0.4,0.5,0.6,1.3,0.6,2.4
				v4.1H8.4v-4.1c0-0.5-0.1-0.9-0.2-1.1c-0.1-0.2-0.4-0.3-0.6-0.3c-0.2,0-0.5,0-0.6,0.1c-0.2,0.1-0.3,0.2-0.5,0.3v5.1H4.3V7.4h2.2
				V11.2z"/>
			<polygon class="st3" points="14,15.2 14,15.2 15.2,10.5 17.5,10.5 15.1,17.6 12.9,17.6 10.6,10.5 12.9,10.5 			"/>
			<path class="st3" d="M17.9,11.4c0.5-0.7,1.2-1,2-1c0.4,0,0.7,0.1,1,0.3c0.2,0.1,0.5,0.3,0.6,0.5l0.1-0.6l2.1,0v7
				c0,0.9-0.3,1.7-0.9,2.2c-0.6,0.5-1.5,0.8-2.6,0.8c-0.4,0-0.8-0.1-1.2-0.2c-0.4-0.1-0.8-0.2-1.2-0.4l0.5-1.6
				c0.2,0.1,0.5,0.2,0.7,0.2c0.3,0.1,0.6,0.1,1,0.1c0.5,0,0.8-0.1,1-0.3c0.2-0.2,0.4-0.5,0.4-0.9V17c-0.2,0.3-0.4,0.5-0.7,0.6
				c-0.3,0.1-0.6,0.2-0.9,0.2c-0.9,0-1.6-0.3-2-1c-0.5-0.6-0.7-1.5-0.7-2.6C17.2,13.1,17.5,12.1,17.9,11.4 M19.7,15.6
				c0.2,0.3,0.4,0.5,0.8,0.5c0.2,0,0.4,0,0.6-0.1c0.2-0.1,0.3-0.2,0.4-0.3v-3c-0.1-0.2-0.2-0.3-0.4-0.4c-0.2-0.1-0.4-0.1-0.6-0.1
				c-0.4,0-0.7,0.2-0.9,0.5c-0.2,0.4-0.3,0.9-0.3,1.5C19.4,14.8,19.5,15.3,19.7,15.6"/>
		</g>
	</g>
</g>
</svg>
