<?xml version="1.0" standalone="no"?>
<!DOCTYPE svg PUBLIC "-//W3C//DTD SVG 1.1//EN" "http://www.w3.org/Graphics/SVG/1.1/DTD/svg11.dtd" >
<svg xmlns="http://www.w3.org/2000/svg">
<metadata>
This is a custom SVG webfont generated by Fontspring.
Designer    : Patrick Griffin
Foundry     : Canada Type
Foundry URL : httpwwwcanadatypecom
</metadata>
<defs>
<font id="InformaProMediumCondensed" horiz-adv-x="296" >
<font-face units-per-em="1000" ascent="765" descent="-235" />
<missing-glyph horiz-adv-x="196" />
<glyph unicode=" "  horiz-adv-x="196" />
<glyph unicode="&#x09;" horiz-adv-x="196" />
<glyph unicode="&#xa0;" horiz-adv-x="196" />
<glyph unicode="!" horiz-adv-x="284" d="M98 214l-19 506h124l-18 -506h-87zM208 64q0 -31 -19 -52.5t-47 -21.5t-47 21.5t-19 52.5q0 32 19 53.5t47 21.5t47 -21.5t19 -53.5z" />
<glyph unicode="&#x22;" horiz-adv-x="291" d="M110 466h-77l-14 258h104zM258 466h-77l-14 258h105z" />
<glyph unicode="#" horiz-adv-x="521" d="M286 0l9 165h-81l-9 -165h-88l9 165h-91v96h98l6 135h-104v96h111l9 165h88l-10 -165h82l10 165h88l-10 -165h83v-96h-89l-7 -135h96v-96h-103l-8 -165h-89zM227 396l-7 -135h82l7 135h-82z" />
<glyph unicode="$" horiz-adv-x="466" d="M183 -120v111q-71 1 -136 30l18 116q48 -30 118 -37v226q-44 23 -73.5 45t-54 63.5t-24.5 93.5q0 83 45.5 134t123.5 64v103h81v-100q63 -3 108 -23l-15 -114q-39 22 -93 27v-202q70 -34 112 -80.5t42 -122.5q0 -92 -46.5 -147.5t-124.5 -70.5v-116h-81zM264 103 q59 19 59 93q0 52 -59 94v-187zM200 452v166q-57 -12 -57 -73q0 -52 57 -93z" />
<glyph unicode="%" horiz-adv-x="778" d="M39 526q0 84 40 141.5t114 57.5q67 0 106 -52.5t39 -135.5q0 -88 -40.5 -144t-108.5 -56q-75 0 -112.5 52t-37.5 137zM136 537q0 -125 58 -125q23 0 35.5 34t12.5 80q0 124 -55 124q-24 0 -37.5 -33t-13.5 -80zM440 184q0 84 40 141.5t114 57.5q67 0 106 -52.5t39 -135.5 q0 -88 -40.5 -144t-108.5 -56q-74 0 -112 52t-38 137zM537 195q0 -125 58 -125q23 0 35.5 33.5t12.5 80.5q0 124 -55 124q-23 0 -37 -33.5t-14 -79.5zM187 19l319 732l81 -50l-319 -731z" />
<glyph unicode="&#x26;" horiz-adv-x="554" d="M459 330v-304q-108 -36 -214 -36q-90 0 -151 51t-61 149q0 70 35 123.5t93 68.5q-45 17 -73 56.5t-28 96.5q0 89 56 142t156 53q50 0 92 -17l-15 -103q-31 17 -84 17q-36 0 -61 -21t-25 -62q0 -55 33 -82.5t81 -27.5h56v78l110 23v-101h78v-104h-78zM272 91q33 0 77 16 v223h-59q-136 0 -136 -128q0 -54 34.5 -82.5t83.5 -28.5z" />
<glyph unicode="'" horiz-adv-x="144" d="M111 475h-78l-14 249h106z" />
<glyph unicode="(" horiz-adv-x="274" d="M260 -141l-84 -33q-127 224 -127 482q0 261 127 489l85 -30q-98 -200 -98 -450q0 -262 97 -458z" />
<glyph unicode=")" horiz-adv-x="273" d="M13 764l85 33q127 -224 127 -482q0 -260 -126 -489l-86 30q98 200 98 450q0 264 -98 458z" />
<glyph unicode="*" horiz-adv-x="302" d="M193 730l-22 -117l87 53l25 -92l-102 -15l79 -87l-70 -58l-39 111l-40 -112l-69 57l79 88l-102 14l23 94l87 -54l-19 118h83z" />
<glyph unicode="+" horiz-adv-x="492" d="M202 47v210h-161v96h161v210h88v-210h161v-96h-161v-210h-88z" />
<glyph unicode="," horiz-adv-x="237" d="M195 114l-75 -270h-91l48 270h118z" />
<glyph unicode="-" d="M261 238h-226v89h226v-89z" />
<glyph unicode="." horiz-adv-x="222" d="M180 67q0 -32 -20.5 -54.5t-48.5 -22.5t-48.5 22.5t-20.5 54.5t20.5 54.5t48.5 22.5t48.5 -22.5t20.5 -54.5z" />
<glyph unicode="/" horiz-adv-x="385" d="M93 -153l-97 35l294 959l98 -37z" />
<glyph unicode="0" horiz-adv-x="494" d="M38 347q0 76 11 141.5t34.5 121.5t66.5 88t102 32q73 0 120 -52t65.5 -130.5t18.5 -182.5q0 -71 -11 -134.5t-34 -119t-65.5 -88.5t-99.5 -33t-99 28.5t-65 80t-33.5 112.5t-10.5 136zM158 365q0 -274 96 -274q82 0 82 256q0 282 -93 282q-85 0 -85 -264z" />
<glyph unicode="1" horiz-adv-x="334" d="M262 0h-114v603l-122 -32l-11 98l225 55h22v-724z" />
<glyph unicode="2" horiz-adv-x="436" d="M48 594l-20 94q81 42 150 42q93 0 147.5 -52t54.5 -153q0 -58 -19.5 -119t-55 -119.5t-66 -100t-71.5 -90.5h232v-96h-368v110q9 14 56 76l80 106q33 46 62.5 109t29.5 107q0 121 -93 121q-49 0 -119 -35z" />
<glyph unicode="3" horiz-adv-x="434" d="M124 325h-30v97h40q47 0 82.5 35t35.5 84q0 42 -24 65t-65 23q-55 0 -114 -32l-13 98q24 15 63.5 25t74.5 10q93 0 145.5 -44.5t52.5 -126.5q0 -61 -28.5 -106.5t-70.5 -61.5q57 -15 88.5 -58.5t31.5 -108.5q0 -105 -65 -169.5t-165 -64.5q-92 0 -138 28l23 101 q58 -29 126 -29q44 0 71.5 32.5t27.5 83.5q0 60 -41.5 89.5t-107.5 29.5z" />
<glyph unicode="4" horiz-adv-x="500" d="M390 0h-115v203h-238l-13 107l236 410h130v-420h81v-97h-81v-203zM126 300h149v289z" />
<glyph unicode="5" horiz-adv-x="447" d="M165 624v-177q24 8 46 8q93 0 145.5 -58t52.5 -153q0 -120 -66.5 -187t-175.5 -67q-63 0 -131 28l25 103q18 -13 54.5 -21.5t66.5 -8.5q49 0 78 35t29 101q0 58 -24 92.5t-70 34.5q-37 0 -67 -16l-67 20v362h312v-96h-208z" />
<glyph unicode="6" horiz-adv-x="485" d="M423 703l-24 -101q-54 26 -112 26q-82 0 -119 -153q-10 -31 -14 -64l2 -1q16 25 28 35q33 33 83 33q87 0 136 -64.5t49 -170.5q0 -112 -57.5 -182.5t-152.5 -70.5q-102 0 -153 85.5t-51 229.5q0 88 14 161t43.5 134t82 95t123.5 34q70 0 122 -26zM332 226q0 67 -22.5 109 t-64.5 42q-39 0 -62.5 -39.5t-23.5 -94.5q0 -66 25 -109.5t66 -43.5q38 0 60 39t22 97z" />
<glyph unicode="7" horiz-adv-x="409" d="M250 624h-234v96h365v-45l-165 -675h-120z" />
<glyph unicode="8" horiz-adv-x="494" d="M39 185q0 116 111 187q-97 66 -97 162q0 87 58 141.5t144 54.5q80 0 132.5 -46t52.5 -129q0 -101 -102 -168q55 -33 85.5 -75.5t30.5 -109.5q0 -92 -61.5 -152t-149.5 -60q-87 0 -145.5 52t-58.5 143zM339 185q0 47 -27.5 79t-80.5 65q-76 -58 -76 -130q0 -52 28.5 -81.5 t71.5 -29.5q37 0 60.5 26t23.5 71zM168 553q0 -42 22 -70t64 -55q72 52 72 115q0 37 -22 63t-61 26q-32 0 -53.5 -21.5t-21.5 -57.5z" />
<glyph unicode="9" horiz-adv-x="485" d="M61 16l24 103q54 -28 112 -28q83 0 119 153q9 31 14 64l-2 2q-12 -22 -28 -36q-33 -33 -83 -33q-87 0 -136 64t-49 171q0 112 57.5 182.5t153.5 70.5q102 0 152.5 -85.5t50.5 -230.5q0 -88 -13.5 -160.5t-43 -133.5t-82 -95t-123.5 -34q-73 0 -123 26zM152 493 q0 -65 23 -108t65 -43q38 0 61.5 39.5t23.5 94.5q0 66 -25 109.5t-67 43.5q-37 0 -59 -39t-22 -97z" />
<glyph unicode=":" horiz-adv-x="222" d="M180 67q0 -32 -20.5 -54.5t-48.5 -22.5t-48.5 22.5t-20.5 54.5t20.5 54.5t48.5 22.5t48.5 -22.5t20.5 -54.5zM180 413q0 -32 -20.5 -54.5t-48.5 -22.5t-48.5 22.5t-20.5 54.5t20.5 54.5t48.5 22.5t48.5 -22.5t20.5 -54.5z" />
<glyph unicode=";" horiz-adv-x="243" d="M208 413q0 -32 -20.5 -54.5t-48.5 -22.5t-48.5 22.5t-20.5 54.5t20.5 54.5t48.5 22.5t48.5 -22.5t20.5 -54.5zM198 114l-75 -270h-94l48 270h121z" />
<glyph unicode="&#x3c;" horiz-adv-x="462" d="M368 577l51 -81l-233 -186l228 -199l-56 -85l-306 259v46z" />
<glyph unicode="=" horiz-adv-x="473" d="M432 355h-391v96h391v-96zM432 132h-391v96h391v-96z" />
<glyph unicode="&#x3e;" horiz-adv-x="462" d="M103 26l-51 81l233 186l-227 200l55 84l306 -258v-46z" />
<glyph unicode="?" horiz-adv-x="452" d="M69 599l-15 103q65 28 140 28q85 0 137.5 -43.5t52.5 -124.5q0 -47 -16.5 -86t-39.5 -66l-46 -53q-24 -26 -40.5 -60.5t-16.5 -74.5q0 -14 1 -21h-87q0 6 -0.5 18.5t-0.5 17.5q0 51 19.5 96.5t43 73.5t43 64.5t19.5 72.5q0 82 -84 82q-48 0 -110 -27zM253 64 q0 -31 -19.5 -52.5t-46.5 -21.5t-46.5 21.5t-19.5 52.5t19.5 53t46.5 22t46.5 -22t19.5 -53z" />
<glyph unicode="@" horiz-adv-x="952" d="M650 -207q-74 -34 -173 -34q-209 0 -320 130t-111 342q0 102 29 191.5t84 159t142.5 110t196.5 40.5q177 0 287.5 -115t110.5 -295q0 -138 -68 -236t-178 -98q-107 0 -107 66v24q-5 -17 -17 -32q-42 -56 -115 -56q-51 0 -82 35.5t-31 94.5q0 39 13.5 70t35 51t52 34 t62 20.5t66.5 7.5v23q0 70 -60 70q-63 0 -125 -37l-9 95q67 35 145 35q85 0 125.5 -37t40.5 -126v-204q0 -38 22 -38q36 0 62 34.5t37 83t11 102.5q0 147 -80 237t-212 90q-153 0 -235.5 -106t-82.5 -278q0 -182 86 -285t239 -103q79 0 144 31zM530 225q-52 -1 -84.5 -23 t-32.5 -67q0 -27 10.5 -41.5t27.5 -14.5q32 0 55.5 39.5t23.5 89.5v17z" />
<glyph unicode="A" horiz-adv-x="543" d="M419 0l-55 214h-199l-54 -214h-114l219 720h115l215 -720h-127zM265 566l-66 -248h132z" />
<glyph unicode="B" horiz-adv-x="505" d="M65 3v706q103 21 179 21q87 0 146 -44.5t59 -131.5q0 -57 -26 -99t-63 -61l-1 -3q52 -12 83 -58t31 -112q0 -109 -69.5 -170t-177.5 -61q-80 0 -161 13zM185 319v-218q24 -6 53 -6q46 0 77 29t31 83q0 52 -29 83.5t-71 31.5q-36 0 -61 -3zM185 618v-198h38q41 0 70 31.5 t29 83.5q0 90 -88 90q-22 0 -49 -7z" />
<glyph unicode="C" horiz-adv-x="495" d="M446 146l36 -92q-71 -64 -177 -64q-122 0 -195 100t-73 259q0 167 80 274t221 107q72 0 121 -29l-16 -109q-53 30 -115 30q-80 0 -122 -74t-42 -184q0 -116 41 -191t118 -75q64 0 123 48z" />
<glyph unicode="D" horiz-adv-x="564" d="M238 -10q-88 0 -173 17v702q59 21 182 21q129 0 205 -94t76 -262q0 -172 -75 -277.5t-215 -106.5zM185 613v-506q23 -9 62 -9q70 0 112 72t42 188q0 119 -40.5 191.5t-122.5 72.5q-24 0 -53 -9z" />
<glyph unicode="E" horiz-adv-x="450" d="M185 615v-194h213v-105h-213v-211h224v-105h-344v720h340v-105h-220z" />
<glyph unicode="F" horiz-adv-x="430" d="M185 615v-216h203v-104h-203v-295h-120v720h336v-105h-216z" />
<glyph unicode="G" horiz-adv-x="554" d="M501 407v-375q-69 -42 -176 -42q-133 0 -210.5 97t-77.5 259q0 107 34.5 192.5t105.5 138.5t169 53q75 0 133 -29l-17 -109q-52 30 -126 30q-77 0 -124 -71t-47 -186q0 -119 43 -192.5t129 -73.5q28 0 45 15v188h-89v105h208z" />
<glyph unicode="H" horiz-adv-x="587" d="M403 318h-218v-318h-120v720h120v-297h218v297h119v-720h-119v318z" />
<glyph unicode="I" horiz-adv-x="250" d="M185 720v-720h-120v720h120z" />
<glyph unicode="J" horiz-adv-x="324" d="M84 98q35 0 49.5 33t14.5 101v488h120v-470q0 -135 -48 -197.5t-145 -62.5q-45 0 -77 25l13 103q33 -20 73 -20z" />
<glyph unicode="K" horiz-adv-x="512" d="M185 415l180 305h135l-202 -333l218 -387h-143l-188 346v-346h-120v720h120v-305z" />
<glyph unicode="L" horiz-adv-x="416" d="M397 0h-332v720h119v-615h213v-105z" />
<glyph unicode="M" horiz-adv-x="713" d="M668 0h-114l-22 548l-137 -514h-96l-125 514l-25 -548h-107l54 720h126l134 -516l132 516h129z" />
<glyph unicode="N" horiz-adv-x="591" d="M397 0l-226 525v-525h-106v720h127l227 -524v524h107v-720h-129z" />
<glyph unicode="O" horiz-adv-x="597" d="M560 365q0 -161 -71.5 -268t-192.5 -107q-124 0 -191.5 105t-67.5 260q0 107 28 190t89.5 134t149.5 51q121 0 188.5 -101.5t67.5 -263.5zM433 355q0 119 -35 193t-103 74q-66 0 -98.5 -74.5t-32.5 -182.5q0 -107 37.5 -187t102.5 -80t97 73.5t32 183.5z" />
<glyph unicode="P" horiz-adv-x="470" d="M185 279v-279h-120v712q68 18 169 18q91 0 154.5 -53.5t63.5 -152.5q0 -116 -71.5 -180.5t-170.5 -64.5h-25zM185 615v-231h31q47 0 78 32t31 90q0 116 -99 116q-20 0 -41 -7z" />
<glyph unicode="Q" horiz-adv-x="597" d="M560 365q0 -142 -52 -242t-140 -124q15 -4 30 -12.5t32.5 -26t28.5 -29.5t34 -41l34 -40l-129 -29l-133 171q-110 12 -169 113.5t-59 249.5q0 168 68.5 271.5t198.5 103.5q121 0 188.5 -101t67.5 -264zM433 355q0 119 -34.5 193t-103.5 74q-45 0 -75.5 -38.5t-43 -94.5 t-12.5 -124q0 -109 38 -188t102 -79t96.5 73t32.5 184z" />
<glyph unicode="R" horiz-adv-x="508" d="M485 0h-124l-42 188q-13 65 -34 92.5t-67 27.5h-33v-308h-120v711q69 19 164 19q98 0 159 -42.5t61 -138.5q0 -66 -32.5 -115t-76.5 -63q38 -10 57.5 -41.5t34.5 -95.5zM185 616v-204h39q40 0 69 33t29 84q0 47 -25 70t-67 23q-21 0 -45 -6z" />
<glyph unicode="S" horiz-adv-x="434" d="M33 21l18 117q65 -40 136 -40q43 0 69 25t26 76q0 29 -18.5 53t-45.5 40t-59.5 37.5t-59.5 44t-45.5 62.5t-18.5 90q0 96 57.5 150t157.5 54q59 0 115 -23l-15 -115q-55 30 -110 30q-85 0 -85 -78q0 -31 18.5 -55.5t45.5 -40t59.5 -36t59.5 -42.5t45.5 -61.5t18.5 -91.5 q0 -107 -62 -167t-160 -60q-81 0 -147 31z" />
<glyph unicode="T" horiz-adv-x="427" d="M274 615v-615h-121v615h-149v105h419v-105h-149z" />
<glyph unicode="U" horiz-adv-x="551" d="M276 -10q-100 0 -159 61t-59 185v484h119v-456q0 -166 104 -166q107 0 107 158v464h110v-452q0 -136 -56 -207t-166 -71z" />
<glyph unicode="V" horiz-adv-x="516" d="M265 168l142 552h112l-204 -720h-110l-208 720h129z" />
<glyph unicode="W" horiz-adv-x="745" d="M527 199l100 521h113l-160 -720h-109l-97 480l-97 -480h-109l-163 720h126l94 -521l112 521h85z" />
<glyph unicode="X" horiz-adv-x="499" d="M366 0l-125 275l-123 -275h-121l185 379l-167 341h136l107 -235l106 235h120l-167 -339l185 -381h-136z" />
<glyph unicode="Y" horiz-adv-x="453" d="M290 309v-309h-120v296l-180 424h136l110 -287l111 287h116z" />
<glyph unicode="Z" horiz-adv-x="448" d="M182 107h239v-107h-394v45l223 568h-212v107h367v-49z" />
<glyph unicode="[" horiz-adv-x="260" d="M148 689v-738h89v-98h-191v934h191v-98h-89z" />
<glyph unicode="\" horiz-adv-x="365" d="M86 841l293 -959l-97 -37l-294 957z" />
<glyph unicode="]" horiz-adv-x="260" d="M111 -49v738h-88v98h191v-934h-191v98h88z" />
<glyph unicode="^" horiz-adv-x="454" d="M32 360l153 360h84l153 -360h-97l-99 249l-97 -249h-97z" />
<glyph unicode="_" horiz-adv-x="310" d="M315 -40h-320v76h320v-76z" />
<glyph unicode="`" horiz-adv-x="262" d="M239 567l-74 -27l-118 145l94 44z" />
<glyph unicode="a" horiz-adv-x="412" d="M370 0h-106v25q0 20 8 55l-3 2q-12 -28 -17 -35q-42 -57 -117 -57q-48 0 -80 35.5t-32 88.5q0 50 19.5 87t54 57.5t72.5 31.5t84 14v22q0 72 -60 72q-28 0 -63.5 -10.5t-60.5 -26.5l-11 94q72 35 145 35q86 0 126.5 -37.5t40.5 -126.5v-326zM256 226q-50 -2 -83 -25 t-33 -68q0 -24 10 -39t25 -15q32 0 56.5 39t24.5 90v18z" />
<glyph unicode="b" horiz-adv-x="447" d="M198 -10q-94 0 -151 24v711h114v-294q17 26 45 42.5t59 16.5q71 0 113 -62.5t42 -167.5q0 -130 -60.5 -200t-161.5 -70zM161 260v-156q22 -14 52 -14q41 0 64.5 42t23.5 111q0 146 -62 146q-33 0 -55.5 -36t-22.5 -93z" />
<glyph unicode="c" horiz-adv-x="351" d="M311 115l25 -87q-45 -38 -115 -38q-89 0 -141.5 63.5t-52.5 177.5q0 115 60 187t155 72q43 0 82 -17l-18 -101q-34 17 -72 17q-41 0 -64 -41t-23 -103q0 -74 24 -114t71 -40q28 0 69 24z" />
<glyph unicode="d" horiz-adv-x="447" d="M400 0h-113v62q-19 -31 -47.5 -51.5t-57.5 -20.5q-76 0 -115.5 62t-39.5 169q0 112 55.5 190.5t154.5 78.5q26 0 50 -9v244h113v-725zM287 237v134q-23 18 -55 18q-40 0 -62.5 -42.5t-22.5 -108.5q0 -147 60 -147q30 0 55 42.5t25 103.5z" />
<glyph unicode="e" horiz-adv-x="415" d="M347 117l29 -81q-61 -46 -147 -46q-92 0 -147 62.5t-55 182.5q0 113 55 184t143 71q73 0 116.5 -53t43.5 -142q0 -41 -6 -87h-236q1 -59 27.5 -93t69.5 -34q60 0 107 36zM144 293h131q3 48 -13 78t-47 30q-32 0 -50 -32.5t-21 -75.5z" />
<glyph unicode="f" horiz-adv-x="290" d="M195 0h-114v384h-72v96h72v47q0 203 146 203q48 0 82 -16l-16 -94q-23 9 -44 9q-54 0 -54 -85v-64h92v-96h-92v-384z" />
<glyph unicode="g" horiz-adv-x="434" d="M391 467v-419q0 -140 -56.5 -209t-160.5 -69q-70 0 -121 27l18 105q51 -31 112 -31q94 0 94 161v40q-15 -29 -42.5 -46t-58.5 -17q-74 0 -111.5 55t-37.5 157q0 117 62.5 193t159.5 76q76 0 142 -23zM277 276v102q-22 11 -37 11q-47 0 -70 -41.5t-23 -108.5 q0 -129 52 -129q23 0 39.5 16.5t24 43.5t11 53t3.5 53z" />
<glyph unicode="h" horiz-adv-x="448" d="M407 295v-295h-115v271q0 60 -12 89t-43 29q-36 0 -56 -42.5t-20 -105.5v-241h-114v724h114v-300q18 31 49 48.5t61 17.5q74 0 105 -47t31 -148z" />
<glyph unicode="i" horiz-adv-x="208" d="M161 480v-480h-114v480h114zM172 630q0 -33 -19.5 -52.5t-49.5 -19.5q-29 0 -48 19.5t-19 52.5q0 31 18.5 52t48.5 21t49.5 -20.5t19.5 -52.5z" />
<glyph unicode="j" horiz-adv-x="204" d="M-41 -119q25 -10 46 -10q42 0 42 109v500h114v-483q0 -227 -163 -227q-31 0 -52 12zM172 630q0 -33 -19.5 -52.5t-49.5 -19.5q-29 0 -48 19.5t-19 52.5q0 31 18.5 52t48.5 21t49.5 -20.5t19.5 -52.5z" />
<glyph unicode="k" horiz-adv-x="415" d="M423 0h-132l-130 238v-238h-114v725h114v-432l132 187h124l-148 -205z" />
<glyph unicode="l" horiz-adv-x="208" d="M161 725v-725h-114v725h114z" />
<glyph unicode="m" horiz-adv-x="673" d="M631 0h-114v272q0 57 -10 87t-40 30q-33 0 -52 -42.5t-19 -105.5v-241h-114v278q0 111 -49 111q-32 0 -52 -42t-20 -105v-242h-114v480h110v-62q41 72 109 72q86 0 110 -82q48 82 126 82q59 0 94 -54t35 -140v-296z" />
<glyph unicode="n" horiz-adv-x="446" d="M405 300v-300h-113v275q0 57 -11.5 85.5t-40.5 28.5q-35 0 -57 -42t-22 -103v-244h-114v480h113v-60q38 70 119 70q68 0 97 -48.5t29 -141.5z" />
<glyph unicode="o" horiz-adv-x="442" d="M415 248q0 -119 -54 -188.5t-143 -69.5q-83 0 -137 62t-54 178q0 117 53 188.5t146 71.5q92 0 140.5 -67t48.5 -175zM296 230q0 77 -17.5 118t-60.5 41q-34 0 -52.5 -40t-18.5 -101q0 -157 79 -157q35 0 52.5 39t17.5 100z" />
<glyph unicode="p" horiz-adv-x="441" d="M161 -4v-226h-114v710h115v-55q36 65 101 65q77 0 114 -64t37 -168q0 -125 -57.5 -196.5t-150.5 -71.5q-13 0 -45 6zM161 252v-149q19 -12 54 -12q36 0 57.5 41t21.5 108q0 149 -61 149q-34 0 -53 -39t-19 -98z" />
<glyph unicode="q" horiz-adv-x="441" d="M395 466v-696h-114v281q-37 -61 -103 -61q-70 0 -110.5 61t-40.5 166q0 130 62 201.5t165 71.5q69 0 141 -24zM281 260v118q-20 11 -39 11q-49 0 -72 -42t-23 -112q0 -144 58 -144q35 0 55.5 48t20.5 121z" />
<glyph unicode="r" d="M286 362q-22 12 -42 12q-83 0 -83 -153v-221h-114v480h113v-61q30 71 102 71q23 0 43 -10z" />
<glyph unicode="s" horiz-adv-x="344" d="M283 370q-52 26 -101 26q-20 0 -32.5 -11t-12.5 -30t18.5 -33.5t45.5 -26.5t54 -28t45.5 -45.5t18.5 -70.5q0 -81 -48.5 -121t-124.5 -40q-72 0 -115 27l14 100q52 -33 111 -33q21 0 37.5 14t16.5 37q0 20 -18.5 35t-45.5 27.5t-54 28.5t-45.5 44.5t-18.5 68.5 q0 72 47 111.5t117 39.5q54 0 104 -22z" />
<glyph unicode="t" horiz-adv-x="300" d="M284 384h-99v-201q0 -46 8.5 -69t33.5 -23q20 0 52 16l15 -88q-42 -29 -102 -29q-120 0 -120 176v218h-69v96h69v126l113 24v-150h99v-96z" />
<glyph unicode="u" horiz-adv-x="444" d="M42 167v313h113v-295q0 -50 9 -72.5t33 -22.5q43 0 64.5 51.5t21.5 133.5v205h114v-480h-114v68q-42 -78 -116 -78q-64 0 -94.5 43t-30.5 134z" />
<glyph unicode="v" horiz-adv-x="405" d="M209 143l88 337h111l-151 -480h-112l-149 480h123z" />
<glyph unicode="w" horiz-adv-x="618" d="M453 159l66 321h94l-117 -480h-115l-70 298l-63 -298h-115l-128 480h125l69 -321l73 321h105z" />
<glyph unicode="x" horiz-adv-x="385" d="M267 0l-83 166l-81 -166h-112l139 251l-126 229h128l69 -141l68 141h112l-126 -226l139 -254h-127z" />
<glyph unicode="y" horiz-adv-x="405" d="M152 -21l-156 501h123l89 -334l89 334h111l-151 -480l-73 -230h-97z" />
<glyph unicode="z" horiz-adv-x="350" d="M167 384h-139v96h288l5 -29l-149 -355h160v-96h-308l-8 28z" />
<glyph unicode="{" horiz-adv-x="315" d="M215 156v-104q0 -33 5.5 -55t17.5 -32.5t20 -14.5t22 -7l-27 -88q-65 11 -103 55t-38 121v115q0 72 -12.5 103t-50.5 49v44q42 20 52.5 50t10.5 102v115q0 73 36.5 117.5t104.5 58.5l27 -83q-38 -7 -51.5 -35t-13.5 -84v-99q0 -60 -12.5 -95.5t-49.5 -68.5q36 -32 49 -67 t13 -97z" />
<glyph unicode="|" horiz-adv-x="246" d="M171 790v-955h-96v955h96z" />
<glyph unicode="}" horiz-adv-x="315" d="M101 484v104q0 33 -6 55t-17.5 32.5t-20 14.5t-22.5 7l27 88q65 -11 103 -55t38 -121v-115q0 -72 12.5 -103t50.5 -49v-44q-41 -20 -52 -50.5t-11 -101.5v-115q0 -73 -36.5 -117.5t-104.5 -58.5l-27 83q38 7 52 35t14 84v99q0 61 12 96t49 68q-36 32 -48.5 66.5 t-12.5 97.5z" />
<glyph unicode="~" horiz-adv-x="477" d="M99 213h-65q0 70 28.5 112t75.5 42q36 0 103 -43t92 -43q44 0 44 68v4h64q-3 -156 -100 -156q-41 0 -109 43t-89 43q-44 0 -44 -70z" />
<glyph unicode="&#xa2;" horiz-adv-x="394" d="M353 235l26 -87q-43 -28 -97 -36v-112h-79v113q-82 12 -129 73t-47 165q0 98 48 164.5t128 86.5v118h79v-111q46 -2 86 -17l-17 -100q-34 15 -69 18v-302q35 5 71 27zM141 364q0 -108 62 -143v278q-62 -36 -62 -135z" />
<glyph unicode="&#xa3;" horiz-adv-x="454" d="M344 317h-117q3 -33 3 -65q0 -94 -35 -156h228v-96h-344l-18 68q50 74 50 166q0 23 -6 83h-81v97h71q-3 33 -3 66q0 118 54 184t162 66q56 0 107 -21l-17 -102q-51 22 -102 22q-48 0 -66 -31.5t-18 -100.5q0 -35 5 -83h127v-97z" />
<glyph unicode="&#xa5;" horiz-adv-x="482" d="M18 318v81h130l-143 321h137l106 -270l109 270h116l-144 -321h131v-81h-155l-2 -97h157v-81h-157v-140h-120v140h-165v81h165l-4 97h-161z" />
<glyph unicode="&#xa8;" horiz-adv-x="333" d="M127 629q0 -29 -17 -47.5t-44 -18.5q-26 0 -43.5 18t-17.5 48t17 48.5t44 18.5t44 -18.5t17 -48.5zM295 629q0 -29 -17.5 -47.5t-43.5 -18.5q-27 0 -44.5 18t-17.5 48t16.5 48.5t45.5 18.5q26 0 43.5 -19t17.5 -48z" />
<glyph unicode="&#xa9;" horiz-adv-x="676" d="M429 259l21 -81q-36 -32 -99 -32q-76 0 -121.5 52t-45.5 147q0 96 52 157t134 61q35 0 73 -17l-18 -92q-29 19 -60 19q-36 0 -55 -32.5t-19 -81.5q0 -59 20.5 -91t58.5 -32q21 0 59 23zM651 354q0 -165 -89 -275.5t-224 -110.5q-137 0 -225 107.5t-88 276.5q0 164 89 275 t224 111q138 0 225.5 -111t87.5 -273zM576 352q0 129 -67 215t-171 86q-105 0 -171.5 -87.5t-66.5 -211.5q0 -135 69.5 -218.5t168.5 -83.5q103 0 170.5 84t67.5 216z" />
<glyph unicode="&#xab;" horiz-adv-x="393" d="M129 280l68 -170l-77 -29l-97 199l97 202l76 -27zM297 280l65 -170l-76 -29l-95 199l95 202l76 -27z" />
<glyph unicode="&#xad;" d="M261 238h-226v89h226v-89z" />
<glyph unicode="&#xae;" horiz-adv-x="601" d="M561 536q0 -135 -75 -225.5t-188 -90.5q-116 0 -189 90t-73 226q0 132 74.5 223.5t187.5 91.5q116 0 189.5 -92t73.5 -223zM489 536q0 100 -53.5 167.5t-137.5 67.5q-83 0 -136.5 -68.5t-53.5 -166.5q0 -104 55.5 -170t134.5 -66q83 0 137 66.5t54 169.5zM424 375h-82 l-21 83q-5 23 -13.5 34t-26.5 11h-12v-128h-81v319q45 10 91 10q125 0 125 -84q0 -55 -56 -77q21 -3 31.5 -19t18.5 -46zM269 633v-64h12q15 0 27 10t12 28q0 28 -39 28q-6 0 -12 -2z" />
<glyph unicode="&#xb4;" horiz-adv-x="262" d="M122 540l-72 27l97 163l91 -45z" />
<glyph unicode="&#xb8;" horiz-adv-x="496" d="M182 -79l44 88h67l-23 -49q29 -7 47 -26.5t18 -46.5q0 -44 -32 -68.5t-70 -24.5q-41 0 -71 15l23 56q20 -8 35 -8q27 0 27 26q0 33 -65 38z" />
<glyph unicode="&#xbb;" horiz-adv-x="393" d="M264 283l-68 170l76 29l98 -199l-98 -202l-74 26zM96 283l-65 170l77 29l94 -199l-94 -202l-77 26z" />
<glyph unicode="&#xc1;" horiz-adv-x="543" d="M419 0l-55 214h-199l-54 -214h-114l219 720h115l215 -720h-127zM265 566l-66 -248h132zM264 770l-45 53l144 125l65 -75z" />
<glyph unicode="&#xc9;" horiz-adv-x="450" d="M185 615v-194h213v-105h-213v-211h224v-105h-344v720h340v-105h-220zM223 770l-45 53l144 125l65 -75z" />
<glyph unicode="&#xcd;" horiz-adv-x="249" d="M185 720v-720h-120v720h120zM101 770l-45 53l144 125l65 -75z" />
<glyph unicode="&#xd3;" horiz-adv-x="597" d="M560 365q0 -161 -71.5 -268t-192.5 -107q-124 0 -191.5 105t-67.5 260q0 107 28 190t89.5 134t149.5 51q121 0 188.5 -101.5t67.5 -263.5zM433 355q0 119 -35 193t-103 74q-66 0 -98.5 -74.5t-32.5 -182.5q0 -107 37.5 -187t102.5 -80t97 73.5t32 183.5zM317 770l-45 53 l144 125l65 -75z" />
<glyph unicode="&#xd6;" horiz-adv-x="597" d="M560 365q0 -161 -71.5 -268t-192.5 -107q-124 0 -191.5 105t-67.5 260q0 107 28 190t89.5 134t149.5 51q121 0 188.5 -101.5t67.5 -263.5zM433 355q0 119 -35 193t-103 74q-66 0 -98.5 -74.5t-32.5 -182.5q0 -107 37.5 -187t102.5 -80t97 73.5t32 183.5zM269 855 q0 -28 -17.5 -47.5t-41.5 -19.5q-25 0 -42.5 19.5t-17.5 47.5q0 27 17.5 46.5t42.5 19.5q24 0 41.5 -19.5t17.5 -46.5zM462 855q0 -28 -17.5 -47.5t-41.5 -19.5t-41.5 19.5t-17.5 47.5q0 27 17.5 46.5t41.5 19.5t41.5 -19.5t17.5 -46.5z" />
<glyph unicode="&#xda;" horiz-adv-x="551" d="M276 -10q-100 0 -159 61t-59 185v484h119v-456q0 -166 104 -166q107 0 107 158v464h110v-452q0 -136 -56 -207t-166 -71zM304 770l-45 53l144 125l65 -75z" />
<glyph unicode="&#xdc;" horiz-adv-x="551" d="M276 -10q-100 0 -159 61t-59 185v484h119v-456q0 -166 104 -166q107 0 107 158v464h110v-452q0 -136 -56 -207t-166 -71zM246 855q0 -28 -17.5 -47.5t-41.5 -19.5q-25 0 -42.5 19.5t-17.5 47.5q0 27 17.5 46.5t42.5 19.5q24 0 41.5 -19.5t17.5 -46.5zM439 855 q0 -28 -17.5 -47.5t-41.5 -19.5t-41.5 19.5t-17.5 47.5q0 27 17.5 46.5t41.5 19.5t41.5 -19.5t17.5 -46.5z" />
<glyph unicode="&#xe1;" horiz-adv-x="412" d="M370 0h-106v25q0 20 8 55l-3 2q-12 -28 -17 -35q-42 -57 -117 -57q-48 0 -80 35.5t-32 88.5q0 50 19.5 87t54 57.5t72.5 31.5t84 14v22q0 72 -60 72q-28 0 -63.5 -10.5t-60.5 -26.5l-11 94q72 35 145 35q86 0 126.5 -37.5t40.5 -126.5v-326zM256 226q-50 -2 -83 -25 t-33 -68q0 -24 10 -39t25 -15q32 0 56.5 39t24.5 90v18zM231 540l-72 27l97 163l91 -45z" />
<glyph unicode="&#xe9;" horiz-adv-x="414" d="M347 117l29 -81q-61 -46 -147 -46q-92 0 -147 62.5t-55 182.5q0 113 55 184t143 71q73 0 116.5 -53t43.5 -142q0 -41 -6 -87h-236q1 -59 27.5 -93t69.5 -34q60 0 107 36zM144 293h131q3 48 -13 78t-47 30q-32 0 -50 -32.5t-21 -75.5zM258 540l-72 27l97 163l91 -45z" />
<glyph unicode="&#xed;" horiz-adv-x="208" d="M131 540l-72 27l97 163l91 -45zM161 480v-480h-114v480h114z" />
<glyph unicode="&#xf3;" horiz-adv-x="442" d="M415 248q0 -119 -54 -188.5t-143 -69.5q-83 0 -137 62t-54 178q0 117 53 188.5t146 71.5q92 0 140.5 -67t48.5 -175zM296 230q0 77 -17.5 118t-60.5 41q-34 0 -52.5 -40t-18.5 -101q0 -157 79 -157q35 0 52.5 39t17.5 100zM274 540l-72 27l97 163l91 -45z" />
<glyph unicode="&#xf6;" horiz-adv-x="442" d="M415 248q0 -119 -54 -188.5t-143 -69.5q-83 0 -137 62t-54 178q0 117 53 188.5t146 71.5q92 0 140.5 -67t48.5 -175zM296 230q0 77 -17.5 118t-60.5 41q-34 0 -52.5 -40t-18.5 -101q0 -157 79 -157q35 0 52.5 39t17.5 100zM208 629q0 -29 -17 -47.5t-44 -18.5 q-26 0 -43.5 18t-17.5 48t17 48.5t44 18.5t44 -18.5t17 -48.5zM376 629q0 -29 -17.5 -47.5t-43.5 -18.5q-27 0 -44.5 18t-17.5 48t16.5 48.5t45.5 18.5q26 0 43.5 -19t17.5 -48z" />
<glyph unicode="&#xfa;" horiz-adv-x="444" d="M42 167v313h113v-295q0 -50 9 -72.5t33 -22.5q43 0 64.5 51.5t21.5 133.5v205h114v-480h-114v68q-42 -78 -116 -78q-64 0 -94.5 43t-30.5 134zM254 540l-72 27l97 163l91 -45z" />
<glyph unicode="&#xfc;" horiz-adv-x="444" d="M42 167v313h113v-295q0 -50 9 -72.5t33 -22.5q43 0 64.5 51.5t21.5 133.5v205h114v-480h-114v68q-42 -78 -116 -78q-64 0 -94.5 43t-30.5 134zM207 629q0 -29 -17 -47.5t-44 -18.5q-26 0 -43.5 18t-17.5 48t17 48.5t44 18.5t44 -18.5t17 -48.5zM375 629 q0 -29 -17.5 -47.5t-43.5 -18.5q-27 0 -44.5 18t-17.5 48t16.5 48.5t45.5 18.5q26 0 43.5 -19t17.5 -48z" />
<glyph unicode="&#x150;" horiz-adv-x="597" d="M560 365q0 -161 -71.5 -268t-192.5 -107q-124 0 -191.5 105t-67.5 260q0 107 28 190t89.5 134t149.5 51q121 0 188.5 -101.5t67.5 -263.5zM433 355q0 119 -35 193t-103 74q-66 0 -98.5 -74.5t-32.5 -182.5q0 -107 37.5 -187t102.5 -80t97 73.5t32 183.5zM230 769l-53 43 l113 136l74 -61zM396 769l-51 48l142 131l65 -67z" />
<glyph unicode="&#x151;" horiz-adv-x="442" d="M415 248q0 -119 -54 -188.5t-143 -69.5q-83 0 -137 62t-54 178q0 117 53 188.5t146 71.5q92 0 140.5 -67t48.5 -175zM296 230q0 77 -17.5 118t-60.5 41q-34 0 -52.5 -40t-18.5 -101q0 -157 79 -157q35 0 52.5 39t17.5 100zM183 537l-68 23l83 167l90 -35zM327 537l-69 23 l102 167l90 -35z" />
<glyph unicode="&#x170;" horiz-adv-x="551" d="M276 -10q-100 0 -159 61t-59 185v484h119v-456q0 -166 104 -166q107 0 107 158v464h110v-452q0 -136 -56 -207t-166 -71zM206 769l-53 43l113 136l74 -61zM372 769l-51 48l142 131l65 -67z" />
<glyph unicode="&#x171;" horiz-adv-x="444" d="M42 167v313h113v-295q0 -50 9 -72.5t33 -22.5q43 0 64.5 51.5t21.5 133.5v205h114v-480h-114v68q-42 -78 -116 -78q-64 0 -94.5 43t-30.5 134zM166 537l-68 23l83 167l90 -35zM310 537l-69 23l102 167l90 -35z" />
<glyph unicode="&#x2c6;" horiz-adv-x="318" d="M245 539l-99 79l-100 -79l-36 60l141 133l134 -127z" />
<glyph unicode="&#x2da;" horiz-adv-x="266" d="M13 633q0 46 30 75.5t80 29.5q46 0 74 -27t28 -70q0 -104 -111 -104q-43 0 -72 25.5t-29 70.5zM85 640q0 -19 10 -31t25 -12q13 0 22 10.5t9 27.5q0 19 -9 30.5t-24 11.5t-24 -10t-9 -27z" />
<glyph unicode="&#x2dc;" horiz-adv-x="326" d="M72 564l-66 18q6 55 34.5 89.5t70.5 34.5q27 0 57 -27.5t41 -27.5q21 0 28 51l67 -18q-17 -128 -102 -128q-25 0 -55.5 28t-42.5 28q-23 0 -32 -48z" />
<glyph unicode="&#x2000;" horiz-adv-x="474" />
<glyph unicode="&#x2001;" horiz-adv-x="948" />
<glyph unicode="&#x2002;" horiz-adv-x="474" />
<glyph unicode="&#x2003;" horiz-adv-x="948" />
<glyph unicode="&#x2004;" horiz-adv-x="316" />
<glyph unicode="&#x2005;" horiz-adv-x="237" />
<glyph unicode="&#x2006;" horiz-adv-x="158" />
<glyph unicode="&#x2007;" horiz-adv-x="158" />
<glyph unicode="&#x2008;" horiz-adv-x="118" />
<glyph unicode="&#x2009;" horiz-adv-x="189" />
<glyph unicode="&#x200a;" horiz-adv-x="52" />
<glyph unicode="&#x2010;" d="M261 238h-226v89h226v-89z" />
<glyph unicode="&#x2011;" d="M261 238h-226v89h226v-89z" />
<glyph unicode="&#x2012;" d="M261 238h-226v89h226v-89z" />
<glyph unicode="&#x2013;" horiz-adv-x="453" d="M42 218v89h370v-89h-370z" />
<glyph unicode="&#x2014;" horiz-adv-x="710" d="M11 218v89h688v-89h-688z" />
<glyph unicode="&#x2018;" horiz-adv-x="212" d="M93 461l-75 264h106l51 -264h-82z" />
<glyph unicode="&#x2019;" horiz-adv-x="211" d="M194 725l-75 -264h-82l51 264h106z" />
<glyph unicode="&#x201a;" horiz-adv-x="223" d="M179 108l-74 -264h-83l51 264h106z" />
<glyph unicode="&#x201c;" horiz-adv-x="376" d="M93 461l-75 264h106l51 -264h-82zM258 461l-75 264h106l51 -264h-82z" />
<glyph unicode="&#x201d;" horiz-adv-x="376" d="M194 725l-75 -264h-82l51 264h106zM359 725l-75 -264h-82l51 264h106z" />
<glyph unicode="&#x201e;" horiz-adv-x="385" d="M344 107l-74 -263h-83l51 263h106zM179 108l-74 -264h-83l51 264h106z" />
<glyph unicode="&#x2026;" horiz-adv-x="686" d="M180 67q0 -32 -20.5 -54.5t-48.5 -22.5t-48.5 22.5t-20.5 54.5t20.5 54.5t48.5 22.5t48.5 -22.5t20.5 -54.5zM412 67q0 -32 -20.5 -54.5t-48.5 -22.5t-48.5 22.5t-20.5 54.5t20.5 54.5t48.5 22.5t48.5 -22.5t20.5 -54.5zM644 67q0 -32 -20.5 -54.5t-48.5 -22.5 t-48.5 22.5t-20.5 54.5t20.5 54.5t48.5 22.5t48.5 -22.5t20.5 -54.5z" />
<glyph unicode="&#x202f;" horiz-adv-x="189" />
<glyph unicode="&#x2039;" horiz-adv-x="228" d="M129 280l68 -170l-77 -29l-97 199l97 202l76 -27z" />
<glyph unicode="&#x203a;" horiz-adv-x="228" d="M99 283l-68 170l77 29l97 -199l-97 -202l-75 26z" />
<glyph unicode="&#x205f;" horiz-adv-x="237" />
<glyph unicode="&#x20ac;" horiz-adv-x="557" d="M28 400l14 78h73q27 115 98.5 183.5t175.5 68.5q89 0 136 -28l-20 -110q-60 30 -126 30q-46 0 -83.5 -39t-52.5 -105h237l-13 -78h-239q-1 -10 -1 -38q0 -27 1 -41h230l-14 -79h-203q16 -67 50.5 -105.5t86.5 -38.5q63 0 121 45l37 -93q-80 -60 -176 -60 q-93 0 -159.5 69.5t-90.5 182.5h-102l14 79h78v28q0 34 1 51h-73z" />
<glyph unicode="&#x2122;" horiz-adv-x="654" d="M160 645v-286h-78v286h-79v77h236v-77h-79zM438 473l60 247h98l24 -361h-73l-10 262l-63 -245h-80l-55 245l-13 -262h-70l26 361h95z" />
<glyph unicode="&#xe000;" horiz-adv-x="480" d="M0 480h480v-480h-480v480z" />
</font>
</defs>
</svg>
