<?xml version="1.0" encoding="utf-8"?>
<!-- Generator: Adobe Illustrator 24.1.3, SVG Export Plug-In . SVG Version: 6.00 Build 0)  -->
<svg version="1.1" id="hvg_x5F_negyzetLogo_xA0_Image_1_"
	 xmlns="http://www.w3.org/2000/svg" xmlns:xlink="http://www.w3.org/1999/xlink" x="0px" y="0px" viewBox="0 0 480 305"
	 style="enable-background:new 0 0 480 305;" xml:space="preserve">
<style type="text/css">
	.st0{display:none;fill:#EA5B0C;}
	.st1{fill:#BBBFC0;}
	.st2{fill:#FFFFFF;}
</style>
<rect x="90.4" y="-73.7" class="st0" width="1429.7" height="850.3"/>
<rect class="st1" width="480" height="305"/>
<path class="st2" d="M174.8,143.4c0.9-0.9,1.7-1.6,3.2-2.3c1.4-0.5,2.7-0.8,4.1-0.8c3,0,5.3,1.1,7.1,3.2c1.8,2.1,2.5,5.3,2.5,9.5
	v16.4h-9V153c0-2.1-0.3-3.8-0.9-4.6c-0.5-0.9-1.4-1.3-2.7-1.3c-1.1,0-1.9,0.2-2.7,0.3c-0.8,0.3-1.4,0.8-1.7,1.3v20.5h-8.9l0.2-41.1
	h8.8V143.4z"/>
<path class="st2" d="M205.1,159.7L205.1,159.7l4.8-18.8h9.2l-9.4,28.6h-9l-9.3-28.6h9.2L205.1,159.7z"/>
<path class="st2" d="M221.1,144.5c1.9-2.8,4.7-4.1,8.3-4.1c1.6,0,3,0.5,4.1,1.1c0.8,0.5,1.9,1.3,2.5,2.1l0.5-2.7h8.3v28.4
	c0,3.8-1.3,6.8-3.8,8.8c-2.7,1.9-6.3,3-10.7,3c-1.4,0-3-0.2-4.6-0.5s-3.2-0.9-4.6-1.6l2.1-6.3c0.9,0.3,1.9,0.8,3,0.9
	c1.3,0.3,2.5,0.5,4.1,0.5c1.9,0,3.2-0.5,4.1-1.3s1.6-1.9,1.6-3.5V167c-0.9,1.1-1.7,1.7-2.8,2.3s-2.3,0.9-3.8,0.9
	c-3.5,0-6.3-1.3-8.3-3.9c-1.9-2.7-3-6.2-3-10.6C218.2,151.3,219.1,147.4,221.1,144.5z M228.1,161.3c0.8,1.3,1.7,1.9,3.3,1.9
	c1.1,0,1.7-0.2,2.5-0.5s1.3-0.9,1.7-1.4v-11.8c-0.5-0.8-1.1-1.3-1.7-1.6c-0.8-0.3-1.6-0.5-2.5-0.5c-1.6,0-2.7,0.9-3.5,2.3
	s-1.3,3.8-1.3,6C227.1,157.9,227.4,160.1,228.1,161.3z"/>
<path class="st2" d="M308,166.3c-1.1,0.9-1.7,1.4-3.2,2.1c-1.3,0.8-3,1.1-4.7,1.1c-2.8,0-5.1-0.9-6.9-2.8c-1.6-1.9-2.5-4.7-2.5-8.7
	v-17h8.8v17.2c0,1.6,0.3,2.8,0.9,3.5c0.5,0.8,1.4,1.3,2.5,1.3c0.9,0,1.7-0.2,2.5-0.3c0.8-0.2,1.3-0.8,1.7-1.3V141h8.8v28.1h-7.6
	L308,166.3z"/>
<rect x="249" y="160.8" class="st2" width="8.8" height="8.8"/>
<path class="st2" d="M271.1,143.4c0.9-0.9,1.7-1.6,3.2-2.3c1.3-0.5,2.7-0.8,4.1-0.8c3,0,5.3,1.1,7.1,3.2c1.7,2.1,2.5,5.3,2.5,9.5
	v16.4h-9V153c0-2.1-0.3-3.8-0.9-4.6c-0.5-0.9-1.4-1.3-2.7-1.3c-1.1,0-1.9,0.2-2.7,0.3c-0.8,0.3-1.4,0.8-1.7,1.3v20.5h-8.8v-41.3h8.7
	L271.1,143.4z"/>
</svg>
