<?xml version="1.0" encoding="utf-8"?>
<!-- Generator: Adobe Illustrator 25.0.0, SVG Export Plug-In . SVG Version: 6.00 Build 0)  -->
<svg version="1.1" id="Layer_5" xmlns="http://www.w3.org/2000/svg" xmlns:xlink="http://www.w3.org/1999/xlink" x="0px" y="0px"
	 width="1225px" height="385px" viewBox="0 0 1225 385" style="enable-background:new 0 0 1225 385;" xml:space="preserve">
<style type="text/css">
	.st0{fill-rule:evenodd;clip-rule:evenodd;fill:#7A7A7A;}
	.st1{fill:#5E5E5E;}
	.st2{fill:#FFFFFF;}
	.st3{fill-rule:evenodd;clip-rule:evenodd;fill:#7E7E7E;}
	.st4{fill-rule:evenodd;clip-rule:evenodd;fill:#F67A17;}
	.st5{fill-rule:evenodd;clip-rule:evenodd;fill:#FFFFFF;}
	.st6{fill:#B4BBBC;}
	.st7{fill-rule:evenodd;clip-rule:evenodd;fill:#B4BBBC;}
	.st8{fill-rule:evenodd;clip-rule:evenodd;fill:#888888;}
	.st9{fill:#222222;}
	.st10{fill:#F67A17;}
	.st11{fill:#888888;}
	.st12{fill:none;}
	.st13{fill-rule:evenodd;clip-rule:evenodd;fill:#6D6D6D;}
	.st14{fill:#CC3333;}
	.st15{fill:#339900;}
	.st16{fill:#3399CC;}
	.st17{fill:#F36100;}
	.st18{fill:#415E9B;}
	.st19{fill:#2CB7E5;}
	.st20{fill:#006699;}
	.st21{fill:#CB0030;}
	.st22{fill:#325C86;}
	.st23{fill-rule:evenodd;clip-rule:evenodd;fill:#4E4A41;}
	.st24{fill:#4E4A41;}
	.st25{fill-rule:evenodd;clip-rule:evenodd;fill:#5E5E5E;}
	.st26{fill:none;stroke:#5E5E5E;stroke-width:2;stroke-miterlimit:10;}
	.st27{fill:none;stroke:#FFFFFF;stroke-width:2;stroke-miterlimit:10;}
	.st28{fill-rule:evenodd;clip-rule:evenodd;fill:#DCDCDC;}
	.st29{fill-rule:evenodd;clip-rule:evenodd;fill:#5B4636;}
	.st30{fill:#CACACA;}
	.st31{fill:#A7A7A7;}
	.st32{fill-rule:evenodd;clip-rule:evenodd;fill:#464646;}
	.st33{fill:#999999;}
	.st34{fill-rule:evenodd;clip-rule:evenodd;fill:#999999;}
	.st35{fill-rule:evenodd;clip-rule:evenodd;fill:#333333;}
	.st36{fill-rule:evenodd;clip-rule:evenodd;fill:#FFDCBF;}
	.st37{fill:#333333;}
	.st38{fill:none;stroke:#FFFFFF;stroke-width:2;stroke-miterlimit:100;}
	.st39{fill-rule:evenodd;clip-rule:evenodd;fill:#B9B9B9;}
	.st40{fill-rule:evenodd;clip-rule:evenodd;}
	.st41{fill-rule:evenodd;clip-rule:evenodd;fill:#6B9B32;}
	.st42{fill-rule:evenodd;clip-rule:evenodd;fill:#D74747;}
	.st43{fill:#E95A1A;}
	.st44{fill-rule:evenodd;clip-rule:evenodd;fill:#E25900;}
</style>
<polygon class="st0" points="513.9,153.8 512.6,152.5 508.1,156.9 503.7,152.5 502.4,153.8 506.8,158.2 502.4,162.7 503.7,164 
	508.1,159.6 512.6,164 513.9,162.7 509.5,158.2 "/>
<path class="st1" d="M548.9,167h2.5l-7.5-20h-1.1l-7.5,20h2.3l2-5.5h7.2L548.9,167z M542.6,153.6l0.7-3l0,0l0.7,3l2.2,6h-5.8
	L542.6,153.6z"/>
<path class="st2" d="M583.9,167h2.5l-7.5-20h-1.1l-7.5,20h2.3l2-5.5h7.2L583.9,167z M577.6,153.6l0.7-3l0,0l0.7,3l2.2,6h-5.8
	L577.6,153.6z"/>
<path class="st1" d="M609.6,166.2c-0.8-0.3-1.6-0.6-2.4-0.7l1.8-5.1h6.7l1.9,5.1c-0.4,0.1-0.8,0.2-1.2,0.3s-0.8,0.2-1.2,0.4v0.8h7.3
	v-0.8c-0.3-0.2-0.7-0.3-1-0.4c-0.4-0.1-0.7-0.2-1.1-0.3l-7.1-18.5h-0.8l-7.1,18.5c-0.7,0.2-1.3,0.4-2,0.7v0.8h6.2L609.6,166.2
	L609.6,166.2z M611.8,153l0.7-2.5h0.1l0.5,2.4l2.2,6h-5.7L611.8,153z"/>
<path class="st2" d="M644.6,166.2c-0.8-0.3-1.6-0.6-2.4-0.7l1.8-5.1h6.7l1.9,5.1c-0.4,0.1-0.8,0.2-1.2,0.3s-0.8,0.2-1.2,0.4v0.8h7.3
	v-0.8c-0.3-0.2-0.7-0.3-1-0.4c-0.4-0.1-0.7-0.2-1.1-0.3l-7.1-18.5h-0.8l-7.1,18.5c-0.7,0.2-1.3,0.4-2,0.7v0.8h6.2L644.6,166.2
	L644.6,166.2z M646.8,153l0.7-2.5h0.1l0.5,2.4l2.2,6h-5.7L646.8,153z"/>
<polygon class="st3" points="685.9,156 682.9,159 679.9,156 679.4,156.5 682.9,160 686.4,156.5 "/>
<polygon class="st4" points="720.9,156 717.9,159 714.9,156 714.4,156.5 717.9,160 721.4,156.5 "/>
<path class="st5" d="M750.3,152c0.2,0,0.5,0.1,0.6,0.3l4.2,4.1c0.3,0.3,0.3,0.9,0,1.2l-4.2,4.1c-0.3,0.3-0.9,0.3-1.2,0
	s-0.3-0.9,0-1.2l3.6-3.5l-3.6-3.5c-0.3-0.3-0.3-0.9,0-1.2C749.8,152.1,750,152,750.3,152z"/>
<g>
	<path class="st6" d="M13.2,195.3c-1,0-1.9,0.8-1.9,1.9c0,1,0.8,1.9,1.9,1.9c1,0,1.9-0.8,1.9-1.9C15.1,196.1,14.3,195.3,13.2,195.3z
		"/>
	<path class="st6" d="M11.4,189.8v2.7c1.7,0,3.4,0.7,4.6,1.9s1.9,2.9,1.9,4.6h2.7C20.6,193.9,16.5,189.8,11.4,189.8z"/>
	<path class="st6" d="M11.4,185v2.7c6.2,0,11.3,5.1,11.3,11.3h2.7C25.4,191.3,19.1,185,11.4,185z"/>
</g>
<path class="st7" d="M61.7,202H45c-0.9,0-1.7-0.7-1.7-1.7v-16.7c0-0.9,0.7-1.7,1.7-1.7h16.7c0.9,0,1.7,0.7,1.7,1.7v16.7
	C63.4,201.3,62.6,202,61.7,202z M58.5,188.9c0.9,0,1.8,0,1.8,0l0.1-2.8c0,0-0.8-0.1-2-0.1c-2.8,0-4,1.9-4,3.9c0,1.3,0,1.6,0,1.6h-2
	v3h2v7.4h2.9v-7.4h2.9l0.1-3h-3c0-0.5,0-0.9,0-1.2c0,0,0,0,0-0.1C57.4,189.4,57.5,188.9,58.5,188.9z"/>
<path class="st6" d="M96.9,186.7c-0.6,0.3-1.3,0.5-2.1,0.6c0.7-0.4,1.3-1.1,1.6-2c-0.7,0.4-1.5,0.7-2.3,0.9
	c-0.7-0.7-1.6-1.1-2.6-1.1c-2,0-3.6,1.6-3.6,3.6c0,0.3,0,0.6,0.1,0.8c-3-0.1-5.6-1.6-7.4-3.7c-0.3,0.5-0.5,1.1-0.5,1.8
	c0,1.2,0.6,2.3,1.6,3c-0.6,0-1.1-0.2-1.6-0.4l0,0c0,1.7,1.2,3.2,2.9,3.5c-0.3,0.1-0.6,0.1-0.9,0.1c-0.2,0-0.5,0-0.7-0.1
	c0.5,1.4,1.8,2.5,3.4,2.5c-1.2,1-2.8,1.5-4.5,1.5c-0.3,0-0.6,0-0.9-0.1c1.6,1,3.5,1.6,5.5,1.6c6.6,0,10.2-5.5,10.2-10.2
	c0-0.2,0-0.3,0-0.5C95.8,188,96.4,187.4,96.9,186.7z"/>
<g>
	<path class="st6" d="M129.4,192.7c0-2.8,2.3-4.1,2.4-4.2c-1.3-1.9-3.3-2.2-4.1-2.2c-1.7-0.2-3.4,1-4.2,1c-0.9,0-2.2-1-3.7-1
		c-1.9,0-3.6,1.1-4.5,2.8c-2,3.4-0.5,8.4,1.4,11.1c0.9,1.3,2,2.8,3.5,2.8c1.4-0.1,1.9-0.9,3.6-0.9s2.2,0.9,3.6,0.9
		c1.5,0,2.5-1.3,3.4-2.7c1.1-1.5,1.5-3,1.5-3.1C132.3,197.1,129.4,196,129.4,192.7z"/>
	<path class="st6" d="M126.6,184.5c0.8-0.9,1.3-2.2,1.1-3.5c-1.1,0-2.5,0.8-3.3,1.7c-0.7,0.8-1.3,2.1-1.2,3.4
		C124.6,186.2,125.8,185.4,126.6,184.5z"/>
</g>
<g>
	<path class="st6" d="M169.1,191.8c-0.3-1.2-1.3-2.1-2.5-2.3c-2.9-0.3-5.8-0.3-8.6-0.3c-2.9,0-5.8,0-8.6,0.3c-1.2,0.1-2.2,1-2.5,2.3
		c-0.4,1.7-0.4,3.7-0.4,5.5s0,3.7,0.4,5.5c0.3,1.2,1.3,2.1,2.5,2.3c2.9,0.3,5.8,0.3,8.6,0.3c2.9,0,5.8,0,8.6-0.3
		c1.2-0.1,2.2-1,2.5-2.3c0.4-1.7,0.4-3.7,0.4-5.5S169.5,193.6,169.1,191.8z M153,193.2h-1.7v8.9h-1.6v-8.9h-1.6v-1.5h4.9L153,193.2
		L153,193.2z M155.8,202.1v-0.8c-0.6,0.6-1.1,0.9-1.6,0.9c-0.4,0-0.8-0.2-0.9-0.6c-0.1-0.2-0.1-0.6-0.1-1.1v-6.1h1.4v5.7
		c0,0.3,0,0.5,0,0.5c0,0.2,0.1,0.3,0.3,0.3c0.3,0,0.6-0.2,0.9-0.7v-5.9h1.4v7.7h-1.4V202.1z M162.5,199.8c0,0.7,0,1.2-0.1,1.6
		c-0.2,0.6-0.6,0.9-1.1,0.9s-1-0.3-1.4-0.9v0.7h-1.4v-10.3h1.4v3.4c0.5-0.6,0.9-0.8,1.4-0.8c0.6,0,0.9,0.3,1.1,0.9
		c0.1,0.3,0.1,0.8,0.1,1.5V199.8z M167.7,198.5L167.7,198.5h-2.8v1.4c0,0.7,0.2,1.1,0.7,1.1c0.3,0,0.5-0.2,0.6-0.6
		c0-0.1,0-0.4,0-0.9h1.4v0.2c0,0.4,0,0.8,0,0.9c0,0.3-0.2,0.6-0.3,0.8c-0.4,0.6-1,0.8-1.7,0.8s-1.3-0.3-1.7-0.8
		c-0.3-0.4-0.4-1-0.4-1.8v-2.7c0-0.8,0.1-1.4,0.4-1.8c0.4-0.5,1-0.8,1.7-0.8s1.3,0.3,1.6,0.8c0.3,0.4,0.4,1,0.4,1.8v1.6H167.7z"/>
	<path class="st6" d="M165.6,195.5c-0.5,0-0.7,0.4-0.7,1.1v0.7h1.4v-0.7C166.3,195.9,166.1,195.5,165.6,195.5z"/>
	<path class="st6" d="M160.5,195.5c-0.2,0-0.5,0.1-0.7,0.3v4.7c0.2,0.2,0.5,0.3,0.7,0.3c0.4,0,0.6-0.3,0.6-1v-3.3
		C161.1,195.9,160.9,195.5,160.5,195.5z"/>
	<path class="st6" d="M161.2,188.5c0.5,0,1-0.3,1.6-1v0.8h1.4v-7.8h-1.4v5.9c-0.3,0.4-0.6,0.7-0.9,0.7c-0.2,0-0.3-0.1-0.3-0.3
		c0,0,0-0.2,0-0.5v-5.7h-1.4v6.2c0,0.5,0,0.9,0.1,1.2C160.5,188.4,160.8,188.5,161.2,188.5z"/>
	<path class="st6" d="M151.4,184.2v4.2h1.6v-4.2l1.9-6.2h-1.6l-1.1,4.1l-1.1-4.1h-1.6c0.3,1,0.7,1.9,1,2.9
		C151,182.4,151.3,183.5,151.4,184.2z"/>
	<path class="st6" d="M157,188.5c0.7,0,1.3-0.3,1.6-0.8c0.3-0.4,0.4-1,0.4-1.8v-2.7c0-0.8-0.1-1.4-0.4-1.8c-0.4-0.5-0.9-0.8-1.6-0.8
		c-0.7,0-1.3,0.3-1.6,0.8c-0.3,0.4-0.4,1-0.4,1.8v2.7c0,0.8,0.1,1.4,0.4,1.8C155.7,188.3,156.3,188.5,157,188.5z M156.3,182.9
		c0-0.7,0.2-1.1,0.7-1.1s0.7,0.4,0.7,1.1v3.3c0,0.7-0.2,1.1-0.7,1.1s-0.7-0.4-0.7-1.1V182.9z"/>
</g>
<path class="st6" d="M183,187.4c-0.9,0-1.6,0.7-1.6,1.6v6.7c0,0.9,0.7,1.6,1.6,1.6c0.9,0,1.6-0.7,1.6-1.6V189
	C184.6,188.1,183.9,187.4,183,187.4 M195.9,181.4l1.1-2c0.1-0.1,0-0.2-0.1-0.3s-0.2,0-0.3,0.1l-1.1,2.1c-1-0.4-2-0.7-3.1-0.7
	s-2.2,0.2-3.1,0.7l-1.1-2.1c-0.1-0.1-0.2-0.1-0.3-0.1c-0.1,0.1-0.1,0.2-0.1,0.3l1.1,2c-2.2,1.1-3.7,3.3-3.7,5.8h14.5
	C199.6,184.7,198.1,182.5,195.9,181.4 M189.1,184.5c-0.3,0-0.6-0.3-0.6-0.6s0.3-0.6,0.6-0.6s0.6,0.3,0.6,0.6
	C189.7,184.3,189.4,184.5,189.1,184.5 M195.7,184.5c-0.3,0-0.6-0.3-0.6-0.6s0.3-0.6,0.6-0.6s0.6,0.3,0.6,0.6
	C196.3,184.3,196,184.5,195.7,184.5 M185.2,187.7v10.4c0,0.9,0.8,1.7,1.7,1.7h1.2v3.6c0,0.9,0.7,1.6,1.6,1.6c0.9,0,1.6-0.7,1.6-1.6
	v-3.6h2.2v3.6c0,0.9,0.7,1.6,1.6,1.6c0.9,0,1.6-0.7,1.6-1.6v-3.6h1.2c0.9,0,1.7-0.8,1.7-1.7v-10.4H185.2z M203.4,189
	c0-0.9-0.7-1.6-1.6-1.6c-0.9,0-1.6,0.7-1.6,1.6v6.7c0,0.9,0.7,1.6,1.6,1.6c0.9,0,1.6-0.7,1.6-1.6V189z"/>
<path class="st2" d="M12,215.6c0.8-0.8,2.1-0.8,2.9,0l9.9,9.9c0.8,0.8,0.8,2.1,0,2.9l-9.9,9.9c-0.4,0.4-0.9,0.6-1.5,0.6
	c-0.5,0-1-0.2-1.5-0.6c-0.8-0.8-0.8-2.1,0-2.9l8.4-8.5l-8.4-8.5C11.2,217.7,11.2,216.4,12,215.6z"/>
<path class="st2" d="M59.8,216.6c-0.8-0.8-2.1-0.8-2.9,0l-9.9,9.9c-0.8,0.8-0.8,2.1,0,2.9l9.9,9.9c0.4,0.4,0.9,0.6,1.5,0.6
	c0.5,0,1-0.2,1.5-0.6c0.8-0.8,0.8-2.1,0-2.9l-8.4-8.5l8.4-8.5C60.6,218.7,60.6,217.4,59.8,216.6z"/>
<polygon class="st2" points="93.9,234 88.4,228.5 82.9,234 81.4,232.5 86.9,227 81.4,221.5 82.9,220 88.4,225.6 93.9,220 
	95.4,221.5 89.8,227 95.4,232.5 "/>
<path class="st2" d="M115.4,233L115.4,233"/>
<path class="st2" d="M118.4,233l13-13l-2-1l-13,13v1H118.4"/>
<path class="st2" d="M132.4,220L132.4,220"/>
<g>
	<polygon class="st5" points="116.4,226 114.4,226 114.4,235 115.4,235 116.4,235 123.4,235 123.4,233 116.4,233 	"/>
	<polygon class="st5" points="129.4,218 122.4,218 122.4,220 129.4,220 129.4,227 131.4,227 131.4,220 131.4,218 	"/>
</g>
<circle class="st8" cx="227.9" cy="224.5" r="1.5"/>
<circle class="st8" cx="227.9" cy="230.5" r="1.5"/>
<path class="st2" d="M14.3,251.7c0.5-0.4,1.2-0.4,1.7,0.2l2.5,3.3l2.7-3.7c0.4-0.6,1.1-0.7,1.6-0.2s0.5,1.3,0.1,1.8l-2.7,3.7h4.3
	c1.6,0,2.9,1.3,2.9,2.9V270c0,1.6-1.3,2.9-2.9,2.9H10.2c-1.6,0-2.9-1.3-2.9-2.9v-10.3c0-1.6,1.3-2.9,2.9-2.9h6.5l-2.5-3.3
	C13.7,253,13.8,252.2,14.3,251.7z M25.3,264.2c0.4,0,0.7-0.3,0.7-0.8s-0.3-0.8-0.7-0.8s-0.7,0.3-0.7,0.8S24.9,264.2,25.3,264.2z
	 M25.3,261.3c0.4,0,0.7-0.3,0.7-0.8c0-0.4-0.3-0.8-0.7-0.8s-0.7,0.3-0.7,0.8C24.5,261,24.9,261.3,25.3,261.3z M11.7,259.8
	c-0.8,0-1.4,0.7-1.4,1.5v7.5c0,0.8,0.6,1.5,1.4,1.5h10.1c0.8,0,1.4-0.7,1.4-1.5v-7.5c0-0.8-0.6-1.5-1.4-1.5H11.7z"/>
<path class="st9" d="M49.3,251.7c0.5-0.4,1.2-0.4,1.7,0.2l2.5,3.3l2.7-3.7c0.4-0.6,1.1-0.7,1.6-0.2s0.5,1.3,0.1,1.8l-2.7,3.7h4.3
	c1.6,0,2.9,1.3,2.9,2.9V270c0,1.6-1.3,2.9-2.9,2.9H45.2c-1.6,0-2.9-1.3-2.9-2.9v-10.3c0-1.6,1.3-2.9,2.9-2.9h6.5l-2.5-3.3
	C48.7,253,48.8,252.2,49.3,251.7z M60.3,264.2c0.4,0,0.7-0.3,0.7-0.8s-0.3-0.8-0.7-0.8s-0.7,0.3-0.7,0.8S59.9,264.2,60.3,264.2z
	 M60.3,261.3c0.4,0,0.7-0.3,0.7-0.8c0-0.4-0.3-0.8-0.7-0.8s-0.7,0.3-0.7,0.8C59.5,261,59.9,261.3,60.3,261.3z M46.7,259.8
	c-0.8,0-1.4,0.7-1.4,1.5v7.5c0,0.8,0.6,1.5,1.4,1.5h10.1c0.8,0,1.4-0.7,1.4-1.5v-7.5c0-0.8-0.6-1.5-1.4-1.5H46.7z"/>
<path class="st10" d="M84.3,251.7c0.5-0.4,1.2-0.4,1.7,0.2l2.5,3.3l2.7-3.7c0.4-0.6,1.1-0.7,1.6-0.2s0.5,1.3,0.1,1.8l-2.7,3.7h4.3
	c1.6,0,2.9,1.3,2.9,2.9V270c0,1.6-1.3,2.9-2.9,2.9H80.2c-1.6,0-2.9-1.3-2.9-2.9v-10.3c0-1.6,1.3-2.9,2.9-2.9h6.5l-2.5-3.3
	C83.7,253,83.8,252.2,84.3,251.7z M95.3,264.2c0.4,0,0.7-0.3,0.7-0.8s-0.3-0.8-0.7-0.8s-0.7,0.3-0.7,0.8S94.9,264.2,95.3,264.2z
	 M95.3,261.3c0.4,0,0.7-0.3,0.7-0.8c0-0.4-0.3-0.8-0.7-0.8s-0.7,0.3-0.7,0.8C94.5,261,94.9,261.3,95.3,261.3z M81.7,259.8
	c-0.8,0-1.4,0.7-1.4,1.5v7.5c0,0.8,0.6,1.5,1.4,1.5h10.1c0.8,0,1.4-0.7,1.4-1.5v-7.5c0-0.8-0.6-1.5-1.4-1.5H81.7z"/>
<path class="st11" d="M119.3,251.7c0.5-0.4,1.2-0.4,1.7,0.2l2.5,3.3l2.7-3.7c0.4-0.6,1.1-0.7,1.6-0.2c0.5,0.5,0.5,1.3,0.1,1.8
	l-2.7,3.7h4.3c1.6,0,2.9,1.3,2.9,2.9V270c0,1.6-1.3,2.9-2.9,2.9h-14.3c-1.6,0-2.9-1.3-2.9-2.9v-10.3c0-1.6,1.3-2.9,2.9-2.9h6.5
	l-2.5-3.3C118.7,253,118.8,252.2,119.3,251.7z M130.3,264.2c0.4,0,0.7-0.3,0.7-0.8s-0.3-0.8-0.7-0.8s-0.7,0.3-0.7,0.8
	S129.9,264.2,130.3,264.2z M130.3,261.3c0.4,0,0.7-0.3,0.7-0.8c0-0.4-0.3-0.8-0.7-0.8s-0.7,0.3-0.7,0.8
	C129.5,261,129.9,261.3,130.3,261.3z M116.7,259.8c-0.8,0-1.4,0.7-1.4,1.5v7.5c0,0.8,0.6,1.5,1.4,1.5h10.1c0.8,0,1.4-0.7,1.4-1.5
	v-7.5c0-0.8-0.6-1.5-1.4-1.5H116.7z"/>
<path class="st12" d="M17.9,70h-0.3C8,70,0.1,62.2,0.1,52.5l0,0C0.1,42.8,8,35,17.6,35h0.3c9.7,0,17.5,7.8,17.5,17.5l0,0
	C35.4,62.2,27.5,70,17.9,70z"/>
<g>
	<polygon class="st13" points="1166.4,87.6 1171.5,92 1172.7,90.5 1167.6,86.1 	"/>
	<polygon class="st13" points="1175.9,83 1171.2,89.2 1172.7,90.5 1177.4,84.3 	"/>
</g>
<path class="st14" d="M271.4,237h-16c-1.1,0-2-0.9-2-2v-16c0-1.1,0.9-2,2-2h16c1.1,0,2,0.9,2,2v16C273.4,236.1,272.5,237,271.4,237z
	"/>
<g>
	<path class="st2" d="M270.9,227.7l-7.1-7.1c-0.1-0.1-0.2-0.1-0.2,0l-7.1,7.1c-0.1,0.1-0.1,0.2,0,0.2h2v4.6c0,0.1,0.1,0.2,0.2,0.2
		h3.5v-4.2c0-0.1,0.1-0.2,0.2-0.2h2.8c0.1,0,0.2,0.1,0.2,0.2v4.2h3.5c0.1,0,0.2-0.1,0.2-0.2v-4.6h2C271,227.9,271,227.8,270.9,227.7
		z"/>
</g>
<path class="st15" d="M306.4,237h-16c-1.1,0-2-0.9-2-2v-16c0-1.1,0.9-2,2-2h16c1.1,0,2,0.9,2,2v16C308.4,236.1,307.5,237,306.4,237z
	"/>
<g>
	<path class="st2" d="M305.9,227.7l-7.1-7.1c-0.1-0.1-0.2-0.1-0.2,0l-7.1,7.1c-0.1,0.1-0.1,0.2,0,0.2h2v4.6c0,0.1,0.1,0.2,0.2,0.2
		h3.5v-4.2c0-0.1,0.1-0.2,0.2-0.2h2.8c0.1,0,0.2,0.1,0.2,0.2v4.2h3.5c0.1,0,0.2-0.1,0.2-0.2v-4.6h2C306,227.9,306,227.8,305.9,227.7
		z"/>
</g>
<path class="st16" d="M341.4,237h-16c-1.1,0-2-0.9-2-2v-16c0-1.1,0.9-2,2-2h16c1.1,0,2,0.9,2,2v16C343.4,236.1,342.5,237,341.4,237z
	"/>
<g>
	<path class="st2" d="M340.9,227.7l-7.1-7.1c-0.1-0.1-0.2-0.1-0.2,0l-7.1,7.1c-0.1,0.1-0.1,0.2,0,0.2h2v4.6c0,0.1,0.1,0.2,0.2,0.2
		h3.5v-4.2c0-0.1,0.1-0.2,0.2-0.2h2.8c0.1,0,0.2,0.1,0.2,0.2v4.2h3.5c0.1,0,0.2-0.1,0.2-0.2v-4.6h2C341,227.9,341,227.8,340.9,227.7
		z"/>
</g>
<path class="st17" d="M376.4,237h-16c-1.1,0-2-0.9-2-2v-16c0-1.1,0.9-2,2-2h16c1.1,0,2,0.9,2,2v16C378.4,236.1,377.5,237,376.4,237z
	"/>
<path class="st18" d="M411.4,237h-16c-1.1,0-2-0.9-2-2v-16c0-1.1,0.9-2,2-2h16c1.1,0,2,0.9,2,2v16C413.4,236.1,412.5,237,411.4,237z
	"/>
<path class="st19" d="M446.4,237h-16c-1.1,0-2-0.9-2-2v-16c0-1.1,0.9-2,2-2h16c1.1,0,2,0.9,2,2v16C448.4,236.1,447.5,237,446.4,237z
	"/>
<path class="st14" d="M481.4,237h-16c-1.1,0-2-0.9-2-2v-16c0-1.1,0.9-2,2-2h16c1.1,0,2,0.9,2,2v16C483.4,236.1,482.5,237,481.4,237z
	"/>
<path class="st20" d="M516.4,237h-16c-1.1,0-2-0.9-2-2v-16c0-1.1,0.9-2,2-2h16c1.1,0,2,0.9,2,2v16C518.4,236.1,517.5,237,516.4,237z
	"/>
<path class="st21" d="M551.4,237h-16c-1.1,0-2-0.9-2-2v-16c0-1.1,0.9-2,2-2h16c1.1,0,2,0.9,2,2v16C553.4,236.1,552.5,237,551.4,237z
	"/>
<path class="st14" d="M586.4,237h-16c-1.1,0-2-0.9-2-2v-16c0-1.1,0.9-2,2-2h16c1.1,0,2,0.9,2,2v16C588.4,236.1,587.5,237,586.4,237z
	"/>
<path class="st22" d="M621.4,237h-16c-1.1,0-2-0.9-2-2v-16c0-1.1,0.9-2,2-2h16c1.1,0,2,0.9,2,2v16C623.4,236.1,622.5,237,621.4,237z
	"/>
<g>
	<path class="st2" d="M364.7,229.3c-0.7,0-1.3,0.6-1.3,1.3s0.6,1.3,1.3,1.3c0.7,0,1.3-0.6,1.3-1.3
		C366,229.9,365.4,229.3,364.7,229.3z"/>
	<path class="st2" d="M363.4,225.4v1.9c1.2,0,2.4,0.5,3.3,1.4s1.4,2.1,1.4,3.3h1.9C370,228.4,367,225.4,363.4,225.4z"/>
	<path class="st2" d="M363.4,222v1.9c4.5,0,8.1,3.6,8.1,8.1h1.9C373.4,226.5,368.9,222,363.4,222z"/>
</g>
<g>
	<path class="st2" d="M549.9,227.3c-0.2-0.7-0.8-1.3-1.5-1.4c-1.7-0.2-3.4-0.2-5.2-0.2c-1.7,0-3.5,0-5.2,0.2
		c-0.7,0.1-1.3,0.6-1.5,1.4c-0.2,1-0.2,2.2-0.2,3.3s0,2.2,0.2,3.3c0.2,0.7,0.8,1.3,1.5,1.4c1.7,0.2,3.4,0.2,5.2,0.2
		c1.7,0,3.5,0,5.2-0.2c0.7-0.1,1.3-0.6,1.5-1.4c0.2-1,0.2-2.2,0.2-3.3C550.2,229.5,550.2,228.3,549.9,227.3z M540.3,228.1h-1v5.3
		h-0.9v-5.3h-1v-0.9h2.9V228.1z M542,233.4v-0.5c-0.3,0.4-0.6,0.6-1,0.6c-0.3,0-0.5-0.1-0.5-0.3c0-0.1-0.1-0.4-0.1-0.7v-3.6h0.8v3.4
		c0,0.2,0,0.3,0,0.3c0,0.1,0.1,0.2,0.2,0.2c0.2,0,0.3-0.1,0.5-0.4v-3.5h0.8v4.6H542V233.4z M546,232c0,0.4,0,0.7-0.1,0.9
		c-0.1,0.3-0.3,0.5-0.7,0.5c-0.3,0-0.6-0.2-0.9-0.5v0.4h-0.8v-6.2h0.8v2c0.3-0.3,0.6-0.5,0.9-0.5c0.3,0,0.6,0.2,0.7,0.5
		c0.1,0.2,0.1,0.5,0.1,0.9V232z M549.1,231.2L549.1,231.2h-1.7v0.8c0,0.4,0.1,0.6,0.4,0.6c0.2,0,0.3-0.1,0.4-0.3c0,0,0-0.2,0-0.6
		h0.9v0.1c0,0.3,0,0.5,0,0.5c0,0.2-0.1,0.4-0.2,0.5c-0.2,0.3-0.6,0.5-1,0.5s-0.8-0.2-1-0.5c-0.2-0.2-0.3-0.6-0.3-1.1v-1.6
		c0-0.5,0.1-0.9,0.3-1.1c0.2-0.3,0.6-0.5,1-0.5s0.7,0.2,1,0.5c0.2,0.2,0.3,0.6,0.3,1.1v1.1H549.1z"/>
	<path class="st2" d="M547.9,229.5c-0.3,0-0.4,0.2-0.4,0.6v0.4h0.8v-0.4C548.3,229.7,548.2,229.5,547.9,229.5z"/>
	<path class="st2" d="M544.8,229.5c-0.1,0-0.3,0.1-0.4,0.2v2.8c0.1,0.1,0.3,0.2,0.4,0.2c0.2,0,0.4-0.2,0.4-0.6v-2
		C545.2,229.7,545,229.5,544.8,229.5z"/>
	<path class="st2" d="M545.3,225.3c0.3,0,0.6-0.2,1-0.6v0.5h0.8v-4.6h-0.8v3.6c-0.2,0.3-0.4,0.4-0.5,0.4s-0.2-0.1-0.2-0.2
		c0,0,0-0.1,0-0.3v-3.4h-0.8v3.7c0,0.3,0,0.6,0.1,0.7C544.8,225.2,545,225.3,545.3,225.3z"/>
	<path class="st2" d="M539.4,222.7v2.5h0.9v-2.5l1.1-3.7h-0.9l-0.6,2.4l-0.7-2.4h-1c0.2,0.6,0.4,1.2,0.6,1.7
		C539.1,221.6,539.3,222.3,539.4,222.7z"/>
	<path class="st2" d="M542.7,225.3c0.4,0,0.7-0.2,1-0.5c0.2-0.2,0.3-0.6,0.3-1.1v-1.6c0-0.5-0.1-0.9-0.3-1.1c-0.2-0.3-0.6-0.5-1-0.5
		s-0.7,0.2-1,0.5c-0.2,0.2-0.3,0.6-0.3,1.1v1.6c0,0.5,0.1,0.9,0.3,1.1C542,225.1,542.3,225.3,542.7,225.3z M542.3,221.9
		c0-0.4,0.1-0.6,0.4-0.6c0.3,0,0.4,0.2,0.4,0.6v2c0,0.4-0.1,0.6-0.4,0.6c-0.3,0-0.4-0.2-0.4-0.6V221.9z"/>
</g>
<path class="st2" d="M578.7,221c-3.5,0-5.3,2.5-5.3,4.7c0,1.3,0.5,2.4,1.5,2.8c0.2,0.1,0.3,0,0.4-0.2c0-0.1,0.1-0.5,0.2-0.6
	c0-0.2,0-0.3-0.1-0.4c-0.3-0.4-0.5-0.8-0.5-1.5c0-1.9,1.4-3.6,3.7-3.6c2,0,3.1,1.2,3.1,2.9c0,2.2-1,4-2.4,4c-0.8,0-1.4-0.6-1.2-1.4
	c0.2-0.9,0.7-2,0.7-2.6s-0.3-1.1-1-1.1c-0.8,0-1.4,0.8-1.4,1.9c0,0.7,0.2,1.2,0.2,1.2s-0.8,3.5-1,4.1c-0.3,1.2,0,2.7,0,2.8
	s0.1,0.1,0.2,0c0.1-0.1,1-1.3,1.3-2.4c0.1-0.3,0.5-2.1,0.5-2.1c0.3,0.5,1,0.9,1.8,0.9c2.4,0,4-2.2,4-5.1
	C583.4,223.1,581.6,221,578.7,221z"/>
<path class="st2" d="M617.8,220.1h-7.9c-1.4,0-2.5,1.1-2.5,2.5v2.6v5.3c0,1.4,1.1,2.5,2.5,2.5h7.9c1.4,0,2.5-1.1,2.5-2.5v-5.3v-2.6
	C620.3,221.2,619.2,220.1,617.8,220.1z M618.5,221.6h0.3v0.3v1.9h-2.2v-2.2H618.5z M612,225.2c0.4-0.6,1.1-0.9,1.8-0.9
	s1.4,0.4,1.8,0.9c0.3,0.4,0.4,0.8,0.4,1.3c0,1.3-1,2.3-2.3,2.3s-2.3-1-2.3-2.3C611.6,226.1,611.7,225.6,612,225.2z M619,230.5
	c0,0.7-0.6,1.2-1.2,1.2h-7.9c-0.7,0-1.2-0.6-1.2-1.2v-5.3h1.9c-0.2,0.4-0.3,0.9-0.3,1.3c0,1.9,1.6,3.5,3.5,3.5s3.5-1.6,3.5-3.5
	c0-0.4-0.1-0.9-0.3-1.3h1.9L619,230.5L619,230.5z"/>
<path class="st2" d="M1207.3,79c-4.6,0-7,3.3-7,6.1c0,1.7,0.6,3.2,2,3.7c0.2,0.1,0.4,0,0.5-0.2c0-0.2,0.2-0.6,0.2-0.8
	c0.1-0.2,0-0.3-0.1-0.5c-0.4-0.5-0.6-1.1-0.6-1.9c0-2.5,1.8-4.7,4.8-4.7c2.6,0,4.1,1.6,4.1,3.7c0,2.8-1.2,5.2-3.1,5.2
	c-1,0-1.8-0.8-1.5-1.9c0.3-1.2,0.9-2.6,0.9-3.5c0-0.8-0.4-1.5-1.3-1.5c-1,0-1.9,1.1-1.9,2.5c0,0.9,0.3,1.5,0.3,1.5s-1.1,4.5-1.3,5.3
	c-0.4,1.6-0.1,3.5,0,3.7c0,0.1,0.2,0.1,0.2,0.1c0.1-0.1,1.3-1.7,1.8-3.2c0.1-0.4,0.7-2.7,0.7-2.7c0.3,0.6,1.3,1.2,2.4,1.2
	c3.1,0,5.3-2.9,5.3-6.7C1213.5,81.7,1211.1,79,1207.3,79z"/>
<path class="st2" d="M155.8,257.4c0.2-0.2,0.6-0.2,0.8,0.1l1.3,1.7l1.4-1.9c0.2-0.3,0.6-0.3,0.8-0.1c0.2,0.2,0.3,0.6,0.1,0.9
	l-1.3,1.9h2.1c0.8,0,1.4,0.7,1.4,1.5v5.1c0,0.8-0.6,1.5-1.4,1.5h-7.1c-0.8,0-1.4-0.7-1.4-1.5v-5.1c0-0.8,0.6-1.5,1.4-1.5h3.2
	l-1.3-1.7C155.6,258,155.6,257.6,155.8,257.4z M161.3,263.6c0.2,0,0.4-0.2,0.4-0.4s-0.2-0.4-0.4-0.4s-0.4,0.2-0.4,0.4
	S161.1,263.6,161.3,263.6z M161.3,262.2c0.2,0,0.4-0.2,0.4-0.4c0-0.2-0.2-0.4-0.4-0.4s-0.4,0.2-0.4,0.4
	C161,262,161.1,262.2,161.3,262.2z M154.5,261.4c-0.4,0-0.7,0.3-0.7,0.7v3.7c0,0.4,0.3,0.7,0.7,0.7h5.1c0.4,0,0.7-0.3,0.7-0.7v-3.7
	c0-0.4-0.3-0.7-0.7-0.7H154.5z"/>
<path class="st9" d="M190.8,257.4c0.2-0.2,0.6-0.2,0.8,0.1l1.3,1.7l1.4-1.9c0.2-0.3,0.6-0.3,0.8-0.1c0.2,0.2,0.3,0.6,0.1,0.9
	l-1.3,1.9h2.1c0.8,0,1.4,0.7,1.4,1.5v5.1c0,0.8-0.6,1.5-1.4,1.5h-7.1c-0.8,0-1.4-0.7-1.4-1.5v-5.1c0-0.8,0.6-1.5,1.4-1.5h3.2
	l-1.3-1.7C190.6,258,190.6,257.6,190.8,257.4z M196.3,263.6c0.2,0,0.4-0.2,0.4-0.4s-0.2-0.4-0.4-0.4s-0.4,0.2-0.4,0.4
	S196.1,263.6,196.3,263.6z M196.3,262.2c0.2,0,0.4-0.2,0.4-0.4c0-0.2-0.2-0.4-0.4-0.4s-0.4,0.2-0.4,0.4
	C196,262,196.1,262.2,196.3,262.2z M189.5,261.4c-0.4,0-0.7,0.3-0.7,0.7v3.7c0,0.4,0.3,0.7,0.7,0.7h5.1c0.4,0,0.7-0.3,0.7-0.7v-3.7
	c0-0.4-0.3-0.7-0.7-0.7H189.5z"/>
<path class="st10" d="M225.8,257.4c0.2-0.2,0.6-0.2,0.8,0.1l1.3,1.7l1.4-1.9c0.2-0.3,0.6-0.3,0.8-0.1c0.2,0.2,0.3,0.6,0.1,0.9
	l-1.3,1.9h2.1c0.8,0,1.4,0.7,1.4,1.5v5.1c0,0.8-0.6,1.5-1.4,1.5h-7.1c-0.8,0-1.4-0.7-1.4-1.5v-5.1c0-0.8,0.6-1.5,1.4-1.5h3.2
	l-1.3-1.7C225.6,258,225.6,257.6,225.8,257.4z M231.3,263.6c0.2,0,0.4-0.2,0.4-0.4s-0.2-0.4-0.4-0.4s-0.4,0.2-0.4,0.4
	S231.1,263.6,231.3,263.6z M231.3,262.2c0.2,0,0.4-0.2,0.4-0.4c0-0.2-0.2-0.4-0.4-0.4s-0.4,0.2-0.4,0.4
	C231,262,231.1,262.2,231.3,262.2z M224.5,261.4c-0.4,0-0.7,0.3-0.7,0.7v3.7c0,0.4,0.3,0.7,0.7,0.7h5.1c0.4,0,0.7-0.3,0.7-0.7v-3.7
	c0-0.4-0.3-0.7-0.7-0.7H224.5z"/>
<path class="st11" d="M260.8,257.4c0.2-0.2,0.6-0.2,0.8,0.1l1.3,1.7l1.4-1.9c0.2-0.3,0.6-0.3,0.8-0.1c0.2,0.2,0.3,0.6,0.1,0.9
	l-1.3,1.9h2.1c0.8,0,1.4,0.7,1.4,1.5v5.1c0,0.8-0.6,1.5-1.4,1.5h-7.1c-0.8,0-1.4-0.7-1.4-1.5v-5.1c0-0.8,0.6-1.5,1.4-1.5h3.2
	l-1.3-1.7C260.6,258,260.6,257.6,260.8,257.4z M266.3,263.6c0.2,0,0.4-0.2,0.4-0.4s-0.2-0.4-0.4-0.4c-0.2,0-0.4,0.2-0.4,0.4
	S266.1,263.6,266.3,263.6z M266.3,262.2c0.2,0,0.4-0.2,0.4-0.4c0-0.2-0.2-0.4-0.4-0.4c-0.2,0-0.4,0.2-0.4,0.4
	C266,262,266.1,262.2,266.3,262.2z M259.5,261.4c-0.4,0-0.7,0.3-0.7,0.7v3.7c0,0.4,0.3,0.7,0.7,0.7h5.1c0.4,0,0.7-0.3,0.7-0.7v-3.7
	c0-0.4-0.3-0.7-0.7-0.7H259.5z"/>
<g id="_x201C__2_">
	<path class="st23" d="M42.3,117.1c-1,1.3-1.8,2.7-2.2,4.3c-0.5,1.5-0.7,3.1-0.7,4.8c0,1.1,0.2,2.1,0.5,2.9s0.8,1.6,1.3,2.1
		c0.6,0.6,1.2,1,1.9,1.3s1.5,0.4,2.3,0.4c1.5,0,2.7-0.4,3.7-1.2s1.5-1.9,1.5-3.4c0-0.8-0.1-1.4-0.4-2c-0.3-0.5-0.6-1-1.1-1.3
		c-0.4-0.4-0.9-0.7-1.4-0.9c-0.5-0.3-0.9-0.5-1.4-0.8c-0.4-0.3-0.8-0.6-1.1-0.9s-0.4-0.8-0.4-1.3c0-1.5,0.6-2.9,1.8-4
		c1.2-1.2,3.1-2.2,5.7-3V111c-2.3,0.7-4.3,1.6-5.9,2.6C44.7,114.7,43.3,115.8,42.3,117.1z M66.4,114.3V111c-2.3,0.7-4.3,1.6-5.9,2.6
		c-1.6,1.1-3,2.2-4,3.5s-1.8,2.7-2.2,4.3c-0.5,1.5-0.7,3.1-0.7,4.8c0,1.1,0.2,2.1,0.5,2.9s0.8,1.6,1.3,2.1c0.5,0.6,1.2,1,1.9,1.3
		s1.5,0.4,2.3,0.4c1.5,0,2.7-0.4,3.6-1.2c1-0.8,1.5-1.9,1.5-3.4c0-0.8-0.1-1.4-0.4-2c-0.3-0.5-0.6-1-1.1-1.3
		c-0.4-0.4-0.9-0.7-1.4-0.9c-0.5-0.3-1-0.5-1.4-0.8s-0.8-0.6-1.1-0.9s-0.4-0.8-0.4-1.3c0-1.5,0.6-2.9,1.8-4
		C62,116.1,63.8,115.1,66.4,114.3z"/>
</g>
<g id="Ellipse_2_6_">
	<path class="st24" d="M87.9,114c4.7,0,8.5,3.8,8.5,8.5s-3.8,8.5-8.5,8.5s-8.5-3.8-8.5-8.5S83.2,114,87.9,114 M87.9,113
		c-5.2,0-9.5,4.3-9.5,9.5s4.3,9.5,9.5,9.5s9.5-4.3,9.5-9.5S93.1,113,87.9,113L87.9,113z"/>
</g>
<g id="Ellipse_2_7_">
	<path class="st24" d="M122.9,115c4.1,0,7.5,3.4,7.5,7.5s-3.4,7.5-7.5,7.5s-7.5-3.4-7.5-7.5C115.4,118.4,118.7,115,122.9,115
		 M122.9,113c-5.2,0-9.5,4.3-9.5,9.5s4.3,9.5,9.5,9.5c5.2,0,9.5-4.3,9.5-9.5S128.1,113,122.9,113L122.9,113z"/>
</g>
<g id="Ellipse_2_9_">
	<path class="st24" d="M157.9,115c4.1,0,7.5,3.4,7.5,7.5s-3.4,7.5-7.5,7.5s-7.5-3.4-7.5-7.5S153.7,115,157.9,115 M157.9,113
		c-5.2,0-9.5,4.3-9.5,9.5s4.3,9.5,9.5,9.5s9.5-4.3,9.5-9.5S163.1,113,157.9,113L157.9,113z"/>
</g>
<g id="Ellipse_3_2_">
	<circle class="st23" cx="157.9" cy="122.5" r="3.5"/>
</g>
<path class="st24" d="M18.4,119c1.7,0,3,1.3,3,3s-1.3,3-3,3s-3-1.3-3-3S16.7,119,18.4,119 M18.4,117c-2.8,0-5,2.2-5,5s2.2,5,5,5
	s5-2.2,5-5S21.1,117,18.4,117L18.4,117z"/>
<g>
	<polygon class="st5" points="712.4,227.6 717.5,232 718.7,230.5 713.6,226.1 	"/>
	<polygon class="st5" points="721.9,223 717.2,229.2 718.7,230.5 723.4,224.3 	"/>
</g>
<g id="Keresés_ikon_2_">
	<path class="st2" d="M125,151c1.5,0,2.8,0.6,3.9,1.6c2.1,2.2,2.1,5.8,0,8c-1,1.1-2.4,1.6-3.8,1.6s-2.7-0.5-3.7-1.5l-0.3-0.3
		l-0.2-0.3c-1.8-2.2-1.6-5.5,0.4-7.5C122.2,151.6,123.6,151,125,151 M125,150c-1.7,0-3.3,0.6-4.6,1.9c-2.4,2.4-2.5,6.2-0.5,8.9
		l-4.6,4.6l0.7,0.7l4.6-4.6c1.2,1.2,2.8,1.7,4.4,1.7c1.7,0,3.3-0.6,4.6-1.9c2.5-2.6,2.5-6.8,0-9.4C128.3,150.6,126.7,150,125,150
		L125,150z"/>
</g>
<g id="abc">
	<path class="st25" d="M149.5,162.6c0-0.8,0-1.7,0.1-2.6c0-0.9,0.1-1.8,0.1-2.8c0-0.4,0-0.9-0.1-1.3c-0.1-0.4-0.3-0.8-0.5-1.2
		c-0.3-0.4-0.6-0.7-1.2-0.9c-0.5-0.2-1.2-0.3-2-0.3c-0.9,0-1.7,0.1-2.5,0.3s-1.5,0.4-2.1,0.8l0.6,1.5c0.2-0.1,0.5-0.3,0.8-0.4
		c0.3-0.1,0.6-0.2,0.9-0.3c0.3-0.1,0.6-0.1,1-0.2c0.3,0,0.6-0.1,0.9-0.1c0.9,0,1.6,0.2,1.9,0.5c0.4,0.4,0.5,1,0.5,1.8
		c0,0.4,0,0.8-0.1,1.3c-0.2,0-0.4,0-0.7,0s-0.4,0-0.7,0c-0.9,0-1.7,0.1-2.4,0.2c-0.7,0.1-1.4,0.3-1.9,0.6s-0.9,0.7-1.2,1.1
		c-0.3,0.5-0.4,1.1-0.4,1.8c0,0.5,0.1,1,0.3,1.4s0.4,0.8,0.8,1.1c0.3,0.3,0.7,0.5,1.1,0.7c0.4,0.2,0.9,0.2,1.4,0.2s1-0.1,1.4-0.2
		c0.4-0.1,0.8-0.3,1.1-0.4c0.3-0.2,0.6-0.4,0.8-0.6c0.2-0.2,0.4-0.4,0.5-0.7h0.1l0.5,1.7h1.4c-0.1-0.4-0.2-0.9-0.3-1.5
		C149.5,163.8,149.5,163.2,149.5,162.6z M147.7,162.3c-0.1,0.2-0.2,0.4-0.4,0.6c-0.2,0.2-0.4,0.4-0.6,0.6c-0.3,0.2-0.6,0.3-0.9,0.5
		c-0.4,0.1-0.8,0.2-1.2,0.2c-0.6,0-1.1-0.2-1.5-0.5c-0.4-0.4-0.6-0.8-0.6-1.4c0-0.4,0.1-0.7,0.3-1s0.5-0.5,0.9-0.6
		c0.4-0.2,0.8-0.3,1.2-0.3c0.5-0.1,1-0.1,1.5-0.1c0.2,0,0.5,0,0.7,0s0.5,0,0.7,0L147.7,162.3L147.7,162.3z M158.5,153.4
		c-0.7,0-1.3,0.1-1.9,0.4c-0.6,0.3-1,0.6-1.4,1.1h-0.1v-6h-1.9V165c0.4,0.2,0.9,0.4,1.6,0.6c0.7,0.2,1.5,0.3,2.4,0.3
		c1.9,0,3.3-0.5,4.3-1.6s1.5-2.7,1.5-4.8s-0.4-3.6-1.2-4.6C161.2,153.9,160.1,153.4,158.5,153.4z M160.2,163.1
		c-0.6,0.8-1.5,1.2-2.6,1.2c-0.5,0-0.9,0-1.3-0.1c-0.4-0.1-0.8-0.2-1.1-0.4v-6c0.2-0.8,0.6-1.4,1.1-1.9c0.5-0.4,1.1-0.7,1.9-0.7
		c0.5,0,1,0.1,1.4,0.3s0.7,0.5,0.9,0.9s0.4,0.8,0.5,1.4c0.1,0.5,0.2,1.1,0.2,1.8C161.2,161.1,160.9,162.3,160.2,163.1z M173.8,163.5
		c-0.3,0.2-0.7,0.4-1.1,0.6c-0.5,0.2-1,0.3-1.5,0.3c-0.7,0-1.2-0.1-1.7-0.4c-0.5-0.3-0.8-0.6-1.1-1s-0.5-0.9-0.6-1.5
		s-0.2-1.1-0.2-1.7c0-3.1,1.1-4.6,3.4-4.6c0.5,0,1,0.1,1.4,0.2c0.4,0.1,0.9,0.3,1.2,0.5l0.6-1.7c-0.4-0.2-0.9-0.4-1.5-0.5
		c-0.5-0.1-1.2-0.2-2-0.2c-1.7,0-3,0.5-3.9,1.6s-1.3,2.6-1.3,4.7c0,0.9,0.1,1.8,0.3,2.6s0.5,1.4,0.9,2s0.9,1,1.6,1.3
		c0.6,0.3,1.4,0.4,2.4,0.4c0.7,0,1.4-0.1,2.1-0.3c0.7-0.2,1.2-0.5,1.7-0.8L173.8,163.5z"/>
</g>
<g id="abc_2_">
	<path class="st5" d="M184.4,162.6c0-0.8,0-1.7,0.1-2.6c0-0.9,0.1-1.8,0.1-2.8c0-0.4,0-0.9-0.1-1.3c-0.1-0.4-0.3-0.8-0.5-1.2
		s-0.6-0.7-1.2-0.9c-0.5-0.2-1.2-0.3-2-0.3c-0.9,0-1.7,0.1-2.5,0.3s-1.5,0.4-2.1,0.8l0.6,1.5c0.2-0.1,0.5-0.3,0.8-0.4
		c0.3-0.1,0.6-0.2,0.9-0.3c0.3-0.1,0.6-0.1,1-0.2c0.3,0,0.6-0.1,0.9-0.1c0.9,0,1.6,0.2,1.9,0.5c0.4,0.4,0.5,1,0.5,1.8
		c0,0.4,0,0.8-0.1,1.3c-0.2,0-0.4,0-0.7,0c-0.2,0-0.4,0-0.7,0c-0.9,0-1.7,0.1-2.4,0.2c-0.7,0.1-1.4,0.3-1.9,0.6s-0.9,0.7-1.2,1.1
		c-0.3,0.5-0.4,1.1-0.4,1.8c0,0.5,0.1,1,0.3,1.4s0.4,0.8,0.8,1.1c0.3,0.3,0.7,0.5,1.1,0.7c0.4,0.2,0.9,0.2,1.4,0.2s1-0.1,1.4-0.2
		c0.4-0.1,0.8-0.3,1.1-0.4c0.3-0.2,0.6-0.4,0.8-0.6c0.2-0.2,0.4-0.4,0.5-0.7h0.1l0.5,1.7h1.4c-0.1-0.4-0.2-0.9-0.3-1.5
		C184.4,163.8,184.4,163.2,184.4,162.6z M182.6,162.3c-0.1,0.2-0.2,0.4-0.4,0.6c-0.2,0.2-0.4,0.4-0.6,0.6c-0.3,0.2-0.6,0.3-0.9,0.5
		c-0.4,0.1-0.8,0.2-1.2,0.2c-0.6,0-1.1-0.2-1.5-0.5c-0.4-0.4-0.6-0.8-0.6-1.4c0-0.4,0.1-0.7,0.3-1s0.5-0.5,0.9-0.6
		c0.4-0.2,0.8-0.3,1.2-0.3c0.5-0.1,1-0.1,1.5-0.1c0.2,0,0.5,0,0.7,0s0.5,0,0.7,0L182.6,162.3L182.6,162.3z M193.5,153.4
		c-0.7,0-1.3,0.1-1.9,0.4c-0.6,0.3-1,0.6-1.4,1.1h-0.1v-6h-1.9V165c0.4,0.2,0.9,0.4,1.6,0.6c0.7,0.2,1.5,0.3,2.4,0.3
		c1.9,0,3.3-0.5,4.3-1.6s1.5-2.7,1.5-4.8s-0.4-3.6-1.2-4.6C196.2,153.9,195,153.4,193.5,153.4z M195.2,163.1
		c-0.6,0.8-1.5,1.2-2.6,1.2c-0.5,0-0.9,0-1.3-0.1c-0.4-0.1-0.8-0.2-1.1-0.4v-6c0.2-0.8,0.6-1.4,1.1-1.9c0.5-0.4,1.1-0.7,1.9-0.7
		c0.5,0,1,0.1,1.4,0.3s0.7,0.5,0.9,0.9s0.4,0.8,0.5,1.4c0.1,0.5,0.2,1.1,0.2,1.8C196.1,161.1,195.8,162.3,195.2,163.1z M208.7,163.5
		c-0.3,0.2-0.7,0.4-1.1,0.6c-0.5,0.2-1,0.3-1.5,0.3c-0.7,0-1.2-0.1-1.7-0.4c-0.5-0.3-0.8-0.6-1.1-1s-0.5-0.9-0.6-1.5
		s-0.2-1.1-0.2-1.7c0-3.1,1.1-4.6,3.4-4.6c0.5,0,1,0.1,1.4,0.2c0.4,0.1,0.9,0.3,1.2,0.5l0.6-1.7c-0.4-0.2-0.9-0.4-1.5-0.5
		c-0.5-0.1-1.2-0.2-2-0.2c-1.7,0-3,0.5-3.9,1.6s-1.3,2.6-1.3,4.7c0,0.9,0.1,1.8,0.3,2.6s0.5,1.4,0.9,2s0.9,1,1.6,1.3
		c0.6,0.3,1.4,0.4,2.4,0.4c0.7,0,1.4-0.1,2.1-0.3c0.7-0.2,1.2-0.5,1.7-0.8L208.7,163.5z"/>
</g>
<g id="abc_4_">
	<path class="st25" d="M222.4,160.7c0-0.5,0-1.1,0-1.7c0-0.6,0-1.2,0-1.9c0-0.3,0-0.6-0.1-0.9c-0.1-0.3-0.2-0.6-0.4-0.8
		s-0.4-0.4-0.8-0.6c-0.3-0.1-0.8-0.2-1.3-0.2c-0.6,0-1.1,0.1-1.7,0.2c-0.5,0.1-1,0.3-1.4,0.5l0.4,1c0.1-0.1,0.3-0.2,0.5-0.2
		c0.2-0.1,0.4-0.1,0.6-0.2c0.2,0,0.4-0.1,0.6-0.1c0.2,0,0.4,0,0.6,0c0.6,0,1,0.1,1.3,0.4c0.2,0.2,0.4,0.6,0.4,1.2c0,0.3,0,0.5,0,0.9
		c-0.1,0-0.3,0-0.4,0s-0.3,0-0.4,0c-0.6,0-1.1,0-1.6,0.1s-0.9,0.2-1.2,0.4s-0.6,0.4-0.8,0.8c-0.2,0.3-0.3,0.7-0.3,1.2
		c0,0.4,0.1,0.7,0.2,0.9c0.1,0.3,0.3,0.5,0.5,0.7s0.5,0.3,0.8,0.5c0.3,0.1,0.6,0.2,1,0.2c0.3,0,0.6,0,0.9-0.1
		c0.3-0.1,0.5-0.2,0.7-0.3s0.4-0.2,0.5-0.4c0.1-0.1,0.3-0.3,0.4-0.4h0.1l0.3,1.1h0.9c-0.1-0.3-0.1-0.6-0.2-1
		C222.4,161.5,222.4,161.1,222.4,160.7z M221.2,160.6c-0.1,0.1-0.1,0.3-0.2,0.4c-0.1,0.1-0.3,0.3-0.4,0.4c-0.2,0.1-0.4,0.2-0.6,0.3
		c-0.2,0.1-0.5,0.1-0.8,0.1c-0.4,0-0.8-0.1-1-0.4c-0.3-0.2-0.4-0.5-0.4-0.9c0-0.3,0.1-0.5,0.2-0.7c0.1-0.2,0.3-0.3,0.6-0.4
		c0.2-0.1,0.5-0.2,0.8-0.2s0.6-0.1,1-0.1c0.1,0,0.3,0,0.5,0s0.3,0,0.5,0v1.5H221.2z M228.4,154.6c-0.4,0-0.9,0.1-1.2,0.3
		c-0.4,0.2-0.7,0.4-0.9,0.7h-0.1v-4h-1.3v10.7c0.2,0.1,0.6,0.3,1.1,0.4c0.5,0.1,1,0.2,1.6,0.2c1.2,0,2.2-0.4,2.9-1.1
		c0.7-0.7,1-1.8,1-3.2s-0.3-2.4-0.8-3.1C230.2,154.9,229.5,154.6,228.4,154.6z M229.6,161.1c-0.4,0.5-1,0.8-1.7,0.8
		c-0.3,0-0.6,0-0.9-0.1c-0.3-0.1-0.5-0.1-0.7-0.3v-4c0.1-0.5,0.4-1,0.7-1.3s0.8-0.4,1.3-0.4c0.4,0,0.7,0.1,0.9,0.2
		c0.3,0.1,0.5,0.4,0.6,0.6c0.2,0.3,0.3,0.6,0.4,0.9c0.1,0.4,0.1,0.8,0.1,1.2C230.2,159.8,230,160.6,229.6,161.1z M238.6,161.3
		c-0.2,0.1-0.4,0.3-0.7,0.4c-0.3,0.1-0.6,0.2-1,0.2s-0.8-0.1-1.1-0.3s-0.5-0.4-0.7-0.7s-0.3-0.6-0.4-1c-0.1-0.4-0.1-0.8-0.1-1.2
		c0-2,0.8-3.1,2.3-3.1c0.3,0,0.7,0,1,0.1s0.6,0.2,0.8,0.3l0.4-1.1c-0.3-0.1-0.6-0.3-1-0.3c-0.4-0.1-0.8-0.1-1.3-0.1
		c-1.1,0-2,0.4-2.6,1.1c-0.6,0.7-0.9,1.8-0.9,3.1c0,0.6,0.1,1.2,0.2,1.7c0.1,0.5,0.3,1,0.6,1.3c0.3,0.4,0.6,0.7,1,0.8
		c0.4,0.2,0.9,0.3,1.6,0.3c0.5,0,0.9-0.1,1.4-0.2c0.4-0.1,0.8-0.3,1.1-0.5L238.6,161.3z"/>
</g>
<g id="abc_6_">
	<path class="st5" d="M257.8,160.7c0-0.5,0-1.1,0-1.7c0-0.6,0-1.2,0-1.9c0-0.3,0-0.6-0.1-0.9c-0.1-0.3-0.2-0.6-0.4-0.8
		c-0.2-0.2-0.4-0.4-0.8-0.6c-0.3-0.1-0.8-0.2-1.3-0.2c-0.6,0-1.1,0.1-1.7,0.2c-0.5,0.1-1,0.3-1.4,0.5l0.4,1c0.1-0.1,0.3-0.2,0.5-0.2
		c0.2-0.1,0.4-0.1,0.6-0.2c0.2,0,0.4-0.1,0.6-0.1c0.2,0,0.4,0,0.6,0c0.6,0,1,0.1,1.3,0.4c0.2,0.2,0.4,0.6,0.4,1.2c0,0.3,0,0.5,0,0.9
		c-0.1,0-0.3,0-0.4,0s-0.3,0-0.4,0c-0.6,0-1.1,0-1.6,0.1s-0.9,0.2-1.2,0.4s-0.6,0.4-0.8,0.8c-0.2,0.3-0.3,0.7-0.3,1.2
		c0,0.4,0.1,0.7,0.2,0.9c0.1,0.3,0.3,0.5,0.5,0.7s0.5,0.3,0.8,0.5c0.3,0.1,0.6,0.2,1,0.2c0.3,0,0.6,0,0.9-0.1
		c0.3-0.1,0.5-0.2,0.7-0.3c0.2-0.1,0.4-0.2,0.5-0.4c0.1-0.1,0.3-0.3,0.4-0.4h0.1l0.3,1.1h0.9c-0.1-0.3-0.1-0.6-0.2-1
		C257.8,161.5,257.8,161.1,257.8,160.7z M256.6,160.6c-0.1,0.1-0.1,0.3-0.2,0.4c-0.1,0.1-0.3,0.3-0.4,0.4c-0.2,0.1-0.4,0.2-0.6,0.3
		c-0.2,0.1-0.5,0.1-0.8,0.1c-0.4,0-0.8-0.1-1-0.4c-0.3-0.2-0.4-0.5-0.4-0.9c0-0.3,0.1-0.5,0.2-0.7s0.3-0.3,0.6-0.4
		c0.2-0.1,0.5-0.2,0.8-0.2s0.6-0.1,1-0.1c0.1,0,0.3,0,0.5,0c0.2,0,0.3,0,0.5,0v1.5H256.6z M263.8,154.6c-0.4,0-0.9,0.1-1.2,0.3
		c-0.4,0.2-0.7,0.4-0.9,0.7h-0.1v-4h-1.3v10.7c0.2,0.1,0.6,0.3,1.1,0.4c0.5,0.1,1,0.2,1.6,0.2c1.2,0,2.2-0.4,2.9-1.1
		c0.7-0.7,1-1.8,1-3.2s-0.3-2.4-0.8-3.1C265.6,154.9,264.8,154.6,263.8,154.6z M264.9,161.1c-0.4,0.5-1,0.8-1.7,0.8
		c-0.3,0-0.6,0-0.9-0.1s-0.5-0.1-0.7-0.3v-4c0.1-0.5,0.4-1,0.7-1.3c0.3-0.3,0.8-0.4,1.3-0.4c0.4,0,0.7,0.1,0.9,0.2
		c0.3,0.1,0.5,0.4,0.6,0.6c0.2,0.3,0.3,0.6,0.4,0.9c0.1,0.4,0.1,0.8,0.1,1.2C265.6,159.8,265.4,160.6,264.9,161.1z M274,161.3
		c-0.2,0.1-0.4,0.3-0.7,0.4c-0.3,0.1-0.6,0.2-1,0.2s-0.8-0.1-1.1-0.3c-0.3-0.2-0.5-0.4-0.7-0.7s-0.3-0.6-0.4-1s-0.1-0.8-0.1-1.2
		c0-2,0.8-3.1,2.3-3.1c0.3,0,0.7,0,1,0.1s0.6,0.2,0.8,0.3l0.4-1.1c-0.3-0.1-0.6-0.3-1-0.3c-0.4-0.1-0.8-0.1-1.3-0.1
		c-1.1,0-2,0.4-2.6,1.1c-0.6,0.7-0.9,1.8-0.9,3.1c0,0.6,0.1,1.2,0.2,1.7s0.3,1,0.6,1.3c0.3,0.4,0.6,0.7,1,0.8
		c0.4,0.2,0.9,0.3,1.6,0.3c0.5,0,0.9-0.1,1.4-0.2c0.4-0.1,0.8-0.3,1.1-0.5L274,161.3z"/>
</g>
<g id="A">
	<path class="st25" d="M297.4,155l-0.9,2.7h1.7L297.4,155L297.4,155z M306.7,155.4l-1.5-0.4h-0.1c-0.2-0.7-0.4-1.3-0.8-1.9l0.8-1.5
		c0.3-0.3,0.3-0.7,0-1l-1.3-1.3c-0.3-0.3-0.7-0.3-1,0l-1.5,0.6c0,0-0.1,0.1-0.1,0.2c-0.6-0.3-1.2-0.6-1.8-0.7v-0.1l-0.4-1.5
		c0-0.4-0.3-0.7-0.7-0.7h-1.8c-0.4,0-0.7,0.3-0.7,0.7l-0.4,1.5v0.1c-0.6,0.2-1.3,0.4-1.8,0.7c0-0.1,0-0.1-0.1-0.2l-1.5-0.6
		c-0.3-0.3-0.7-0.3-1,0l-1.3,1.3c-0.3,0.3-0.3,0.7,0,1l0.6,1.5c0,0,0.1,0.1,0.2,0.1c-0.3,0.6-0.6,1.2-0.7,1.8h-0.1l-1.5,0.4
		c-0.4,0-0.7,0.3-0.7,0.7v1.8c0,0.4,0.3,0.7,0.7,0.7l1.5,0.4h0.1c0.1,0.5,0.3,1,0.6,1.5l0,0l-0.6,1.9c-0.3,0.3-0.3,0.7,0,1l1.3,1.3
		c0.3,0.3,0.7,0.3,1,0l1.9-0.6l0,0c0.5,0.2,1,0.4,1.5,0.6v0.1l0.4,1.5c0,0.4,0.3,0.7,0.7,0.7h1.8c0.4,0,0.7-0.3,0.7-0.7l0.4-1.5
		v-0.1c0.5-0.1,1-0.3,1.5-0.6l0,0l1.9,0.6c0.3,0.3,0.7,0.3,1,0l1.3-1.3c0.3-0.3,0.3-0.7,0-1l-0.6-1.9l0,0c0.2-0.5,0.4-1,0.6-1.5h0.1
		l1.5-0.4c0.4,0,0.7-0.3,0.7-0.7v-1.8C307.5,155.7,307.2,155.4,306.7,155.4z M300.8,160.5h-1.4c-0.1,0-0.1,0-0.1-0.1l-0.4-1.3h-2.6
		l-0.4,1.3c0,0.1-0.1,0.1-0.1,0.1h-1.5c-0.1,0-0.1,0-0.1-0.1l2.6-7.4c0-0.1,0.1-0.1,0.1-0.1h1.4c0.1,0,0.1,0,0.1,0.1l2.6,7.4
		C300.9,160.4,300.8,160.5,300.8,160.5z"/>
</g>
<g id="A_2_">
	<path class="st5" d="M332.3,155.1l-0.9,2.7h1.7L332.3,155.1L332.3,155.1z M341.6,155.5l-1.5-0.4H340c-0.2-0.7-0.4-1.3-0.8-1.9
		l0.8-1.5c0.3-0.3,0.3-0.7,0-1l-1.3-1.3c-0.3-0.3-0.7-0.3-1,0l-1.5,0.6c0,0-0.1,0.1-0.1,0.2c-0.6-0.3-1.2-0.6-1.8-0.7v-0.1l-0.4-1.5
		c0-0.4-0.3-0.7-0.7-0.7h-1.8c-0.4,0-0.7,0.3-0.7,0.7l-0.4,1.5v0.1c-0.6,0.2-1.3,0.4-1.8,0.7c0-0.1,0-0.1-0.1-0.2l-1.5-0.6
		c-0.3-0.3-0.7-0.3-1,0l-1.3,1.3c-0.3,0.3-0.3,0.7,0,1l0.6,1.5c0,0,0.1,0.1,0.2,0.1c-0.3,0.6-0.6,1.2-0.7,1.8h-0.1l-1.5,0.4
		c-0.4,0-0.7,0.3-0.7,0.7v1.8c0,0.4,0.3,0.7,0.7,0.7l1.5,0.4h0.1c0.1,0.5,0.3,1,0.6,1.5l0,0l-0.6,1.9c-0.3,0.3-0.3,0.7,0,1l1.3,1.3
		c0.3,0.3,0.7,0.3,1,0l1.9-0.6l0,0c0.5,0.2,1,0.4,1.5,0.6v0.1l0.4,1.5c0,0.4,0.3,0.7,0.7,0.7h1.8c0.4,0,0.7-0.3,0.7-0.7l0.4-1.5
		v-0.1c0.5-0.1,1-0.3,1.5-0.6l0,0l1.9,0.6c0.3,0.3,0.7,0.3,1,0l1.3-1.3c0.3-0.3,0.3-0.7,0-1l-0.6-1.9l0,0c0.2-0.5,0.4-1,0.6-1.5h0.1
		l1.5-0.4c0.4,0,0.7-0.3,0.7-0.7v-1.8C342.4,155.8,342,155.5,341.6,155.5z M335.7,160.6h-1.4c-0.1,0-0.1,0-0.1-0.1l-0.4-1.3H331
		l-0.4,1.3c0,0.1-0.1,0.1-0.1,0.1H329c-0.1,0-0.1,0-0.1-0.1l2.6-7.4c0-0.1,0.1-0.1,0.1-0.1h1.4c0.1,0,0.1,0,0.1,0.1l2.6,7.4
		C335.8,160.5,335.7,160.6,335.7,160.6z"/>
</g>
<circle class="st25" cx="367.7" cy="157.4" r="3.2"/>
<circle class="st26" cx="367.6" cy="157.2" r="6.2"/>
<g id="Shape_4_copy_4">
	<path class="st25" d="M367.9,145h-0.2c-0.5,0-0.8,0.4-0.8,0.8v2.6c0,0.5,0.4,0.8,0.8,0.8h0.2c0.5,0,0.8-0.4,0.8-0.8v-2.6
		C368.8,145.3,368.4,145,367.9,145z M367.9,165.7h-0.2c-0.5,0-0.8,0.4-0.8,0.8v2.6c0,0.5,0.4,0.8,0.8,0.8h0.2c0.5,0,0.8-0.4,0.8-0.8
		v-2.6C368.8,166.1,368.4,165.7,367.9,165.7z M374.9,151.2l1.8-1.8c0.3-0.3,0.3-0.9,0-1.2l-0.1-0.1c-0.3-0.3-0.9-0.3-1.2,0l-1.8,1.8
		c-0.3,0.3-0.3,0.9,0,1.2l0.1,0.1C374,151.5,374.6,151.5,374.9,151.2z M360.3,148.1c-0.3-0.3-0.9-0.3-1.2,0l-0.1,0.1
		c-0.3,0.3-0.3,0.9,0,1.2l1.8,1.8c0.3,0.3,0.9,0.3,1.2,0l0.1-0.1c0.3-0.3,0.3-0.9,0-1.2L360.3,148.1z M375.2,162.9
		c-0.3-0.3-0.9-0.3-1.2,0l-0.1,0.1c-0.3,0.3-0.3,0.9,0,1.2l1.8,1.8c0.3,0.3,0.9,0.3,1.2,0l0.1-0.1c0.3-0.3,0.3-0.9,0-1.2
		L375.2,162.9z M361.4,163.2c-0.3-0.3-0.9-0.3-1.2,0l-1.8,1.8c-0.3,0.3-0.3,0.9,0,1.2l0.1,0.1c0.3,0.3,0.9,0.3,1.2,0l1.8-1.8
		c0.3-0.3,0.3-0.9,0-1.2L361.4,163.2z M379.5,156.5H377c-0.5,0-0.8,0.4-0.8,0.8v0.2c0,0.5,0.4,0.8,0.8,0.8h2.6
		c0.5,0,0.8-0.4,0.8-0.8v-0.2C380.4,156.9,380,156.5,379.5,156.5z M359.6,157.6v-0.2c0-0.5-0.4-0.8-0.8-0.8h-2.6
		c-0.5,0-0.8,0.4-0.8,0.8v0.2c0,0.5,0.4,0.8,0.8,0.8h2.6C359.2,158.4,359.6,158,359.6,157.6z"/>
</g>
<circle class="st5" cx="402.7" cy="157.4" r="3.2"/>
<circle class="st27" cx="402.6" cy="157.2" r="6.2"/>
<g id="Shape_4_copy_4_2_">
	<path class="st5" d="M402.9,145h-0.2c-0.5,0-0.8,0.4-0.8,0.8v2.6c0,0.5,0.4,0.8,0.8,0.8h0.2c0.5,0,0.8-0.4,0.8-0.8v-2.6
		C403.8,145.3,403.4,145,402.9,145z M402.9,165.7h-0.2c-0.5,0-0.8,0.4-0.8,0.8v2.6c0,0.5,0.4,0.8,0.8,0.8h0.2c0.5,0,0.8-0.4,0.8-0.8
		v-2.6C403.8,166.1,403.4,165.7,402.9,165.7z M409.9,151.2l1.8-1.8c0.3-0.3,0.3-0.9,0-1.2l-0.1-0.1c-0.3-0.3-0.9-0.3-1.2,0l-1.8,1.8
		c-0.3,0.3-0.3,0.9,0,1.2l0.1,0.1C409,151.5,409.6,151.5,409.9,151.2z M395.3,148.1c-0.3-0.3-0.9-0.3-1.2,0l-0.1,0.1
		c-0.3,0.3-0.3,0.9,0,1.2l1.8,1.8c0.3,0.3,0.9,0.3,1.2,0l0.1-0.1c0.3-0.3,0.3-0.9,0-1.2L395.3,148.1z M410.2,162.9
		c-0.3-0.3-0.9-0.3-1.2,0l-0.1,0.1c-0.3,0.3-0.3,0.9,0,1.2l1.8,1.8c0.3,0.3,0.9,0.3,1.2,0l0.1-0.1c0.3-0.3,0.3-0.9,0-1.2
		L410.2,162.9z M396.4,163.2c-0.3-0.3-0.9-0.3-1.2,0l-1.8,1.8c-0.3,0.3-0.3,0.9,0,1.2l0.1,0.1c0.3,0.3,0.9,0.3,1.2,0l1.8-1.8
		c0.3-0.3,0.3-0.9,0-1.2L396.4,163.2z M414.5,156.5H412c-0.5,0-0.8,0.4-0.8,0.8v0.2c0,0.5,0.4,0.8,0.8,0.8h2.6
		c0.5,0,0.8-0.4,0.8-0.8v-0.2C415.4,156.9,415,156.5,414.5,156.5z M394.6,157.6v-0.2c0-0.5-0.4-0.8-0.8-0.8h-2.6
		c-0.5,0-0.8,0.4-0.8,0.8v0.2c0,0.5,0.4,0.8,0.8,0.8h2.6C394.2,158.4,394.6,158,394.6,157.6z"/>
</g>
<g id="separator_2_">
	<polygon class="st28" points="57.2,52.8 60.3,50 60.4,48 58.3,48 55.4,51 52.4,48 50.4,48 50.4,50 53.6,52.8 50.4,56 50.4,57 
		52.4,57 55.4,54.4 58.4,57 60.3,57 60.4,56 	"/>
</g>
<rect x="0.5" y="52" class="st28" width="39.9" height="2"/>
<rect x="70.4" y="52" class="st28" width="39.9" height="2"/>
<g id="separator_3_">
	<polygon class="st29" points="57.2,17.8 60.3,15 60.4,13 58.3,13 55.4,16 52.4,13 50.4,13 50.4,15 53.6,17.8 50.4,21 50.4,22 
		52.4,22 55.4,19.4 58.4,22 60.3,22 60.4,21 	"/>
</g>
<rect x="0.5" y="17" class="st29" width="39.9" height="2"/>
<rect x="70.4" y="17" class="st29" width="39.9" height="2"/>
<rect x="35.1" y="35" class="st12" width="35.3" height="35"/>
<rect x="35.1" y="-5" class="st12" width="35.3" height="35"/>
<path class="st23" d="M1135.3,127c0.2,0,0.5-0.1,0.6-0.3l3.2-3.1c0.3-0.3,0.3-0.9,0-1.2l-3.2-3.1c-0.3-0.3-0.9-0.3-1.3,0
	c-0.3,0.3-0.4,0.9,0,1.2l2.6,2.5l-2.6,2.5c-0.3,0.3-0.3,0.9,0,1.2C1134.8,126.9,1135,127,1135.3,127z"/>
<path class="st7" d="M1135.3,92c0.2,0,0.5-0.1,0.6-0.3l3.2-3.1c0.3-0.3,0.3-0.9,0-1.2l-3.2-3.1c-0.3-0.3-0.9-0.3-1.3,0
	c-0.3,0.3-0.4,0.9,0,1.2l2.6,2.5l-2.6,2.5c-0.3,0.3-0.3,0.9,0,1.2C1134.8,91.9,1135,92,1135.3,92z"/>
<g id="_x201C_">
	<path class="st7" d="M66.4,79.3V76c-2.3,0.7-4.3,1.6-5.9,2.6c-1.6,1.1-3,2.2-4,3.5s-1.8,2.7-2.2,4.3c-0.5,1.5-0.7,3.1-0.7,4.8
		c0,1.1,0.2,2.1,0.5,2.9s0.8,1.6,1.3,2.1c0.5,0.6,1.2,1,1.9,1.3s1.5,0.4,2.3,0.4c1.5,0,2.7-0.4,3.6-1.2c1-0.8,1.5-1.9,1.5-3.4
		c0-0.8-0.1-1.4-0.4-2c-0.3-0.5-0.6-1-1.1-1.3c-0.4-0.4-0.9-0.7-1.4-0.9c-0.5-0.3-1-0.5-1.4-0.8s-0.8-0.6-1.1-0.9s-0.4-0.8-0.4-1.3
		c0-1.5,0.6-2.9,1.8-4C62,81.1,63.8,80.1,66.4,79.3z M42.3,82.2c-1,1.3-1.8,2.7-2.2,4.3c-0.5,1.5-0.7,3.1-0.7,4.8
		c0,1.1,0.2,2.1,0.5,2.9s0.8,1.6,1.3,2.1c0.6,0.6,1.2,1,1.9,1.3s1.5,0.4,2.3,0.4c1.5,0,2.7-0.4,3.7-1.2c1-0.8,1.5-1.9,1.5-3.4
		c0-0.8-0.1-1.4-0.4-2c-0.3-0.5-0.6-1-1.1-1.3c-0.4-0.4-0.9-0.7-1.4-0.9c-0.5-0.3-0.9-0.5-1.4-0.8c-0.4-0.3-0.8-0.6-1.1-0.9
		s-0.4-0.8-0.4-1.3c0-1.5,0.6-2.9,1.8-4c1.2-1.2,3.1-2.2,5.7-3V76c-2.3,0.7-4.3,1.6-5.9,2.6C44.7,79.7,43.3,80.9,42.3,82.2z"/>
</g>
<g id="Ellipse_2_12_">
	<path class="st30" d="M87.9,79c4.7,0,8.5,3.8,8.5,8.5S92.6,96,87.9,96s-8.5-3.8-8.5-8.5S83.2,79,87.9,79 M87.9,78
		c-5.2,0-9.5,4.3-9.5,9.5s4.3,9.5,9.5,9.5s9.5-4.3,9.5-9.5S93.1,78,87.9,78L87.9,78z"/>
</g>
<g id="Ellipse_2_2_">
	<path class="st10" d="M122.9,80c4.1,0,7.5,3.4,7.5,7.5S127,95,122.9,95s-7.5-3.4-7.5-7.5C115.4,83.4,118.7,80,122.9,80 M122.9,78
		c-5.2,0-9.5,4.3-9.5,9.5s4.3,9.5,9.5,9.5c5.2,0,9.5-4.3,9.5-9.5S128.1,78,122.9,78L122.9,78z"/>
</g>
<g id="Ellipse_2_4_">
	<path class="st10" d="M157.9,80c4.1,0,7.5,3.4,7.5,7.5S162,95,157.9,95s-7.5-3.4-7.5-7.5S153.7,80,157.9,80 M157.9,78
		c-5.2,0-9.5,4.3-9.5,9.5s4.3,9.5,9.5,9.5s9.5-4.3,9.5-9.5S163.1,78,157.9,78L157.9,78z"/>
</g>
<g id="Ellipse_3">
	<circle class="st4" cx="157.9" cy="87.5" r="3.5"/>
</g>
<g id="Shape_120">
	<path class="st5" d="M228.7,84.8c0-0.5,0-0.8,0-1c0,0,0,0,0-0.1c0-0.7,0.1-1.2,1-1.2c0.8,0,1.6,0,1.6,0l0.1-2.5
		c0,0-0.7-0.1-1.7-0.1c-2.4,0-3.5,1.6-3.5,3.4c0,1.2,0,1.4,0,1.4h-1.8v2.6h1.8V94h2.6v-6.5h2.5l0.1-2.6L228.7,84.8L228.7,84.8z"/>
</g>
<g id="Shape_59_2_">
	<path class="st5" d="M270.4,82.5c-0.6,0.3-1.1,0.4-1.8,0.5c0.6-0.4,1.1-1,1.4-1.8c-0.6,0.4-1.3,0.6-2,0.8c-0.6-0.6-1.4-1-2.2-1
		c-1.7,0-3.1,1.5-3.1,3.3c0,0.3,0,0.5,0.1,0.7c-2.6-0.1-4.8-1.4-6.3-3.4c-0.3,0.5-0.4,1-0.4,1.6c0,1.1,0.5,2.1,1.4,2.7
		c-0.5,0-1-0.2-1.4-0.4l0,0c0,1.6,1.1,2.9,2.5,3.2c-0.3,0.1-0.5,0.1-0.8,0.1c-0.2,0-0.4,0-0.6-0.1c0.4,1.3,1.5,2.3,2.9,2.3
		c-1.1,0.9-2.4,1.4-3.8,1.4c-0.2,0-0.5,0-0.7,0c1.4,0.9,3,1.5,4.7,1.5c5.7,0,8.8-5,8.8-9.3c0-0.1,0-0.3,0-0.4
		C269.4,83.8,270,83.2,270.4,82.5z"/>
</g>
<path class="st2" d="M297.4,80c-5,0-9,2.8-9,6.2c0,2.1,1.6,4,4,5.1V95l3.4-2.7h-0.1c0.6,0.1,1.1,0.1,1.7,0.1c5,0,9-2.8,9-6.2
	C306.4,82.7,302.3,80,297.4,80z"/>
<g>
	<path class="st2" d="M334.4,88.4l-1.3,1.1c-0.1,0-0.1,0.1-0.2,0.1s-0.1,0-0.2-0.1l-1.3-1.1l-5.5,4.6h13.9L334.4,88.4z"/>
	<polygon class="st2" points="325.4,83.3 325.4,92.7 330.9,88 	"/>
	<polygon class="st2" points="325.9,83 332.8,88.9 339.8,83 	"/>
	<polygon class="st2" points="334.8,88 340.3,92.7 340.3,83.3 	"/>
</g>
<path class="st2" d="M363.8,81h8.1v3h-8.1V81z M371.9,94h-8.1v-3.9h8.1V94z M374.4,90.7c0,0.4-0.4,0.8-0.8,0.8h-0.8v-2.3H363v2.3
	h-0.8c-0.4,0-0.8-0.4-0.8-0.8v-5.1c0-0.4,0.4-0.8,0.8-0.8h11.4c0.4,0,0.8,0.4,0.8,0.8V90.7z M371.8,86.9h0.8v-0.8h-0.8V86.9z"/>
<path class="st31" d="M413.5,103.1l-10.8-7.8l-10.8,7.8l4.1-12.6l-10.8-7.8h13.3l4.1-12.6l4.1,12.6H420l-10.8,7.8L413.5,103.1
	L413.5,103.1z M402.8,93.6l8.1,5.9l-3.1-9.5l8.1-5.9h-10l-3.1-9.5l-3.1,9.5h-10l8.1,5.9l-3.1,9.5L402.8,93.6L402.8,93.6z"/>
<path class="st10" d="M448.7,103L438,95.2l-10.8,7.8l4.1-12.6l-10.8-7.8h13.3l4.1-12.6l4.1,12.6h13.3l-10.8,7.8L448.7,103L448.7,103
	z M438,93.5l8.1,5.9l-3.1-9.5l8.1-5.9h-10l-3.1-9.5l-3.1,9.5h-10l8.1,5.9l-3.1,9.5L438,93.5L438,93.5z"/>
<path class="st10" d="M444.6,125.4l4.1,12.6l0,0l-10.8-7.8l-10.8,7.8l4.1-12.6l-10.8-7.8h13.3l4.1-12.6l4.1,12.6h13.3"/>
<polygon class="st32" points="475.9,80.5 475.5,80 468.9,87 469.4,87.5 469.4,87.5 475.5,94 475.9,93.6 469.8,87 "/>
<polygon class="st32" points="511.4,87 504.8,80 504.4,80.5 510.5,87 504.4,93.5 504.8,94 510.9,87.5 510.9,87.5 "/>
<polygon class="st5" points="546.4,80.5 545.9,80 539.4,87 539.8,87.5 539.8,87.5 545.9,94 546.4,93.6 540.3,87 "/>
<polygon class="st5" points="581.8,87 575.3,80 574.8,80.5 580.9,87 574.8,93.5 575.3,94 581.4,87.5 581.4,87.5 "/>
<path class="st33" d="M615,81h-2.2h-8.4v12h16v-6.7v-0.2V81H615z M605.7,91.6l3.8-4.9l0.6-0.2l3.5,3.7l1.9-1.1l2.9,2.5H605.7z"/>
<path class="st2" d="M755,81h-2.2h-8.4v12h16v-6.7v-0.2V81H755z M745.7,91.6l3.8-4.9l0.6-0.2l3.5,3.7l1.9-1.1l2.9,2.5H745.7z"/>
<g id="video_ikon">
	<path class="st34" d="M647.8,82H640c-0.9,0-1.6,0.7-1.6,1.6v6.8c0,0.9,0.7,1.6,1.6,1.6h7.8c0.9,0,1.6-0.7,1.6-1.6v-6.8
		C649.4,82.7,648.7,82,647.8,82z M650.4,85.1v4l4,2.7v-9.7L650.4,85.1z"/>
</g>
<g id="video_ikon_2_">
	<path class="st5" d="M787.8,82H780c-0.9,0-1.6,0.7-1.6,1.6v6.8c0,0.9,0.7,1.6,1.6,1.6h7.8c0.9,0,1.6-0.7,1.6-1.6v-6.8
		C789.4,82.7,788.7,82,787.8,82z M790.4,85.1v4l4,2.7v-9.7L790.4,85.1z"/>
</g>
<path class="st33" d="M682.4,80c-5,0-9,2.8-9,6.2c0,2.1,1.6,4,4,5.1V95l3.4-2.7h-0.1c0.6,0.1,1.1,0.1,1.7,0.1c5,0,9-2.8,9-6.2
	C691.4,82.7,687.3,80,682.4,80z"/>
<path class="st2" d="M822.4,80c-5,0-9,2.8-9,6.2c0,2.1,1.6,4,4,5.1V95l3.4-2.7h-0.1c0.6,0.1,1.1,0.1,1.7,0.1c5,0,9-2.8,9-6.2
	C831.4,82.8,827.3,80,822.4,80z"/>
<path class="st33" d="M716.9,95c-4.1,0-7.5-3.4-7.5-7.5s3.4-7.5,7.5-7.5s7.5,3.4,7.5,7.5S721,95,716.9,95z M716.9,81
	c-3.6,0-6.5,2.9-6.5,6.5s2.9,6.5,6.5,6.5s6.5-2.9,6.5-6.5S720.5,81,716.9,81z M711.4,87.5c0-3,2.5-5.5,5.5-5.5c0,0.8,0,3.1,0,5.5
	h5.5c0,3-2.5,5.5-5.5,5.5S711.4,90.5,711.4,87.5z"/>
<path class="st2" d="M856.9,95c-4.1,0-7.5-3.4-7.5-7.5s3.4-7.5,7.5-7.5s7.5,3.4,7.5,7.5S861,95,856.9,95z M856.9,81
	c-3.6,0-6.5,2.9-6.5,6.5s2.9,6.5,6.5,6.5s6.5-2.9,6.5-6.5S860.5,81,856.9,81z M851.4,87.5c0-3,2.5-5.5,5.5-5.5c0,0.8,0,3.1,0,5.5
	h5.5c0,3-2.5,5.5-5.5,5.5S851.4,90.5,851.4,87.5z"/>
<g id="Shape_120_2_">
	<path class="st5" d="M893,85.2c0-1.3,0-1.9,0-2.1c0,0,0,0,0-0.1c0-0.9,0.2-1.4,1.3-1.4c1,0,2,0,2,0l0.1-2.9c0,0-0.9-0.1-2.2-0.1
		c-3.1,0-4.5,1.9-4.5,4c0,1.4,0,2.7,0,2.7h-2.3v3.1h2.3V97h3.3v-8.7h3.2l0.1-3.1C896.3,85.2,893,85.2,893,85.2z"/>
</g>
<g id="Shape_59">
	<path class="st5" d="M935.9,82.2c-0.6,0.3-1.3,0.5-2.1,0.6c0.7-0.5,1.3-1.2,1.6-2c-0.7,0.4-1.5,0.7-2.3,0.9
		c-0.7-0.7-1.6-1.2-2.6-1.2c-2,0-3.6,1.6-3.6,3.7c0,0.3,0,0.6,0.1,0.8c-3-0.2-5.6-1.6-7.4-3.8c-0.3,0.5-0.5,1.2-0.5,1.8
		c0,1.3,0.6,2.4,1.6,3c-0.6,0-1.1-0.2-1.6-0.5l0,0c0,1.8,1.2,3.3,2.9,3.6c-0.3,0.1-0.6,0.1-0.9,0.1c-0.2,0-0.5,0-0.7-0.1
		c0.5,1.5,1.8,2.5,3.4,2.5c-1.2,1-2.8,1.6-4.5,1.6c-0.3,0-0.6,0-0.9-0.1c1.6,1,3.5,1.6,5.5,1.6c6.6,0,10.2-5.6,10.2-10.4
		c0-0.2,0-0.3,0-0.5C934.8,83.6,935.4,82.9,935.9,82.2z"/>
</g>
<g>
	<path class="st2" d="M964.3,87.5l-1.6,1.4c-0.1,0.1-0.1,0.1-0.2,0.1c-0.1,0-0.2,0-0.2-0.1l-1.6-1.4l-6.5,5.5h16.7L964.3,87.5z"/>
	<polygon class="st2" points="953.5,81.4 953.5,92.6 960,87 	"/>
	<polygon class="st2" points="954.1,81 962.4,88.1 970.8,81 	"/>
	<polygon class="st2" points="964.8,87 971.4,92.6 971.4,81.4 	"/>
</g>
<path id="XMLID_41_" class="st2" d="M990,90.6c0.7-0.4,1.4-0.7,2.2-0.8c0.8-0.1,1.4-0.2,1.9-0.2c-0.2-0.2-0.3-0.4-0.4-0.6
	c-0.1-0.2-0.2-0.5-0.2-0.8c0-0.2,0-0.3,0.1-0.5c0-0.1,0.1-0.3,0.1-0.4c-0.2,0-0.5,0-0.7,0c-1.1,0-2-0.4-2.6-1.1s-0.9-1.4-0.9-2.3
	c0-1,0.4-2,1.3-2.8c0.6-0.5,1.2-0.8,1.9-1c0.7-0.1,1.3-0.2,1.8-0.2h4.3l-1.3,0.8h-1.3c0.1,0.1,0.3,0.2,0.5,0.4
	c0.2,0.2,0.3,0.4,0.5,0.6c0.1,0.2,0.3,0.5,0.4,0.8c0.1,0.3,0.1,0.7,0.1,1.1c0,0.8-0.2,1.4-0.5,1.8c-0.2,0.2-0.3,0.4-0.5,0.6
	s-0.4,0.4-0.6,0.6c-0.1,0.1-0.2,0.3-0.4,0.4c-0.1,0.2-0.2,0.4-0.2,0.6s0.1,0.4,0.2,0.6c0.1,0.1,0.2,0.3,0.3,0.4l0.7,0.6
	c0.5,0.4,0.8,0.8,1.2,1.2c0.3,0.4,0.5,1,0.5,1.8c0,1-0.5,1.9-1.4,2.7c-1,0.8-2.3,1.2-4.1,1.3c-1.5,0-2.6-0.3-3.4-1
	c-0.7-0.6-1.1-1.3-1.1-2.1c0-0.4,0.1-0.8,0.4-1.3C989,91.4,989.4,90.9,990,90.6z M995.8,85.3c0-0.3,0-0.5,0-0.7
	c0-0.8-0.2-1.7-0.7-2.5c-0.2-0.4-0.5-0.7-0.8-1c-0.3-0.2-0.7-0.4-1.2-0.4c-0.6,0-1.1,0.2-1.5,0.7c-0.3,0.5-0.5,1-0.5,1.6
	c0,0.8,0.2,1.6,0.7,2.4c0.2,0.4,0.5,0.7,0.9,1s0.7,0.4,1.2,0.4c0.6,0,1-0.2,1.4-0.6C995.6,85.9,995.7,85.6,995.8,85.3z M991.2,94.6
	c0.7,0.5,1.5,0.7,2.7,0.7c1,0,1.8-0.2,2.3-0.7c0.5-0.4,0.8-1,0.8-1.6c0-0.5-0.2-1-0.5-1.4c-0.4-0.4-1-0.8-1.8-1.4
	c-0.1,0-0.3,0-0.5,0c-0.1,0-0.4,0-0.8,0c-0.4,0.1-0.9,0.2-1.4,0.3c-0.1,0-0.3,0.1-0.5,0.2s-0.4,0.2-0.6,0.4
	c-0.2,0.2-0.4,0.4-0.5,0.6c-0.2,0.3-0.2,0.6-0.2,1C990.2,93.5,990.5,94.1,991.2,94.6z M1005.4,87.8h-2.3V90h-1.1v-2.2h-2.3v-1.1h2.3
	v-2.2h1.1v2.2h2.3V87.8z"/>
<path class="st2" d="M1032.3,91.8c0.1,0.3,0.3,0.6,0.7,0.7c0.4,0.3,0.9,0.4,1.5,0.4c1,0,2-0.3,2.9-0.9v3c-0.8,0.4-1.6,0.7-2.3,0.8
	c-0.7,0.2-1.4,0.2-2.2,0.2c-0.9,0-1.7-0.1-2.4-0.3c-0.7-0.2-1.3-0.5-1.8-0.9s-0.8-0.8-1-1.3s-0.3-1.1-0.3-2v-6.7h-2.2v-2.7
	c0.8-0.2,1.4-0.6,2-1s1-1,1.3-1.6s0.6-1.4,0.7-2.4h2.8v4.8h4.6v3h-4.6v4.9C1032.1,90.8,1032.2,91.5,1032.3,91.8z"/>
<g>
	<circle class="st7" cx="1060.4" cy="88" r="2"/>
	<circle class="st7" cx="1067.4" cy="88" r="2"/>
	<circle class="st7" cx="1074.4" cy="88" r="2"/>
</g>
<g>
	<circle class="st23" cx="1060.4" cy="123" r="2"/>
	<circle class="st23" cx="1067.4" cy="123" r="2"/>
	<circle class="st23" cx="1074.4" cy="123" r="2"/>
</g>
<path class="st2" d="M1118.4,70h-31c-1.1,0-2,0.9-2,2v31c0,1.1,0.9,2,2,2h31c1.1,0,2-0.9,2-2V72C1120.4,70.9,1119.5,70,1118.4,70z
	 M1115.1,89.6h-4.8v12.9h-4.9V89.6h-3.4V85h3.4c0,0,0-1.9,0-4c0-3.1,2-6,6.6-6c1.9,0,3.3,0.2,3.3,0.2l-0.1,4.3c0,0-1.4,0-3,0
	c-1.7,0-1.9,0.8-1.9,2c0,0.2,0,0.2,0,0.2c0,0.3,0,1.2,0,3.2h5L1115.1,89.6z"/>
<path class="st35" d="M12.4,160h11c0.6,0,1,0.4,1,1s-0.4,1-1,1h-11c-0.6,0-1-0.4-1-1S11.8,160,12.4,160z"/>
<path class="st35" d="M12.4,156h11c0.6,0,1,0.4,1,1s-0.4,1-1,1h-11c-0.6,0-1-0.4-1-1S11.8,156,12.4,156z"/>
<path class="st35" d="M12.4,152h11c0.6,0,1,0.4,1,1s-0.4,1-1,1h-11c-0.6,0-1-0.4-1-1S11.8,152,12.4,152z"/>
<path class="st36" d="M47.4,160h11c0.6,0,1,0.4,1,1s-0.4,1-1,1h-11c-0.6,0-1-0.4-1-1S46.8,160,47.4,160z"/>
<path class="st36" d="M47.4,156h11c0.6,0,1,0.4,1,1s-0.4,1-1,1h-11c-0.6,0-1-0.4-1-1S46.8,156,47.4,156z"/>
<path class="st36" d="M47.4,152h11c0.6,0,1,0.4,1,1s-0.4,1-1,1h-11c-0.6,0-1-0.4-1-1S46.8,152,47.4,152z"/>
<g id="Keresés_ikon_3_">
	<path class="st37" d="M88.9,150.9c1.5,0,2.8,0.6,3.9,1.6c2.1,2.2,2.1,5.8,0,8c-1,1.1-2.4,1.6-3.8,1.6s-2.7-0.5-3.7-1.5l-0.3-0.3
		l-0.2-0.3c-1.8-2.2-1.6-5.5,0.4-7.5C86.1,151.5,87.5,150.9,88.9,150.9 M88.9,149.9c-1.7,0-3.3,0.6-4.6,1.9
		c-2.4,2.4-2.5,6.2-0.5,8.9l-4.6,4.6L80,166l4.6-4.6c1.2,1.2,2.8,1.7,4.4,1.7c1.7,0,3.3-0.6,4.6-1.9c2.5-2.6,2.5-6.8,0-9.4
		C92.2,150.5,90.6,149.9,88.9,149.9L88.9,149.9z"/>
</g>
<path class="st25" d="M444.4,147h-13c-1.1,0-2,0.9-2,2v16c0,1.1,0.9,2,2,2h13c1.1,0,2-0.9,2-2v-16C446.4,147.9,445.5,147,444.4,147z
	 M433.4,164h-2v-2h2V164z M433.4,160h-2v-2h2V160z M433.4,156h-2v-2h2V156z M433.4,152h-2v-2h2V152z M444.4,164h-2v-2h2V164z
	 M444.4,160h-2v-2h2V160z M444.4,156h-2v-2h2V156z M444.4,152h-2v-2h2V152z"/>
<path class="st5" d="M479.4,147h-13c-1.1,0-2,0.9-2,2v16c0,1.1,0.9,2,2,2h13c1.1,0,2-0.9,2-2v-16C481.4,147.9,480.5,147,479.4,147z
	 M468.4,164h-2v-2h2V164z M468.4,160h-2v-2h2V160z M468.4,156h-2v-2h2V156z M468.4,152h-2v-2h2V152z M479.4,164h-2v-2h2V164z
	 M479.4,160h-2v-2h2V160z M479.4,156h-2v-2h2V156z M479.4,152h-2v-2h2V152z"/>
<path class="st6" d="M18.4,84c1.7,0,3,1.3,3,3s-1.3,3-3,3s-3-1.3-3-3S16.7,84,18.4,84 M18.4,82c-2.8,0-5,2.2-5,5s2.2,5,5,5
	s5-2.2,5-5S21.1,82,18.4,82L18.4,82z"/>
<g>
	<path class="st2" d="M197.4,85v4v5h-13v-9h4H197.4 M199.4,83c-3.7,0-7.3,0-11,0c-2,0-4,0-6,0v13h17c0-2.3,0-4.7,0-7
		C199.4,87,199.4,85,199.4,83L199.4,83z"/>
	<g id="Shape_115_4_">
		<polygon class="st5" points="194.4,87.1 190.2,90.7 188,89.2 183.8,92.8 183.4,93.6 183.4,95 198.2,95 198.2,89.9 		"/>
	</g>
	<polyline class="st38" points="199.4,90 202.4,90 202.4,79 187.4,79 187.4,83 	"/>
	<path class="st38" d="M187.4,79v4V79z"/>
</g>
<g id="Shape_120_5_">
	<path class="st5" d="M404.5,225.4c0-0.7,0-1.1,0-1.2c0,0,0,0,0-0.1c0-0.5,0.1-0.8,0.7-0.8s1.1,0,1.1,0v-1.6c0,0-0.5-0.1-1.2-0.1
		c-1.7,0-2.5,1.1-2.5,2.2c0,0.8,0,1.5,0,1.5h-1.3v1.7h1.3v4.8h1.8V227h1.8l0.1-1.7h-1.8V225.4z"/>
</g>
<g id="Shape_59_5_">
	<path class="st5" d="M443.7,224.4c-0.3,0.2-0.7,0.3-1.1,0.3c0.4-0.2,0.7-0.6,0.8-1.1c-0.4,0.2-0.8,0.4-1.2,0.5
		c-0.3-0.4-0.8-0.6-1.4-0.6c-1,0-1.9,0.9-1.9,1.9c0,0.2,0,0.3,0,0.4c-1.6-0.1-2.9-0.8-3.9-2c-0.2,0.3-0.3,0.6-0.3,1
		c0,0.7,0.3,1.3,0.8,1.6c-0.3,0-0.6-0.1-0.8-0.2l0,0c0,0.9,0.6,1.7,1.5,1.9c-0.2,0-0.3,0.1-0.5,0.1c-0.1,0-0.2,0-0.4,0
		c0.2,0.8,0.9,1.3,1.8,1.3c-0.6,0.5-1.5,0.8-2.3,0.8c-0.2,0-0.3,0-0.4,0c0.8,0.5,1.8,0.9,2.9,0.9c3.4,0,5.3-2.9,5.3-5.4
		c0-0.1,0-0.2,0-0.2C443.1,225.1,443.4,224.7,443.7,224.4z"/>
</g>
<path id="XMLID_1_" class="st2" d="M469.5,229.1c0.5-0.3,1-0.5,1.5-0.5c0.5-0.1,1-0.1,1.3-0.1c-0.1-0.1-0.2-0.3-0.3-0.4
	c-0.1-0.2-0.1-0.3-0.1-0.6c0-0.1,0-0.2,0.1-0.3c0-0.1,0.1-0.2,0.1-0.3c-0.2,0-0.3,0-0.5,0c-0.8,0-1.4-0.3-1.8-0.7s-0.7-1-0.7-1.6
	c0-0.7,0.3-1.4,0.9-2c0.4-0.3,0.9-0.6,1.3-0.7c0.5-0.1,0.9-0.1,1.3-0.1h3l-0.9,0.5h-0.9c0.1,0.1,0.2,0.1,0.3,0.3
	c0.1,0.1,0.2,0.3,0.3,0.4c0.1,0.2,0.2,0.3,0.3,0.6c0.1,0.2,0.1,0.5,0.1,0.8c0,0.5-0.1,0.9-0.4,1.3c-0.1,0.2-0.2,0.3-0.4,0.4
	c-0.1,0.1-0.3,0.3-0.4,0.4c-0.1,0.1-0.2,0.2-0.2,0.3c-0.1,0.1-0.1,0.3-0.1,0.4c0,0.2,0,0.3,0.1,0.4c0.1,0.1,0.2,0.2,0.2,0.3l0.5,0.4
	c0.3,0.3,0.6,0.5,0.8,0.8c0.2,0.3,0.3,0.7,0.3,1.2c0,0.7-0.3,1.3-1,1.9c-0.7,0.6-1.6,0.9-2.9,0.9c-1,0-1.8-0.2-2.3-0.7
	c-0.5-0.4-0.8-0.9-0.8-1.4c0-0.3,0.1-0.6,0.3-0.9C468.8,229.7,469.1,229.4,469.5,229.1z M473.5,225.5c0-0.2,0-0.4,0-0.5
	c0-0.6-0.1-1.2-0.4-1.8c-0.1-0.3-0.3-0.5-0.6-0.7c-0.2-0.2-0.5-0.3-0.8-0.3c-0.4,0-0.7,0.2-1,0.5c-0.2,0.3-0.3,0.7-0.3,1.1
	c0,0.5,0.2,1.1,0.5,1.7c0.2,0.3,0.3,0.5,0.6,0.7c0.2,0.2,0.5,0.3,0.8,0.3c0.4,0,0.7-0.2,1-0.4C473.4,225.9,473.4,225.7,473.5,225.5z
	 M470.3,231.9c0.4,0.3,1.1,0.5,1.8,0.5c0.7,0,1.2-0.2,1.6-0.5s0.5-0.7,0.5-1.1c0-0.4-0.1-0.7-0.4-1s-0.7-0.6-1.2-1
	c-0.1,0-0.2,0-0.3,0c-0.1,0-0.3,0-0.6,0c-0.3,0-0.6,0.1-0.9,0.2c-0.1,0-0.2,0.1-0.3,0.1c-0.1,0.1-0.3,0.2-0.4,0.3s-0.3,0.3-0.3,0.4
	c-0.1,0.2-0.2,0.4-0.2,0.7C469.6,231.1,469.9,231.5,470.3,231.9z M480.1,227.2h-1.6v1.5h-0.8v-1.5h-1.6v-0.8h1.6v-1.5h0.8v1.5h1.6
	V227.2z"/>
<path class="st2" d="M503.5,225.3h2.1v6.7h-2.1V225.3z M504.6,222c0.7,0,1.2,0.5,1.2,1.2s-0.5,1.2-1.2,1.2s-1.2-0.5-1.2-1.2
	S503.9,222,504.6,222"/>
<path class="st2" d="M507.4,225.3h2v0.9l0,0c0.3-0.5,1-1.1,2-1.1c2.1,0,2.5,1.4,2.5,3.2v3.7h-2.1v-3.2c0-0.8,0-1.8-1.1-1.8
	s-1.2,0.8-1.2,1.7v3.3h-2.1V225.3L507.4,225.3z"/>
<polygon class="st2" points="642.4,235 642.4,219 653.4,227 "/>
<g>
	<path class="st2" d="M689.9,222.6c-0.5-0.5-1.3-0.6-1.8-0.1s-0.6,1.3-0.1,1.8c1.2,1.3,1.8,3,1.8,4.8c0,4-3.3,7.3-7.4,7.3
		s-7.4-3.3-7.4-7.3c0-3.6,2.7-6.6,6.2-7.2l-1.5,1.5c-0.5,0.5-0.5,1.3,0,1.8c0.3,0.2,0.6,0.4,0.9,0.4c0.3,0,0.7-0.1,0.9-0.4l3.6-3.5
		c0.5-0.5,0.5-1.3,0-1.8l-3.6-3.5c-0.5-0.5-1.3-0.5-1.8,0s-0.5,1.3,0,1.8l1.3,1.3c-4.9,0.7-8.6,4.8-8.6,9.7c0,5.4,4.5,9.8,10,9.8
		s10-4.4,10-9.8C692.4,226.6,691.5,224.3,689.9,222.6z"/>
</g>
<path class="st39" d="M160,234c-0.3,0-0.6-0.1-0.8-0.4l-5.6-5.8c-0.5-0.5-0.5-1.2,0-1.7l5.6-5.8c0.5-0.5,1.2-0.5,1.7,0
	s0.5,1.2,0,1.7l-4.8,5l4.8,5c0.5,0.5,0.5,1.2,0,1.7C160.6,233.9,160.3,234,160,234z"/>
<path class="st39" d="M189.6,234.1c0.3,0,0.6-0.1,0.8-0.4l5.6-5.8c0.5-0.5,0.5-1.2,0-1.7l-5.6-5.8c-0.5-0.5-1.2-0.5-1.7,0
	s-0.5,1.2,0,1.7l4.8,5l-4.8,5c-0.5,0.5-0.5,1.2,0,1.7C189,233.9,189.3,234.1,189.6,234.1z"/>
<g>
	<polygon class="st5" points="750.4,237 752.4,237 752.4,228 751.4,228 750.4,228 743.4,228 743.4,230 750.4,230 	"/>
	<polygon class="st5" points="755.4,227 762.4,227 762.4,225 755.4,225 755.4,218 753.4,218 753.4,225 753.4,227 	"/>
</g>
<path class="st2" d="M63.6,280H42.1c-3.7,0-6.7,3-6.7,6.7v7.2v14.4c0,3.7,3,6.7,6.7,6.7h21.5c3.7,0,6.7-3,6.7-6.7v-14.4v-7.2
	C70.4,283,67.4,280,63.6,280z M65.6,284h0.7v0.7v5.2h-6v-6L65.6,284L65.6,284z M47.9,293.9c1-1.5,3-2.5,4.9-2.5s3.9,1,4.9,2.5
	c0.7,1,1.2,2.2,1.2,3.6c0,3.4-2.8,6.1-6.1,6.1s-6.1-2.7-6.1-6.1C46.7,296.2,47.2,295,47.9,293.9z M66.9,308.3c0,1.8-1.5,3.3-3.3,3.3
	H42.1c-1.8,0-3.3-1.5-3.3-3.3v-14.4H44c-0.4,1-0.7,2.4-0.7,3.6c0,5.2,4.3,9.6,9.6,9.6s9.6-4.3,9.6-9.6c0-1.2-0.3-2.5-0.7-3.6H67
	L66.9,308.3L66.9,308.3z"/>
<path class="st40" d="M1170.3,127c0.2,0,0.5-0.1,0.6-0.3l3.2-3.1c0.3-0.3,0.3-0.9,0-1.2l-3.2-3.1c-0.3-0.3-0.9-0.3-1.3,0
	c-0.3,0.3-0.4,0.9,0,1.2l2.6,2.5l-2.6,2.5c-0.3,0.3-0.3,0.9,0,1.2C1169.8,126.9,1170,127,1170.3,127z"/>
<path class="st5" d="M1205.3,127c0.2,0,0.5-0.1,0.6-0.3l3.2-3.1c0.3-0.3,0.3-0.9,0-1.2l-3.2-3.1c-0.3-0.3-0.9-0.3-1.3,0
	c-0.3,0.3-0.4,0.9,0,1.2l2.6,2.5l-2.6,2.5c-0.3,0.3-0.3,0.9,0,1.2C1204.8,126.9,1205,127,1205.3,127z"/>
<polygon class="st41" points="21.4,334.8 16.9,330 12.4,334.8 13.5,336 16.9,332.4 20.3,336 "/>
<polygon class="st42" points="56.4,331.2 51.9,336 47.4,331.2 48.5,330 51.9,333.6 55.3,330 "/>
<rect x="76.4" y="286" class="st43" width="23" height="23"/>
<g>
	<path class="st12" d="M93.6,295.9c-0.4,0-0.6,0.2-0.8,0.5c-0.2,0.3-0.3,0.8-0.3,1.4c0,0.5,0.1,1,0.3,1.3c0.2,0.3,0.4,0.4,0.8,0.4
		c0.2,0,0.4,0,0.6-0.1s0.3-0.2,0.4-0.3v-2.7c-0.1-0.2-0.2-0.3-0.4-0.4C94,295.9,93.8,295.9,93.6,295.9z"/>
	<path class="st2" d="M79,291.7v9.2h2v-4.6c0.1-0.1,0.2-0.2,0.4-0.3s0.4-0.1,0.6-0.1c0.3,0,0.4,0.1,0.6,0.3c0.1,0.2,0.2,0.5,0.2,1
		v3.6h2v-3.7c0-1-0.2-1.7-0.6-2.1c-0.4-0.5-0.9-0.7-1.6-0.7c-0.3,0-0.6,0-0.9,0.2c-0.3,0.1-0.5,0.3-0.7,0.5v-3.4h-2V291.7z"/>
	<polygon class="st2" points="88.8,300.9 90.8,294.5 88.8,294.5 87.8,298.7 87.7,298.7 86.7,294.5 84.7,294.5 86.7,300.9 	"/>
	<path class="st2" d="M94.5,295.1c-0.1-0.2-0.4-0.4-0.5-0.5c-0.2-0.1-0.6-0.2-0.9-0.2c-0.8,0-1.4,0.3-1.8,0.9s-0.7,1.5-0.7,2.5
		s0.2,1.8,0.6,2.4s1,0.9,1.8,0.9c0.3,0,0.6-0.1,0.8-0.2c0.2-0.1,0.4-0.3,0.6-0.5v0.5c0,0.4-0.1,0.6-0.3,0.8
		c-0.2,0.2-0.5,0.3-0.9,0.3c-0.3,0-0.6,0-0.9-0.1s-0.5-0.1-0.7-0.2l-0.5,1.4c0.3,0.2,0.7,0.3,1,0.4c0.4,0.1,0.7,0.1,1,0.1
		c1,0,1.8-0.2,2.4-0.7s0.8-1.1,0.8-2v-6.3h-1.9L94.5,295.1z M94.5,299c-0.1,0.1-0.2,0.2-0.4,0.3c-0.2,0.1-0.3,0.1-0.6,0.1
		c-0.4,0-0.6-0.2-0.8-0.4c-0.2-0.3-0.3-0.8-0.3-1.3s0.1-1,0.3-1.4c0.2-0.3,0.4-0.5,0.8-0.5c0.2,0,0.4,0,0.5,0.1
		c0.2,0.1,0.3,0.2,0.4,0.4L94.5,299L94.5,299z"/>
</g>
<polygon class="st4" points="50.2,355 55,359.5 50.2,364 49,362.9 52.6,359.5 49,356.1 "/>
<polygon class="st44" points="16.2,355 21,359.5 16.2,364 15,362.9 18.6,359.5 15,356.1 "/>
<path class="st44" d="M80.8,364c0.2,0,0.4-0.1,0.5-0.3l3.6-3.7c0.3-0.3,0.3-0.8,0-1.1l-3.6-3.7c-0.3-0.3-0.8-0.3-1.1,0
	c-0.3,0.3-0.3,0.8,0,1.1l3.1,3.2l-3.1,3.2c-0.3,0.3-0.3,0.8,0,1.1C80.4,363.9,80.6,364,80.8,364z"/>
<path class="st4" d="M109.8,364c0.2,0,0.4-0.1,0.5-0.3l3.6-3.7c0.3-0.3,0.3-0.8,0-1.1l-3.6-3.7c-0.3-0.3-0.8-0.3-1.1,0
	c-0.3,0.3-0.3,0.8,0,1.1l3.1,3.2l-3.1,3.2c-0.3,0.3-0.3,0.8,0,1.1C109.4,363.9,109.6,364,109.8,364z"/>
</svg>
